<svg xmlns="http://www.w3.org/2000/svg" xmlns:xlink="http://www.w3.org/1999/xlink" width="525" height="340.707" viewBox="0 0 525 340.707">
  <defs>
    <clipPath id="clip-path">
      <rect id="BG" width="525" height="340.708" transform="translate(0 0)" fill="#e8e8e8" opacity="0.949"/>
    </clipPath>
  </defs>
  <g id="Grupo_911178" data-name="Grupo 911178" transform="translate(9869.267 17940.332)">
    <g id="Enmascarar_grupo_201" data-name="Enmascarar grupo 201" transform="translate(-9869.267 -17940.332)" clip-path="url(#clip-path)">
      <path id="coding-man" d="M541.667,0H0V441.99H541.667Z" transform="translate(-6.667 -64.16)" fill="#f3f9ff"/>
      <g id="Grupo_911105" data-name="Grupo 911105" transform="translate(-85.212 88.01)">
        <g id="Grupo_911082" data-name="Grupo 911082" transform="translate(90.892 111.078)">
          <g id="Grupo_911081" data-name="Grupo 911081" transform="translate(0 0)">
            <path id="Trazado_636637" data-name="Trazado 636637" d="M.4,4.038l4.038.4L4.038.4,0,0Z" transform="matrix(-0.707, -0.707, 0.707, -0.707, 113.638, 6.282)" fill="#fff"/>
            <path id="Trazado_636638" data-name="Trazado 636638" d="M.383,3.833l3.833.383L3.833.383,0,0Z" transform="translate(103.44 18.585) rotate(-135.001)" fill="#fff"/>
            <path id="Trazado_636639" data-name="Trazado 636639" d="M.363,3.627,3.99,3.99,3.627.363,0,0Z" transform="translate(93.242 30.889) rotate(-135.001)" fill="#fff"/>
            <path id="Trazado_636640" data-name="Trazado 636640" d="M.342,3.421l3.421.342L3.421.342,0,0Z" transform="translate(83.043 43.192) rotate(-135.001)" fill="#fff"/>
            <path id="Trazado_636641" data-name="Trazado 636641" d="M.321,3.216l3.216.321L3.216.321,0,0Z" transform="matrix(-0.707, -0.707, 0.707, -0.707, 72.845, 55.496)" fill="#fff"/>
            <path id="Trazado_636642" data-name="Trazado 636642" d="M.3,3.01l3.01.3L3.01.3,0,0Z" transform="translate(62.646 67.799) rotate(-135)" fill="#fff"/>
            <path id="Trazado_636643" data-name="Trazado 636643" d="M.28,2.8l2.8.28L2.8.28,0,0Z" transform="translate(52.448 80.102) rotate(-135)" fill="#fff"/>
            <path id="Trazado_636644" data-name="Trazado 636644" d="M.26,2.6l2.6.26L2.6.26,0,0Z" transform="translate(42.25 92.406) rotate(-135)" fill="#fff"/>
            <path id="Trazado_636645" data-name="Trazado 636645" d="M.239,2.393l2.393.239L2.393.239,0,0Z" transform="translate(32.051 104.709) rotate(-135)" fill="#fff"/>
            <path id="Trazado_636646" data-name="Trazado 636646" d="M.219,2.188l2.188.219L2.188.219,0,0Z" transform="translate(21.853 117.013) rotate(-135)" fill="#fff"/>
            <path id="Trazado_636647" data-name="Trazado 636647" d="M.2,1.982l1.982.2L1.982.2,0,0Z" transform="translate(11.654 129.316) rotate(-135)" fill="#fff"/>
            <path id="Trazado_636648" data-name="Trazado 636648" d="M.178,1.776l1.776.178L1.776.178,0,0Z" transform="translate(1.456 141.62) rotate(-135)" fill="#fff"/>
          </g>
        </g>
        <g id="Grupo_911084" data-name="Grupo 911084" transform="translate(82.629 100.98)">
          <g id="Grupo_911083" data-name="Grupo 911083" transform="translate(0 0)">
            <path id="Trazado_636649" data-name="Trazado 636649" d="M.4,4.038l4.038.4L4.038.4,0,0Z" transform="translate(113.638 6.282) rotate(-135)" fill="#fff"/>
            <path id="Trazado_636650" data-name="Trazado 636650" d="M.383,3.833l3.833.383L3.833.383,0,0Z" transform="translate(103.44 18.585) rotate(-135.001)" fill="#fff"/>
            <path id="Trazado_636651" data-name="Trazado 636651" d="M.363,3.627,3.99,3.99,3.627.363,0,0Z" transform="translate(93.242 30.889) rotate(-135)" fill="#fff"/>
            <path id="Trazado_636652" data-name="Trazado 636652" d="M.342,3.421l3.421.342L3.421.342,0,0Z" transform="translate(83.043 43.192) rotate(-135)" fill="#fff"/>
            <path id="Trazado_636653" data-name="Trazado 636653" d="M.321,3.216l3.216.321L3.216.321,0,0Z" transform="translate(72.845 55.496) rotate(-135)" fill="#fff"/>
            <path id="Trazado_636654" data-name="Trazado 636654" d="M.3,3.01l3.01.3L3.01.3,0,0Z" transform="translate(62.646 67.799) rotate(-135)" fill="#fff"/>
            <path id="Trazado_636655" data-name="Trazado 636655" d="M.28,2.8l2.8.28L2.8.28,0,0Z" transform="translate(52.448 80.102) rotate(-135)" fill="#fff"/>
            <path id="Trazado_636656" data-name="Trazado 636656" d="M.26,2.6l2.6.26L2.6.26,0,0Z" transform="translate(42.25 92.406) rotate(-135)" fill="#fff"/>
            <path id="Trazado_636657" data-name="Trazado 636657" d="M.239,2.393l2.393.239L2.393.239,0,0Z" transform="matrix(-0.707, -0.707, 0.707, -0.707, 32.051, 104.709)" fill="#fff"/>
            <path id="Trazado_636658" data-name="Trazado 636658" d="M.219,2.188l2.188.219L2.188.219,0,0Z" transform="translate(21.853 117.013) rotate(-135)" fill="#fff"/>
            <path id="Trazado_636659" data-name="Trazado 636659" d="M.2,1.982l1.982.2L1.982.2,0,0Z" transform="translate(11.654 129.316) rotate(-135.002)" fill="#fff"/>
            <path id="Trazado_636660" data-name="Trazado 636660" d="M.178,1.776l1.776.178L1.776.178,0,0Z" transform="translate(1.456 141.62) rotate(-135)" fill="#fff"/>
          </g>
        </g>
        <g id="Grupo_911086" data-name="Grupo 911086" transform="translate(74.366 90.882)">
          <g id="Grupo_911085" data-name="Grupo 911085" transform="translate(0 0)">
            <path id="Trazado_636661" data-name="Trazado 636661" d="M.4,4.038l4.038.4L4.038.4,0,0Z" transform="translate(113.638 6.282) rotate(-135.001)" fill="#fff"/>
            <path id="Trazado_636662" data-name="Trazado 636662" d="M.383,3.833l3.833.383L3.833.383,0,0Z" transform="translate(103.44 18.585) rotate(-135)" fill="#fff"/>
            <path id="Trazado_636663" data-name="Trazado 636663" d="M.363,3.627,3.99,3.99,3.627.363,0,0Z" transform="translate(93.242 30.889) rotate(-135)" fill="#fff"/>
            <path id="Trazado_636664" data-name="Trazado 636664" d="M.342,3.421l3.421.342L3.421.342,0,0Z" transform="translate(83.043 43.192) rotate(-135.001)" fill="#fff"/>
            <path id="Trazado_636665" data-name="Trazado 636665" d="M.321,3.216l3.216.321L3.216.321,0,0Z" transform="translate(72.845 55.496) rotate(-135)" fill="#fff"/>
            <path id="Trazado_636666" data-name="Trazado 636666" d="M.3,3.01l3.01.3L3.01.3,0,0Z" transform="translate(62.646 67.799) rotate(-135)" fill="#fff"/>
            <path id="Trazado_636667" data-name="Trazado 636667" d="M.28,2.8l2.8.28L2.8.28,0,0Z" transform="translate(52.448 80.102) rotate(-135)" fill="#fff"/>
            <path id="Trazado_636668" data-name="Trazado 636668" d="M.26,2.6l2.6.26L2.6.26,0,0Z" transform="translate(42.25 92.406) rotate(-135)" fill="#fff"/>
            <path id="Trazado_636669" data-name="Trazado 636669" d="M.239,2.393l2.393.239L2.393.239,0,0Z" transform="translate(32.051 104.709) rotate(-135)" fill="#fff"/>
            <path id="Trazado_636670" data-name="Trazado 636670" d="M.219,2.188l2.188.219L2.188.219,0,0Z" transform="translate(21.853 117.013) rotate(-135)" fill="#fff"/>
            <path id="Trazado_636671" data-name="Trazado 636671" d="M.2,1.982l1.982.2L1.982.2,0,0Z" transform="translate(11.654 129.316) rotate(-135.002)" fill="#fff"/>
            <path id="Trazado_636672" data-name="Trazado 636672" d="M.178,1.776l1.776.178L1.776.178,0,0Z" transform="translate(1.456 141.62) rotate(-135)" fill="#fff"/>
          </g>
        </g>
        <g id="Grupo_911088" data-name="Grupo 911088" transform="translate(66.103 80.784)">
          <g id="Grupo_911087" data-name="Grupo 911087" transform="translate(0 0)">
            <path id="Trazado_636673" data-name="Trazado 636673" d="M.4,4.038l4.038.4L4.038.4,0,0Z" transform="translate(113.638 6.282) rotate(-134.999)" fill="#fff"/>
            <path id="Trazado_636674" data-name="Trazado 636674" d="M.383,3.833l3.833.383L3.833.383,0,0Z" transform="translate(103.44 18.585) rotate(-134.999)" fill="#fff"/>
            <path id="Trazado_636675" data-name="Trazado 636675" d="M.363,3.627l3.627.363L3.627.363,0,0Z" transform="translate(93.242 30.889) rotate(-134.999)" fill="#fff"/>
            <path id="Trazado_636676" data-name="Trazado 636676" d="M.342,3.421l3.421.342L3.421.342,0,0Z" transform="translate(83.043 43.192) rotate(-135)" fill="#fff"/>
            <path id="Trazado_636677" data-name="Trazado 636677" d="M.321,3.216l3.216.321L3.216.321,0,0Z" transform="translate(72.845 55.495) rotate(-135)" fill="#fff"/>
            <path id="Trazado_636678" data-name="Trazado 636678" d="M.3,3.01l3.01.3L3.01.3,0,0Z" transform="translate(62.646 67.799) rotate(-135)" fill="#fff"/>
            <path id="Trazado_636679" data-name="Trazado 636679" d="M.28,2.8l2.8.28L2.8.28,0,0Z" transform="translate(52.448 80.102) rotate(-135)" fill="#fff"/>
            <path id="Trazado_636680" data-name="Trazado 636680" d="M.26,2.6l2.6.26L2.6.26,0,0Z" transform="translate(42.25 92.406) rotate(-135)" fill="#fff"/>
            <path id="Trazado_636681" data-name="Trazado 636681" d="M.239,2.393l2.393.239L2.393.239,0,0Z" transform="translate(32.051 104.709) rotate(-135)" fill="#fff"/>
            <path id="Trazado_636682" data-name="Trazado 636682" d="M.219,2.188l2.188.219L2.188.219,0,0Z" transform="translate(21.853 117.013) rotate(-135)" fill="#fff"/>
            <path id="Trazado_636683" data-name="Trazado 636683" d="M.2,1.982l1.982.2L1.982.2,0,0Z" transform="translate(11.654 129.316) rotate(-134.998)" fill="#fff"/>
            <path id="Trazado_636684" data-name="Trazado 636684" d="M.178,1.777l1.777.178L1.777.178,0,0Z" transform="translate(1.456 141.62) rotate(-135)" fill="#fff"/>
          </g>
        </g>
        <g id="Grupo_911090" data-name="Grupo 911090" transform="translate(57.84 70.686)">
          <g id="Grupo_911089" data-name="Grupo 911089" transform="translate(0 0)">
            <path id="Trazado_636685" data-name="Trazado 636685" d="M.4,4.038l4.038.4L4.038.4,0,0Z" transform="translate(113.638 6.282) rotate(-134.999)" fill="#fff"/>
            <path id="Trazado_636686" data-name="Trazado 636686" d="M.383,3.833l3.833.383L3.833.383,0,0Z" transform="translate(103.44 18.585) rotate(-134.999)" fill="#fff"/>
            <path id="Trazado_636687" data-name="Trazado 636687" d="M.363,3.627l3.627.363L3.627.363,0,0Z" transform="translate(93.241 30.889) rotate(-134.999)" fill="#fff"/>
            <path id="Trazado_636688" data-name="Trazado 636688" d="M.342,3.421l3.421.342L3.421.342,0,0Z" transform="translate(83.043 43.192) rotate(-134.999)" fill="#fff"/>
            <path id="Trazado_636689" data-name="Trazado 636689" d="M.321,3.216l3.216.321L3.216.321,0,0Z" transform="matrix(-0.707, -0.707, 0.707, -0.707, 72.845, 55.495)" fill="#fff"/>
            <path id="Trazado_636690" data-name="Trazado 636690" d="M.3,3.01l3.01.3L3.01.3,0,0Z" transform="matrix(-0.707, -0.707, 0.707, -0.707, 62.646, 67.799)" fill="#fff"/>
            <path id="Trazado_636691" data-name="Trazado 636691" d="M.28,2.8l2.8.28L2.8.28,0,0Z" transform="matrix(-0.707, -0.707, 0.707, -0.707, 52.448, 80.102)" fill="#fff"/>
            <path id="Trazado_636692" data-name="Trazado 636692" d="M.26,2.6l2.6.26L2.6.26,0,0Z" transform="translate(42.25 92.406) rotate(-135)" fill="#fff"/>
            <path id="Trazado_636693" data-name="Trazado 636693" d="M.239,2.393l2.393.239L2.393.239,0,0Z" transform="matrix(-0.707, -0.707, 0.707, -0.707, 32.051, 104.709)" fill="#fff"/>
            <path id="Trazado_636694" data-name="Trazado 636694" d="M.219,2.188l2.188.219L2.188.219,0,0Z" transform="translate(21.853 117.013) rotate(-135)" fill="#fff"/>
            <path id="Trazado_636695" data-name="Trazado 636695" d="M.2,1.982l1.982.2L1.982.2,0,0Z" transform="translate(11.654 129.316) rotate(-134.998)" fill="#fff"/>
            <path id="Trazado_636696" data-name="Trazado 636696" d="M.178,1.776l1.776.178L1.776.178,0,0Z" transform="translate(1.456 141.62) rotate(-135)" fill="#fff"/>
          </g>
        </g>
        <g id="Grupo_911092" data-name="Grupo 911092" transform="translate(49.577 60.588)">
          <g id="Grupo_911091" data-name="Grupo 911091" transform="translate(0 0)">
            <path id="Trazado_636697" data-name="Trazado 636697" d="M.4,4.038l4.038.4L4.038.4,0,0Z" transform="translate(113.638 6.282) rotate(-134.999)" fill="#fff"/>
            <path id="Trazado_636698" data-name="Trazado 636698" d="M.383,3.833l3.833.383L3.833.383,0,0Z" transform="translate(103.44 18.585) rotate(-134.999)" fill="#fff"/>
            <path id="Trazado_636699" data-name="Trazado 636699" d="M.363,3.627l3.627.363L3.627.363,0,0Z" transform="translate(93.242 30.889) rotate(-134.999)" fill="#fff"/>
            <path id="Trazado_636700" data-name="Trazado 636700" d="M.342,3.421l3.421.342L3.421.342,0,0Z" transform="translate(83.043 43.192) rotate(-134.999)" fill="#fff"/>
            <path id="Trazado_636701" data-name="Trazado 636701" d="M.321,3.216l3.216.321L3.216.321,0,0Z" transform="translate(72.845 55.495) rotate(-134.999)" fill="#fff"/>
            <path id="Trazado_636702" data-name="Trazado 636702" d="M.3,3.01l3.01.3L3.01.3,0,0Z" transform="matrix(-0.707, -0.707, 0.707, -0.707, 62.646, 67.799)" fill="#fff"/>
            <path id="Trazado_636703" data-name="Trazado 636703" d="M.28,2.8l2.8.28L2.8.28,0,0Z" transform="translate(52.448 80.102) rotate(-135)" fill="#fff"/>
            <path id="Trazado_636704" data-name="Trazado 636704" d="M.26,2.6l2.6.26L2.6.26,0,0Z" transform="translate(42.25 92.406) rotate(-134.999)" fill="#fff"/>
            <path id="Trazado_636705" data-name="Trazado 636705" d="M.239,2.393l2.393.239L2.393.239,0,0Z" transform="translate(32.051 104.709) rotate(-135)" fill="#fff"/>
            <path id="Trazado_636706" data-name="Trazado 636706" d="M.219,2.188l2.188.219L2.188.219,0,0Z" transform="translate(21.853 117.013) rotate(-135)" fill="#fff"/>
            <path id="Trazado_636707" data-name="Trazado 636707" d="M.2,1.982l1.982.2L1.982.2,0,0Z" transform="translate(11.654 129.316) rotate(-135)" fill="#fff"/>
            <path id="Trazado_636708" data-name="Trazado 636708" d="M.178,1.776l1.776.178L1.776.178,0,0Z" transform="translate(1.456 141.62) rotate(-135)" fill="#fff"/>
          </g>
        </g>
        <g id="Grupo_911094" data-name="Grupo 911094" transform="translate(41.314 50.49)">
          <g id="Grupo_911093" data-name="Grupo 911093" transform="translate(0 0)">
            <path id="Trazado_636709" data-name="Trazado 636709" d="M.4,4.038l4.038.4L4.038.4,0,0Z" transform="translate(113.638 6.282) rotate(-135.001)" fill="#fff"/>
            <path id="Trazado_636710" data-name="Trazado 636710" d="M.383,3.833l3.833.383L3.833.383,0,0Z" transform="translate(103.44 18.585) rotate(-135.001)" fill="#fff"/>
            <path id="Trazado_636711" data-name="Trazado 636711" d="M.363,3.627,3.99,3.99,3.627.363,0,0Z" transform="translate(93.242 30.889) rotate(-135.001)" fill="#fff"/>
            <path id="Trazado_636712" data-name="Trazado 636712" d="M.342,3.421l3.421.342L3.421.342,0,0Z" transform="translate(83.043 43.192) rotate(-135.001)" fill="#fff"/>
            <path id="Trazado_636713" data-name="Trazado 636713" d="M.321,3.216l3.216.321L3.216.321,0,0Z" transform="matrix(-0.707, -0.707, 0.707, -0.707, 72.845, 55.496)" fill="#fff"/>
            <path id="Trazado_636714" data-name="Trazado 636714" d="M.3,3.01l3.01.3L3.01.3,0,0Z" transform="matrix(-0.707, -0.707, 0.707, -0.707, 62.646, 67.799)" fill="#fff"/>
            <path id="Trazado_636715" data-name="Trazado 636715" d="M.28,2.8l2.8.28L2.8.28,0,0Z" transform="matrix(-0.707, -0.707, 0.707, -0.707, 52.448, 80.102)" fill="#fff"/>
            <path id="Trazado_636716" data-name="Trazado 636716" d="M.26,2.6l2.6.26L2.6.26,0,0Z" transform="translate(42.25 92.406) rotate(-135)" fill="#fff"/>
            <path id="Trazado_636717" data-name="Trazado 636717" d="M.239,2.393l2.393.239L2.393.239,0,0Z" transform="matrix(-0.707, -0.707, 0.707, -0.707, 32.051, 104.709)" fill="#fff"/>
            <path id="Trazado_636718" data-name="Trazado 636718" d="M.219,2.188l2.188.219L2.188.219,0,0Z" transform="translate(21.853 117.013) rotate(-135)" fill="#fff"/>
            <path id="Trazado_636719" data-name="Trazado 636719" d="M.2,1.982l1.982.2L1.982.2,0,0Z" transform="translate(11.654 129.316) rotate(-135)" fill="#fff"/>
            <path id="Trazado_636720" data-name="Trazado 636720" d="M.178,1.776l1.776.178L1.776.178,0,0Z" transform="translate(1.456 141.62) rotate(-135)" fill="#fff"/>
          </g>
        </g>
        <g id="Grupo_911096" data-name="Grupo 911096" transform="translate(33.052 40.392)">
          <g id="Grupo_911095" data-name="Grupo 911095" transform="translate(0 0)">
            <path id="Trazado_636721" data-name="Trazado 636721" d="M.4,4.038l4.038.4L4.038.4,0,0Z" transform="translate(113.638 6.282) rotate(-135.001)" fill="#fff"/>
            <path id="Trazado_636722" data-name="Trazado 636722" d="M.383,3.833l3.833.383L3.833.383,0,0Z" transform="translate(103.44 18.585) rotate(-135)" fill="#fff"/>
            <path id="Trazado_636723" data-name="Trazado 636723" d="M.363,3.627,3.99,3.99,3.627.363,0,0Z" transform="translate(93.242 30.889) rotate(-135)" fill="#fff"/>
            <path id="Trazado_636724" data-name="Trazado 636724" d="M.342,3.421l3.421.342L3.421.342,0,0Z" transform="translate(83.043 43.192) rotate(-135)" fill="#fff"/>
            <path id="Trazado_636725" data-name="Trazado 636725" d="M.321,3.216l3.216.321L3.216.321,0,0Z" transform="translate(72.845 55.496) rotate(-135)" fill="#fff"/>
            <path id="Trazado_636726" data-name="Trazado 636726" d="M.3,3.01l3.01.3L3.01.3,0,0Z" transform="translate(62.646 67.799) rotate(-135)" fill="#fff"/>
            <path id="Trazado_636727" data-name="Trazado 636727" d="M.28,2.8l2.8.28L2.8.28,0,0Z" transform="translate(52.448 80.102) rotate(-135)" fill="#fff"/>
            <path id="Trazado_636728" data-name="Trazado 636728" d="M.26,2.6l2.6.26L2.6.26,0,0Z" transform="translate(42.25 92.406) rotate(-135.001)" fill="#fff"/>
            <path id="Trazado_636729" data-name="Trazado 636729" d="M.239,2.393l2.393.239L2.393.239,0,0Z" transform="translate(32.051 104.709) rotate(-135)" fill="#fff"/>
            <path id="Trazado_636730" data-name="Trazado 636730" d="M.219,2.188l2.188.219L2.188.219,0,0Z" transform="translate(21.853 117.013) rotate(-135)" fill="#fff"/>
            <path id="Trazado_636731" data-name="Trazado 636731" d="M.2,1.982l1.982.2L1.982.2,0,0Z" transform="translate(11.654 129.316) rotate(-135)" fill="#fff"/>
            <path id="Trazado_636732" data-name="Trazado 636732" d="M.178,1.776l1.776.178L1.776.178,0,0Z" transform="translate(1.456 141.62) rotate(-135)" fill="#fff"/>
          </g>
        </g>
        <g id="Grupo_911098" data-name="Grupo 911098" transform="translate(24.789 30.294)">
          <g id="Grupo_911097" data-name="Grupo 911097" transform="translate(0 0)">
            <path id="Trazado_636733" data-name="Trazado 636733" d="M.4,4.038l4.038.4L4.038.4,0,0Z" transform="matrix(-0.707, -0.707, 0.707, -0.707, 113.638, 6.282)" fill="#fff"/>
            <path id="Trazado_636734" data-name="Trazado 636734" d="M.383,3.833l3.833.383L3.833.383,0,0Z" transform="translate(103.44 18.585) rotate(-135)" fill="#fff"/>
            <path id="Trazado_636735" data-name="Trazado 636735" d="M.363,3.627,3.99,3.99,3.627.363,0,0Z" transform="translate(93.242 30.889) rotate(-135.001)" fill="#fff"/>
            <path id="Trazado_636736" data-name="Trazado 636736" d="M.342,3.421l3.421.342L3.421.342,0,0Z" transform="translate(83.043 43.192) rotate(-135)" fill="#fff"/>
            <path id="Trazado_636737" data-name="Trazado 636737" d="M.321,3.216l3.216.321L3.216.321,0,0Z" transform="translate(72.845 55.496) rotate(-135)" fill="#fff"/>
            <path id="Trazado_636738" data-name="Trazado 636738" d="M.3,3.01l3.01.3L3.01.3,0,0Z" transform="translate(62.646 67.799) rotate(-135)" fill="#fff"/>
            <path id="Trazado_636739" data-name="Trazado 636739" d="M.28,2.8l2.8.28L2.8.28,0,0Z" transform="translate(52.448 80.102) rotate(-135)" fill="#fff"/>
            <path id="Trazado_636740" data-name="Trazado 636740" d="M.26,2.6l2.6.26L2.6.26,0,0Z" transform="translate(42.25 92.406) rotate(-135.001)" fill="#fff"/>
            <path id="Trazado_636741" data-name="Trazado 636741" d="M.239,2.393l2.393.239L2.393.239,0,0Z" transform="translate(32.051 104.709) rotate(-135)" fill="#fff"/>
            <path id="Trazado_636742" data-name="Trazado 636742" d="M.219,2.188l2.188.219L2.188.219,0,0Z" transform="translate(21.853 117.013) rotate(-135)" fill="#fff"/>
            <path id="Trazado_636743" data-name="Trazado 636743" d="M.2,1.982l1.982.2L1.982.2,0,0Z" transform="translate(11.654 129.316) rotate(-135)" fill="#fff"/>
            <path id="Trazado_636744" data-name="Trazado 636744" d="M.178,1.776l1.776.178L1.776.178,0,0Z" transform="translate(1.456 141.62) rotate(-135)" fill="#fff"/>
          </g>
        </g>
        <g id="Grupo_911100" data-name="Grupo 911100" transform="translate(16.526 20.196)">
          <g id="Grupo_911099" data-name="Grupo 911099" transform="translate(0 0)">
            <path id="Trazado_636745" data-name="Trazado 636745" d="M.4,4.038l4.038.4L4.038.4,0,0Z" transform="translate(113.638 6.282) rotate(-134.999)" fill="#fff"/>
            <path id="Trazado_636746" data-name="Trazado 636746" d="M.383,3.833l3.833.383L3.833.383,0,0Z" transform="translate(103.44 18.585) rotate(-134.999)" fill="#fff"/>
            <path id="Trazado_636747" data-name="Trazado 636747" d="M.363,3.627l3.627.363L3.627.363,0,0Z" transform="translate(93.241 30.889) rotate(-134.999)" fill="#fff"/>
            <path id="Trazado_636748" data-name="Trazado 636748" d="M.342,3.421l3.421.342L3.421.342,0,0Z" transform="translate(83.043 43.192) rotate(-134.999)" fill="#fff"/>
            <path id="Trazado_636749" data-name="Trazado 636749" d="M.321,3.216l3.216.321L3.216.321,0,0Z" transform="translate(72.845 55.496) rotate(-135)" fill="#fff"/>
            <path id="Trazado_636750" data-name="Trazado 636750" d="M.3,3.01l3.01.3L3.01.3,0,0Z" transform="matrix(-0.707, -0.707, 0.707, -0.707, 62.646, 67.799)" fill="#fff"/>
            <path id="Trazado_636751" data-name="Trazado 636751" d="M.28,2.8l2.8.28L2.8.28,0,0Z" transform="translate(52.448 80.102) rotate(-135)" fill="#fff"/>
            <path id="Trazado_636752" data-name="Trazado 636752" d="M.26,2.6l2.6.26L2.6.26,0,0Z" transform="translate(42.25 92.406) rotate(-135)" fill="#fff"/>
            <path id="Trazado_636753" data-name="Trazado 636753" d="M.239,2.393l2.393.239L2.393.239,0,0Z" transform="matrix(-0.707, -0.707, 0.707, -0.707, 32.051, 104.709)" fill="#fff"/>
            <path id="Trazado_636754" data-name="Trazado 636754" d="M.219,2.188l2.188.219L2.188.219,0,0Z" transform="translate(21.853 117.013) rotate(-135)" fill="#fff"/>
            <path id="Trazado_636755" data-name="Trazado 636755" d="M.2,1.982l1.982.2L1.982.2,0,0Z" transform="translate(11.654 129.316) rotate(-135)" fill="#fff"/>
            <path id="Trazado_636756" data-name="Trazado 636756" d="M.178,1.776l1.776.178L1.776.178,0,0Z" transform="matrix(-0.707, -0.707, 0.707, -0.707, 1.456, 141.62)" fill="#fff"/>
          </g>
        </g>
        <g id="Grupo_911102" data-name="Grupo 911102" transform="translate(8.263 10.098)">
          <g id="Grupo_911101" data-name="Grupo 911101" transform="translate(0 0)">
            <path id="Trazado_636757" data-name="Trazado 636757" d="M.4,4.038l4.038.4L4.038.4,0,0Z" transform="translate(113.638 6.282) rotate(-134.999)" fill="#fff"/>
            <path id="Trazado_636758" data-name="Trazado 636758" d="M.383,3.833l3.833.383L3.833.383,0,0Z" transform="translate(103.44 18.585) rotate(-134.999)" fill="#fff"/>
            <path id="Trazado_636759" data-name="Trazado 636759" d="M.363,3.627l3.627.363L3.627.363,0,0Z" transform="translate(93.241 30.889) rotate(-134.999)" fill="#fff"/>
            <path id="Trazado_636760" data-name="Trazado 636760" d="M.342,3.421l3.421.342L3.421.342,0,0Z" transform="translate(83.043 43.192) rotate(-134.999)" fill="#fff"/>
            <path id="Trazado_636761" data-name="Trazado 636761" d="M.321,3.216l3.216.321L3.216.321,0,0Z" transform="matrix(-0.707, -0.707, 0.707, -0.707, 72.845, 55.495)" fill="#fff"/>
            <path id="Trazado_636762" data-name="Trazado 636762" d="M.3,3.01l3.01.3L3.01.3,0,0Z" transform="matrix(-0.707, -0.707, 0.707, -0.707, 62.646, 67.799)" fill="#fff"/>
            <path id="Trazado_636763" data-name="Trazado 636763" d="M.28,2.8l2.8.28L2.8.28,0,0Z" transform="matrix(-0.707, -0.707, 0.707, -0.707, 52.448, 80.102)" fill="#fff"/>
            <path id="Trazado_636764" data-name="Trazado 636764" d="M.26,2.6l2.6.26L2.6.26,0,0Z" transform="translate(42.25 92.406) rotate(-134.999)" fill="#fff"/>
            <path id="Trazado_636765" data-name="Trazado 636765" d="M.239,2.393l2.393.239L2.393.239,0,0Z" transform="matrix(-0.707, -0.707, 0.707, -0.707, 32.051, 104.709)" fill="#fff"/>
            <path id="Trazado_636766" data-name="Trazado 636766" d="M.219,2.188l2.188.219L2.188.219,0,0Z" transform="translate(21.853 117.013) rotate(-135)" fill="#fff"/>
            <path id="Trazado_636767" data-name="Trazado 636767" d="M.2,1.982l1.982.2L1.982.2,0,0Z" transform="translate(11.654 129.316) rotate(-134.998)" fill="#fff"/>
            <path id="Trazado_636768" data-name="Trazado 636768" d="M.178,1.776l1.776.178L1.776.178,0,0Z" transform="translate(1.456 141.62) rotate(-135)" fill="#fff"/>
          </g>
        </g>
        <g id="Grupo_911104" data-name="Grupo 911104" transform="translate(0 0)">
          <g id="Grupo_911103" data-name="Grupo 911103">
            <path id="Trazado_636769" data-name="Trazado 636769" d="M.4,4.038l4.038.4L4.038.4,0,0Z" transform="matrix(-0.707, -0.707, 0.707, -0.707, 113.638, 6.282)" fill="#fff"/>
            <path id="Trazado_636770" data-name="Trazado 636770" d="M.383,3.833l3.833.383L3.833.383,0,0Z" transform="translate(103.44 18.585) rotate(-134.999)" fill="#fff"/>
            <path id="Trazado_636771" data-name="Trazado 636771" d="M.363,3.627l3.627.363L3.627.363,0,0Z" transform="translate(93.241 30.889) rotate(-134.999)" fill="#fff"/>
            <path id="Trazado_636772" data-name="Trazado 636772" d="M.342,3.421l3.421.342L3.421.342,0,0Z" transform="translate(83.043 43.192) rotate(-134.999)" fill="#fff"/>
            <path id="Trazado_636773" data-name="Trazado 636773" d="M.321,3.216l3.216.321L3.216.321,0,0Z" transform="translate(72.845 55.495) rotate(-135)" fill="#fff"/>
            <path id="Trazado_636774" data-name="Trazado 636774" d="M.3,3.01l3.01.3L3.01.3,0,0Z" transform="matrix(-0.707, -0.707, 0.707, -0.707, 62.646, 67.799)" fill="#fff"/>
            <path id="Trazado_636775" data-name="Trazado 636775" d="M.28,2.8l2.8.28L2.8.28,0,0Z" transform="translate(52.448 80.102) rotate(-135)" fill="#fff"/>
            <path id="Trazado_636776" data-name="Trazado 636776" d="M.26,2.6l2.6.26L2.6.26,0,0Z" transform="translate(42.25 92.406) rotate(-134.999)" fill="#fff"/>
            <path id="Trazado_636777" data-name="Trazado 636777" d="M.239,2.393l2.393.239L2.393.239,0,0Z" transform="translate(32.051 104.709) rotate(-135)" fill="#fff"/>
            <path id="Trazado_636778" data-name="Trazado 636778" d="M.219,2.188l2.188.219L2.188.219,0,0Z" transform="translate(21.853 117.013) rotate(-134.998)" fill="#fff"/>
            <path id="Trazado_636779" data-name="Trazado 636779" d="M.2,1.982l1.982.2L1.982.2,0,0Z" transform="translate(11.654 129.316) rotate(-134.999)" fill="#fff"/>
            <path id="Trazado_636780" data-name="Trazado 636780" d="M.178,1.776l1.777.178L1.777.178,0,0Z" transform="matrix(-0.707, -0.707, 0.707, -0.707, 1.456, 141.62)" fill="#fff"/>
          </g>
        </g>
      </g>
      <g id="Grupo_911106" data-name="Grupo 911106" transform="translate(365.806 107.747)">
        <path id="Trazado_636781" data-name="Trazado 636781" d="M-132.694,319.013,27.354,514.607c5.461,6.675,14.315,6.675,19.776,0h0c5.461-6.674,5.461-17.494,0-24.168L-112.918,294.845c-5.461-6.674-14.315-6.674-19.776,0h0C-138.155,301.519-138.155,312.34-132.694,319.013Z" transform="translate(136.79 -289.84)" fill="none" stroke="#fff" stroke-miterlimit="10" stroke-width="2"/>
        <path id="Trazado_636782" data-name="Trazado 636782" d="M-88.888,410.43,33.275,559.724c4.168,5.094,10.926,5.094,15.095,0h0a15.169,15.169,0,0,0,0-18.448L-73.792,391.982c-4.169-5.094-10.927-5.094-15.1,0h0A15.171,15.171,0,0,0-88.888,410.43Z" transform="translate(102.727 -297.479)" fill="none" stroke="#fff" stroke-miterlimit="10" stroke-width="2"/>
      </g>
      <g id="Grupo_911107" data-name="Grupo 911107" transform="translate(113.901 -116.275)">
        <path id="Trazado_636783" data-name="Trazado 636783" d="M183.92,200.6,23.872,5.006C18.411-1.669,9.557-1.669,4.1,5.006h0C-1.365,11.68-1.365,22.5,4.1,29.174L164.144,224.768c5.461,6.674,14.315,6.674,19.776,0h0C189.381,218.094,189.381,207.274,183.92,200.6Z" transform="translate(0 36.292)" fill="none" stroke="#fff" stroke-miterlimit="10" stroke-width="2"/>
        <path id="Trazado_636784" data-name="Trazado 636784" d="M140.384,153.115,18.221,3.82c-4.168-5.094-10.926-5.094-15.095,0h0a15.169,15.169,0,0,0,0,18.448L125.289,171.563c4.169,5.094,10.927,5.094,15.1,0h0A15.171,15.171,0,0,0,140.384,153.115Z" transform="translate(33.792)" fill="none" stroke="#fff" stroke-miterlimit="10" stroke-width="2"/>
      </g>
    </g>
  </g>
</svg>
