<svg xmlns="http://www.w3.org/2000/svg" width="295.539" height="228.441" viewBox="0 0 295.539 228.441">
  <g id="Grupo_911033" data-name="Grupo 911033" transform="translate(-5521.57 18793.486)">
    <g id="Grupo_911012" data-name="Grupo 911012" transform="translate(5522.109 -18792.947)">
      <g id="Grupo_140420" data-name="Grupo 140420" transform="translate(0 0)">
        <g id="Rectángulo_293060" data-name="Rectángulo 293060" transform="translate(72.067 1.777)" fill="none" stroke="#fecb2f" stroke-width="5">
          <rect width="160.244" height="206.971" rx="30" stroke="none"/>
          <rect x="2.5" y="2.5" width="155.244" height="201.971" rx="27.5" fill="none"/>
        </g>
        <g id="Grupo_873686" data-name="Grupo 873686" transform="translate(0 0)">
          <path id="Trazado_1" data-name="Trazado 1" d="M11.4-75.2-45.679-18.122q.4,2.448,1.026,4.812L16.21-74.173Q13.848-74.8,11.4-75.2Z" transform="translate(46.329 75.849)" fill="none" stroke="#ef3c79" stroke-miterlimit="10" stroke-width="1.078"/>
          <path id="Trazado_2" data-name="Trazado 2" d="M17.668-72.715-43.195-11.852q.6,2.261,1.4,4.436l63.9-63.9Q19.933-72.115,17.668-72.715Z" transform="translate(44.87 74.39)" fill="none" stroke="#ef3c79" stroke-miterlimit="10" stroke-width="1.078"/>
          <path id="Trazado_3" data-name="Trazado 3" d="M51.078-48.491-18.971,21.558c.888,1.054,1.814,2.076,2.785,3.052L54.13-45.706C53.153-46.677,52.132-47.6,51.078-48.491Z" transform="translate(30.648 60.168)" fill="none" stroke="#ef3c79" stroke-miterlimit="10" stroke-width="1.078"/>
          <path id="Trazado_4" data-name="Trazado 4" d="M44.167-54.647-25.128,14.648q1.205,1.7,2.542,3.3L47.463-52.105Q45.872-53.445,44.167-54.647Z" transform="translate(34.263 63.782)" fill="none" stroke="#ef3c79" stroke-miterlimit="10" stroke-width="1.078"/>
          <path id="Trazado_5" data-name="Trazado 5" d="M30.667-65.12-35.6,1.147c.621,1.3,1.3,2.571,2.03,3.808L34.475-63.09C33.238-63.818,31.97-64.5,30.667-65.12Z" transform="translate(40.411 69.931)" fill="none" stroke="#ef3c79" stroke-miterlimit="10" stroke-width="1.078"/>
          <path id="Trazado_6" data-name="Trazado 6" d="M37.361-60.2-30.684,7.842q1.073,1.824,2.294,3.544L40.9-57.909Q39.185-59.128,37.361-60.2Z" transform="translate(37.525 67.044)" fill="none" stroke="#ef3c79" stroke-miterlimit="10" stroke-width="1.078"/>
          <path id="Trazado_7" data-name="Trazado 7" d="M24.1-69.319l-63.9,63.9q.776,2.1,1.734,4.1L28.2-67.585Q26.2-68.54,24.1-69.319Z" transform="translate(42.877 72.397)" fill="none" stroke="#ef3c79" stroke-miterlimit="10" stroke-width="1.078"/>
          <path id="Trazado_8" data-name="Trazado 8" d="M-38.97-40.3l28.186-28.186A49.861,49.861,0,0,0-38.97-40.3Z" transform="translate(42.39 71.909)" fill="none" stroke="#ef3c79" stroke-miterlimit="10" stroke-width="1.078"/>
          <path id="Trazado_9" data-name="Trazado 9" d="M-14.257-71.962-42.443-43.776a49.288,49.288,0,0,0-2.442,8.28L-5.977-74.4A49.306,49.306,0,0,0-14.257-71.962Z" transform="translate(45.863 75.383)" fill="none" stroke="#ef3c79" stroke-miterlimit="10" stroke-width="1.078"/>
          <path id="Trazado_10" data-name="Trazado 10" d="M5.319-76.583-47.064-24.2a49.849,49.849,0,0,0,.572,5.266L10.585-76.012A49.863,49.863,0,0,0,5.319-76.583Z" transform="translate(47.142 76.661)" fill="none" stroke="#ef3c79" stroke-miterlimit="10" stroke-width="1.078"/>
          <path id="Trazado_11" data-name="Trazado 11" d="M2.471-76.773c-1.052,0-2.095.044-3.131.108L-47.145-30.18c-.064,1.036-.108,2.078-.108,3.131,0,.918.029,1.83.078,2.736L5.208-76.695C4.3-76.744,3.39-76.773,2.471-76.773Z" transform="translate(47.253 76.773)" fill="none" stroke="#ef3c79" stroke-miterlimit="10" stroke-width="1.078"/>
          <path id="Trazado_12" data-name="Trazado 12" d="M-7.213-75.641-46.121-36.733a49.745,49.745,0,0,0-.87,6.707L-.506-76.511A49.815,49.815,0,0,0-7.213-75.641Z" transform="translate(47.099 76.619)" fill="none" stroke="#ef3c79" stroke-miterlimit="10" stroke-width="1.078"/>
          <path id="Trazado_13" data-name="Trazado 13" d="M110.309,23.422,52.941,80.79a49.764,49.764,0,0,0,5.232.605l52.741-52.74A49.741,49.741,0,0,0,110.309,23.422Z" transform="translate(-11.573 17.946)" fill="none" stroke="#ef3c79" stroke-miterlimit="10" stroke-width="1.078"/>
          <path id="Trazado_14" data-name="Trazado 14" d="M118.463,39.219c0-1.05-.044-2.09-.108-3.124L65.614,88.835c1.034.064,2.074.108,3.124.108.9,0,1.792-.027,2.68-.074L118.389,41.9C118.436,41.011,118.463,40.118,118.463,39.219Z" transform="translate(-19.014 10.506)" fill="none" stroke="#ef3c79" stroke-miterlimit="10" stroke-width="1.078"/>
          <path id="Trazado_15" data-name="Trazado 15" d="M126.642,50.152,79.671,97.122a49.751,49.751,0,0,0,6.651-.813L125.829,56.8A49.826,49.826,0,0,0,126.642,50.152Z" transform="translate(-27.267 2.253)" fill="none" stroke="#ef3c79" stroke-miterlimit="10" stroke-width="1.078"/>
          <path id="Trazado_16" data-name="Trazado 16" d="M135.286,66.26,95.779,105.767a49.324,49.324,0,0,0,8.1-2.262l29.146-29.146A49.417,49.417,0,0,0,135.286,66.26Z" transform="translate(-36.724 -7.205)" fill="none" stroke="#ef3c79" stroke-miterlimit="10" stroke-width="1.078"/>
          <path id="Trazado_17" data-name="Trazado 17" d="M144.542,85.877,115.4,115.023A49.865,49.865,0,0,0,144.542,85.877Z" transform="translate(-48.242 -18.722)" fill="none" stroke="#ef3c79" stroke-miterlimit="10" stroke-width="1.078"/>
          <path id="Trazado_18" data-name="Trazado 18" d="M102.453,11.837l-61.1,61.1q2.348.642,4.783,1.055L103.508,16.62Q103.1,14.186,102.453,11.837Z" transform="translate(-4.772 24.748)" fill="none" stroke="#ef3c79" stroke-miterlimit="10" stroke-width="1.078"/>
          <path id="Trazado_19" data-name="Trazado 19" d="M72.43-26.455,3.065,42.91c1.14.818,2.313,1.594,3.523,2.315L74.745-22.932C74.024-24.142,73.249-25.315,72.43-26.455Z" transform="translate(17.71 47.23)" fill="none" stroke="#ef3c79" stroke-miterlimit="10" stroke-width="1.078"/>
          <path id="Trazado_20" data-name="Trazado 20" d="M65.21-34.388-4.869,35.691q1.582,1.348,3.276,2.562L67.772-31.113Q66.558-32.8,65.21-34.388Z" transform="translate(22.368 51.888)" fill="none" stroke="#ef3c79" stroke-miterlimit="10" stroke-width="1.078"/>
          <path id="Trazado_21" data-name="Trazado 21" d="M94.754,1.157,30.676,65.235q2.159.815,4.41,1.428l61.1-61.1Q95.567,3.318,94.754,1.157Z" transform="translate(1.499 31.019)" fill="none" stroke="#ef3c79" stroke-miterlimit="10" stroke-width="1.078"/>
          <path id="Trazado_22" data-name="Trazado 22" d="M58.091-41.745-12.225,28.571c.971.977,1.988,1.907,3.037,2.8L60.891-38.707C60-39.757,59.068-40.774,58.091-41.745Z" transform="translate(26.687 56.207)" fill="none" stroke="#ef3c79" stroke-miterlimit="10" stroke-width="1.078"/>
          <path id="Trazado_23" data-name="Trazado 23" d="M87.191-8.746,20.773,57.671c1.33.644,2.7,1.223,4.089,1.749L88.94-4.657C88.414-6.05,87.834-7.417,87.191-8.746Z" transform="translate(7.313 36.833)" fill="none" stroke="#ef3c79" stroke-miterlimit="10" stroke-width="1.078"/>
          <path id="Trazado_24" data-name="Trazado 24" d="M79.755-17.923,11.6,50.235c1.23.734,2.492,1.421,3.789,2.049L81.8-14.134C81.176-15.431,80.488-16.692,79.755-17.923Z" transform="translate(12.701 42.221)" fill="none" stroke="#ef3c79" stroke-miterlimit="10" stroke-width="1.078"/>
        </g>
        <g id="Grupo_873687" data-name="Grupo 873687" transform="translate(195.217 123.713)">
          <g id="Grupo_68" data-name="Grupo 68" transform="translate(43.862 0)">
            <g id="Grupo_67" data-name="Grupo 67" transform="translate(0)">
              <rect id="Rectángulo_193" data-name="Rectángulo 193" width="1.754" height="1.754" transform="translate(53.441 54.681) rotate(-44.999)" fill="#21cbae"/>
              <rect id="Rectángulo_194" data-name="Rectángulo 194" width="1.665" height="1.665" transform="translate(48.583 49.76) rotate(-45)" fill="#21cbae"/>
              <rect id="Rectángulo_195" data-name="Rectángulo 195" width="1.575" height="1.575" transform="translate(43.725 44.839) rotate(-45)" fill="#21cbae"/>
              <rect id="Rectángulo_196" data-name="Rectángulo 196" width="1.486" height="1.486" transform="matrix(0.707, -0.707, 0.707, 0.707, 38.866, 39.917)" fill="#21cbae"/>
              <rect id="Rectángulo_197" data-name="Rectángulo 197" width="1.397" height="1.397" transform="translate(34.008 34.996) rotate(-45)" fill="#21cbae"/>
              <rect id="Rectángulo_198" data-name="Rectángulo 198" width="1.307" height="1.307" transform="matrix(0.707, -0.707, 0.707, 0.707, 29.15, 30.074)" fill="#21cbae"/>
              <rect id="Rectángulo_199" data-name="Rectángulo 199" width="1.218" height="1.218" transform="translate(24.291 25.153) rotate(-45)" fill="#21cbae"/>
              <rect id="Rectángulo_200" data-name="Rectángulo 200" width="1.129" height="1.129" transform="translate(19.433 20.231) rotate(-45.001)" fill="#21cbae"/>
              <rect id="Rectángulo_201" data-name="Rectángulo 201" width="1.04" height="1.04" transform="translate(14.575 15.31) rotate(-45)" fill="#21cbae"/>
              <rect id="Rectángulo_202" data-name="Rectángulo 202" width="0.95" height="0.95" transform="matrix(0.707, -0.707, 0.707, 0.707, 9.717, 10.388)" fill="#21cbae"/>
              <rect id="Rectángulo_203" data-name="Rectángulo 203" width="0.861" height="0.861" transform="translate(4.858 5.467) rotate(-45)" fill="#21cbae"/>
              <rect id="Rectángulo_204" data-name="Rectángulo 204" width="0.772" height="0.772" transform="matrix(0.707, -0.707, 0.707, 0.707, 0, 0.546)" fill="#21cbae"/>
            </g>
          </g>
          <g id="Grupo_70" data-name="Grupo 70" transform="translate(39.874 3.987)">
            <g id="Grupo_69" data-name="Grupo 69" transform="translate(0 0)">
              <rect id="Rectángulo_205" data-name="Rectángulo 205" width="1.754" height="1.754" transform="translate(53.441 54.681) rotate(-44.999)" fill="#21cbae"/>
              <rect id="Rectángulo_206" data-name="Rectángulo 206" width="1.665" height="1.665" transform="translate(48.583 49.76) rotate(-45)" fill="#21cbae"/>
              <rect id="Rectángulo_207" data-name="Rectángulo 207" width="1.575" height="1.575" transform="translate(43.725 44.839) rotate(-44.999)" fill="#21cbae"/>
              <rect id="Rectángulo_208" data-name="Rectángulo 208" width="1.486" height="1.486" transform="translate(38.866 39.917) rotate(-45)" fill="#21cbae"/>
              <rect id="Rectángulo_209" data-name="Rectángulo 209" width="1.397" height="1.397" transform="translate(34.008 34.996) rotate(-45)" fill="#21cbae"/>
              <rect id="Rectángulo_210" data-name="Rectángulo 210" width="1.307" height="1.307" transform="translate(29.15 30.074) rotate(-45)" fill="#21cbae"/>
              <rect id="Rectángulo_211" data-name="Rectángulo 211" width="1.218" height="1.218" transform="translate(24.291 25.153) rotate(-45)" fill="#21cbae"/>
              <rect id="Rectángulo_212" data-name="Rectángulo 212" width="1.129" height="1.129" transform="translate(19.433 20.231) rotate(-45)" fill="#21cbae"/>
              <rect id="Rectángulo_213" data-name="Rectángulo 213" width="1.04" height="1.04" transform="translate(14.575 15.31) rotate(-45)" fill="#21cbae"/>
              <rect id="Rectángulo_214" data-name="Rectángulo 214" width="0.95" height="0.95" transform="translate(9.717 10.388) rotate(-45)" fill="#21cbae"/>
              <rect id="Rectángulo_215" data-name="Rectángulo 215" width="0.861" height="0.861" transform="translate(4.858 5.467) rotate(-45)" fill="#21cbae"/>
              <rect id="Rectángulo_216" data-name="Rectángulo 216" width="0.772" height="0.772" transform="matrix(0.707, -0.707, 0.707, 0.707, 0, 0.546)" fill="#21cbae"/>
            </g>
          </g>
          <g id="Grupo_72" data-name="Grupo 72" transform="translate(35.887 7.975)">
            <g id="Grupo_71" data-name="Grupo 71" transform="translate(0 0)">
              <rect id="Rectángulo_217" data-name="Rectángulo 217" width="1.754" height="1.754" transform="translate(53.441 54.681) rotate(-44.999)" fill="#21cbae"/>
              <rect id="Rectángulo_218" data-name="Rectángulo 218" width="1.665" height="1.665" transform="translate(48.583 49.76) rotate(-44.999)" fill="#21cbae"/>
              <rect id="Rectángulo_219" data-name="Rectángulo 219" width="1.575" height="1.575" transform="translate(43.725 44.839) rotate(-44.999)" fill="#21cbae"/>
              <rect id="Rectángulo_220" data-name="Rectángulo 220" width="1.486" height="1.486" transform="matrix(0.707, -0.707, 0.707, 0.707, 38.866, 39.917)" fill="#21cbae"/>
              <rect id="Rectángulo_221" data-name="Rectángulo 221" width="1.397" height="1.397" transform="translate(34.008 34.996) rotate(-44.999)" fill="#21cbae"/>
              <rect id="Rectángulo_222" data-name="Rectángulo 222" width="1.307" height="1.307" transform="matrix(0.707, -0.707, 0.707, 0.707, 29.15, 30.074)" fill="#21cbae"/>
              <rect id="Rectángulo_223" data-name="Rectángulo 223" width="1.218" height="1.218" transform="matrix(0.707, -0.707, 0.707, 0.707, 24.291, 25.153)" fill="#21cbae"/>
              <rect id="Rectángulo_224" data-name="Rectángulo 224" width="1.129" height="1.129" transform="translate(19.433 20.231) rotate(-44.999)" fill="#21cbae"/>
              <rect id="Rectángulo_225" data-name="Rectángulo 225" width="1.04" height="1.04" transform="translate(14.575 15.31) rotate(-45)" fill="#21cbae"/>
              <rect id="Rectángulo_226" data-name="Rectángulo 226" width="0.95" height="0.95" transform="translate(9.717 10.388) rotate(-44.998)" fill="#21cbae"/>
              <rect id="Rectángulo_227" data-name="Rectángulo 227" width="0.861" height="0.861" transform="translate(4.858 5.467) rotate(-45)" fill="#21cbae"/>
              <rect id="Rectángulo_228" data-name="Rectángulo 228" width="0.772" height="0.772" transform="matrix(0.707, -0.707, 0.707, 0.707, 0, 0.546)" fill="#21cbae"/>
            </g>
          </g>
          <g id="Grupo_74" data-name="Grupo 74" transform="translate(31.899 11.962)">
            <g id="Grupo_73" data-name="Grupo 73" transform="translate(0 0)">
              <rect id="Rectángulo_229" data-name="Rectángulo 229" width="1.754" height="1.754" transform="translate(53.441 54.681) rotate(-45.001)" fill="#21cbae"/>
              <rect id="Rectángulo_230" data-name="Rectángulo 230" width="1.665" height="1.665" transform="translate(48.583 49.76) rotate(-45.001)" fill="#21cbae"/>
              <rect id="Rectángulo_231" data-name="Rectángulo 231" width="1.575" height="1.575" transform="translate(43.725 44.839) rotate(-45)" fill="#21cbae"/>
              <rect id="Rectángulo_232" data-name="Rectángulo 232" width="1.486" height="1.486" transform="matrix(0.707, -0.707, 0.707, 0.707, 38.866, 39.917)" fill="#21cbae"/>
              <rect id="Rectángulo_233" data-name="Rectángulo 233" width="1.397" height="1.397" transform="translate(34.008 34.996) rotate(-45)" fill="#21cbae"/>
              <rect id="Rectángulo_234" data-name="Rectángulo 234" width="1.307" height="1.307" transform="matrix(0.707, -0.707, 0.707, 0.707, 29.15, 30.074)" fill="#21cbae"/>
              <rect id="Rectángulo_235" data-name="Rectángulo 235" width="1.218" height="1.218" transform="translate(24.291 25.153) rotate(-45)" fill="#21cbae"/>
              <rect id="Rectángulo_236" data-name="Rectángulo 236" width="1.129" height="1.129" transform="translate(19.433 20.231) rotate(-45.001)" fill="#21cbae"/>
              <rect id="Rectángulo_237" data-name="Rectángulo 237" width="1.04" height="1.04" transform="translate(14.575 15.31) rotate(-45)" fill="#21cbae"/>
              <rect id="Rectángulo_238" data-name="Rectángulo 238" width="0.95" height="0.95" transform="translate(9.717 10.388) rotate(-45)" fill="#21cbae"/>
              <rect id="Rectángulo_239" data-name="Rectángulo 239" width="0.861" height="0.861" transform="translate(4.858 5.467) rotate(-45)" fill="#21cbae"/>
              <rect id="Rectángulo_240" data-name="Rectángulo 240" width="0.772" height="0.772" transform="translate(0 0.546) rotate(-44.998)" fill="#21cbae"/>
            </g>
          </g>
          <g id="Grupo_76" data-name="Grupo 76" transform="translate(27.912 15.95)">
            <g id="Grupo_75" data-name="Grupo 75" transform="translate(0 0)">
              <rect id="Rectángulo_241" data-name="Rectángulo 241" width="1.754" height="1.754" transform="translate(53.441 54.681) rotate(-45.001)" fill="#21cbae"/>
              <rect id="Rectángulo_242" data-name="Rectángulo 242" width="1.665" height="1.665" transform="translate(48.583 49.76) rotate(-45.001)" fill="#21cbae"/>
              <rect id="Rectángulo_243" data-name="Rectángulo 243" width="1.575" height="1.575" transform="translate(43.725 44.839) rotate(-45)" fill="#21cbae"/>
              <rect id="Rectángulo_244" data-name="Rectángulo 244" width="1.486" height="1.486" transform="matrix(0.707, -0.707, 0.707, 0.707, 38.866, 39.917)" fill="#21cbae"/>
              <rect id="Rectángulo_245" data-name="Rectángulo 245" width="1.397" height="1.397" transform="translate(34.008 34.996) rotate(-45)" fill="#21cbae"/>
              <rect id="Rectángulo_246" data-name="Rectángulo 246" width="1.307" height="1.307" transform="translate(29.15 30.074) rotate(-45.001)" fill="#21cbae"/>
              <rect id="Rectángulo_247" data-name="Rectángulo 247" width="1.218" height="1.218" transform="translate(24.291 25.153) rotate(-45)" fill="#21cbae"/>
              <rect id="Rectángulo_248" data-name="Rectángulo 248" width="1.129" height="1.129" transform="translate(19.433 20.231) rotate(-45.001)" fill="#21cbae"/>
              <rect id="Rectángulo_249" data-name="Rectángulo 249" width="1.04" height="1.04" transform="translate(14.575 15.31) rotate(-45)" fill="#21cbae"/>
              <rect id="Rectángulo_250" data-name="Rectángulo 250" width="0.95" height="0.95" transform="matrix(0.707, -0.707, 0.707, 0.707, 9.717, 10.388)" fill="#21cbae"/>
              <rect id="Rectángulo_251" data-name="Rectángulo 251" width="0.861" height="0.861" transform="translate(4.858 5.467) rotate(-45)" fill="#21cbae"/>
              <rect id="Rectángulo_252" data-name="Rectángulo 252" width="0.772" height="0.772" transform="matrix(0.707, -0.707, 0.707, 0.707, 0, 0.546)" fill="#21cbae"/>
            </g>
          </g>
          <g id="Grupo_78" data-name="Grupo 78" transform="translate(23.924 19.937)">
            <g id="Grupo_77" data-name="Grupo 77" transform="translate(0 0)">
              <rect id="Rectángulo_253" data-name="Rectángulo 253" width="1.754" height="1.754" transform="translate(53.441 54.681) rotate(-45)" fill="#21cbae"/>
              <rect id="Rectángulo_254" data-name="Rectángulo 254" width="1.665" height="1.665" transform="translate(48.583 49.76) rotate(-45)" fill="#21cbae"/>
              <rect id="Rectángulo_255" data-name="Rectángulo 255" width="1.575" height="1.575" transform="translate(43.725 44.839) rotate(-45.001)" fill="#21cbae"/>
              <rect id="Rectángulo_256" data-name="Rectángulo 256" width="1.486" height="1.486" transform="matrix(0.707, -0.707, 0.707, 0.707, 38.866, 39.917)" fill="#21cbae"/>
              <rect id="Rectángulo_257" data-name="Rectángulo 257" width="1.397" height="1.397" transform="matrix(0.707, -0.707, 0.707, 0.707, 34.008, 34.996)" fill="#21cbae"/>
              <rect id="Rectángulo_258" data-name="Rectángulo 258" width="1.307" height="1.307" transform="matrix(0.707, -0.707, 0.707, 0.707, 29.15, 30.074)" fill="#21cbae"/>
              <rect id="Rectángulo_259" data-name="Rectángulo 259" width="1.218" height="1.218" transform="translate(24.291 25.153) rotate(-45)" fill="#21cbae"/>
              <rect id="Rectángulo_260" data-name="Rectángulo 260" width="1.129" height="1.129" transform="translate(19.433 20.231) rotate(-45.001)" fill="#21cbae"/>
              <rect id="Rectángulo_261" data-name="Rectángulo 261" width="1.04" height="1.04" transform="translate(14.575 15.31) rotate(-45)" fill="#21cbae"/>
              <rect id="Rectángulo_262" data-name="Rectángulo 262" width="0.95" height="0.95" transform="matrix(0.707, -0.707, 0.707, 0.707, 9.717, 10.388)" fill="#21cbae"/>
              <rect id="Rectángulo_263" data-name="Rectángulo 263" width="0.861" height="0.861" transform="translate(4.858 5.467) rotate(-45)" fill="#21cbae"/>
              <rect id="Rectángulo_264" data-name="Rectángulo 264" width="0.772" height="0.772" transform="matrix(0.707, -0.707, 0.707, 0.707, 0, 0.546)" fill="#21cbae"/>
            </g>
          </g>
          <g id="Grupo_80" data-name="Grupo 80" transform="translate(19.937 23.925)">
            <g id="Grupo_79" data-name="Grupo 79" transform="translate(0 0)">
              <rect id="Rectángulo_265" data-name="Rectángulo 265" width="1.754" height="1.754" transform="translate(53.441 54.681) rotate(-44.999)" fill="#21cbae"/>
              <rect id="Rectángulo_266" data-name="Rectángulo 266" width="1.665" height="1.665" transform="translate(48.583 49.76) rotate(-45)" fill="#21cbae"/>
              <rect id="Rectángulo_267" data-name="Rectángulo 267" width="1.575" height="1.575" transform="translate(43.725 44.839) rotate(-44.999)" fill="#21cbae"/>
              <rect id="Rectángulo_268" data-name="Rectángulo 268" width="1.486" height="1.486" transform="translate(38.866 39.917) rotate(-45)" fill="#21cbae"/>
              <rect id="Rectángulo_269" data-name="Rectángulo 269" width="1.397" height="1.397" transform="translate(34.008 34.996) rotate(-44.999)" fill="#21cbae"/>
              <rect id="Rectángulo_270" data-name="Rectángulo 270" width="1.307" height="1.307" transform="matrix(0.707, -0.707, 0.707, 0.707, 29.15, 30.074)" fill="#21cbae"/>
              <rect id="Rectángulo_271" data-name="Rectángulo 271" width="1.218" height="1.218" transform="matrix(0.707, -0.707, 0.707, 0.707, 24.291, 25.153)" fill="#21cbae"/>
              <rect id="Rectángulo_272" data-name="Rectángulo 272" width="1.129" height="1.129" transform="translate(19.433 20.231) rotate(-45.001)" fill="#21cbae"/>
              <rect id="Rectángulo_273" data-name="Rectángulo 273" width="1.04" height="1.04" transform="translate(14.575 15.31) rotate(-45)" fill="#21cbae"/>
              <rect id="Rectángulo_274" data-name="Rectángulo 274" width="0.95" height="0.95" transform="translate(9.717 10.388) rotate(-45.002)" fill="#21cbae"/>
              <rect id="Rectángulo_275" data-name="Rectángulo 275" width="0.861" height="0.861" transform="translate(4.858 5.467) rotate(-45)" fill="#21cbae"/>
              <rect id="Rectángulo_276" data-name="Rectángulo 276" width="0.772" height="0.772" transform="matrix(0.707, -0.707, 0.707, 0.707, 0, 0.546)" fill="#21cbae"/>
            </g>
          </g>
          <g id="Grupo_82" data-name="Grupo 82" transform="translate(15.95 27.912)">
            <g id="Grupo_81" data-name="Grupo 81" transform="translate(0 0)">
              <rect id="Rectángulo_277" data-name="Rectángulo 277" width="1.754" height="1.754" transform="translate(53.441 54.681) rotate(-44.999)" fill="#21cbae"/>
              <rect id="Rectángulo_278" data-name="Rectángulo 278" width="1.665" height="1.665" transform="translate(48.583 49.76) rotate(-45)" fill="#21cbae"/>
              <rect id="Rectángulo_279" data-name="Rectángulo 279" width="1.575" height="1.575" transform="translate(43.725 44.839) rotate(-44.999)" fill="#21cbae"/>
              <rect id="Rectángulo_280" data-name="Rectángulo 280" width="1.486" height="1.486" transform="translate(38.866 39.917) rotate(-45)" fill="#21cbae"/>
              <rect id="Rectángulo_281" data-name="Rectángulo 281" width="1.397" height="1.397" transform="translate(34.008 34.996) rotate(-44.999)" fill="#21cbae"/>
              <rect id="Rectángulo_282" data-name="Rectángulo 282" width="1.307" height="1.307" transform="translate(29.15 30.074) rotate(-45)" fill="#21cbae"/>
              <rect id="Rectángulo_283" data-name="Rectángulo 283" width="1.218" height="1.218" transform="matrix(0.707, -0.707, 0.707, 0.707, 24.291, 25.153)" fill="#21cbae"/>
              <rect id="Rectángulo_284" data-name="Rectángulo 284" width="1.129" height="1.129" transform="translate(19.433 20.231) rotate(-45)" fill="#21cbae"/>
              <rect id="Rectángulo_285" data-name="Rectángulo 285" width="1.04" height="1.04" transform="translate(14.575 15.31) rotate(-45)" fill="#21cbae"/>
              <rect id="Rectángulo_286" data-name="Rectángulo 286" width="0.95" height="0.95" transform="translate(9.717 10.388) rotate(-45)" fill="#21cbae"/>
              <rect id="Rectángulo_287" data-name="Rectángulo 287" width="0.861" height="0.861" transform="translate(4.858 5.467) rotate(-45)" fill="#21cbae"/>
              <rect id="Rectángulo_288" data-name="Rectángulo 288" width="0.772" height="0.772" transform="matrix(0.707, -0.707, 0.707, 0.707, 0, 0.546)" fill="#21cbae"/>
            </g>
          </g>
          <g id="Grupo_84" data-name="Grupo 84" transform="translate(11.962 31.899)">
            <g id="Grupo_83" data-name="Grupo 83" transform="translate(0 0)">
              <rect id="Rectángulo_289" data-name="Rectángulo 289" width="1.754" height="1.754" transform="translate(53.441 54.681) rotate(-44.999)" fill="#21cbae"/>
              <rect id="Rectángulo_290" data-name="Rectángulo 290" width="1.665" height="1.665" transform="translate(48.583 49.76) rotate(-44.999)" fill="#21cbae"/>
              <rect id="Rectángulo_291" data-name="Rectángulo 291" width="1.575" height="1.575" transform="translate(43.725 44.839) rotate(-44.999)" fill="#21cbae"/>
              <rect id="Rectángulo_292" data-name="Rectángulo 292" width="1.486" height="1.486" transform="matrix(0.707, -0.707, 0.707, 0.707, 38.866, 39.917)" fill="#21cbae"/>
              <rect id="Rectángulo_293" data-name="Rectángulo 293" width="1.397" height="1.397" transform="translate(34.008 34.996) rotate(-44.999)" fill="#21cbae"/>
              <rect id="Rectángulo_294" data-name="Rectángulo 294" width="1.307" height="1.307" transform="matrix(0.707, -0.707, 0.707, 0.707, 29.15, 30.074)" fill="#21cbae"/>
              <rect id="Rectángulo_295" data-name="Rectángulo 295" width="1.218" height="1.218" transform="matrix(0.707, -0.707, 0.707, 0.707, 24.291, 25.153)" fill="#21cbae"/>
              <rect id="Rectángulo_296" data-name="Rectángulo 296" width="1.129" height="1.129" transform="translate(19.433 20.231) rotate(-44.999)" fill="#21cbae"/>
              <rect id="Rectángulo_297" data-name="Rectángulo 297" width="1.04" height="1.04" transform="matrix(0.707, -0.707, 0.707, 0.707, 14.575, 15.31)" fill="#21cbae"/>
              <rect id="Rectángulo_298" data-name="Rectángulo 298" width="0.95" height="0.95" transform="translate(9.717 10.388) rotate(-44.998)" fill="#21cbae"/>
              <rect id="Rectángulo_299" data-name="Rectángulo 299" width="0.861" height="0.861" transform="translate(4.858 5.467) rotate(-44.998)" fill="#21cbae"/>
              <rect id="Rectángulo_300" data-name="Rectángulo 300" width="0.772" height="0.772" transform="translate(0 0.546) rotate(-44.998)" fill="#21cbae"/>
            </g>
          </g>
          <g id="Grupo_86" data-name="Grupo 86" transform="translate(7.975 35.887)">
            <g id="Grupo_85" data-name="Grupo 85" transform="translate(0 0)">
              <rect id="Rectángulo_301" data-name="Rectángulo 301" width="1.754" height="1.754" transform="matrix(0.707, -0.707, 0.707, 0.707, 53.441, 54.681)" fill="#21cbae"/>
              <rect id="Rectángulo_302" data-name="Rectángulo 302" width="1.665" height="1.665" transform="translate(48.583 49.76) rotate(-45.001)" fill="#21cbae"/>
              <rect id="Rectángulo_303" data-name="Rectángulo 303" width="1.575" height="1.575" transform="translate(43.725 44.839) rotate(-45.001)" fill="#21cbae"/>
              <rect id="Rectángulo_304" data-name="Rectángulo 304" width="1.486" height="1.486" transform="matrix(0.707, -0.707, 0.707, 0.707, 38.866, 39.917)" fill="#21cbae"/>
              <rect id="Rectángulo_305" data-name="Rectángulo 305" width="1.397" height="1.397" transform="translate(34.008 34.996) rotate(-45)" fill="#21cbae"/>
              <rect id="Rectángulo_306" data-name="Rectángulo 306" width="1.307" height="1.307" transform="translate(29.15 30.074) rotate(-45.001)" fill="#21cbae"/>
              <rect id="Rectángulo_307" data-name="Rectángulo 307" width="1.218" height="1.218" transform="translate(24.291 25.153) rotate(-45)" fill="#21cbae"/>
              <rect id="Rectángulo_308" data-name="Rectángulo 308" width="1.129" height="1.129" transform="translate(19.433 20.231) rotate(-45.001)" fill="#21cbae"/>
              <rect id="Rectángulo_309" data-name="Rectángulo 309" width="1.04" height="1.04" transform="translate(14.575 15.31) rotate(-45)" fill="#21cbae"/>
              <rect id="Rectángulo_310" data-name="Rectángulo 310" width="0.95" height="0.95" transform="translate(9.717 10.388) rotate(-45)" fill="#21cbae"/>
              <rect id="Rectángulo_311" data-name="Rectángulo 311" width="0.861" height="0.861" transform="translate(4.858 5.467) rotate(-45)" fill="#21cbae"/>
              <rect id="Rectángulo_312" data-name="Rectángulo 312" width="0.772" height="0.772" transform="translate(0 0.546) rotate(-45)" fill="#21cbae"/>
            </g>
          </g>
          <g id="Grupo_88" data-name="Grupo 88" transform="translate(3.987 39.874)">
            <g id="Grupo_87" data-name="Grupo 87" transform="translate(0 0)">
              <rect id="Rectángulo_313" data-name="Rectángulo 313" width="1.754" height="1.754" transform="translate(53.441 54.681) rotate(-45)" fill="#21cbae"/>
              <rect id="Rectángulo_314" data-name="Rectángulo 314" width="1.665" height="1.665" transform="translate(48.583 49.76) rotate(-45)" fill="#21cbae"/>
              <rect id="Rectángulo_315" data-name="Rectángulo 315" width="1.575" height="1.575" transform="translate(43.725 44.839) rotate(-45)" fill="#21cbae"/>
              <rect id="Rectángulo_316" data-name="Rectángulo 316" width="1.486" height="1.486" transform="matrix(0.707, -0.707, 0.707, 0.707, 38.866, 39.917)" fill="#21cbae"/>
              <rect id="Rectángulo_317" data-name="Rectángulo 317" width="1.397" height="1.397" transform="translate(34.008 34.996) rotate(-45.001)" fill="#21cbae"/>
              <rect id="Rectángulo_318" data-name="Rectángulo 318" width="1.307" height="1.307" transform="matrix(0.707, -0.707, 0.707, 0.707, 29.15, 30.074)" fill="#21cbae"/>
              <rect id="Rectángulo_319" data-name="Rectángulo 319" width="1.218" height="1.218" transform="translate(24.291 25.153) rotate(-45)" fill="#21cbae"/>
              <rect id="Rectángulo_320" data-name="Rectángulo 320" width="1.129" height="1.129" transform="translate(19.433 20.231) rotate(-45.001)" fill="#21cbae"/>
              <rect id="Rectángulo_321" data-name="Rectángulo 321" width="1.04" height="1.04" transform="translate(14.575 15.31) rotate(-45)" fill="#21cbae"/>
              <rect id="Rectángulo_322" data-name="Rectángulo 322" width="0.95" height="0.95" transform="matrix(0.707, -0.707, 0.707, 0.707, 9.717, 10.388)" fill="#21cbae"/>
              <rect id="Rectángulo_323" data-name="Rectángulo 323" width="0.861" height="0.861" transform="translate(4.858 5.467) rotate(-45)" fill="#21cbae"/>
              <rect id="Rectángulo_324" data-name="Rectángulo 324" width="0.772" height="0.772" transform="matrix(0.707, -0.707, 0.707, 0.707, 0, 0.546)" fill="#21cbae"/>
            </g>
          </g>
          <g id="Grupo_90" data-name="Grupo 90" transform="translate(0 43.862)">
            <g id="Grupo_89" data-name="Grupo 89" transform="translate(0 0)">
              <rect id="Rectángulo_325" data-name="Rectángulo 325" width="1.754" height="1.754" transform="translate(53.441 54.681) rotate(-45)" fill="#21cbae"/>
              <rect id="Rectángulo_326" data-name="Rectángulo 326" width="1.665" height="1.665" transform="translate(48.583 49.76) rotate(-45)" fill="#21cbae"/>
              <rect id="Rectángulo_327" data-name="Rectángulo 327" width="1.575" height="1.575" transform="translate(43.725 44.839) rotate(-45)" fill="#21cbae"/>
              <rect id="Rectángulo_328" data-name="Rectángulo 328" width="1.486" height="1.486" transform="translate(38.866 39.917) rotate(-45)" fill="#21cbae"/>
              <rect id="Rectángulo_329" data-name="Rectángulo 329" width="1.397" height="1.397" transform="translate(34.008 34.996) rotate(-45)" fill="#21cbae"/>
              <rect id="Rectángulo_330" data-name="Rectángulo 330" width="1.307" height="1.307" transform="translate(29.15 30.074) rotate(-45)" fill="#21cbae"/>
              <rect id="Rectángulo_331" data-name="Rectángulo 331" width="1.218" height="1.218" transform="matrix(0.707, -0.707, 0.707, 0.707, 24.291, 25.153)" fill="#21cbae"/>
              <rect id="Rectángulo_332" data-name="Rectángulo 332" width="1.129" height="1.129" transform="translate(19.433 20.231) rotate(-45.001)" fill="#21cbae"/>
              <rect id="Rectángulo_333" data-name="Rectángulo 333" width="1.04" height="1.04" transform="translate(14.575 15.31) rotate(-45.002)" fill="#21cbae"/>
              <rect id="Rectángulo_334" data-name="Rectángulo 334" width="0.95" height="0.95" transform="translate(9.717 10.388) rotate(-45.002)" fill="#21cbae"/>
              <rect id="Rectángulo_335" data-name="Rectángulo 335" width="0.861" height="0.861" transform="matrix(0.707, -0.707, 0.707, 0.707, 4.858, 5.467)" fill="#21cbae"/>
              <rect id="Rectángulo_336" data-name="Rectángulo 336" width="0.772" height="0.772" transform="matrix(0.707, -0.707, 0.707, 0.707, 0, 0.546)" fill="#21cbae"/>
            </g>
          </g>
        </g>
        <ellipse id="Elipse_4760" data-name="Elipse 4760" cx="100.095" cy="100.095" rx="100.095" ry="100.095" transform="translate(25.116 18.855)" fill="#21cbae"/>
        <g id="Grupo_873688" data-name="Grupo 873688" transform="translate(60.515 32.851)">
          <path id="Trazado_34" data-name="Trazado 34" d="M691.406,390.082l-4.089,7.082H695.5Z" transform="translate(-687.318 -330.565)" fill="#fdfdfd"/>
          <path id="Trazado_35" data-name="Trazado 35" d="M691.406,361.354l-4.089,7.082H695.5Z" transform="translate(-687.318 -313.698)" fill="#fdfdfd"/>
          <path id="Trazado_36" data-name="Trazado 36" d="M691.406,332.626l-4.089,7.082H695.5Z" transform="translate(-687.318 -296.832)" fill="#fdfdfd"/>
          <path id="Trazado_37" data-name="Trazado 37" d="M693.847,245.931l-2.372,4.108h4.744Z" transform="translate(-689.759 -245.931)" fill="#f13b76"/>
        </g>
      </g>
      <g id="Grupo_140419" data-name="Grupo 140419" transform="translate(9.121 160.89)">
        <g id="Grupo_4" data-name="Grupo 4" transform="translate(0)">
          <rect id="Rectángulo_4" data-name="Rectángulo 4" width="1.754" height="1.754" fill="none" stroke="#0b5999" stroke-miterlimit="10" stroke-width="1.078"/>
          <rect id="Rectángulo_5" data-name="Rectángulo 5" width="1.754" height="1.754" transform="translate(13.405)" fill="none" stroke="#0b5999" stroke-miterlimit="10" stroke-width="1.078"/>
          <rect id="Rectángulo_6" data-name="Rectángulo 6" width="1.754" height="1.754" transform="translate(26.811)" fill="none" stroke="#0b5999" stroke-miterlimit="10" stroke-width="1.078"/>
          <rect id="Rectángulo_7" data-name="Rectángulo 7" width="1.754" height="1.754" transform="translate(40.216)" fill="none" stroke="#0b5999" stroke-miterlimit="10" stroke-width="1.078"/>
          <rect id="Rectángulo_8" data-name="Rectángulo 8" width="1.754" height="1.754" transform="translate(53.622)" fill="none" stroke="#0b5999" stroke-miterlimit="10" stroke-width="1.078"/>
          <rect id="Rectángulo_9" data-name="Rectángulo 9" width="1.754" height="1.754" transform="translate(67.027)" fill="none" stroke="#0b5999" stroke-miterlimit="10" stroke-width="1.078"/>
        </g>
        <g id="Grupo_5" data-name="Grupo 5" transform="translate(0 9.772)">
          <rect id="Rectángulo_10" data-name="Rectángulo 10" width="1.754" height="1.754" fill="none" stroke="#0b5999" stroke-miterlimit="10" stroke-width="1.078"/>
          <rect id="Rectángulo_11" data-name="Rectángulo 11" width="1.754" height="1.754" transform="translate(13.405)" fill="none" stroke="#0b5999" stroke-miterlimit="10" stroke-width="1.078"/>
          <rect id="Rectángulo_12" data-name="Rectángulo 12" width="1.754" height="1.754" transform="translate(26.811)" fill="none" stroke="#0b5999" stroke-miterlimit="10" stroke-width="1.078"/>
          <rect id="Rectángulo_13" data-name="Rectángulo 13" width="1.754" height="1.754" transform="translate(40.216)" fill="none" stroke="#0b5999" stroke-miterlimit="10" stroke-width="1.078"/>
          <rect id="Rectángulo_14" data-name="Rectángulo 14" width="1.754" height="1.754" transform="translate(53.622)" fill="none" stroke="#0b5999" stroke-miterlimit="10" stroke-width="1.078"/>
          <rect id="Rectángulo_15" data-name="Rectángulo 15" width="1.754" height="1.754" transform="translate(67.027)" fill="none" stroke="#0b5999" stroke-miterlimit="10" stroke-width="1.078"/>
        </g>
        <g id="Grupo_6" data-name="Grupo 6" transform="translate(0 19.544)">
          <rect id="Rectángulo_16" data-name="Rectángulo 16" width="1.754" height="1.754" fill="none" stroke="#0b5999" stroke-miterlimit="10" stroke-width="1.078"/>
          <rect id="Rectángulo_17" data-name="Rectángulo 17" width="1.754" height="1.754" transform="translate(13.405)" fill="none" stroke="#0b5999" stroke-miterlimit="10" stroke-width="1.078"/>
          <rect id="Rectángulo_18" data-name="Rectángulo 18" width="1.754" height="1.754" transform="translate(26.811)" fill="none" stroke="#0b5999" stroke-miterlimit="10" stroke-width="1.078"/>
          <rect id="Rectángulo_19" data-name="Rectángulo 19" width="1.754" height="1.754" transform="translate(40.216)" fill="none" stroke="#0b5999" stroke-miterlimit="10" stroke-width="1.078"/>
          <rect id="Rectángulo_20" data-name="Rectángulo 20" width="1.754" height="1.754" transform="translate(53.622)" fill="none" stroke="#0b5999" stroke-miterlimit="10" stroke-width="1.078"/>
          <rect id="Rectángulo_21" data-name="Rectángulo 21" width="1.754" height="1.754" transform="translate(67.027)" fill="none" stroke="#0b5999" stroke-miterlimit="10" stroke-width="1.078"/>
        </g>
        <g id="Grupo_7" data-name="Grupo 7" transform="translate(0 29.317)">
          <rect id="Rectángulo_22" data-name="Rectángulo 22" width="1.754" height="1.754" fill="none" stroke="#0b5999" stroke-miterlimit="10" stroke-width="1.078"/>
          <rect id="Rectángulo_23" data-name="Rectángulo 23" width="1.754" height="1.754" transform="translate(13.405)" fill="none" stroke="#0b5999" stroke-miterlimit="10" stroke-width="1.078"/>
          <rect id="Rectángulo_24" data-name="Rectángulo 24" width="1.754" height="1.754" transform="translate(26.811)" fill="none" stroke="#0b5999" stroke-miterlimit="10" stroke-width="1.078"/>
          <rect id="Rectángulo_25" data-name="Rectángulo 25" width="1.754" height="1.754" transform="translate(40.216)" fill="none" stroke="#0b5999" stroke-miterlimit="10" stroke-width="1.078"/>
          <rect id="Rectángulo_26" data-name="Rectángulo 26" width="1.754" height="1.754" transform="translate(53.622)" fill="none" stroke="#0b5999" stroke-miterlimit="10" stroke-width="1.078"/>
          <rect id="Rectángulo_27" data-name="Rectángulo 27" width="1.754" height="1.754" transform="translate(67.027)" fill="none" stroke="#0b5999" stroke-miterlimit="10" stroke-width="1.078"/>
        </g>
        <g id="Grupo_8" data-name="Grupo 8" transform="translate(0 39.089)">
          <rect id="Rectángulo_28" data-name="Rectángulo 28" width="1.754" height="1.754" fill="none" stroke="#0b5999" stroke-miterlimit="10" stroke-width="1.078"/>
          <rect id="Rectángulo_29" data-name="Rectángulo 29" width="1.754" height="1.754" transform="translate(13.405)" fill="none" stroke="#0b5999" stroke-width="1"/>
          <rect id="Rectángulo_30" data-name="Rectángulo 30" width="1.754" height="1.754" transform="translate(26.811)" fill="none" stroke="#0b5999" stroke-width="1"/>
          <rect id="Rectángulo_31" data-name="Rectángulo 31" width="1.754" height="1.754" transform="translate(40.216)" fill="none" stroke="#0b5999" stroke-miterlimit="10" stroke-width="1.078"/>
          <rect id="Rectángulo_32" data-name="Rectángulo 32" width="1.754" height="1.754" transform="translate(53.622)" fill="none" stroke="#0b5999" stroke-miterlimit="10" stroke-width="1.078"/>
          <rect id="Rectángulo_33" data-name="Rectángulo 33" width="1.754" height="1.754" transform="translate(67.027)" fill="none" stroke="#0b5999" stroke-miterlimit="10" stroke-width="1.078"/>
        </g>
        <g id="Grupo_9" data-name="Grupo 9" transform="translate(0 48.861)">
          <rect id="Rectángulo_34" data-name="Rectángulo 34" width="1.754" height="1.754" fill="none" stroke="#0b5999" stroke-miterlimit="10" stroke-width="1.078"/>
          <rect id="Rectángulo_35" data-name="Rectángulo 35" width="1.754" height="1.754" transform="translate(13.405)" fill="none" stroke="#0b5999" stroke-miterlimit="10" stroke-width="1.078"/>
          <rect id="Rectángulo_36" data-name="Rectángulo 36" width="1.754" height="1.754" transform="translate(26.811)" fill="none" stroke="#0b5999" stroke-miterlimit="10" stroke-width="1.078"/>
          <rect id="Rectángulo_37" data-name="Rectángulo 37" width="1.754" height="1.754" transform="translate(40.216)" fill="none" stroke="#0b5999" stroke-width="1"/>
          <rect id="Rectángulo_38" data-name="Rectángulo 38" width="1.754" height="1.754" transform="translate(53.622)" fill="none" stroke="#0b5999" stroke-miterlimit="10" stroke-width="1.078"/>
          <rect id="Rectángulo_39" data-name="Rectángulo 39" width="1.754" height="1.754" transform="translate(67.027)" fill="none" stroke="#0b5999" stroke-miterlimit="10" stroke-width="1.078"/>
        </g>
        <g id="Grupo_10" data-name="Grupo 10" transform="translate(0 58.633)">
          <rect id="Rectángulo_40" data-name="Rectángulo 40" width="1.754" height="1.754" fill="none" stroke="#0b5999" stroke-miterlimit="10" stroke-width="1.078"/>
          <rect id="Rectángulo_41" data-name="Rectángulo 41" width="1.754" height="1.754" transform="translate(13.405)" fill="none" stroke="#0b5999" stroke-miterlimit="10" stroke-width="1.078"/>
          <rect id="Rectángulo_42" data-name="Rectángulo 42" width="1.754" height="1.754" transform="translate(26.811)" fill="none" stroke="#0b5999" stroke-miterlimit="10" stroke-width="1.078"/>
          <rect id="Rectángulo_43" data-name="Rectángulo 43" width="1.754" height="1.754" transform="translate(40.216)" fill="none" stroke="#0b5999" stroke-miterlimit="10" stroke-width="1.078"/>
          <rect id="Rectángulo_44" data-name="Rectángulo 44" width="1.754" height="1.754" transform="translate(53.622)" fill="none" stroke="#0b5999" stroke-width="1"/>
          <rect id="Rectángulo_45" data-name="Rectángulo 45" width="1.754" height="1.754" transform="translate(67.027)" fill="none" stroke="#0b5999" stroke-miterlimit="10" stroke-width="1.078"/>
        </g>
      </g>
    </g>
    <g id="Grupo_911021" data-name="Grupo 911021" transform="translate(5544.805 -18783.521)">
      <path id="Trazado_634509" data-name="Trazado 634509" d="M71.549,103.87c32.87-32.716,78.007-44.73,112.557-41.138,39.489,4.105,67.023,29.324,74.342,63.442q.756,3.525,1.219,7.189c1.935,15.431-.367,32.729-7.72,50.4-29,69.7-115.93,85.141-164.369,69.912C34.459,236.976,10.068,165.063,71.549,103.87Z" transform="translate(-35.289 -51.338)" fill="#dfe6ee"/>
      <g id="Grupo_910300" data-name="Grupo 910300" transform="translate(15.764 14.357)">
        <g id="Grupo_910298" data-name="Grupo 910298" transform="translate(0)">
          <path id="Trazado_634510" data-name="Trazado 634510" d="M121.942,74.779q-.061-2.233-.125-4.466a4.374,4.374,0,0,0-.2-1.259c-.115-.24-23.72-.019-28.356-.052-4.552-.032-27.235.061-27.364.063-.606.011-.5.706-.511.706,0,.1-.03,19.912-.008,29.85.136.13,9.782.1,14.257.1,4.656.006,9.312-.015,13.968-.023,4.571-.008,25.308.075,27.564-.147a1.686,1.686,0,0,0,.177-.038,1.464,1.464,0,0,0,.513-.141c.07-4.664.1-9.332.021-13.952C121.821,81.856,121.873,78.314,121.942,74.779Z" transform="translate(-65.371 -68.941)" fill="#fecb2f"/>
          <path id="Trazado_634511" data-name="Trazado 634511" d="M121.95,74.748q-.061-2.217-.124-4.435a4.355,4.355,0,0,0-.2-1.258c-.115-.24-23.72-.019-28.356-.052-4.552-.032-27.235.061-27.364.063-.606.011-.5.706-.511.706,0,.033,0,2-.006,4.988,3.443.012,9.611.008,13.023.01q7.6,0,15.2,0C98,74.765,116.047,74.788,121.95,74.748Z" transform="translate(-65.381 -68.941)" fill="#ef3c79"/>
          <path id="Trazado_634512" data-name="Trazado 634512" d="M164.7,74.052a1.507,1.507,0,0,1-.092-1.359,1.732,1.732,0,0,1,.259-.4,1.61,1.61,0,0,1,.216-.2,1.534,1.534,0,0,1,.486-.239,1.772,1.772,0,0,1,.343-.078,2.041,2.041,0,0,1,.353.014,1.482,1.482,0,0,1,.889.468,1.534,1.534,0,0,1-1.953,2.333A1.515,1.515,0,0,1,164.7,74.052Z" transform="translate(-112.549 -70.29)" fill="#fecb2f"/>
          <path id="Trazado_634513" data-name="Trazado 634513" d="M156.032,74.052a1.506,1.506,0,0,1-.092-1.359,1.731,1.731,0,0,1,.259-.4,1.609,1.609,0,0,1,.216-.2,1.535,1.535,0,0,1,.486-.239,1.772,1.772,0,0,1,.343-.078,2.041,2.041,0,0,1,.353.014,1.482,1.482,0,0,1,.889.468,1.534,1.534,0,0,1-1.953,2.333A1.515,1.515,0,0,1,156.032,74.052Z" transform="translate(-108.421 -70.29)" fill="#fff"/>
          <path id="Trazado_634514" data-name="Trazado 634514" d="M147.36,74.052a1.5,1.5,0,0,1-.092-1.359,1.731,1.731,0,0,1,.259-.4,1.609,1.609,0,0,1,.216-.2,1.535,1.535,0,0,1,.486-.239,1.772,1.772,0,0,1,.343-.078,2.041,2.041,0,0,1,.353.014,1.482,1.482,0,0,1,.889.468,1.534,1.534,0,0,1-1.953,2.333A1.515,1.515,0,0,1,147.36,74.052Z" transform="translate(-104.294 -70.29)" fill="#fff"/>
        </g>
        <g id="Grupo_910299" data-name="Grupo 910299" transform="translate(3.094 8.826)">
          <path id="Trazado_634515" data-name="Trazado 634515" d="M121.656,89.4c-.037-.922-.072-1.845-.112-2.767,0-.1-.067-.714-.177-.78-.1-.148-21.125-.014-25.254-.034-4.054-.02-24.255.035-24.37.037-.539.006-.442.438-.455.438,0,.065-.025,12.34-.005,18.5.122.081,8.712.061,12.7.064,4.147,0,8.293-.009,12.44-.013,4.071,0,22.539.049,24.548-.088.06,0,.1-.017.157-.024a1.78,1.78,0,0,0,.456-.087c.062-2.891.085-5.784.018-8.647C121.549,93.787,121.6,91.593,121.656,89.4Z" transform="translate(-71.276 -85.783)" fill="#fff"/>
          <text id="_..._..._" data-name="{...}/&lt;...&gt;" transform="translate(24.139 12.647)" fill="#0b5999" font-size="10" font-family="SegoeUI, Segoe UI"><tspan x="-18.311" y="0">{...}/&lt;...&gt;</tspan></text>
        </g>
      </g>
      <g id="Grupo_910303" data-name="Grupo 910303" transform="translate(11.208 109.306)">
        <g id="Grupo_910301" data-name="Grupo 910301" transform="translate(0)">
          <path id="Trazado_634516" data-name="Trazado 634516" d="M127.587,269.416q-.075-7.379-.154-14.757a36.639,36.639,0,0,0-.248-4.159c-.145-.791-29.729-.047-35.539-.153-5.706-.1-34.134.217-34.3.224-.759.037-.623,2.335-.641,2.334,0,.346-.05,65.794-.029,98.629.171.431,12.26.314,17.87.33,5.835.016,11.67-.056,17.505-.083,5.729-.028,31.719.232,34.546-.5a1.178,1.178,0,0,0,.221-.127,1.2,1.2,0,0,0,.642-.465c.091-15.411.127-30.836.036-46.1C127.431,292.8,127.5,281.1,127.587,269.416Z" transform="translate(-56.676 -250.13)" fill="#0b5999"/>
          <path id="Trazado_634517" data-name="Trazado 634517" d="M127.483,256.627q-.011-.985-.02-1.969a36.517,36.517,0,0,0-.248-4.159c-.145-.791-29.729-.047-35.539-.153-5.706-.1-34.134.217-34.3.224-.759.037-.623,2.335-.641,2.334,0,.049,0,1.383,0,3.731,4.388.012,11.964.008,16.187.01q9.592.005,19.183,0C97.549,256.642,119.668,256.666,127.483,256.627Z" transform="translate(-56.705 -250.13)" fill="#ef3c79"/>
          <path id="Trazado_634518" data-name="Trazado 634518" d="M181.593,255.684a1.508,1.508,0,0,1-.092-1.359,1.749,1.749,0,0,1,.259-.4,1.642,1.642,0,0,1,.216-.2,1.532,1.532,0,0,1,.486-.239,1.757,1.757,0,0,1,.342-.078,1.989,1.989,0,0,1,.353.015,1.478,1.478,0,0,1,.89.467,1.534,1.534,0,0,1-1.953,2.333A1.516,1.516,0,0,1,181.593,255.684Z" transform="translate(-116.031 -251.69)" fill="#fecb2f"/>
          <path id="Trazado_634519" data-name="Trazado 634519" d="M172.921,255.684a1.508,1.508,0,0,1-.092-1.359,1.749,1.749,0,0,1,.259-.4,1.642,1.642,0,0,1,.216-.2,1.535,1.535,0,0,1,.486-.239,1.771,1.771,0,0,1,.343-.078,1.989,1.989,0,0,1,.353.015,1.478,1.478,0,0,1,.89.467,1.534,1.534,0,0,1-1.953,2.333A1.516,1.516,0,0,1,172.921,255.684Z" transform="translate(-111.904 -251.69)" fill="#fff"/>
          <path id="Trazado_634520" data-name="Trazado 634520" d="M164.249,255.684a1.508,1.508,0,0,1-.092-1.359,1.731,1.731,0,0,1,.259-.4,1.641,1.641,0,0,1,.216-.2,1.535,1.535,0,0,1,.486-.239,1.771,1.771,0,0,1,.343-.078,1.989,1.989,0,0,1,.353.015,1.481,1.481,0,0,1,.89.467,1.534,1.534,0,0,1-1.954,2.333A1.519,1.519,0,0,1,164.249,255.684Z" transform="translate(-107.776 -251.69)" fill="#fff"/>
        </g>
        <g id="Grupo_910302" data-name="Grupo 910302" transform="translate(4.737 11.403)">
          <path id="Trazado_634521" data-name="Trazado 634521" d="M93,271.89c-3.482.1-11.548.049-13.611.055-2.554.007-5.108.027-7.662.023-1.531,0-4.16.008-5.944-.013a1.509,1.509,0,0,0-.068.523c0,.019,0,.74,0,1.955,1.727.028,4.582.015,6.19.018,2.495,0,4.99-.015,7.484-.023,2.1-.006,10.567.049,13.7-.068q-.01-.687-.019-1.374C93.07,272.858,93.044,272.16,93,271.89Z" transform="translate(-65.715 -271.89)" fill="#ef3c79"/>
          <path id="Trazado_634522" data-name="Trazado 634522" d="M91.084,285.536c-1.671.1-5.54.049-6.529.055-1.225.007-2.45.027-3.676.023-.734,0-2,.008-2.851-.013a3.141,3.141,0,0,0-.033.523c0,.019,0,.74,0,1.955.829.028,2.2.015,2.97.018,1.2,0,2.394-.015,3.59-.023,1.008-.007,5.069.049,6.572-.068q0-.687-.009-1.374C91.117,286.5,91.105,285.806,91.084,285.536Z" transform="translate(-71.56 -278.385)" fill="#fecb2f"/>
          <path id="Trazado_634523" data-name="Trazado 634523" d="M101.142,421.96c-2.954.1-9.8.048-11.546.055-2.166.007-4.333.027-6.5.023-1.3,0-3.529.008-5.042-.013a1.785,1.785,0,0,0-.058.523c0,.019,0,.74,0,1.955,1.466.028,3.887.015,5.252.018,2.117,0,4.233-.015,6.349-.023,1.782-.007,8.964.049,11.623-.068-.006-.458-.01-.917-.017-1.375C101.2,422.928,101.179,422.229,101.142,421.96Z" transform="translate(-71.56 -343.318)" fill="#fecb2f"/>
          <path id="Trazado_634524" data-name="Trazado 634524" d="M114.783,285.536c-1.127.1-3.737.049-4.4.055-.827.007-1.653.027-2.48.023-.5,0-1.346.008-1.923-.013a4.564,4.564,0,0,0-.022.523c0,.019,0,.74,0,1.955.559.028,1.482.015,2,.018.808,0,1.615-.015,2.422-.023.68-.007,3.419.049,4.434-.068q0-.687-.006-1.374C114.806,286.5,114.8,285.806,114.783,285.536Z" transform="translate(-84.867 -278.385)" fill="#6b95b2"/>
          <path id="Trazado_634525" data-name="Trazado 634525" d="M122.407,340.675c-1.67.1-5.539.048-6.529.055-1.225.007-2.45.028-3.676.023-.734,0-2,.008-2.851-.013a3.179,3.179,0,0,0-.032.523c0,.019,0,.74,0,1.955.828.028,2.2.014,2.97.017,1.2.005,2.394-.015,3.59-.023,1.008-.006,5.069.049,6.572-.068q0-.687-.009-1.375C122.44,341.643,122.428,340.945,122.407,340.675Z" transform="translate(-86.469 -304.629)" fill="#fecb2f"/>
          <path id="Trazado_634526" data-name="Trazado 634526" d="M146.106,340.675c-1.127.1-3.737.048-4.405.055-.826.007-1.653.028-2.479.023-.5,0-1.346.008-1.923-.013a4.563,4.563,0,0,0-.022.523c0,.019,0,.74,0,1.955.559.028,1.482.014,2,.017.808.005,1.615-.015,2.422-.023.68-.006,3.419.049,4.434-.068q0-.687-.006-1.375C146.128,341.643,146.12,340.945,146.106,340.675Z" transform="translate(-99.776 -304.629)" fill="#6b95b2"/>
          <path id="Trazado_634527" data-name="Trazado 634527" d="M123.067,381.835c-1.127.1-3.737.048-4.405.054-.826.007-1.653.028-2.479.023-.5,0-1.346.008-1.924-.012a4.565,4.565,0,0,0-.022.523v1.955c.559.028,1.482.014,2,.017.807.005,1.615-.015,2.422-.022.68-.006,3.42.049,4.434-.068q0-.687-.007-1.375C123.089,382.8,123.081,382.1,123.067,381.835Z" transform="translate(-88.81 -324.22)" fill="#6b95b2"/>
          <path id="Trazado_634528" data-name="Trazado 634528" d="M123.067,390.766c-1.127.1-3.737.048-4.405.055-.826.007-1.653.028-2.479.023-.5,0-1.346.009-1.924-.012a4.565,4.565,0,0,0-.022.523v1.955c.559.028,1.482.014,2,.017.807.005,1.615-.015,2.422-.023.68-.006,3.42.049,4.434-.068q0-.687-.007-1.375C123.089,391.734,123.081,391.035,123.067,390.766Z" transform="translate(-88.81 -328.471)" fill="#6b95b2"/>
          <path id="Trazado_634529" data-name="Trazado 634529" d="M142.184,285.536c-2.057.1-6.821.049-8.04.055-1.508.007-3.017.027-4.526.023-.9,0-2.457.008-3.51-.013a2.526,2.526,0,0,0-.04.523c0,.019,0,.74,0,1.955,1.02.028,2.706.015,3.657.018,1.474,0,2.947-.015,4.421-.023,1.24-.007,6.241.049,8.093-.068q-.005-.687-.012-1.374C142.225,286.5,142.21,285.806,142.184,285.536Z" transform="translate(-94.44 -278.385)" fill="#6b95b2"/>
          <path id="Trazado_634530" data-name="Trazado 634530" d="M136.864,299.265c-4.725.106-15.667.052-18.466.059-3.465.008-6.929.029-10.395.024-2.076,0-5.643.009-8.063-.013a1.305,1.305,0,0,0-.092.562c0,.021,0,.795,0,2.1,2.343.03,6.216.016,8.4.019,3.385.005,6.769-.016,10.154-.025,2.849-.007,14.336.052,18.588-.073-.009-.492-.017-.984-.026-1.476A10.345,10.345,0,0,0,136.864,299.265Z" transform="translate(-81.96 -284.92)" fill="#fecb2f"/>
          <path id="Trazado_634531" data-name="Trazado 634531" d="M136.864,308.584c-4.725.106-15.667.052-18.466.059-3.465.008-6.929.03-10.395.025-2.076,0-5.643.009-8.063-.014a1.307,1.307,0,0,0-.092.562c0,.02,0,.794,0,2.1,2.343.03,6.216.015,8.4.019,3.385.005,6.769-.016,10.154-.024,2.849-.007,14.336.052,18.588-.073-.009-.492-.017-.985-.026-1.477A10.364,10.364,0,0,0,136.864,308.584Z" transform="translate(-81.96 -289.355)" fill="#fff"/>
          <path id="Trazado_634532" data-name="Trazado 634532" d="M127.534,317.9c-3.534.106-11.718.052-13.812.059-2.592.008-5.183.03-7.775.025-1.553,0-4.221.009-6.031-.014a1.72,1.72,0,0,0-.069.562c0,.02,0,.795,0,2.1,1.753.03,4.649.016,6.282.019,2.532.005,5.063-.016,7.594-.024,2.131-.007,10.723.052,13.9-.073q-.009-.738-.019-1.477C127.6,318.943,127.579,318.193,127.534,317.9Z" transform="translate(-81.96 -293.791)" fill="#fff"/>
          <path id="Trazado_634533" data-name="Trazado 634533" d="M127.534,410.837c-3.534.106-11.718.052-13.812.059-2.592.008-5.183.029-7.775.024-1.553,0-4.221.009-6.031-.013a1.716,1.716,0,0,0-.069.562c0,.021,0,.795,0,2.1,1.753.03,4.649.016,6.282.019,2.532.005,5.063-.016,7.594-.025,2.131-.007,10.723.052,13.9-.073q-.009-.738-.019-1.476C127.6,411.877,127.579,411.126,127.534,410.837Z" transform="translate(-81.96 -338.024)" fill="#fecb2f"/>
          <path id="Trazado_634534" data-name="Trazado 634534" d="M151.1,353.886c-4.724.106-15.666.052-18.465.059-3.465.008-6.93.029-10.395.024-2.076,0-5.644.009-8.064-.013a1.3,1.3,0,0,0-.092.562c0,.021,0,.795,0,2.1,2.344.03,6.216.016,8.4.019,3.385.005,6.769-.016,10.154-.025,2.849-.007,14.335.052,18.588-.072q-.013-.739-.027-1.477A10.239,10.239,0,0,0,151.1,353.886Z" transform="translate(-88.736 -310.917)" fill="#fff"/>
          <path id="Trazado_634535" data-name="Trazado 634535" d="M151.1,363.2c-4.724.106-15.666.052-18.465.059-3.465.008-6.93.03-10.395.024-2.076,0-5.644.009-8.064-.013a1.3,1.3,0,0,0-.092.562c0,.021,0,.795,0,2.1,2.344.03,6.216.015,8.4.019,3.385.005,6.769-.016,10.154-.025,2.849-.007,14.335.052,18.588-.072q-.013-.739-.027-1.477A10.248,10.248,0,0,0,151.1,363.2Z" transform="translate(-88.736 -315.353)" fill="#fff"/>
          <path id="Trazado_634536" data-name="Trazado 634536" d="M141.772,372.524c-3.534.106-11.718.052-13.812.059-2.592.008-5.183.03-7.775.025-1.553,0-4.222.009-6.032-.014a1.714,1.714,0,0,0-.069.562c0,.02,0,.795,0,2.1,1.753.03,4.649.016,6.282.019,2.532.005,5.063-.016,7.595-.024,2.131-.007,10.723.052,13.9-.073-.007-.492-.013-.984-.02-1.477C141.842,373.564,141.816,372.814,141.772,372.524Z" transform="translate(-88.736 -319.788)" fill="#fff"/>
          <path id="Trazado_634537" data-name="Trazado 634537" d="M128.758,399.511c-1.873.106-6.21.052-7.32.059-1.373.008-2.747.03-4.121.025-.823,0-2.237.009-3.2-.014a3.158,3.158,0,0,0-.036.562c0,.02,0,.795,0,2.1.929.03,2.464.016,3.33.019,1.342.005,2.684-.016,4.025-.024,1.129-.007,5.683.052,7.369-.073q-.005-.738-.01-1.477C128.8,400.551,128.782,399.8,128.758,399.511Z" transform="translate(-88.736 -332.633)" fill="#fff"/>
          <path id="Trazado_634538" data-name="Trazado 634538" d="M162.225,399.511c-2.27.106-7.525.052-8.869.059-1.664.008-3.328.03-4.992.025-1,0-2.711.009-3.873-.014a2.656,2.656,0,0,0-.044.562c0,.02,0,.795,0,2.1,1.126.03,2.985.016,4.034.019,1.626.005,3.251-.016,4.877-.024,1.369-.007,6.886.052,8.928-.073q-.006-.738-.013-1.477C162.27,400.551,162.253,399.8,162.225,399.511Z" transform="translate(-103.188 -332.633)" fill="#fff"/>
          <path id="Trazado_634539" data-name="Trazado 634539" d="M79.121,352.533q-.017-3.022-.035-6.044-.035-6.045-.07-12.089-.071-12.221-.143-24.44-.041-6.964-.074-13.929a.228.228,0,0,0-.456,0q.167,24.441.269,48.882l.037,6.833c.013,2.348-.1,4.758.137,7.1a.136.136,0,0,0,.271,0C79.251,356.76,79.133,354.621,79.121,352.533Z" transform="translate(-71.726 -283.275)" fill="#6b95b2"/>
          <path id="Trazado_634540" data-name="Trazado 634540" d="M100.73,336.911c.02-2.92.05-5.84.049-8.76a.209.209,0,0,0-.419-.005c-.157,10.327-.169,20.659-.241,30.987-.02,2.92-.057,5.84-.025,8.76a.179.179,0,0,0,.357,0C100.722,357.575,100.659,347.236,100.73,336.911Z" transform="translate(-82.073 -298.571)" fill="#6b95b2"/>
        </g>
      </g>
      <g id="Grupo_910311" data-name="Grupo 910311" transform="translate(76.529 48.016)">
        <g id="Grupo_910304" data-name="Grupo 910304">
          <path id="Trazado_634541" data-name="Trazado 634541" d="M318.205,153.327q-.147-7.71-.3-15.421c-.012-.546-.181-3.974-.479-4.346-.279-.827-57.391-.057-68.609-.169-11.014-.111-65.9.217-66.208.225-1.465.038-1.2,2.439-1.236,2.439,0,.362-.079,68.753-.03,103.065.33.45,57.027.293,68.292.266,11.06-.027,61.234.251,66.691-.514a3.085,3.085,0,0,0,.428-.134,2.776,2.776,0,0,0,1.24-.486c.172-16.1.236-32.223.057-48.175C317.911,177.761,318.038,165.534,318.205,153.327Z" transform="translate(-181.326 -133.171)" fill="#fff"/>
          <path id="Trazado_634542" data-name="Trazado 634542" d="M249.658,139.7c10.273-.027,49.263.187,68.316-.2q-.016-.8-.031-1.594c-.012-.546-.181-3.974-.479-4.346-.28-.827-57.392-.057-68.61-.169-11.014-.111-65.9.217-66.208.225-1.465.038-1.2,2.439-1.236,2.439,0,.049,0,1.342,0,3.612C201.3,139.835,239.92,139.722,249.658,139.7Z" transform="translate(-181.365 -133.171)" fill="#ef3c79"/>
          <path id="Trazado_634543" data-name="Trazado 634543" d="M425.046,204.47q-.014,13.272-.02,26.542t0,26.543c.005,4.882-.077,9.774.058,14.655-6.1.261-12.208.484-18.294.937-.16.012-.164.254,0,.252,6.1-.069,12.2-.371,18.3-.632a.282.282,0,0,0,.124-.034.188.188,0,0,0,.258-.171c.142-4.438.077-8.887.091-13.327q.021-6.608.03-13.215c.014-8.847.069-17.7.057-26.542-.007-5,.01-10,.016-15.007A.31.31,0,0,0,425.046,204.47Z" transform="translate(-288.583 -166.964)" fill="#d5dfe9"/>
          <path id="Trazado_634544" data-name="Trazado 634544" d="M442.283,156.558c-.025-.333-.534-.342-.526,0,.088,3.476.245,6.944.243,10.423s-.1,6.95-.247,10.423c-.015.353.527.35.547,0,.2-3.47.28-6.946.276-10.423S442.545,160.018,442.283,156.558Z" transform="translate(-305.28 -144.182)" fill="#d5dfe9"/>
          <path id="Trazado_634545" data-name="Trazado 634545" d="M431.735,139.273a1.288,1.288,0,0,1-.078-1.16,1.479,1.479,0,0,1,.222-.339,1.4,1.4,0,0,1,.184-.172,1.306,1.306,0,0,1,.415-.2,1.531,1.531,0,0,1,.292-.066,1.705,1.705,0,0,1,.3.013,1.261,1.261,0,0,1,.759.4,1.309,1.309,0,0,1-1.667,1.991A1.3,1.3,0,0,1,431.735,139.273Z" transform="translate(-300.426 -135.15)" fill="#fecb2f"/>
          <path id="Trazado_634546" data-name="Trazado 634546" d="M424.332,139.273a1.288,1.288,0,0,1-.078-1.16,1.481,1.481,0,0,1,.222-.339,1.4,1.4,0,0,1,.185-.172,1.312,1.312,0,0,1,.415-.2,1.531,1.531,0,0,1,.292-.066,1.706,1.706,0,0,1,.3.013,1.261,1.261,0,0,1,.759.4,1.309,1.309,0,0,1-1.667,1.991A1.3,1.3,0,0,1,424.332,139.273Z" transform="translate(-296.902 -135.15)" fill="#fff"/>
          <path id="Trazado_634547" data-name="Trazado 634547" d="M416.93,139.273a1.287,1.287,0,0,1-.079-1.16,1.479,1.479,0,0,1,.222-.339,1.4,1.4,0,0,1,.184-.172,1.312,1.312,0,0,1,.415-.2,1.533,1.533,0,0,1,.292-.066,1.705,1.705,0,0,1,.3.013,1.261,1.261,0,0,1,.759.4,1.308,1.308,0,1,1-2.1,1.53Z" transform="translate(-293.379 -135.15)" fill="#fff"/>
        </g>
        <g id="Grupo_910310" data-name="Grupo 910310" transform="translate(14.354 19.15)">
          <g id="Grupo_910309" data-name="Grupo 910309">
            <g id="Grupo_910305" data-name="Grupo 910305">
              <path id="Trazado_634548" data-name="Trazado 634548" d="M209.3,176.543v-6a.661.661,0,0,1,.7-.616l7.517-.108,7.077-.1a16.461,16.461,0,0,1,3.449,6.588c-4.718.547-9.462.689-14.2.831a12.55,12.55,0,0,1-4.392-.389C209.416,176.6,209.3,176.694,209.3,176.543Z" transform="translate(-208.996 -169.715)" fill="#c99f2b"/>
              <path id="Trazado_634549" data-name="Trazado 634549" d="M254.664,207.947c.13-8.362.038-16.58-.046-24.884a5.258,5.258,0,0,0-.354-2.351,1.908,1.908,0,0,0-1.786-.791q-21.076-.449-42.154.4a1.916,1.916,0,0,0-1.282.319c-.381.322-.33.655-.313,1.523q.182,13.381.363,26.762a2.27,2.27,0,0,0,2.224,2.173c13.725-.02,27.532-.875,41.256-.9a2.246,2.246,0,0,0,1.568-.409A2.022,2.022,0,0,0,254.664,207.947Z" transform="translate(-208.717 -174.498)" fill="#fecb2f"/>
            </g>
            <g id="Grupo_910306" data-name="Grupo 910306" transform="translate(60.97)">
              <path id="Trazado_634550" data-name="Trazado 634550" d="M325.652,176.543v-6a.661.661,0,0,1,.7-.616l7.517-.108,7.077-.1a16.455,16.455,0,0,1,3.449,6.588c-4.718.547-9.462.689-14.2.831a12.549,12.549,0,0,1-4.392-.389C325.764,176.6,325.652,176.694,325.652,176.543Z" transform="translate(-325.344 -169.715)" fill="#c99f2b"/>
              <path id="Trazado_634551" data-name="Trazado 634551" d="M371.012,207.947c.13-8.362.037-16.58-.046-24.884a5.273,5.273,0,0,0-.354-2.351,1.909,1.909,0,0,0-1.786-.791q-21.076-.449-42.154.4a1.915,1.915,0,0,0-1.282.319c-.381.322-.33.655-.314,1.523l.363,26.762a2.27,2.27,0,0,0,2.224,2.173c13.724-.02,27.532-.875,41.256-.9a2.246,2.246,0,0,0,1.568-.409A2.023,2.023,0,0,0,371.012,207.947Z" transform="translate(-325.064 -174.498)" fill="#fecb2f"/>
            </g>
            <g id="Grupo_910307" data-name="Grupo 910307" transform="translate(0 42.731)">
              <path id="Trazado_634552" data-name="Trazado 634552" d="M209.3,258.086v-6a.661.661,0,0,1,.7-.616l7.517-.109,7.077-.1a16.458,16.458,0,0,1,3.449,6.588c-4.718.547-9.462.689-14.2.831a12.55,12.55,0,0,1-4.392-.389C209.416,258.143,209.3,258.237,209.3,258.086Z" transform="translate(-208.996 -251.258)" fill="#c99f2b"/>
              <path id="Trazado_634553" data-name="Trazado 634553" d="M254.664,289.49c.13-8.362.038-16.58-.046-24.884a5.258,5.258,0,0,0-.354-2.351,1.909,1.909,0,0,0-1.786-.792q-21.076-.449-42.154.4a1.916,1.916,0,0,0-1.282.319c-.381.322-.33.655-.313,1.523q.182,13.381.363,26.762a2.271,2.271,0,0,0,2.224,2.173c13.725-.02,27.532-.875,41.256-.9a2.246,2.246,0,0,0,1.568-.409A2.022,2.022,0,0,0,254.664,289.49Z" transform="translate(-208.717 -256.041)" fill="#fecb2f"/>
            </g>
            <g id="Grupo_910308" data-name="Grupo 910308" transform="translate(60.97 42.731)">
              <path id="Trazado_634554" data-name="Trazado 634554" d="M325.652,258.086v-6a.661.661,0,0,1,.7-.616l7.517-.109,7.077-.1a16.452,16.452,0,0,1,3.449,6.588c-4.718.547-9.462.689-14.2.831a12.55,12.55,0,0,1-4.392-.389C325.764,258.143,325.652,258.237,325.652,258.086Z" transform="translate(-325.344 -251.258)" fill="#c99f2b"/>
              <path id="Trazado_634555" data-name="Trazado 634555" d="M371.012,289.49c.13-8.362.037-16.58-.046-24.884a5.273,5.273,0,0,0-.354-2.351,1.909,1.909,0,0,0-1.786-.792q-21.076-.449-42.154.4a1.916,1.916,0,0,0-1.282.319c-.381.322-.33.655-.314,1.523l.363,26.762a2.271,2.271,0,0,0,2.224,2.173c13.724-.02,27.532-.875,41.256-.9a2.246,2.246,0,0,0,1.568-.409A2.023,2.023,0,0,0,371.012,289.49Z" transform="translate(-325.064 -256.041)" fill="#fecb2f"/>
            </g>
          </g>
          <path id="Trazado_634556" data-name="Trazado 634556" d="M384.1,213.8q-.035-.77-.072-1.54a1.251,1.251,0,0,0-.089-.433c-.05-.082-10.028.117-11.988.13-1.924.013-11.513.163-11.568.165a.207.207,0,0,0-.213.246c0,.036.073,6.867.124,10.294.059.044,4.136-.018,6.028-.039,1.968-.023,3.936-.054,5.9-.081,1.933-.027,10.7-.106,11.652-.194.028,0,.049-.01.075-.014a.726.726,0,0,0,.216-.051c.01-1.609,0-3.219-.051-4.812C384.075,216.237,384.082,215.016,384.1,213.8Z" transform="translate(-280.801 -189.748)" fill="#0b5999"/>
          <text id="SQL" transform="translate(90.03 28.995) rotate(-0.71)" fill="#fff" font-size="7" font-family="Roboto-Black, Roboto" font-weight="800"><tspan x="-6.504" y="0">SQL</tspan></text>
        </g>
      </g>
      <g id="Grupo_910312" data-name="Grupo 910312" transform="translate(24.56 62.827)">
        <path id="Trazado_634557" data-name="Trazado 634557" d="M115.509,223.537q.027-5.134.054-10.27a.517.517,0,0,0-.063-.309.524.524,0,0,0-.433-.149c-.416-.01-.938.183-1.37.2a.15.15,0,0,0,.038-.2.405.405,0,0,0-.367-.075c-2.975.361-5.96-.346-8.932-.724a63.134,63.134,0,0,0-13.117-.046,37.533,37.533,0,0,0-8.563,1.47.875.875,0,0,0-.438.248.893.893,0,0,0-.128.556q-.041,4.866.006,9.732a1.153,1.153,0,0,0,0,.6c.35,1.283,3.231,1.508,4.357,1.6,2.436.2,4.909.194,7.352.184,4.864-.021,9.722-.287,14.578-.552,2.206-.121,4.5-.266,6.425-1.351a1.135,1.135,0,0,0,.6-.614A.605.605,0,0,0,115.509,223.537Z" transform="translate(-82.156 -185.335)" fill="#ef3c79"/>
        <path id="Trazado_634558" data-name="Trazado 634558" d="M82.348,213.029c-.275-1.007.837-1.824,1.819-2.182a23.83,23.83,0,0,1,6.356-1.155,97.4,97.4,0,0,1,20.163.525,16.232,16.232,0,0,1,4.033.912c.509.206,1.086.639.941,1.169a1.137,1.137,0,0,1-.6.614c-1.923,1.085-4.218,1.23-6.424,1.351-4.856.265-9.714.53-14.578.552-2.443.01-4.915.018-7.352-.184C85.579,214.537,82.7,214.313,82.348,213.029Z" transform="translate(-82.228 -184.264)" fill="#e09db7"/>
        <path id="Trazado_634559" data-name="Trazado 634559" d="M115.614,201.935l.055-10.27a.537.537,0,0,0-.061-.309.5.5,0,0,0-.417-.149c-.4-.01-.9.183-1.317.206a.154.154,0,0,0,.036-.2.378.378,0,0,0-.352-.074c-2.86.361-5.73-.344-8.588-.722a58.33,58.33,0,0,0-12.61-.041,34.831,34.831,0,0,0-8.233,1.472.84.84,0,0,0-.421.248.923.923,0,0,0-.124.556q-.041,4.866,0,9.732a1.2,1.2,0,0,0,0,.6c.336,1.283,3.105,1.507,4.188,1.6,2.342.2,4.719.193,7.068.182,4.676-.023,9.347-.29,14.015-.557a13.5,13.5,0,0,0,6.177-1.353,1.116,1.116,0,0,0,.578-.614A.637.637,0,0,0,115.614,201.935Z" transform="translate(-82.819 -175.056)" fill="#ef3c79"/>
        <path id="Trazado_634560" data-name="Trazado 634560" d="M115.692,199.555q.027-5.135.054-10.27a.519.519,0,0,0-.063-.309.527.527,0,0,0-.433-.149c-.416-.01-.938.183-1.37.205a.15.15,0,0,0,.037-.2.4.4,0,0,0-.366-.075c-2.975.361-5.96-.346-8.933-.724a63.09,63.09,0,0,0-13.116-.046,37.533,37.533,0,0,0-8.563,1.47.875.875,0,0,0-.438.248.893.893,0,0,0-.129.556q-.04,4.866.007,9.732a1.153,1.153,0,0,0,0,.6c.35,1.283,3.231,1.508,4.357,1.6,2.436.2,4.909.194,7.352.184,4.864-.021,9.722-.287,14.578-.552,2.206-.121,4.5-.266,6.425-1.351a1.135,1.135,0,0,0,.6-.614A.605.605,0,0,0,115.692,199.555Z" transform="translate(-82.243 -173.921)" fill="#ef3c79"/>
        <path id="Trazado_634561" data-name="Trazado 634561" d="M82.531,189.048c-.274-1.007.838-1.824,1.819-2.182a23.817,23.817,0,0,1,6.357-1.155,97.4,97.4,0,0,1,20.162.525,16.245,16.245,0,0,1,4.033.911c.509.207,1.086.64.941,1.169a1.135,1.135,0,0,1-.6.613c-1.924,1.085-4.218,1.231-6.425,1.351-4.855.265-9.714.531-14.578.552-2.443.011-4.915.018-7.352-.183C85.761,190.555,82.881,190.332,82.531,189.048Z" transform="translate(-82.314 -172.85)" fill="#e09db7"/>
        <path id="Trazado_634562" data-name="Trazado 634562" d="M115.8,177.954q.028-5.135.056-10.271a.536.536,0,0,0-.061-.309.494.494,0,0,0-.417-.149c-.4-.01-.9.183-1.317.205a.154.154,0,0,0,.036-.2.377.377,0,0,0-.352-.074c-2.861.361-5.73-.344-8.588-.722a58.329,58.329,0,0,0-12.61-.042,34.858,34.858,0,0,0-8.233,1.473.834.834,0,0,0-.421.248.92.92,0,0,0-.124.556q-.04,4.866,0,9.732a1.194,1.194,0,0,0,0,.6c.336,1.283,3.1,1.507,4.188,1.6,2.342.2,4.719.193,7.068.181,4.676-.023,9.347-.289,14.015-.556a13.514,13.514,0,0,0,6.177-1.353,1.12,1.12,0,0,0,.578-.614A.63.63,0,0,0,115.8,177.954Z" transform="translate(-82.906 -163.642)" fill="#ef3c79"/>
        <path id="Trazado_634563" data-name="Trazado 634563" d="M115.875,175.574l.054-10.27a.518.518,0,0,0-.063-.309.527.527,0,0,0-.434-.149c-.416-.01-.937.183-1.37.205a.15.15,0,0,0,.038-.2.405.405,0,0,0-.366-.074c-2.975.36-5.96-.346-8.933-.724a63.092,63.092,0,0,0-13.116-.046,37.534,37.534,0,0,0-8.563,1.47.878.878,0,0,0-.438.247.894.894,0,0,0-.129.557q-.041,4.866.006,9.732a1.154,1.154,0,0,0,0,.6c.35,1.283,3.23,1.508,4.357,1.6,2.436.2,4.909.194,7.351.184,4.864-.021,9.722-.287,14.578-.552,2.206-.121,4.5-.266,6.424-1.351a1.133,1.133,0,0,0,.6-.613A.605.605,0,0,0,115.875,175.574Z" transform="translate(-82.33 -162.507)" fill="#ef3c79"/>
        <path id="Trazado_634564" data-name="Trazado 634564" d="M82.714,165.067c-.274-1.007.838-1.823,1.819-2.182a23.813,23.813,0,0,1,6.356-1.155,97.364,97.364,0,0,1,20.163.525,16.244,16.244,0,0,1,4.033.911c.509.207,1.086.639.941,1.169a1.134,1.134,0,0,1-.6.613c-1.924,1.085-4.218,1.231-6.425,1.351-4.855.265-9.714.531-14.578.552-2.443.011-4.915.018-7.352-.184C85.944,166.574,83.064,166.35,82.714,165.067Z" transform="translate(-82.401 -161.436)" fill="#e09db7"/>
      </g>
      <g id="Grupo_910316" data-name="Grupo 910316" transform="translate(111.671 169.062)">
        <g id="Grupo_910313" data-name="Grupo 910313" transform="translate(0 0)">
          <path id="Trazado_634565" data-name="Trazado 634565" d="M326,373.53q-.083-3.584-.171-7.169a8.1,8.1,0,0,0-.271-2.021c-.159-.384-32.543-.028-38.9-.081-6.245-.051-37.364.1-37.541.1-.831.017-.682,1.133-.7,1.133,0,.168-.042,31.962-.014,47.913.187.209,13.42.155,19.561.164,6.387.008,12.775-.025,19.162-.038,6.272-.012,34.721.118,37.816-.236a2.023,2.023,0,0,0,.242-.062,1.794,1.794,0,0,0,.7-.226c.1-7.486.133-14.98.031-22.4C325.833,384.889,325.9,379.205,326,373.53Z" transform="translate(-248.387 -364.16)" fill="#21cbae"/>
          <path id="Trazado_634566" data-name="Trazado 634566" d="M267.187,370.038q9.98,0,19.959,0c6.234,0,33.506.027,38.785-.024q-.042-1.826-.087-3.651a8.1,8.1,0,0,0-.271-2.021c-.159-.384-32.543-.028-38.9-.081-6.245-.051-37.364.1-37.541.1-.831.017-.682,1.133-.7,1.133,0,.038,0,1.739,0,4.525C252.273,370.039,262.081,370.035,267.187,370.038Z" transform="translate(-248.404 -364.16)" fill="#ef3c79"/>
          <path id="Trazado_634567" data-name="Trazado 634567" d="M387.183,369.308a1.506,1.506,0,0,1-.092-1.359,1.739,1.739,0,0,1,.259-.4,1.633,1.633,0,0,1,.216-.2,1.55,1.55,0,0,1,.486-.24,1.808,1.808,0,0,1,.343-.077,1.99,1.99,0,0,1,.353.014,1.482,1.482,0,0,1,.889.468,1.532,1.532,0,1,1-2.455,1.792Z" transform="translate(-314.348 -365.526)" fill="#fecb2f"/>
          <path id="Trazado_634568" data-name="Trazado 634568" d="M378.511,369.308a1.506,1.506,0,0,1-.092-1.359,1.737,1.737,0,0,1,.259-.4,1.633,1.633,0,0,1,.216-.2,1.549,1.549,0,0,1,.486-.24,1.808,1.808,0,0,1,.343-.077,1.99,1.99,0,0,1,.353.014,1.482,1.482,0,0,1,.889.468,1.532,1.532,0,1,1-2.455,1.792Z" transform="translate(-310.22 -365.526)" fill="#fff"/>
          <path id="Trazado_634569" data-name="Trazado 634569" d="M369.839,369.308a1.506,1.506,0,0,1-.092-1.359,1.722,1.722,0,0,1,.259-.4,1.633,1.633,0,0,1,.216-.2,1.549,1.549,0,0,1,.486-.24,1.8,1.8,0,0,1,.343-.077,1.99,1.99,0,0,1,.353.014,1.482,1.482,0,0,1,.889.468,1.532,1.532,0,1,1-2.455,1.792Z" transform="translate(-306.093 -365.526)" fill="#fff"/>
        </g>
        <g id="Grupo_910315" data-name="Grupo 910315" transform="translate(6.622 13.154)">
          <path id="Trazado_634570" data-name="Trazado 634570" d="M315.166,414.285q-3.264.234-6.539.2c-.211,0-.528-.007-.553-.217a22.55,22.55,0,0,1,.013-5.369.877.877,0,0,1,.1-.361.225.225,0,0,1,.244-.126q3.335.049,6.67-.073c.021-1.074-.014-2.263-.078-3.336.3-.272.816-.024,1.133.233a46.655,46.655,0,0,1,6.391,5.623c.467.547.125,1.129-.364,1.656s-1.835,1.677-2.372,2.154c-.921.819-2.393,2.26-3.975,3.561-.141.116-.495-.27-.509-.452C315.23,416.549,315.262,415.514,315.166,414.285Z" transform="translate(-283.344 -396.698)" fill="#0b5999"/>
          <g id="Grupo_910314" data-name="Grupo 910314">
            <path id="Trazado_634571" data-name="Trazado 634571" d="M280.815,394.1c-2.071-1.6-4.269-3.246-6.373-4.8-1.136,0-2.446.007-3.58-.022a85.337,85.337,0,0,0-9.45.294,1.1,1.1,0,0,0-.316.849c.147,8.9-.2,15.382-.02,26.655a.716.716,0,0,0,.662.795c6.544.109,11.561.183,17.336-.108.235-.012,1.586.043,1.715-.154a1.239,1.239,0,0,0,.212-.67c0-3.583-.092-7.932-.111-11.844C280.871,401.454,280.957,397.638,280.815,394.1Z" transform="translate(-261.023 -389.261)" fill="#fff"/>
            <path id="Trazado_634572" data-name="Trazado 634572" d="M293.109,394.078q-2.011.924-3.964,1.971a2.763,2.763,0,0,1-.717.3.765.765,0,0,1-.683-.094,69.4,69.4,0,0,1-1.035-6.959,4.123,4.123,0,0,1,1.11.444,36.629,36.629,0,0,1,5.164,4.05C293.076,393.879,293.224,394.025,293.109,394.078Z" transform="translate(-273.249 -389.279)" fill="#d5dfe9"/>
            <path id="Trazado_634573" data-name="Trazado 634573" d="M280.6,408.1c-2.007.082-6.654.04-7.844.046-1.472.006-2.943.023-4.415.018-.882,0-2.4.007-3.425-.01a1.757,1.757,0,0,0-.039.432c0,.016,0,.612,0,1.617,1,.023,2.64.012,3.568.015,1.437,0,2.875-.013,4.313-.019,1.21-.005,6.089.04,7.9-.056L280.643,409C280.641,408.9,280.627,408.32,280.6,408.1Z" transform="translate(-262.858 -398.226)" fill="#a1b0ba"/>
            <path id="Trazado_634574" data-name="Trazado 634574" d="M280.6,415.884c-2.007.082-6.654.04-7.844.045-1.472.006-2.943.023-4.415.019-.882,0-2.4.007-3.425-.01a1.759,1.759,0,0,0-.039.433c0,.016,0,.612,0,1.616,1,.024,2.64.012,3.568.015,1.437,0,2.875-.013,4.313-.018,1.21-.006,6.089.04,7.9-.056l-.011-1.137C280.641,416.685,280.627,416.107,280.6,415.884Z" transform="translate(-262.858 -401.932)" fill="#a1b0ba"/>
            <path id="Trazado_634575" data-name="Trazado 634575" d="M280.6,423.67c-2.007.082-6.654.04-7.844.045-1.472.006-2.943.023-4.415.019-.882,0-2.4.007-3.425-.01a1.761,1.761,0,0,0-.039.433c0,.016,0,.612,0,1.617,1,.023,2.64.012,3.568.015,1.437,0,2.875-.013,4.313-.019,1.21-.005,6.089.04,7.9-.056l-.011-1.137C280.641,424.471,280.627,423.893,280.6,423.67Z" transform="translate(-262.858 -405.638)" fill="#a1b0ba"/>
            <path id="Trazado_634576" data-name="Trazado 634576" d="M276.147,431.457c-1.438.082-4.769.04-5.621.045-1.055.006-2.11.023-3.165.018-.632,0-1.718.007-2.455-.01a2.471,2.471,0,0,0-.028.432c0,.016,0,.612,0,1.617.714.023,1.892.012,2.557.015,1.031,0,2.061-.013,3.091-.019.867-.005,4.364.04,5.659-.056q0-.568-.008-1.137C276.176,432.257,276.166,431.68,276.147,431.457Z" transform="translate(-262.858 -409.345)" fill="#a1b0ba"/>
          </g>
          <path id="Trazado_634577" data-name="Trazado 634577" d="M366.747,410.126l0-1.448c0-3.021-.03-6.035-.082-8.961-.036-2.005-.076-3.641-.126-5.145a.282.282,0,0,0-.093-.2c-.229-1.211-1.87-1.4-2.415-1.464-1.731-.2-3.331-.336-4.891-.418a55.89,55.89,0,0,0-9.877.3l-.116.015c-1.12.139-2.389.3-3.088,1.415a.635.635,0,0,0-.145.359c.034,1.932.024,3.9.015,5.8-.006,1.019-.011,2.037-.009,3.056l.008,8.947v.611c-.062.66-.074,1.333-.086,1.984-.008.427-.013.853-.012,1.28a6.447,6.447,0,0,0,.085,1.4,4.865,4.865,0,0,0,3.07,1.35,31.767,31.767,0,0,0,3.463.243l.576.02c.949.035,1.849.052,2.708.052a46.95,46.95,0,0,0,5.885-.337,32.56,32.56,0,0,0,4.7-.934.287.287,0,0,0,.2-.18.264.264,0,0,0,.136-.225C366.759,415.141,366.753,412.591,366.747,410.126Zm-17.455-16.767c1.369-.172,2.811-.289,4.288-.346a68.225,68.225,0,0,1,8.44.232l.178.015c.708.06,1.44.121,2.154.214a2.037,2.037,0,0,1,1.587.856,35.552,35.552,0,0,1-9.738,1.362h-.02a35.225,35.225,0,0,1-5.033-.361c-.815-.118-1.647-.27-2.471-.45-.283-.062-.566-.136-.85-.21-.382-.1-.775-.2-1.168-.275A4.079,4.079,0,0,1,349.292,393.359Zm-2.778,1.583a11.561,11.561,0,0,0,1.357.379l.2.047c.6.142,1.23.271,1.938.4a36.8,36.8,0,0,0,3.886.471,35.579,35.579,0,0,0,7.918-.36,36.123,36.123,0,0,0,4.173-.917c.047,2.453.083,4.746.113,7-.433.065-.868.156-1.29.243-.37.077-.753.156-1.13.217-.813.134-1.644.244-2.469.329a44.036,44.036,0,0,1-4.909.225,41.934,41.934,0,0,1-4.9-.339c-1.013-.129-2.032-.326-3.017-.517-.6-.117-1.225-.237-1.861-.342v-.813q0-.669,0-1.337c0-.487,0-.974-.006-1.462C346.506,397.106,346.5,396.016,346.514,394.943Zm19.635,15.911c0,.546,0,1.092,0,1.638s-.009,1.117-.016,1.676c-.014,1.073-.027,2.182-.014,3.275-5.678,1.579-11.617,1.4-16.16,1.065a9.933,9.933,0,0,1-1.935-.3,6.091,6.091,0,0,1-1.565-.741.294.294,0,0,0,0-.031c.092-2.146.079-4.334.067-6.451l-.006-1.148a8.868,8.868,0,0,0,3.277,1.03,33.621,33.621,0,0,0,3.827.392,48.617,48.617,0,0,0,8.207-.259c1.4-.16,2.85-.4,4.318-.706Zm-10.082-.158c-1.791-.031-3.418-.134-4.974-.313a17.6,17.6,0,0,1-2.407-.424,12.982,12.982,0,0,1-1.322-.443c-.275-.1-.559-.21-.845-.3l0-.642q0-3.13,0-6.26a26.7,26.7,0,0,0,4.689.943,42.937,42.937,0,0,0,5.09.365,40.971,40.971,0,0,0,5.1-.258c.809-.091,1.622-.206,2.418-.342l.336-.057a17.637,17.637,0,0,0,1.958-.406c.029,2.438.045,4.833.045,7.123A45.677,45.677,0,0,1,356.067,410.7Z" transform="translate(-301.387 -390.754)" fill="#0b5999"/>
        </g>
      </g>
      <g id="Grupo_910318" data-name="Grupo 910318" transform="translate(40.117 13.848)">
        <g id="Grupo_910317" data-name="Grupo 910317" transform="translate(152.004 143.858)">
          <path id="Trazado_634578" data-name="Trazado 634578" d="M419.444,366.541c-.042-4.783-.139-16.9-.331-21.68-.013-.315-.5-.319-.493,0,.12,4.78.22,16.9.254,21.68.034,4.763-.048,9.526-.026,14.289a5.456,5.456,0,0,0-1.366-.027l-1.832.018-3.793.037c-1.264.013-2.529.021-3.793.038a26.561,26.561,0,0,0-3.716.124c-.192.03-.2.366,0,.393a26.562,26.562,0,0,0,3.716.048c1.264-.009,2.529-.026,3.793-.04l3.793-.041,1.832-.019a3.5,3.5,0,0,0,1.647-.161.142.142,0,0,0,.066-.1.231.231,0,0,0,.145-.214C419.524,376.111,419.486,371.321,419.444,366.541Z" transform="translate(-402.999 -343.505)" fill="#0b5999"/>
          <path id="Trazado_634579" data-name="Trazado 634579" d="M431.815,342.677a1.338,1.338,0,0,0-1.745.328,1.264,1.264,0,0,0-.16,1.042,1.352,1.352,0,0,0,.109.273,1.109,1.109,0,0,0,.306.422,1.258,1.258,0,0,0,1.844-.282A1.308,1.308,0,0,0,431.815,342.677Z" transform="translate(-415.213 -342.49)" fill="#0b5999"/>
          <path id="Trazado_634580" data-name="Trazado 634580" d="M403.858,412.2a1.338,1.338,0,0,0-1.745.328,1.267,1.267,0,0,0-.16,1.042,1.386,1.386,0,0,0,.11.273,1.108,1.108,0,0,0,.306.422,1.259,1.259,0,0,0,1.845-.282A1.309,1.309,0,0,0,403.858,412.2Z" transform="translate(-401.906 -375.583)" fill="#0b5999"/>
        </g>
        <path id="Trazado_634581" data-name="Trazado 634581" d="M212.106,68.158a1.338,1.338,0,0,0-1.745.328,1.2,1.2,0,0,0-.2.648c-.393,0-.786.006-1.171,0l-2.316-.041c-.772-.014-1.544-.034-2.317-.036a7.483,7.483,0,0,0-2.312.242c-.2,2.349-.084,4.765-.116,7.122-.032,2.305-.132,4.628-.041,6.932q-5.8-.23-11.605-.236c-1.923,0-3.846.012-5.769.053-1.6.035-3.225.026-4.828.141a1.173,1.173,0,0,0-.544-.908,1.338,1.338,0,0,0-1.745.328,1.265,1.265,0,0,0-.16,1.041,1.376,1.376,0,0,0,.11.274,1.113,1.113,0,0,0,.306.422,1.259,1.259,0,0,0,1.845-.282,1.378,1.378,0,0,0,.168-.435c1.571.006,3.15-.089,4.717-.113,1.967-.03,3.933-.053,5.9-.053q5.834,0,11.667.214a.192.192,0,0,0,.2-.138.158.158,0,0,0,.062-.118c.169-2.363.127-4.752.16-7.122.031-2.276.2-4.6.086-6.878a9.618,9.618,0,0,0,1.9.075c.772.016,1.545.015,2.317.02l2.316.015c.419,0,.845.021,1.271.028.017.04.029.084.049.123a1.113,1.113,0,0,0,.306.422,1.258,1.258,0,0,0,1.844-.282A1.308,1.308,0,0,0,212.106,68.158Z" transform="translate(-142.946 -67.971)" fill="#0b5999"/>
        <path id="Trazado_634582" data-name="Trazado 634582" d="M220.7,412.2a1.338,1.338,0,0,0-1.744.328,1.185,1.185,0,0,0-.2.575c-1.881-.016-9.526-.03-11.407-.043-1.13-.008-6.453-.016-7.583-.024-.685,0-1.414-.055-2.125-.032a1.157,1.157,0,0,0-.534-.8,1.338,1.338,0,0,0-1.744.328,1.265,1.265,0,0,0-.16,1.042,1.353,1.353,0,0,0,.11.273,1.1,1.1,0,0,0,.306.422,1.258,1.258,0,0,0,1.844-.282,1.368,1.368,0,0,0,.18-.5c.667.027,1.349-.009,1.992-.006,1.174.007,6.54.014,7.714.02,1.891.01,9.546.021,11.436.028,0,.014,0,.029.007.044a1.354,1.354,0,0,0,.11.273,1.1,1.1,0,0,0,.306.422,1.258,1.258,0,0,0,1.844-.282A1.308,1.308,0,0,0,220.7,412.2Z" transform="translate(-151.5 -231.725)" fill="#0b5999"/>
        <path id="Trazado_634583" data-name="Trazado 634583" d="M113.794,140.879a1.327,1.327,0,0,0-.536-.173c.009-.453,0-.908,0-1.349l-.009-2.58q-.006-2.072-.014-4.144a1.209,1.209,0,0,0,.917-.553,1.307,1.307,0,0,0-.356-1.782,1.337,1.337,0,0,0-1.744.328,1.264,1.264,0,0,0-.16,1.041,1.329,1.329,0,0,0,.11.273,1.105,1.105,0,0,0,.306.422,1.18,1.18,0,0,0,.533.251q.006,2.081.014,4.163l.008,2.58c0,.442-.006.9.007,1.355a1.222,1.222,0,0,0-.818.495,1.265,1.265,0,0,0-.16,1.042,1.341,1.341,0,0,0,.11.273,1.1,1.1,0,0,0,.306.422,1.258,1.258,0,0,0,1.844-.282A1.308,1.308,0,0,0,113.794,140.879Z" transform="translate(-111.842 -97.547)" fill="#0b5999"/>
      </g>
      <g id="Grupo_910322" data-name="Grupo 910322" transform="translate(111.671 0)">
        <g id="Grupo_910319" data-name="Grupo 910319">
          <path id="Trazado_634584" data-name="Trazado 634584" d="M315.342,51.389q-.072-3.766-.147-7.532a10.231,10.231,0,0,0-.234-2.123c-.137-.4-28.073-.028-33.56-.083-5.388-.054-32.233.106-32.386.111-.716.018-.588,1.191-.6,1.191,0,.177-.038,33.581-.014,50.34.161.22,11.577.162,16.874.17,5.51.009,11.02-.027,16.53-.04,5.41-.013,29.953.123,32.623-.251a1.5,1.5,0,0,0,.209-.065,1.368,1.368,0,0,0,.607-.237c.084-7.866.115-15.739.028-23.53C315.2,63.324,315.26,57.351,315.342,51.389Z" transform="translate(-248.387 -41.544)" fill="#b0c0d2"/>
          <path id="Trazado_634585" data-name="Trazado 634585" d="M355.477,43.857a10.231,10.231,0,0,0-.234-2.123c-.09-.267-12.333-.193-22.205-.128,0,7.92-.018,34.9-.017,51.829,8.96.007,19.948-.02,21.684-.264a1.5,1.5,0,0,0,.209-.065,1.368,1.368,0,0,0,.607-.237c.084-7.866.115-15.739.027-23.53-.068-6.015-.005-11.988.076-17.95Q355.552,47.623,355.477,43.857Z" transform="translate(-288.67 -41.545)" fill="#0b5999"/>
          <path id="Trazado_634586" data-name="Trazado 634586" d="M263.743,47.691q9.041,0,18.081,0c5.156,0,26.2.02,33.462-.012q-.037-1.911-.075-3.821a10.233,10.233,0,0,0-.234-2.123c-.137-.4-28.073-.028-33.56-.083-5.388-.054-32.233.106-32.386.111-.716.018-.588,1.191-.6,1.191,0,.04,0,1.817,0,4.729C252.547,47.692,259.741,47.69,263.743,47.691Z" transform="translate(-248.403 -41.544)" fill="#ef3c79"/>
          <path id="Trazado_634587" data-name="Trazado 634587" d="M367.557,46.875a1.508,1.508,0,0,1-.092-1.359,1.75,1.75,0,0,1,.259-.4,1.644,1.644,0,0,1,.216-.2,1.535,1.535,0,0,1,.486-.239,1.77,1.77,0,0,1,.343-.078,1.991,1.991,0,0,1,.353.015,1.48,1.48,0,0,1,.89.467,1.534,1.534,0,0,1-1.953,2.333A1.516,1.516,0,0,1,367.557,46.875Z" transform="translate(-305.007 -42.998)" fill="#fecb2f"/>
          <path id="Trazado_634588" data-name="Trazado 634588" d="M358.885,46.875a1.508,1.508,0,0,1-.092-1.359,1.731,1.731,0,0,1,.259-.4,1.646,1.646,0,0,1,.216-.2,1.534,1.534,0,0,1,.486-.239,1.77,1.77,0,0,1,.343-.078,1.991,1.991,0,0,1,.353.015,1.481,1.481,0,0,1,.89.467,1.534,1.534,0,0,1-1.954,2.333A1.519,1.519,0,0,1,358.885,46.875Z" transform="translate(-300.879 -42.998)" fill="#fff"/>
          <path id="Trazado_634589" data-name="Trazado 634589" d="M350.213,46.875a1.508,1.508,0,0,1-.092-1.359,1.731,1.731,0,0,1,.259-.4,1.645,1.645,0,0,1,.216-.2,1.534,1.534,0,0,1,.486-.239,1.771,1.771,0,0,1,.343-.078,1.991,1.991,0,0,1,.353.015,1.478,1.478,0,0,1,.889.467,1.534,1.534,0,0,1-1.953,2.333A1.515,1.515,0,0,1,350.213,46.875Z" transform="translate(-296.752 -42.998)" fill="#fff"/>
        </g>
        <g id="Grupo_910320" data-name="Grupo 910320" transform="translate(2.981 10.832)">
          <path id="Trazado_634590" data-name="Trazado 634590" d="M275.1,98.263c-.832-.021-1.662-.045-2.494-.029.088-2.274.021-4.561,0-6.836q-.022-2.955-.044-5.908c.048,0,.1,0,.146,0l.354.012.682.022c.227.006.454.006.682.008a1.661,1.661,0,0,0,.711-.051.229.229,0,0,0,0-.381,1.678,1.678,0,0,0-.711-.064c-.227,0-.455-.008-.682-.006l-.682.008-.354,0c-.049,0-.1,0-.149,0q0-.213,0-.426-.05-6.824-.1-13.647c.419.015.836.025,1.256.017l.7-.013a1.846,1.846,0,0,0,.725-.064c.182-.085.1-.343-.05-.4a.937.937,0,0,0-.378-.02l-.324.009-.7.021c-.47.014-.934.045-1.4.087a.172.172,0,0,0-.109.051.182.182,0,0,0-.1.176q.061,6.893.12,13.786,0,.215,0,.431c-.72-.01-1.439-.022-2.159-.018l-1.124.007a3.242,3.242,0,0,0-1.062.1.1.1,0,0,0,0,.192,3.261,3.261,0,0,0,1.062.115l1.124.022c.721.015,1.441.013,2.162.013q.025,2.957.05,5.915c.02,2.334-.015,4.68.121,7.01a.117.117,0,0,0,.049.092.171.171,0,0,0,.152.11c.842.055,1.683.068,2.526.085C275.362,98.7,275.361,98.269,275.1,98.263Z" transform="translate(-260.602 -66.149)" fill="#ef3c79"/>
          <path id="Trazado_634591" data-name="Trazado 634591" d="M303.457,98.263c-.832-.021-1.662-.045-2.494-.029.088-2.274.02-4.561,0-6.836q-.022-2.955-.043-5.908c.048,0,.1,0,.146,0l.354.012.682.022c.227.006.455.006.682.008a1.661,1.661,0,0,0,.711-.051.229.229,0,0,0,0-.381,1.678,1.678,0,0,0-.711-.064c-.227,0-.455-.008-.682-.006l-.682.008-.354,0c-.049,0-.1,0-.149,0l0-.426q-.05-6.824-.1-13.647c.419.015.836.025,1.256.017l.7-.013a1.846,1.846,0,0,0,.725-.064c.182-.085.1-.343-.05-.4a.937.937,0,0,0-.378-.02l-.324.009-.7.021c-.469.014-.933.045-1.4.087a.173.173,0,0,0-.109.051.182.182,0,0,0-.1.176q.061,6.893.12,13.786,0,.215,0,.431c-.72-.01-1.439-.022-2.159-.018l-1.124.007a3.243,3.243,0,0,0-1.062.1.1.1,0,0,0,0,.192,3.261,3.261,0,0,0,1.062.115l1.124.022c.721.015,1.441.013,2.162.013q.025,2.957.05,5.915c.02,2.334-.015,4.68.121,7.01a.117.117,0,0,0,.049.092.171.171,0,0,0,.152.11c.842.055,1.683.068,2.526.085C303.719,98.7,303.718,98.269,303.457,98.263Z" transform="translate(-274.098 -66.149)" fill="#ef3c79"/>
          <path id="Trazado_634592" data-name="Trazado 634592" d="M310.976,62.215l-1.271.022a1.945,1.945,0,0,0-.358.036c-.068.02,0,4.231-.014,5.058s.018,4.858.019,4.881c0,.108.2.089.2.091.03,0,5.669.006,8.5,0,.037-.024.027-1.745.028-2.543,0-.83,0-1.661-.007-2.491,0-.815.02-4.515-.042-4.917a.276.276,0,0,0-.011-.031.192.192,0,0,0-.04-.092c-1.328-.013-2.657-.018-3.972,0C312.991,62.237,311.983,62.228,310.976,62.215Z" transform="translate(-280.367 -62.215)" fill="#fff"/>
          <path id="Trazado_634593" data-name="Trazado 634593" d="M310.976,87.6l-1.271.022a1.946,1.946,0,0,0-.358.036c-.068.02,0,4.231-.014,5.058s.018,4.858.019,4.881c0,.108.2.089.2.091.03,0,5.669.006,8.5,0,.037-.024.027-1.745.028-2.543,0-.831,0-1.661-.007-2.491s.02-4.515-.042-4.917a.285.285,0,0,0-.011-.031.19.19,0,0,0-.04-.091c-1.328-.013-2.657-.018-3.972,0C312.991,87.618,311.983,87.609,310.976,87.6Z" transform="translate(-280.367 -74.295)" fill="#fff"/>
          <path id="Trazado_634594" data-name="Trazado 634594" d="M310.976,112.977,309.7,113a1.946,1.946,0,0,0-.358.036c-.068.02,0,4.231-.014,5.058-.009.812.018,4.858.019,4.881,0,.108.2.089.2.091.03,0,5.669.006,8.5,0,.037-.024.027-1.745.028-2.543,0-.831,0-1.661-.007-2.491s.02-4.515-.042-4.917a.285.285,0,0,0-.011-.031.187.187,0,0,0-.04-.091c-1.328-.013-2.657-.018-3.972,0C312.991,113,311.983,112.99,310.976,112.977Z" transform="translate(-280.367 -86.376)" fill="#fff"/>
          <path id="Trazado_634595" data-name="Trazado 634595" d="M282.619,62.215l-1.272.022a1.947,1.947,0,0,0-.358.036c-.068.02,0,4.231-.014,5.058s.018,4.858.019,4.881c0,.108.2.089.2.091.03,0,5.669.006,8.5,0,.037-.024.027-1.745.028-2.543,0-.83,0-1.661-.007-2.491,0-.815.02-4.515-.042-4.917a.265.265,0,0,0-.011-.031.192.192,0,0,0-.04-.092c-1.328-.013-2.657-.018-3.972,0C284.634,62.237,283.626,62.228,282.619,62.215Z" transform="translate(-266.87 -62.215)" fill="#fff"/>
          <path id="Trazado_634596" data-name="Trazado 634596" d="M282.619,87.6l-1.272.022a1.947,1.947,0,0,0-.358.036c-.068.02,0,4.231-.014,5.058s.018,4.858.019,4.881c0,.108.2.089.2.091.03,0,5.669.006,8.5,0,.037-.024.027-1.745.028-2.543,0-.831,0-1.661-.007-2.491s.02-4.515-.042-4.917a.273.273,0,0,0-.011-.031.19.19,0,0,0-.04-.091c-1.328-.013-2.657-.018-3.972,0C284.634,87.618,283.626,87.609,282.619,87.6Z" transform="translate(-266.87 -74.295)" fill="#fff"/>
          <path id="Trazado_634597" data-name="Trazado 634597" d="M282.619,112.977l-1.272.022a1.947,1.947,0,0,0-.358.036c-.068.02,0,4.231-.014,5.058-.009.812.018,4.858.019,4.881,0,.108.2.089.2.091.03,0,5.669.006,8.5,0,.037-.024.027-1.745.028-2.543,0-.831,0-1.661-.007-2.491s.02-4.515-.042-4.917a.272.272,0,0,0-.011-.031.188.188,0,0,0-.04-.091c-1.328-.013-2.657-.018-3.972,0C284.634,113,283.626,112.99,282.619,112.977Z" transform="translate(-266.87 -86.376)" fill="#fff"/>
          <path id="Trazado_634598" data-name="Trazado 634598" d="M255.737,86.379l-1.272.028a1.564,1.564,0,0,0-.358.044c-.069.025-.005,5.224-.014,6.245-.009,1,.018,6,.018,6.027,0,.133.2.11.2.112.03,0,5.669.007,8.5,0,.037-.03.027-2.154.029-3.14,0-1.026,0-2.051-.007-3.076,0-1.007.02-5.574-.042-6.071a.387.387,0,0,0-.011-.039.272.272,0,0,0-.04-.113c-1.328-.016-2.657-.021-3.973-.005C257.752,86.406,256.744,86.394,255.737,86.379Z" transform="translate(-254.075 -73.716)" fill="#fff"/>
        </g>
        <g id="Grupo_910321" data-name="Grupo 910321" transform="translate(46.375 8.18)">
          <path id="Trazado_634599" data-name="Trazado 634599" d="M347.513,57.154c-1.357.072-4.5.035-5.3.04-1,.005-1.99.02-2.985.016-.6,0-1.621.006-2.316-.009a2.091,2.091,0,0,0-.026.383c0,.014,0,.541,0,1.429.673.02,1.785.01,2.412.013.972,0,1.944-.011,2.916-.017.818,0,4.116.036,5.337-.049q0-.5-.007-1.005C347.539,57.861,347.53,57.351,347.513,57.154Z" transform="translate(-336.883 -57.154)" fill="#ef3c79"/>
          <path id="Trazado_634600" data-name="Trazado 634600" d="M352.584,65.308c-.6.07-2,.034-2.36.039-.443.005-.886.019-1.328.016-.265,0-.721.006-1.031-.009-.015.14-.01.372-.012.372v1.39c.3.02.794.01,1.073.013.432,0,.865-.011,1.3-.016.364,0,1.832.035,2.376-.048q0-.488,0-.977C352.6,66,352.591,65.5,352.584,65.308Z" transform="translate(-342.104 -61.035)" fill="#6b95b2"/>
          <path id="Trazado_634601" data-name="Trazado 634601" d="M360.138,70.938c-1.568.071-5.2.035-6.129.039-1.15.006-2.3.02-3.45.016-.689,0-1.873.006-2.676-.009a1.663,1.663,0,0,0-.03.372c0,.014,0,.527,0,1.39.778.02,2.063.01,2.787.013,1.123,0,2.247-.01,3.37-.016.946,0,4.758.035,6.169-.048q0-.489-.009-.978C360.169,71.627,360.158,71.13,360.138,70.938Z" transform="translate(-342.104 -63.715)" fill="#fff"/>
          <path id="Trazado_634602" data-name="Trazado 634602" d="M360.138,76.277c-1.568.071-5.2.035-6.129.039-1.15.006-2.3.02-3.45.016-.689,0-1.873.006-2.676-.009a1.663,1.663,0,0,0-.03.372c0,.014,0,.527,0,1.391.778.02,2.063.01,2.787.013,1.123,0,2.247-.011,3.37-.016.946,0,4.758.035,6.169-.048q0-.489-.009-.978C360.169,76.966,360.158,76.469,360.138,76.277Z" transform="translate(-342.104 -66.256)" fill="#fff"/>
          <path id="Trazado_634603" data-name="Trazado 634603" d="M360.138,81.617c-1.568.07-5.2.034-6.129.038-1.15.006-2.3.02-3.45.016-.689,0-1.873.006-2.676-.009a1.667,1.667,0,0,0-.03.373c0,.014,0,.526,0,1.39.778.02,2.063.01,2.787.013,1.123,0,2.247-.011,3.37-.016.946,0,4.758.035,6.169-.048q0-.489-.009-.978C360.169,82.305,360.158,81.808,360.138,81.617Z" transform="translate(-342.104 -68.798)" fill="#fff"/>
          <path id="Trazado_634604" data-name="Trazado 634604" d="M364.364,65.308c-.707.07-2.346.034-2.765.039-.518.005-1.037.019-1.556.016-.311,0-.845.006-1.207-.009a3.493,3.493,0,0,0-.014.372c0,.014,0,.526,0,1.39.351.02.931.01,1.258.013.507,0,1.014-.011,1.52-.016.427,0,2.146.035,2.783-.048q0-.488,0-.977C364.378,66,364.373,65.5,364.364,65.308Z" transform="translate(-347.325 -61.035)" fill="#6b95b2"/>
          <path id="Trazado_634605" data-name="Trazado 634605" d="M347.513,91.065c-1.357.072-4.5.036-5.3.04-1,.006-1.99.02-2.985.017-.6,0-1.621.006-2.316-.009a2.1,2.1,0,0,0-.026.383c0,.014,0,.541,0,1.43.673.02,1.785.01,2.412.013.972,0,1.944-.011,2.916-.016.818,0,4.116.036,5.337-.05q0-.5-.007-1C347.539,91.773,347.53,91.262,347.513,91.065Z" transform="translate(-336.883 -73.294)" fill="#ef3c79"/>
          <path id="Trazado_634606" data-name="Trazado 634606" d="M352.584,99.219c-.6.071-2,.035-2.36.039-.443.005-.886.019-1.328.016-.265,0-.721.006-1.031-.009-.015.14-.01.373-.012.372v1.391c.3.02.794.01,1.073.013.432,0,.865-.011,1.3-.016.364,0,1.832.035,2.376-.048q0-.489,0-.977C352.6,99.908,352.591,99.411,352.584,99.219Z" transform="translate(-342.104 -77.175)" fill="#6b95b2"/>
          <path id="Trazado_634607" data-name="Trazado 634607" d="M360.138,104.85c-1.568.07-5.2.035-6.129.039-1.15.005-2.3.019-3.45.016-.689,0-1.873.006-2.676-.009a1.663,1.663,0,0,0-.03.372c0,.014,0,.526,0,1.39.778.02,2.063.01,2.787.013,1.123,0,2.247-.01,3.37-.016.946,0,4.758.035,6.169-.048q0-.489-.009-.978C360.169,105.539,360.158,105.042,360.138,104.85Z" transform="translate(-342.104 -79.856)" fill="#fff"/>
          <path id="Trazado_634608" data-name="Trazado 634608" d="M360.138,110.189c-1.568.07-5.2.035-6.129.039-1.15.005-2.3.02-3.45.016-.689,0-1.873.006-2.676-.009a1.663,1.663,0,0,0-.03.372c0,.014,0,.526,0,1.39.778.02,2.063.01,2.787.013,1.123,0,2.247-.01,3.37-.016.946,0,4.758.035,6.169-.048q0-.489-.009-.978C360.169,110.878,360.158,110.381,360.138,110.189Z" transform="translate(-342.104 -82.397)" fill="#fff"/>
          <path id="Trazado_634609" data-name="Trazado 634609" d="M360.138,115.528c-1.568.07-5.2.035-6.129.039-1.15.005-2.3.02-3.45.016-.689,0-1.873.006-2.676-.009a1.663,1.663,0,0,0-.03.372c0,.014,0,.527,0,1.39.778.02,2.063.01,2.787.013,1.123,0,2.247-.01,3.37-.016.946,0,4.758.035,6.169-.048q0-.489-.009-.978C360.169,116.217,360.158,115.72,360.138,115.528Z" transform="translate(-342.104 -84.938)" fill="#fff"/>
          <path id="Trazado_634610" data-name="Trazado 634610" d="M364.364,99.219c-.707.071-2.346.035-2.765.039-.518.005-1.037.019-1.556.016-.311,0-.845.006-1.207-.009a3.5,3.5,0,0,0-.014.372c0,.014,0,.527,0,1.391.351.02.931.01,1.258.013.507,0,1.014-.011,1.52-.016.427,0,2.146.035,2.783-.048q0-.489,0-.977C364.378,99.908,364.373,99.411,364.364,99.219Z" transform="translate(-347.325 -77.175)" fill="#6b95b2"/>
          <path id="Trazado_634611" data-name="Trazado 634611" d="M347.513,124.977c-1.357.072-4.5.035-5.3.04-1,.005-1.99.02-2.985.016-.6,0-1.621.006-2.316-.009a2.091,2.091,0,0,0-.026.383c0,.014,0,.541,0,1.429.673.021,1.785.01,2.412.013.972,0,1.944-.011,2.916-.017.818,0,4.116.036,5.337-.049q0-.5-.007-1.005C347.539,125.684,347.53,125.174,347.513,124.977Z" transform="translate(-336.883 -89.435)" fill="#ef3c79"/>
          <path id="Trazado_634612" data-name="Trazado 634612" d="M352.584,133.131c-.6.07-2,.035-2.36.039-.443.005-.886.02-1.328.016-.265,0-.721.006-1.031-.009-.015.14-.01.372-.012.372v1.39c.3.02.794.01,1.073.013.432,0,.865-.01,1.3-.016.364,0,1.832.035,2.376-.048q0-.489,0-.978C352.6,133.82,352.591,133.323,352.584,133.131Z" transform="translate(-342.104 -93.316)" fill="#6b95b2"/>
          <path id="Trazado_634613" data-name="Trazado 634613" d="M364.364,133.131c-.707.07-2.346.035-2.765.039-.518.005-1.037.02-1.556.016-.311,0-.845.006-1.207-.009a3.5,3.5,0,0,0-.014.372c0,.014,0,.527,0,1.39.351.02.931.01,1.258.013.507,0,1.014-.01,1.52-.016.427,0,2.146.035,2.783-.048q0-.489,0-.978C364.378,133.82,364.373,133.323,364.364,133.131Z" transform="translate(-347.325 -93.316)" fill="#6b95b2"/>
        </g>
      </g>
    </g>
  </g>
</svg>
