<svg xmlns="http://www.w3.org/2000/svg" width="1240" height="597.549" viewBox="0 0 1240 597.549">
  <g id="Grupo_911068" data-name="Grupo 911068" transform="translate(-3124.109 20251.74)">
    <g id="Grupo_911043" data-name="Grupo 911043" transform="translate(2944.109 -25650.74)">
      <rect id="Rectángulo_43992" data-name="Rectángulo 43992" width="1240" height="597.55" rx="17" transform="translate(180 5399)" fill="#21cbae" opacity="0.15"/>
      <path id="Trazado_629126" data-name="Trazado 629126" d="M0,82.036c76.555.48,138.468,62.571,138.468,139.1S76.555,359.753,0,360.233v82.036c121.946-.481,220.655-99.3,220.655-221.134S121.946.481,0,0Z" transform="translate(180 5498.159)" fill="#fecb2f" opacity="0.15"/>
      <g id="Grupo_3" data-name="Grupo 3" transform="translate(1372 5440)" opacity="0.58">
        <path id="Trazado_25" data-name="Trazado 25" d="M88.707,240.706l-6.642-6.642-9.685,9.685-9.685-9.685-6.641,6.642,9.685,9.685-9.685,9.685,6.641,6.641,9.685-9.685,9.685,9.685,6.642-6.641-9.685-9.685Z" transform="translate(-56.053 -234.064)" fill="#c3cfd9"/>
        <path id="Trazado_26" data-name="Trazado 26" d="M88.707,295.157l-6.642-6.642L72.379,298.2l-9.685-9.685-6.641,6.642,9.685,9.685-9.685,9.685,6.641,6.641,9.685-9.685,9.685,9.685,6.642-6.641-9.685-9.685Z" transform="translate(-56.053 -227.994)" fill="#c3cfd9"/>
        <path id="Trazado_27" data-name="Trazado 27" d="M88.707,349.607l-6.642-6.642-9.685,9.685-9.685-9.685-6.641,6.642,9.685,9.685-9.685,9.685,6.641,6.641,9.685-9.685,9.685,9.685,6.642-6.641-9.685-9.685Z" transform="translate(-56.053 -221.924)" fill="#c3cfd9"/>
      </g>
      <g id="Grupo_905735" data-name="Grupo 905735" transform="translate(1124.41 5707.428)" opacity="0.49">
        <g id="Grupo_68" data-name="Grupo 68" transform="translate(123.187 0)">
          <g id="Grupo_67" data-name="Grupo 67" transform="translate(0)">
            <rect id="Rectángulo_193" data-name="Rectángulo 193" width="4.926" height="4.926" transform="translate(150.091 153.574) rotate(-44.999)" fill="#fecb2f"/>
            <rect id="Rectángulo_194" data-name="Rectángulo 194" width="4.675" height="4.675" transform="translate(136.446 139.752) rotate(-45)" fill="#fecb2f"/>
            <rect id="Rectángulo_195" data-name="Rectángulo 195" width="4.424" height="4.424" transform="translate(122.802 125.93) rotate(-45)" fill="#fecb2f"/>
            <rect id="Rectángulo_196" data-name="Rectángulo 196" width="4.174" height="4.174" transform="matrix(0.707, -0.707, 0.707, 0.707, 109.157, 112.108)" fill="#fecb2f"/>
            <rect id="Rectángulo_197" data-name="Rectángulo 197" width="3.923" height="3.923" transform="translate(95.513 98.286) rotate(-45)" fill="#fecb2f"/>
            <rect id="Rectángulo_198" data-name="Rectángulo 198" width="3.672" height="3.672" transform="matrix(0.707, -0.707, 0.707, 0.707, 81.868, 84.464)" fill="#fecb2f"/>
            <rect id="Rectángulo_199" data-name="Rectángulo 199" width="3.421" height="3.421" transform="translate(68.223 70.642) rotate(-45)" fill="#fecb2f"/>
            <rect id="Rectángulo_200" data-name="Rectángulo 200" width="3.17" height="3.17" transform="translate(54.579 56.82) rotate(-45.001)" fill="#fecb2f"/>
            <rect id="Rectángulo_201" data-name="Rectángulo 201" width="2.92" height="2.92" transform="translate(40.934 42.998) rotate(-45)" fill="#fecb2f"/>
            <rect id="Rectángulo_202" data-name="Rectángulo 202" width="2.669" height="2.669" transform="matrix(0.707, -0.707, 0.707, 0.707, 27.289, 29.176)" fill="#fecb2f"/>
            <rect id="Rectángulo_203" data-name="Rectángulo 203" width="2.418" height="2.418" transform="translate(13.645 15.354) rotate(-45)" fill="#fecb2f"/>
            <rect id="Rectángulo_204" data-name="Rectángulo 204" width="2.167" height="2.167" transform="matrix(0.707, -0.707, 0.707, 0.707, 0, 1.532)" fill="#fecb2f"/>
          </g>
        </g>
        <g id="Grupo_70" data-name="Grupo 70" transform="translate(111.988 11.199)">
          <g id="Grupo_69" data-name="Grupo 69" transform="translate(0 0)">
            <rect id="Rectángulo_205" data-name="Rectángulo 205" width="4.926" height="4.926" transform="translate(150.091 153.574) rotate(-44.999)" fill="#fecb2f"/>
            <rect id="Rectángulo_206" data-name="Rectángulo 206" width="4.675" height="4.675" transform="translate(136.447 139.752) rotate(-45)" fill="#fecb2f"/>
            <rect id="Rectángulo_207" data-name="Rectángulo 207" width="4.424" height="4.424" transform="translate(122.802 125.93) rotate(-44.999)" fill="#fecb2f"/>
            <rect id="Rectángulo_208" data-name="Rectángulo 208" width="4.174" height="4.174" transform="translate(109.157 112.108) rotate(-45)" fill="#fecb2f"/>
            <rect id="Rectángulo_209" data-name="Rectángulo 209" width="3.923" height="3.923" transform="translate(95.513 98.286) rotate(-45)" fill="#fecb2f"/>
            <rect id="Rectángulo_210" data-name="Rectángulo 210" width="3.672" height="3.672" transform="translate(81.868 84.464) rotate(-45)" fill="#fecb2f"/>
            <rect id="Rectángulo_211" data-name="Rectángulo 211" width="3.421" height="3.421" transform="translate(68.223 70.642) rotate(-45)" fill="#fecb2f"/>
            <rect id="Rectángulo_212" data-name="Rectángulo 212" width="3.17" height="3.17" transform="translate(54.579 56.82) rotate(-45)" fill="#fecb2f"/>
            <rect id="Rectángulo_213" data-name="Rectángulo 213" width="2.92" height="2.92" transform="translate(40.934 42.998) rotate(-45)" fill="#fecb2f"/>
            <rect id="Rectángulo_214" data-name="Rectángulo 214" width="2.669" height="2.669" transform="translate(27.289 29.176) rotate(-45)" fill="#fecb2f"/>
            <rect id="Rectángulo_215" data-name="Rectángulo 215" width="2.418" height="2.418" transform="translate(13.645 15.354) rotate(-45)" fill="#fecb2f"/>
            <rect id="Rectángulo_216" data-name="Rectángulo 216" width="2.167" height="2.167" transform="matrix(0.707, -0.707, 0.707, 0.707, 0, 1.532)" fill="#fecb2f"/>
          </g>
        </g>
        <g id="Grupo_72" data-name="Grupo 72" transform="translate(100.789 22.398)">
          <g id="Grupo_71" data-name="Grupo 71" transform="translate(0 0)">
            <rect id="Rectángulo_217" data-name="Rectángulo 217" width="4.926" height="4.926" transform="translate(150.091 153.574) rotate(-44.999)" fill="#fecb2f"/>
            <rect id="Rectángulo_218" data-name="Rectángulo 218" width="4.675" height="4.675" transform="translate(136.447 139.752) rotate(-44.999)" fill="#fecb2f"/>
            <rect id="Rectángulo_219" data-name="Rectángulo 219" width="4.424" height="4.424" transform="translate(122.802 125.93) rotate(-44.999)" fill="#fecb2f"/>
            <rect id="Rectángulo_220" data-name="Rectángulo 220" width="4.174" height="4.174" transform="matrix(0.707, -0.707, 0.707, 0.707, 109.157, 112.108)" fill="#fecb2f"/>
            <rect id="Rectángulo_221" data-name="Rectángulo 221" width="3.923" height="3.923" transform="translate(95.513 98.286) rotate(-44.999)" fill="#fecb2f"/>
            <rect id="Rectángulo_222" data-name="Rectángulo 222" width="3.672" height="3.672" transform="matrix(0.707, -0.707, 0.707, 0.707, 81.868, 84.464)" fill="#fecb2f"/>
            <rect id="Rectángulo_223" data-name="Rectángulo 223" width="3.421" height="3.421" transform="matrix(0.707, -0.707, 0.707, 0.707, 68.223, 70.642)" fill="#fecb2f"/>
            <rect id="Rectángulo_224" data-name="Rectángulo 224" width="3.17" height="3.17" transform="translate(54.579 56.82) rotate(-44.999)" fill="#fecb2f"/>
            <rect id="Rectángulo_225" data-name="Rectángulo 225" width="2.92" height="2.92" transform="translate(40.934 42.998) rotate(-45)" fill="#fecb2f"/>
            <rect id="Rectángulo_226" data-name="Rectángulo 226" width="2.669" height="2.669" transform="translate(27.289 29.176) rotate(-44.998)" fill="#fecb2f"/>
            <rect id="Rectángulo_227" data-name="Rectángulo 227" width="2.418" height="2.418" transform="translate(13.645 15.354) rotate(-45)" fill="#fecb2f"/>
            <rect id="Rectángulo_228" data-name="Rectángulo 228" width="2.167" height="2.167" transform="matrix(0.707, -0.707, 0.707, 0.707, 0, 1.532)" fill="#fecb2f"/>
          </g>
        </g>
        <g id="Grupo_74" data-name="Grupo 74" transform="translate(89.59 33.596)">
          <g id="Grupo_73" data-name="Grupo 73" transform="translate(0 0)">
            <rect id="Rectángulo_229" data-name="Rectángulo 229" width="4.926" height="4.926" transform="translate(150.091 153.574) rotate(-45.001)" fill="#fecb2f"/>
            <rect id="Rectángulo_230" data-name="Rectángulo 230" width="4.675" height="4.675" transform="translate(136.446 139.752) rotate(-45.001)" fill="#fecb2f"/>
            <rect id="Rectángulo_231" data-name="Rectángulo 231" width="4.424" height="4.424" transform="translate(122.802 125.93) rotate(-45)" fill="#fecb2f"/>
            <rect id="Rectángulo_232" data-name="Rectángulo 232" width="4.174" height="4.174" transform="matrix(0.707, -0.707, 0.707, 0.707, 109.157, 112.108)" fill="#fecb2f"/>
            <rect id="Rectángulo_233" data-name="Rectángulo 233" width="3.923" height="3.923" transform="translate(95.513 98.286) rotate(-45)" fill="#fecb2f"/>
            <rect id="Rectángulo_234" data-name="Rectángulo 234" width="3.672" height="3.672" transform="matrix(0.707, -0.707, 0.707, 0.707, 81.868, 84.464)" fill="#fecb2f"/>
            <rect id="Rectángulo_235" data-name="Rectángulo 235" width="3.421" height="3.421" transform="translate(68.223 70.642) rotate(-45)" fill="#fecb2f"/>
            <rect id="Rectángulo_236" data-name="Rectángulo 236" width="3.17" height="3.17" transform="translate(54.579 56.82) rotate(-45.001)" fill="#fecb2f"/>
            <rect id="Rectángulo_237" data-name="Rectángulo 237" width="2.92" height="2.92" transform="translate(40.934 42.998) rotate(-45)" fill="#fecb2f"/>
            <rect id="Rectángulo_238" data-name="Rectángulo 238" width="2.669" height="2.669" transform="translate(27.289 29.176) rotate(-45)" fill="#fecb2f"/>
            <rect id="Rectángulo_239" data-name="Rectángulo 239" width="2.418" height="2.418" transform="translate(13.645 15.354) rotate(-45)" fill="#fecb2f"/>
            <rect id="Rectángulo_240" data-name="Rectángulo 240" width="2.167" height="2.167" transform="translate(0 1.532) rotate(-44.998)" fill="#fecb2f"/>
          </g>
        </g>
        <g id="Grupo_76" data-name="Grupo 76" transform="translate(78.391 44.795)">
          <g id="Grupo_75" data-name="Grupo 75" transform="translate(0 0)">
            <rect id="Rectángulo_241" data-name="Rectángulo 241" width="4.926" height="4.926" transform="translate(150.091 153.574) rotate(-45.001)" fill="#fecb2f"/>
            <rect id="Rectángulo_242" data-name="Rectángulo 242" width="4.675" height="4.675" transform="translate(136.446 139.752) rotate(-45.001)" fill="#fecb2f"/>
            <rect id="Rectángulo_243" data-name="Rectángulo 243" width="4.424" height="4.424" transform="translate(122.802 125.93) rotate(-45)" fill="#fecb2f"/>
            <rect id="Rectángulo_244" data-name="Rectángulo 244" width="4.174" height="4.174" transform="matrix(0.707, -0.707, 0.707, 0.707, 109.157, 112.108)" fill="#fecb2f"/>
            <rect id="Rectángulo_245" data-name="Rectángulo 245" width="3.923" height="3.923" transform="translate(95.513 98.286) rotate(-45)" fill="#fecb2f"/>
            <rect id="Rectángulo_246" data-name="Rectángulo 246" width="3.672" height="3.672" transform="translate(81.868 84.464) rotate(-45.001)" fill="#fecb2f"/>
            <rect id="Rectángulo_247" data-name="Rectángulo 247" width="3.421" height="3.421" transform="translate(68.223 70.642) rotate(-45)" fill="#fecb2f"/>
            <rect id="Rectángulo_248" data-name="Rectángulo 248" width="3.17" height="3.17" transform="translate(54.579 56.82) rotate(-45.001)" fill="#fecb2f"/>
            <rect id="Rectángulo_249" data-name="Rectángulo 249" width="2.919" height="2.919" transform="translate(40.934 42.998) rotate(-45)" fill="#fecb2f"/>
            <rect id="Rectángulo_250" data-name="Rectángulo 250" width="2.669" height="2.669" transform="matrix(0.707, -0.707, 0.707, 0.707, 27.289, 29.176)" fill="#fecb2f"/>
            <rect id="Rectángulo_251" data-name="Rectángulo 251" width="2.418" height="2.418" transform="translate(13.645 15.354) rotate(-45)" fill="#fecb2f"/>
            <rect id="Rectángulo_252" data-name="Rectángulo 252" width="2.167" height="2.167" transform="matrix(0.707, -0.707, 0.707, 0.707, 0, 1.532)" fill="#fecb2f"/>
          </g>
        </g>
        <g id="Grupo_78" data-name="Grupo 78" transform="translate(67.193 55.994)">
          <g id="Grupo_77" data-name="Grupo 77" transform="translate(0 0)">
            <rect id="Rectángulo_253" data-name="Rectángulo 253" width="4.926" height="4.926" transform="translate(150.091 153.574) rotate(-45)" fill="#fecb2f"/>
            <rect id="Rectángulo_254" data-name="Rectángulo 254" width="4.675" height="4.675" transform="translate(136.447 139.752) rotate(-45)" fill="#fecb2f"/>
            <rect id="Rectángulo_255" data-name="Rectángulo 255" width="4.424" height="4.424" transform="translate(122.802 125.93) rotate(-45.001)" fill="#fecb2f"/>
            <rect id="Rectángulo_256" data-name="Rectángulo 256" width="4.174" height="4.174" transform="matrix(0.707, -0.707, 0.707, 0.707, 109.157, 112.108)" fill="#fecb2f"/>
            <rect id="Rectángulo_257" data-name="Rectángulo 257" width="3.923" height="3.923" transform="matrix(0.707, -0.707, 0.707, 0.707, 95.513, 98.286)" fill="#fecb2f"/>
            <rect id="Rectángulo_258" data-name="Rectángulo 258" width="3.672" height="3.672" transform="matrix(0.707, -0.707, 0.707, 0.707, 81.868, 84.464)" fill="#fecb2f"/>
            <rect id="Rectángulo_259" data-name="Rectángulo 259" width="3.421" height="3.421" transform="translate(68.223 70.642) rotate(-45)" fill="#fecb2f"/>
            <rect id="Rectángulo_260" data-name="Rectángulo 260" width="3.17" height="3.17" transform="translate(54.579 56.82) rotate(-45.001)" fill="#fecb2f"/>
            <rect id="Rectángulo_261" data-name="Rectángulo 261" width="2.92" height="2.92" transform="translate(40.934 42.998) rotate(-45)" fill="#fecb2f"/>
            <rect id="Rectángulo_262" data-name="Rectángulo 262" width="2.669" height="2.669" transform="matrix(0.707, -0.707, 0.707, 0.707, 27.289, 29.176)" fill="#fecb2f"/>
            <rect id="Rectángulo_263" data-name="Rectángulo 263" width="2.418" height="2.418" transform="translate(13.645 15.354) rotate(-45)" fill="#fecb2f"/>
            <rect id="Rectángulo_264" data-name="Rectángulo 264" width="2.167" height="2.167" transform="matrix(0.707, -0.707, 0.707, 0.707, 0, 1.532)" fill="#fecb2f"/>
          </g>
        </g>
        <g id="Grupo_80" data-name="Grupo 80" transform="translate(55.994 67.193)">
          <g id="Grupo_79" data-name="Grupo 79" transform="translate(0 0)">
            <rect id="Rectángulo_265" data-name="Rectángulo 265" width="4.926" height="4.926" transform="translate(150.091 153.574) rotate(-44.999)" fill="#fecb2f"/>
            <rect id="Rectángulo_266" data-name="Rectángulo 266" width="4.675" height="4.675" transform="translate(136.446 139.752) rotate(-45)" fill="#fecb2f"/>
            <rect id="Rectángulo_267" data-name="Rectángulo 267" width="4.424" height="4.424" transform="translate(122.802 125.93) rotate(-44.999)" fill="#fecb2f"/>
            <rect id="Rectángulo_268" data-name="Rectángulo 268" width="4.174" height="4.174" transform="translate(109.157 112.108) rotate(-45)" fill="#fecb2f"/>
            <rect id="Rectángulo_269" data-name="Rectángulo 269" width="3.923" height="3.923" transform="translate(95.512 98.286) rotate(-44.999)" fill="#fecb2f"/>
            <rect id="Rectángulo_270" data-name="Rectángulo 270" width="3.672" height="3.672" transform="matrix(0.707, -0.707, 0.707, 0.707, 81.868, 84.464)" fill="#fecb2f"/>
            <rect id="Rectángulo_271" data-name="Rectángulo 271" width="3.421" height="3.421" transform="matrix(0.707, -0.707, 0.707, 0.707, 68.223, 70.642)" fill="#fecb2f"/>
            <rect id="Rectángulo_272" data-name="Rectángulo 272" width="3.17" height="3.17" transform="translate(54.579 56.82) rotate(-45.001)" fill="#fecb2f"/>
            <rect id="Rectángulo_273" data-name="Rectángulo 273" width="2.92" height="2.92" transform="translate(40.934 42.998) rotate(-45)" fill="#fecb2f"/>
            <rect id="Rectángulo_274" data-name="Rectángulo 274" width="2.669" height="2.669" transform="translate(27.289 29.176) rotate(-45.002)" fill="#fecb2f"/>
            <rect id="Rectángulo_275" data-name="Rectángulo 275" width="2.418" height="2.418" transform="translate(13.645 15.354) rotate(-45)" fill="#fecb2f"/>
            <rect id="Rectángulo_276" data-name="Rectángulo 276" width="2.167" height="2.167" transform="matrix(0.707, -0.707, 0.707, 0.707, 0, 1.532)" fill="#fecb2f"/>
          </g>
        </g>
        <g id="Grupo_82" data-name="Grupo 82" transform="translate(44.795 78.391)">
          <g id="Grupo_81" data-name="Grupo 81" transform="translate(0 0)">
            <rect id="Rectángulo_277" data-name="Rectángulo 277" width="4.926" height="4.926" transform="translate(150.091 153.574) rotate(-44.999)" fill="#fecb2f"/>
            <rect id="Rectángulo_278" data-name="Rectángulo 278" width="4.675" height="4.675" transform="translate(136.446 139.752) rotate(-45)" fill="#fecb2f"/>
            <rect id="Rectángulo_279" data-name="Rectángulo 279" width="4.424" height="4.424" transform="translate(122.802 125.93) rotate(-44.999)" fill="#fecb2f"/>
            <rect id="Rectángulo_280" data-name="Rectángulo 280" width="4.174" height="4.174" transform="translate(109.157 112.108) rotate(-45)" fill="#fecb2f"/>
            <rect id="Rectángulo_281" data-name="Rectángulo 281" width="3.923" height="3.923" transform="translate(95.513 98.286) rotate(-44.999)" fill="#fecb2f"/>
            <rect id="Rectángulo_282" data-name="Rectángulo 282" width="3.672" height="3.672" transform="translate(81.868 84.464) rotate(-45)" fill="#fecb2f"/>
            <rect id="Rectángulo_283" data-name="Rectángulo 283" width="3.421" height="3.421" transform="matrix(0.707, -0.707, 0.707, 0.707, 68.223, 70.642)" fill="#fecb2f"/>
            <rect id="Rectángulo_284" data-name="Rectángulo 284" width="3.17" height="3.17" transform="translate(54.579 56.82) rotate(-45)" fill="#fecb2f"/>
            <rect id="Rectángulo_285" data-name="Rectángulo 285" width="2.92" height="2.92" transform="translate(40.934 42.998) rotate(-45)" fill="#fecb2f"/>
            <rect id="Rectángulo_286" data-name="Rectángulo 286" width="2.669" height="2.669" transform="translate(27.289 29.176) rotate(-45)" fill="#fecb2f"/>
            <rect id="Rectángulo_287" data-name="Rectángulo 287" width="2.418" height="2.418" transform="translate(13.645 15.354) rotate(-45)" fill="#fecb2f"/>
            <rect id="Rectángulo_288" data-name="Rectángulo 288" width="2.167" height="2.167" transform="matrix(0.707, -0.707, 0.707, 0.707, 0, 1.532)" fill="#fecb2f"/>
          </g>
        </g>
        <g id="Grupo_84" data-name="Grupo 84" transform="translate(33.596 89.59)">
          <g id="Grupo_83" data-name="Grupo 83" transform="translate(0 0)">
            <rect id="Rectángulo_289" data-name="Rectángulo 289" width="4.926" height="4.926" transform="translate(150.091 153.574) rotate(-44.999)" fill="#fecb2f"/>
            <rect id="Rectángulo_290" data-name="Rectángulo 290" width="4.675" height="4.675" transform="translate(136.446 139.752) rotate(-44.999)" fill="#fecb2f"/>
            <rect id="Rectángulo_291" data-name="Rectángulo 291" width="4.424" height="4.424" transform="translate(122.802 125.93) rotate(-44.999)" fill="#fecb2f"/>
            <rect id="Rectángulo_292" data-name="Rectángulo 292" width="4.174" height="4.174" transform="matrix(0.707, -0.707, 0.707, 0.707, 109.157, 112.108)" fill="#fecb2f"/>
            <rect id="Rectángulo_293" data-name="Rectángulo 293" width="3.923" height="3.923" transform="translate(95.513 98.286) rotate(-44.999)" fill="#fecb2f"/>
            <rect id="Rectángulo_294" data-name="Rectángulo 294" width="3.672" height="3.672" transform="matrix(0.707, -0.707, 0.707, 0.707, 81.868, 84.464)" fill="#fecb2f"/>
            <rect id="Rectángulo_295" data-name="Rectángulo 295" width="3.421" height="3.421" transform="matrix(0.707, -0.707, 0.707, 0.707, 68.223, 70.642)" fill="#fecb2f"/>
            <rect id="Rectángulo_296" data-name="Rectángulo 296" width="3.17" height="3.17" transform="translate(54.579 56.82) rotate(-44.999)" fill="#fecb2f"/>
            <rect id="Rectángulo_297" data-name="Rectángulo 297" width="2.92" height="2.92" transform="matrix(0.707, -0.707, 0.707, 0.707, 40.934, 42.998)" fill="#fecb2f"/>
            <rect id="Rectángulo_298" data-name="Rectángulo 298" width="2.669" height="2.669" transform="translate(27.289 29.176) rotate(-44.998)" fill="#fecb2f"/>
            <rect id="Rectángulo_299" data-name="Rectángulo 299" width="2.418" height="2.418" transform="translate(13.645 15.354) rotate(-44.998)" fill="#fecb2f"/>
            <rect id="Rectángulo_300" data-name="Rectángulo 300" width="2.167" height="2.167" transform="translate(0 1.532) rotate(-44.998)" fill="#fecb2f"/>
          </g>
        </g>
        <g id="Grupo_86" data-name="Grupo 86" transform="translate(22.398 100.789)">
          <g id="Grupo_85" data-name="Grupo 85" transform="translate(0 0)">
            <rect id="Rectángulo_301" data-name="Rectángulo 301" width="4.926" height="4.926" transform="matrix(0.707, -0.707, 0.707, 0.707, 150.091, 153.574)" fill="#fecb2f"/>
            <rect id="Rectángulo_302" data-name="Rectángulo 302" width="4.675" height="4.675" transform="translate(136.446 139.752) rotate(-45.001)" fill="#fecb2f"/>
            <rect id="Rectángulo_303" data-name="Rectángulo 303" width="4.424" height="4.424" transform="translate(122.802 125.93) rotate(-45.001)" fill="#fecb2f"/>
            <rect id="Rectángulo_304" data-name="Rectángulo 304" width="4.174" height="4.174" transform="matrix(0.707, -0.707, 0.707, 0.707, 109.157, 112.108)" fill="#fecb2f"/>
            <rect id="Rectángulo_305" data-name="Rectángulo 305" width="3.923" height="3.923" transform="translate(95.513 98.286) rotate(-45)" fill="#fecb2f"/>
            <rect id="Rectángulo_306" data-name="Rectángulo 306" width="3.672" height="3.672" transform="translate(81.868 84.464) rotate(-45.001)" fill="#fecb2f"/>
            <rect id="Rectángulo_307" data-name="Rectángulo 307" width="3.421" height="3.421" transform="translate(68.223 70.642) rotate(-45)" fill="#fecb2f"/>
            <rect id="Rectángulo_308" data-name="Rectángulo 308" width="3.17" height="3.17" transform="translate(54.579 56.82) rotate(-45.001)" fill="#fecb2f"/>
            <rect id="Rectángulo_309" data-name="Rectángulo 309" width="2.919" height="2.919" transform="translate(40.934 42.998) rotate(-45)" fill="#fecb2f"/>
            <rect id="Rectángulo_310" data-name="Rectángulo 310" width="2.669" height="2.669" transform="translate(27.289 29.176) rotate(-45)" fill="#fecb2f"/>
            <rect id="Rectángulo_311" data-name="Rectángulo 311" width="2.418" height="2.418" transform="translate(13.645 15.354) rotate(-45)" fill="#fecb2f"/>
            <rect id="Rectángulo_312" data-name="Rectángulo 312" width="2.167" height="2.167" transform="translate(0 1.532) rotate(-45)" fill="#fecb2f"/>
          </g>
        </g>
        <g id="Grupo_88" data-name="Grupo 88" transform="translate(11.199 111.988)">
          <g id="Grupo_87" data-name="Grupo 87" transform="translate(0 0)">
            <rect id="Rectángulo_313" data-name="Rectángulo 313" width="4.926" height="4.926" transform="translate(150.091 153.574) rotate(-45)" fill="#fecb2f"/>
            <rect id="Rectángulo_314" data-name="Rectángulo 314" width="4.675" height="4.675" transform="translate(136.446 139.752) rotate(-45)" fill="#fecb2f"/>
            <rect id="Rectángulo_315" data-name="Rectángulo 315" width="4.424" height="4.424" transform="translate(122.802 125.93) rotate(-45)" fill="#fecb2f"/>
            <rect id="Rectángulo_316" data-name="Rectángulo 316" width="4.174" height="4.174" transform="matrix(0.707, -0.707, 0.707, 0.707, 109.157, 112.108)" fill="#fecb2f"/>
            <rect id="Rectángulo_317" data-name="Rectángulo 317" width="3.923" height="3.923" transform="translate(95.512 98.286) rotate(-45.001)" fill="#fecb2f"/>
            <rect id="Rectángulo_318" data-name="Rectángulo 318" width="3.672" height="3.672" transform="matrix(0.707, -0.707, 0.707, 0.707, 81.868, 84.464)" fill="#fecb2f"/>
            <rect id="Rectángulo_319" data-name="Rectángulo 319" width="3.421" height="3.421" transform="translate(68.223 70.642) rotate(-45)" fill="#fecb2f"/>
            <rect id="Rectángulo_320" data-name="Rectángulo 320" width="3.17" height="3.17" transform="translate(54.578 56.82) rotate(-45.001)" fill="#fecb2f"/>
            <rect id="Rectángulo_321" data-name="Rectángulo 321" width="2.919" height="2.919" transform="translate(40.934 42.998) rotate(-45)" fill="#fecb2f"/>
            <rect id="Rectángulo_322" data-name="Rectángulo 322" width="2.669" height="2.669" transform="matrix(0.707, -0.707, 0.707, 0.707, 27.289, 29.176)" fill="#fecb2f"/>
            <rect id="Rectángulo_323" data-name="Rectángulo 323" width="2.418" height="2.418" transform="translate(13.645 15.354) rotate(-45)" fill="#fecb2f"/>
            <rect id="Rectángulo_324" data-name="Rectángulo 324" width="2.167" height="2.167" transform="matrix(0.707, -0.707, 0.707, 0.707, 0, 1.532)" fill="#fecb2f"/>
          </g>
        </g>
        <g id="Grupo_90" data-name="Grupo 90" transform="translate(0 123.187)">
          <g id="Grupo_89" data-name="Grupo 89" transform="translate(0 0)">
            <rect id="Rectángulo_325" data-name="Rectángulo 325" width="4.926" height="4.926" transform="translate(150.091 153.574) rotate(-45)" fill="#fecb2f"/>
            <rect id="Rectángulo_326" data-name="Rectángulo 326" width="4.675" height="4.675" transform="translate(136.447 139.752) rotate(-45)" fill="#fecb2f"/>
            <rect id="Rectángulo_327" data-name="Rectángulo 327" width="4.424" height="4.424" transform="translate(122.802 125.93) rotate(-45)" fill="#fecb2f"/>
            <rect id="Rectángulo_328" data-name="Rectángulo 328" width="4.174" height="4.174" transform="translate(109.157 112.108) rotate(-45)" fill="#fecb2f"/>
            <rect id="Rectángulo_329" data-name="Rectángulo 329" width="3.923" height="3.923" transform="translate(95.513 98.286) rotate(-45)" fill="#fecb2f"/>
            <rect id="Rectángulo_330" data-name="Rectángulo 330" width="3.672" height="3.672" transform="translate(81.868 84.464) rotate(-45)" fill="#fecb2f"/>
            <rect id="Rectángulo_331" data-name="Rectángulo 331" width="3.421" height="3.421" transform="matrix(0.707, -0.707, 0.707, 0.707, 68.223, 70.642)" fill="#fecb2f"/>
            <rect id="Rectángulo_332" data-name="Rectángulo 332" width="3.17" height="3.17" transform="translate(54.579 56.82) rotate(-45.001)" fill="#fecb2f"/>
            <rect id="Rectángulo_333" data-name="Rectángulo 333" width="2.92" height="2.92" transform="translate(40.934 42.998) rotate(-45.002)" fill="#fecb2f"/>
            <rect id="Rectángulo_334" data-name="Rectángulo 334" width="2.669" height="2.669" transform="translate(27.289 29.176) rotate(-45.002)" fill="#fecb2f"/>
            <rect id="Rectángulo_335" data-name="Rectángulo 335" width="2.418" height="2.418" transform="matrix(0.707, -0.707, 0.707, 0.707, 13.645, 15.354)" fill="#fecb2f"/>
            <rect id="Rectángulo_336" data-name="Rectángulo 336" width="2.167" height="2.167" transform="matrix(0.707, -0.707, 0.707, 0.707, 0, 1.532)" fill="#fecb2f"/>
          </g>
        </g>
      </g>
    </g>
  </g>
</svg>
