<svg xmlns="http://www.w3.org/2000/svg" width="1328.104" height="568.891" viewBox="0 0 1328.104 568.891">
  <g id="Grupo_911073" data-name="Grupo 911073" transform="translate(-572.057 19423.68)">
    <g id="Grupo_911042" data-name="Grupo 911042" transform="translate(572.161 -19423.68)">
      <path id="Trazado_625231" data-name="Trazado 625231" d="M0,0H1328V568.891H0Z" fill="#f3f9ff"/>
      <g id="Grupo_3" data-name="Grupo 3" transform="translate(1263.964 18.882)" opacity="0.47">
        <path id="Trazado_25" data-name="Trazado 25" d="M95.151,242.017,87.2,234.064l-11.6,11.6L64,234.064l-7.952,7.953,11.6,11.6-11.6,11.6L64,273.162l11.6-11.6,11.6,11.6,7.953-7.952-11.6-11.6Z" transform="translate(-56.053 -234.064)" fill="#c3cfd9"/>
        <path id="Trazado_26" data-name="Trazado 26" d="M95.151,296.468,87.2,288.515l-11.6,11.6L64,288.515l-7.952,7.953,11.6,11.6-11.6,11.6L64,327.613l11.6-11.6,11.6,11.6,7.953-7.952-11.6-11.6Z" transform="translate(-56.053 -216.051)" fill="#c3cfd9"/>
        <path id="Trazado_27" data-name="Trazado 27" d="M95.151,350.918,87.2,342.965l-11.6,11.6L64,342.965l-7.952,7.953,11.6,11.6-11.6,11.6L64,382.063l11.6-11.6,11.6,11.6,7.953-7.952-11.6-11.6Z" transform="translate(-56.053 -198.038)" fill="#c3cfd9"/>
      </g>
      <g id="Grupo_895789" data-name="Grupo 895789" transform="translate(1094 319.068)" opacity="0.49">
        <g id="Grupo_68" data-name="Grupo 68" transform="translate(94.534 0)">
          <g id="Grupo_67" data-name="Grupo 67" transform="translate(0)">
            <rect id="Rectángulo_193" data-name="Rectángulo 193" width="3.78" height="3.78" transform="translate(115.181 117.854) rotate(-44.999)" fill="#fecb2f"/>
            <rect id="Rectángulo_194" data-name="Rectángulo 194" width="3.588" height="3.588" transform="translate(104.71 107.247) rotate(-45)" fill="#fecb2f"/>
            <rect id="Rectángulo_195" data-name="Rectángulo 195" width="3.395" height="3.395" transform="translate(94.239 96.64) rotate(-45)" fill="#fecb2f"/>
            <rect id="Rectángulo_196" data-name="Rectángulo 196" width="3.203" height="3.203" transform="matrix(0.707, -0.707, 0.707, 0.707, 83.768, 86.033)" fill="#fecb2f"/>
            <rect id="Rectángulo_197" data-name="Rectángulo 197" width="3.01" height="3.01" transform="translate(73.297 75.426) rotate(-45)" fill="#fecb2f"/>
            <rect id="Rectángulo_198" data-name="Rectángulo 198" width="2.818" height="2.818" transform="matrix(0.707, -0.707, 0.707, 0.707, 62.826, 64.819)" fill="#fecb2f"/>
            <rect id="Rectángulo_199" data-name="Rectángulo 199" width="2.625" height="2.625" transform="translate(52.355 54.211) rotate(-45)" fill="#fecb2f"/>
            <rect id="Rectángulo_200" data-name="Rectángulo 200" width="2.433" height="2.433" transform="translate(41.884 43.604) rotate(-45.001)" fill="#fecb2f"/>
            <rect id="Rectángulo_201" data-name="Rectángulo 201" width="2.24" height="2.24" transform="translate(31.413 32.997) rotate(-45)" fill="#fecb2f"/>
            <rect id="Rectángulo_202" data-name="Rectángulo 202" width="2.048" height="2.048" transform="matrix(0.707, -0.707, 0.707, 0.707, 20.942, 22.39)" fill="#fecb2f"/>
            <rect id="Rectángulo_203" data-name="Rectángulo 203" width="1.855" height="1.855" transform="translate(10.471 11.783) rotate(-45)" fill="#fecb2f"/>
            <rect id="Rectángulo_204" data-name="Rectángulo 204" width="1.663" height="1.663" transform="matrix(0.707, -0.707, 0.707, 0.707, 0, 1.176)" fill="#fecb2f"/>
          </g>
        </g>
        <g id="Grupo_70" data-name="Grupo 70" transform="translate(85.94 8.594)">
          <g id="Grupo_69" data-name="Grupo 69" transform="translate(0 0)">
            <rect id="Rectángulo_205" data-name="Rectángulo 205" width="3.78" height="3.78" transform="translate(115.181 117.854) rotate(-44.999)" fill="#fecb2f"/>
            <rect id="Rectángulo_206" data-name="Rectángulo 206" width="3.588" height="3.588" transform="translate(104.71 107.247) rotate(-45)" fill="#fecb2f"/>
            <rect id="Rectángulo_207" data-name="Rectángulo 207" width="3.395" height="3.395" transform="translate(94.239 96.64) rotate(-44.999)" fill="#fecb2f"/>
            <rect id="Rectángulo_208" data-name="Rectángulo 208" width="3.203" height="3.203" transform="translate(83.768 86.033) rotate(-45)" fill="#fecb2f"/>
            <rect id="Rectángulo_209" data-name="Rectángulo 209" width="3.01" height="3.01" transform="translate(73.297 75.426) rotate(-45)" fill="#fecb2f"/>
            <rect id="Rectángulo_210" data-name="Rectángulo 210" width="2.818" height="2.818" transform="translate(62.826 64.819) rotate(-45)" fill="#fecb2f"/>
            <rect id="Rectángulo_211" data-name="Rectángulo 211" width="2.625" height="2.625" transform="translate(52.355 54.211) rotate(-45)" fill="#fecb2f"/>
            <rect id="Rectángulo_212" data-name="Rectángulo 212" width="2.433" height="2.433" transform="translate(41.884 43.604) rotate(-45)" fill="#fecb2f"/>
            <rect id="Rectángulo_213" data-name="Rectángulo 213" width="2.24" height="2.24" transform="translate(31.413 32.997) rotate(-45)" fill="#fecb2f"/>
            <rect id="Rectángulo_214" data-name="Rectángulo 214" width="2.048" height="2.048" transform="translate(20.942 22.39) rotate(-45)" fill="#fecb2f"/>
            <rect id="Rectángulo_215" data-name="Rectángulo 215" width="1.855" height="1.855" transform="translate(10.471 11.783) rotate(-45)" fill="#fecb2f"/>
            <rect id="Rectángulo_216" data-name="Rectángulo 216" width="1.663" height="1.663" transform="matrix(0.707, -0.707, 0.707, 0.707, 0, 1.176)" fill="#fecb2f"/>
          </g>
        </g>
        <g id="Grupo_72" data-name="Grupo 72" transform="translate(77.346 17.188)">
          <g id="Grupo_71" data-name="Grupo 71" transform="translate(0 0)">
            <rect id="Rectángulo_217" data-name="Rectángulo 217" width="3.78" height="3.78" transform="translate(115.181 117.854) rotate(-44.999)" fill="#fecb2f"/>
            <rect id="Rectángulo_218" data-name="Rectángulo 218" width="3.588" height="3.588" transform="translate(104.71 107.247) rotate(-44.999)" fill="#fecb2f"/>
            <rect id="Rectángulo_219" data-name="Rectángulo 219" width="3.395" height="3.395" transform="translate(94.239 96.64) rotate(-44.999)" fill="#fecb2f"/>
            <rect id="Rectángulo_220" data-name="Rectángulo 220" width="3.203" height="3.203" transform="matrix(0.707, -0.707, 0.707, 0.707, 83.768, 86.033)" fill="#fecb2f"/>
            <rect id="Rectángulo_221" data-name="Rectángulo 221" width="3.01" height="3.01" transform="translate(73.297 75.426) rotate(-44.999)" fill="#fecb2f"/>
            <rect id="Rectángulo_222" data-name="Rectángulo 222" width="2.818" height="2.818" transform="matrix(0.707, -0.707, 0.707, 0.707, 62.826, 64.818)" fill="#fecb2f"/>
            <rect id="Rectángulo_223" data-name="Rectángulo 223" width="2.625" height="2.625" transform="matrix(0.707, -0.707, 0.707, 0.707, 52.355, 54.211)" fill="#fecb2f"/>
            <rect id="Rectángulo_224" data-name="Rectángulo 224" width="2.433" height="2.433" transform="translate(41.884 43.604) rotate(-44.999)" fill="#fecb2f"/>
            <rect id="Rectángulo_225" data-name="Rectángulo 225" width="2.24" height="2.24" transform="translate(31.413 32.997) rotate(-45)" fill="#fecb2f"/>
            <rect id="Rectángulo_226" data-name="Rectángulo 226" width="2.048" height="2.048" transform="translate(20.942 22.39) rotate(-44.998)" fill="#fecb2f"/>
            <rect id="Rectángulo_227" data-name="Rectángulo 227" width="1.855" height="1.855" transform="translate(10.471 11.783) rotate(-45)" fill="#fecb2f"/>
            <rect id="Rectángulo_228" data-name="Rectángulo 228" width="1.663" height="1.663" transform="matrix(0.707, -0.707, 0.707, 0.707, 0, 1.176)" fill="#fecb2f"/>
          </g>
        </g>
        <g id="Grupo_74" data-name="Grupo 74" transform="translate(68.752 25.782)">
          <g id="Grupo_73" data-name="Grupo 73" transform="translate(0 0)">
            <rect id="Rectángulo_229" data-name="Rectángulo 229" width="3.78" height="3.78" transform="translate(115.181 117.854) rotate(-45.001)" fill="#fecb2f"/>
            <rect id="Rectángulo_230" data-name="Rectángulo 230" width="3.588" height="3.588" transform="translate(104.71 107.247) rotate(-45.001)" fill="#fecb2f"/>
            <rect id="Rectángulo_231" data-name="Rectángulo 231" width="3.395" height="3.395" transform="translate(94.239 96.64) rotate(-45)" fill="#fecb2f"/>
            <rect id="Rectángulo_232" data-name="Rectángulo 232" width="3.203" height="3.203" transform="matrix(0.707, -0.707, 0.707, 0.707, 83.768, 86.033)" fill="#fecb2f"/>
            <rect id="Rectángulo_233" data-name="Rectángulo 233" width="3.01" height="3.01" transform="translate(73.297 75.426) rotate(-45)" fill="#fecb2f"/>
            <rect id="Rectángulo_234" data-name="Rectángulo 234" width="2.818" height="2.818" transform="matrix(0.707, -0.707, 0.707, 0.707, 62.826, 64.819)" fill="#fecb2f"/>
            <rect id="Rectángulo_235" data-name="Rectángulo 235" width="2.625" height="2.625" transform="translate(52.355 54.211) rotate(-45)" fill="#fecb2f"/>
            <rect id="Rectángulo_236" data-name="Rectángulo 236" width="2.433" height="2.433" transform="translate(41.884 43.604) rotate(-45.001)" fill="#fecb2f"/>
            <rect id="Rectángulo_237" data-name="Rectángulo 237" width="2.24" height="2.24" transform="translate(31.413 32.997) rotate(-45)" fill="#fecb2f"/>
            <rect id="Rectángulo_238" data-name="Rectángulo 238" width="2.048" height="2.048" transform="translate(20.942 22.39) rotate(-45)" fill="#fecb2f"/>
            <rect id="Rectángulo_239" data-name="Rectángulo 239" width="1.855" height="1.855" transform="translate(10.471 11.783) rotate(-45)" fill="#fecb2f"/>
            <rect id="Rectángulo_240" data-name="Rectángulo 240" width="1.663" height="1.663" transform="translate(0 1.176) rotate(-44.998)" fill="#fecb2f"/>
          </g>
        </g>
        <g id="Grupo_76" data-name="Grupo 76" transform="translate(60.158 34.376)">
          <g id="Grupo_75" data-name="Grupo 75" transform="translate(0 0)">
            <rect id="Rectángulo_241" data-name="Rectángulo 241" width="3.78" height="3.78" transform="translate(115.181 117.854) rotate(-45.001)" fill="#fecb2f"/>
            <rect id="Rectángulo_242" data-name="Rectángulo 242" width="3.588" height="3.588" transform="translate(104.71 107.247) rotate(-45.001)" fill="#fecb2f"/>
            <rect id="Rectángulo_243" data-name="Rectángulo 243" width="3.395" height="3.395" transform="translate(94.239 96.64) rotate(-45)" fill="#fecb2f"/>
            <rect id="Rectángulo_244" data-name="Rectángulo 244" width="3.203" height="3.203" transform="matrix(0.707, -0.707, 0.707, 0.707, 83.768, 86.033)" fill="#fecb2f"/>
            <rect id="Rectángulo_245" data-name="Rectángulo 245" width="3.01" height="3.01" transform="translate(73.297 75.426) rotate(-45)" fill="#fecb2f"/>
            <rect id="Rectángulo_246" data-name="Rectángulo 246" width="2.818" height="2.818" transform="translate(62.826 64.819) rotate(-45.001)" fill="#fecb2f"/>
            <rect id="Rectángulo_247" data-name="Rectángulo 247" width="2.625" height="2.625" transform="translate(52.355 54.211) rotate(-45)" fill="#fecb2f"/>
            <rect id="Rectángulo_248" data-name="Rectángulo 248" width="2.433" height="2.433" transform="translate(41.884 43.604) rotate(-45.001)" fill="#fecb2f"/>
            <rect id="Rectángulo_249" data-name="Rectángulo 249" width="2.24" height="2.24" transform="translate(31.413 32.997) rotate(-45)" fill="#fecb2f"/>
            <rect id="Rectángulo_250" data-name="Rectángulo 250" width="2.048" height="2.048" transform="matrix(0.707, -0.707, 0.707, 0.707, 20.942, 22.39)" fill="#fecb2f"/>
            <rect id="Rectángulo_251" data-name="Rectángulo 251" width="1.855" height="1.855" transform="translate(10.471 11.783) rotate(-45)" fill="#fecb2f"/>
            <rect id="Rectángulo_252" data-name="Rectángulo 252" width="1.663" height="1.663" transform="matrix(0.707, -0.707, 0.707, 0.707, 0, 1.176)" fill="#fecb2f"/>
          </g>
        </g>
        <g id="Grupo_78" data-name="Grupo 78" transform="translate(51.564 42.97)">
          <g id="Grupo_77" data-name="Grupo 77" transform="translate(0 0)">
            <rect id="Rectángulo_253" data-name="Rectángulo 253" width="3.78" height="3.78" transform="translate(115.181 117.854) rotate(-45)" fill="#fecb2f"/>
            <rect id="Rectángulo_254" data-name="Rectángulo 254" width="3.588" height="3.588" transform="translate(104.71 107.247) rotate(-45)" fill="#fecb2f"/>
            <rect id="Rectángulo_255" data-name="Rectángulo 255" width="3.395" height="3.395" transform="translate(94.239 96.64) rotate(-45.001)" fill="#fecb2f"/>
            <rect id="Rectángulo_256" data-name="Rectángulo 256" width="3.203" height="3.203" transform="matrix(0.707, -0.707, 0.707, 0.707, 83.768, 86.033)" fill="#fecb2f"/>
            <rect id="Rectángulo_257" data-name="Rectángulo 257" width="3.01" height="3.01" transform="matrix(0.707, -0.707, 0.707, 0.707, 73.297, 75.426)" fill="#fecb2f"/>
            <rect id="Rectángulo_258" data-name="Rectángulo 258" width="2.818" height="2.818" transform="matrix(0.707, -0.707, 0.707, 0.707, 62.826, 64.819)" fill="#fecb2f"/>
            <rect id="Rectángulo_259" data-name="Rectángulo 259" width="2.625" height="2.625" transform="translate(52.355 54.211) rotate(-45)" fill="#fecb2f"/>
            <rect id="Rectángulo_260" data-name="Rectángulo 260" width="2.433" height="2.433" transform="translate(41.884 43.604) rotate(-45.001)" fill="#fecb2f"/>
            <rect id="Rectángulo_261" data-name="Rectángulo 261" width="2.24" height="2.24" transform="translate(31.413 32.997) rotate(-45)" fill="#fecb2f"/>
            <rect id="Rectángulo_262" data-name="Rectángulo 262" width="2.048" height="2.048" transform="matrix(0.707, -0.707, 0.707, 0.707, 20.942, 22.39)" fill="#fecb2f"/>
            <rect id="Rectángulo_263" data-name="Rectángulo 263" width="1.855" height="1.855" transform="translate(10.471 11.783) rotate(-45)" fill="#fecb2f"/>
            <rect id="Rectángulo_264" data-name="Rectángulo 264" width="1.663" height="1.663" transform="matrix(0.707, -0.707, 0.707, 0.707, 0, 1.176)" fill="#fecb2f"/>
          </g>
        </g>
        <g id="Grupo_80" data-name="Grupo 80" transform="translate(42.97 51.564)">
          <g id="Grupo_79" data-name="Grupo 79" transform="translate(0 0)">
            <rect id="Rectángulo_265" data-name="Rectángulo 265" width="3.78" height="3.78" transform="translate(115.181 117.854) rotate(-44.999)" fill="#fecb2f"/>
            <rect id="Rectángulo_266" data-name="Rectángulo 266" width="3.588" height="3.588" transform="translate(104.71 107.247) rotate(-45)" fill="#fecb2f"/>
            <rect id="Rectángulo_267" data-name="Rectángulo 267" width="3.395" height="3.395" transform="translate(94.239 96.64) rotate(-44.999)" fill="#fecb2f"/>
            <rect id="Rectángulo_268" data-name="Rectángulo 268" width="3.203" height="3.203" transform="translate(83.768 86.033) rotate(-45)" fill="#fecb2f"/>
            <rect id="Rectángulo_269" data-name="Rectángulo 269" width="3.01" height="3.01" transform="translate(73.297 75.426) rotate(-44.999)" fill="#fecb2f"/>
            <rect id="Rectángulo_270" data-name="Rectángulo 270" width="2.818" height="2.818" transform="matrix(0.707, -0.707, 0.707, 0.707, 62.826, 64.819)" fill="#fecb2f"/>
            <rect id="Rectángulo_271" data-name="Rectángulo 271" width="2.625" height="2.625" transform="matrix(0.707, -0.707, 0.707, 0.707, 52.355, 54.211)" fill="#fecb2f"/>
            <rect id="Rectángulo_272" data-name="Rectángulo 272" width="2.433" height="2.433" transform="translate(41.884 43.604) rotate(-45.001)" fill="#fecb2f"/>
            <rect id="Rectángulo_273" data-name="Rectángulo 273" width="2.24" height="2.24" transform="translate(31.413 32.997) rotate(-45)" fill="#fecb2f"/>
            <rect id="Rectángulo_274" data-name="Rectángulo 274" width="2.048" height="2.048" transform="translate(20.942 22.39) rotate(-45.002)" fill="#fecb2f"/>
            <rect id="Rectángulo_275" data-name="Rectángulo 275" width="1.855" height="1.855" transform="translate(10.471 11.783) rotate(-45)" fill="#fecb2f"/>
            <rect id="Rectángulo_276" data-name="Rectángulo 276" width="1.663" height="1.663" transform="matrix(0.707, -0.707, 0.707, 0.707, 0, 1.176)" fill="#fecb2f"/>
          </g>
        </g>
        <g id="Grupo_82" data-name="Grupo 82" transform="translate(34.376 60.158)">
          <g id="Grupo_81" data-name="Grupo 81" transform="translate(0 0)">
            <rect id="Rectángulo_277" data-name="Rectángulo 277" width="3.78" height="3.78" transform="translate(115.181 117.854) rotate(-44.999)" fill="#fecb2f"/>
            <rect id="Rectángulo_278" data-name="Rectángulo 278" width="3.588" height="3.588" transform="translate(104.71 107.247) rotate(-45)" fill="#fecb2f"/>
            <rect id="Rectángulo_279" data-name="Rectángulo 279" width="3.395" height="3.395" transform="translate(94.239 96.64) rotate(-44.999)" fill="#fecb2f"/>
            <rect id="Rectángulo_280" data-name="Rectángulo 280" width="3.203" height="3.203" transform="translate(83.768 86.033) rotate(-45)" fill="#fecb2f"/>
            <rect id="Rectángulo_281" data-name="Rectángulo 281" width="3.01" height="3.01" transform="translate(73.297 75.426) rotate(-44.999)" fill="#fecb2f"/>
            <rect id="Rectángulo_282" data-name="Rectángulo 282" width="2.818" height="2.818" transform="translate(62.826 64.819) rotate(-45)" fill="#fecb2f"/>
            <rect id="Rectángulo_283" data-name="Rectángulo 283" width="2.625" height="2.625" transform="matrix(0.707, -0.707, 0.707, 0.707, 52.355, 54.211)" fill="#fecb2f"/>
            <rect id="Rectángulo_284" data-name="Rectángulo 284" width="2.433" height="2.433" transform="translate(41.884 43.604) rotate(-45)" fill="#fecb2f"/>
            <rect id="Rectángulo_285" data-name="Rectángulo 285" width="2.24" height="2.24" transform="translate(31.413 32.997) rotate(-45)" fill="#fecb2f"/>
            <rect id="Rectángulo_286" data-name="Rectángulo 286" width="2.048" height="2.048" transform="translate(20.942 22.39) rotate(-45)" fill="#fecb2f"/>
            <rect id="Rectángulo_287" data-name="Rectángulo 287" width="1.855" height="1.855" transform="translate(10.471 11.783) rotate(-45)" fill="#fecb2f"/>
            <rect id="Rectángulo_288" data-name="Rectángulo 288" width="1.663" height="1.663" transform="matrix(0.707, -0.707, 0.707, 0.707, 0, 1.176)" fill="#fecb2f"/>
          </g>
        </g>
        <g id="Grupo_84" data-name="Grupo 84" transform="translate(25.782 68.752)">
          <g id="Grupo_83" data-name="Grupo 83" transform="translate(0 0)">
            <rect id="Rectángulo_289" data-name="Rectángulo 289" width="3.78" height="3.78" transform="translate(115.181 117.854) rotate(-44.999)" fill="#fecb2f"/>
            <rect id="Rectángulo_290" data-name="Rectángulo 290" width="3.588" height="3.588" transform="translate(104.71 107.247) rotate(-44.999)" fill="#fecb2f"/>
            <rect id="Rectángulo_291" data-name="Rectángulo 291" width="3.395" height="3.395" transform="translate(94.239 96.64) rotate(-44.999)" fill="#fecb2f"/>
            <rect id="Rectángulo_292" data-name="Rectángulo 292" width="3.203" height="3.203" transform="matrix(0.707, -0.707, 0.707, 0.707, 83.768, 86.033)" fill="#fecb2f"/>
            <rect id="Rectángulo_293" data-name="Rectángulo 293" width="3.01" height="3.01" transform="translate(73.297 75.426) rotate(-44.999)" fill="#fecb2f"/>
            <rect id="Rectángulo_294" data-name="Rectángulo 294" width="2.818" height="2.818" transform="matrix(0.707, -0.707, 0.707, 0.707, 62.826, 64.818)" fill="#fecb2f"/>
            <rect id="Rectángulo_295" data-name="Rectángulo 295" width="2.625" height="2.625" transform="matrix(0.707, -0.707, 0.707, 0.707, 52.355, 54.211)" fill="#fecb2f"/>
            <rect id="Rectángulo_296" data-name="Rectángulo 296" width="2.433" height="2.433" transform="translate(41.884 43.604) rotate(-44.999)" fill="#fecb2f"/>
            <rect id="Rectángulo_297" data-name="Rectángulo 297" width="2.24" height="2.24" transform="matrix(0.707, -0.707, 0.707, 0.707, 31.413, 32.997)" fill="#fecb2f"/>
            <rect id="Rectángulo_298" data-name="Rectángulo 298" width="2.048" height="2.048" transform="translate(20.942 22.39) rotate(-44.998)" fill="#fecb2f"/>
            <rect id="Rectángulo_299" data-name="Rectángulo 299" width="1.855" height="1.855" transform="translate(10.471 11.783) rotate(-44.998)" fill="#fecb2f"/>
            <rect id="Rectángulo_300" data-name="Rectángulo 300" width="1.663" height="1.663" transform="translate(0 1.176) rotate(-44.998)" fill="#fecb2f"/>
          </g>
        </g>
        <g id="Grupo_86" data-name="Grupo 86" transform="translate(17.188 77.346)">
          <g id="Grupo_85" data-name="Grupo 85" transform="translate(0 0)">
            <rect id="Rectángulo_301" data-name="Rectángulo 301" width="3.78" height="3.78" transform="matrix(0.707, -0.707, 0.707, 0.707, 115.181, 117.854)" fill="#fecb2f"/>
            <rect id="Rectángulo_302" data-name="Rectángulo 302" width="3.588" height="3.588" transform="translate(104.71 107.247) rotate(-45.001)" fill="#fecb2f"/>
            <rect id="Rectángulo_303" data-name="Rectángulo 303" width="3.395" height="3.395" transform="translate(94.239 96.64) rotate(-45.001)" fill="#fecb2f"/>
            <rect id="Rectángulo_304" data-name="Rectángulo 304" width="3.203" height="3.203" transform="matrix(0.707, -0.707, 0.707, 0.707, 83.768, 86.033)" fill="#fecb2f"/>
            <rect id="Rectángulo_305" data-name="Rectángulo 305" width="3.01" height="3.01" transform="translate(73.297 75.426) rotate(-45)" fill="#fecb2f"/>
            <rect id="Rectángulo_306" data-name="Rectángulo 306" width="2.818" height="2.818" transform="translate(62.826 64.819) rotate(-45.001)" fill="#fecb2f"/>
            <rect id="Rectángulo_307" data-name="Rectángulo 307" width="2.625" height="2.625" transform="translate(52.355 54.212) rotate(-45)" fill="#fecb2f"/>
            <rect id="Rectángulo_308" data-name="Rectángulo 308" width="2.433" height="2.433" transform="translate(41.884 43.604) rotate(-45.001)" fill="#fecb2f"/>
            <rect id="Rectángulo_309" data-name="Rectángulo 309" width="2.24" height="2.24" transform="translate(31.413 32.997) rotate(-45)" fill="#fecb2f"/>
            <rect id="Rectángulo_310" data-name="Rectángulo 310" width="2.048" height="2.048" transform="translate(20.942 22.39) rotate(-45)" fill="#fecb2f"/>
            <rect id="Rectángulo_311" data-name="Rectángulo 311" width="1.855" height="1.855" transform="translate(10.471 11.783) rotate(-45)" fill="#fecb2f"/>
            <rect id="Rectángulo_312" data-name="Rectángulo 312" width="1.663" height="1.663" transform="translate(0 1.176) rotate(-45)" fill="#fecb2f"/>
          </g>
        </g>
        <g id="Grupo_88" data-name="Grupo 88" transform="translate(8.594 85.94)">
          <g id="Grupo_87" data-name="Grupo 87" transform="translate(0 0)">
            <rect id="Rectángulo_313" data-name="Rectángulo 313" width="3.78" height="3.78" transform="translate(115.181 117.854) rotate(-45)" fill="#fecb2f"/>
            <rect id="Rectángulo_314" data-name="Rectángulo 314" width="3.588" height="3.588" transform="translate(104.71 107.247) rotate(-45)" fill="#fecb2f"/>
            <rect id="Rectángulo_315" data-name="Rectángulo 315" width="3.395" height="3.395" transform="translate(94.239 96.64) rotate(-45)" fill="#fecb2f"/>
            <rect id="Rectángulo_316" data-name="Rectángulo 316" width="3.203" height="3.203" transform="matrix(0.707, -0.707, 0.707, 0.707, 83.768, 86.033)" fill="#fecb2f"/>
            <rect id="Rectángulo_317" data-name="Rectángulo 317" width="3.01" height="3.01" transform="translate(73.297 75.426) rotate(-45.001)" fill="#fecb2f"/>
            <rect id="Rectángulo_318" data-name="Rectángulo 318" width="2.818" height="2.818" transform="matrix(0.707, -0.707, 0.707, 0.707, 62.826, 64.819)" fill="#fecb2f"/>
            <rect id="Rectángulo_319" data-name="Rectángulo 319" width="2.625" height="2.625" transform="translate(52.355 54.211) rotate(-45)" fill="#fecb2f"/>
            <rect id="Rectángulo_320" data-name="Rectángulo 320" width="2.433" height="2.433" transform="translate(41.884 43.604) rotate(-45.001)" fill="#fecb2f"/>
            <rect id="Rectángulo_321" data-name="Rectángulo 321" width="2.24" height="2.24" transform="translate(31.413 32.997) rotate(-45)" fill="#fecb2f"/>
            <rect id="Rectángulo_322" data-name="Rectángulo 322" width="2.048" height="2.048" transform="matrix(0.707, -0.707, 0.707, 0.707, 20.942, 22.39)" fill="#fecb2f"/>
            <rect id="Rectángulo_323" data-name="Rectángulo 323" width="1.855" height="1.855" transform="translate(10.471 11.783) rotate(-45)" fill="#fecb2f"/>
            <rect id="Rectángulo_324" data-name="Rectángulo 324" width="1.663" height="1.663" transform="matrix(0.707, -0.707, 0.707, 0.707, 0, 1.176)" fill="#fecb2f"/>
          </g>
        </g>
        <g id="Grupo_90" data-name="Grupo 90" transform="translate(0 94.534)">
          <g id="Grupo_89" data-name="Grupo 89" transform="translate(0 0)">
            <rect id="Rectángulo_325" data-name="Rectángulo 325" width="3.78" height="3.78" transform="translate(115.181 117.854) rotate(-45)" fill="#fecb2f"/>
            <rect id="Rectángulo_326" data-name="Rectángulo 326" width="3.588" height="3.588" transform="translate(104.71 107.247) rotate(-45)" fill="#fecb2f"/>
            <rect id="Rectángulo_327" data-name="Rectángulo 327" width="3.395" height="3.395" transform="translate(94.239 96.64) rotate(-45)" fill="#fecb2f"/>
            <rect id="Rectángulo_328" data-name="Rectángulo 328" width="3.203" height="3.203" transform="translate(83.768 86.033) rotate(-45)" fill="#fecb2f"/>
            <rect id="Rectángulo_329" data-name="Rectángulo 329" width="3.01" height="3.01" transform="translate(73.297 75.426) rotate(-45)" fill="#fecb2f"/>
            <rect id="Rectángulo_330" data-name="Rectángulo 330" width="2.818" height="2.818" transform="translate(62.826 64.819) rotate(-45)" fill="#fecb2f"/>
            <rect id="Rectángulo_331" data-name="Rectángulo 331" width="2.625" height="2.625" transform="matrix(0.707, -0.707, 0.707, 0.707, 52.355, 54.211)" fill="#fecb2f"/>
            <rect id="Rectángulo_332" data-name="Rectángulo 332" width="2.433" height="2.433" transform="translate(41.884 43.604) rotate(-45.001)" fill="#fecb2f"/>
            <rect id="Rectángulo_333" data-name="Rectángulo 333" width="2.24" height="2.24" transform="translate(31.413 32.997) rotate(-45.002)" fill="#fecb2f"/>
            <rect id="Rectángulo_334" data-name="Rectángulo 334" width="2.048" height="2.048" transform="translate(20.942 22.39) rotate(-45.002)" fill="#fecb2f"/>
            <rect id="Rectángulo_335" data-name="Rectángulo 335" width="1.855" height="1.855" transform="matrix(0.707, -0.707, 0.707, 0.707, 10.471, 11.783)" fill="#fecb2f"/>
            <rect id="Rectángulo_336" data-name="Rectángulo 336" width="1.663" height="1.663" transform="matrix(0.707, -0.707, 0.707, 0.707, 0, 1.176)" fill="#fecb2f"/>
          </g>
        </g>
      </g>
      <g id="Grupo_895791" data-name="Grupo 895791" transform="translate(304.5 132.8)" opacity="0.42">
        <path id="Trazado_1" data-name="Trazado 1" d="M106.127-75.2-45.679,76.607q1.054,6.511,2.728,12.8L118.924-72.471Q112.642-74.142,106.127-75.2Z" transform="translate(47.407 76.927)" fill="none" stroke="#f6cd53" stroke-miterlimit="10" stroke-width="1.078"/>
        <path id="Trazado_2" data-name="Trazado 2" d="M118.681-72.715-43.2,89.16q1.6,6.014,3.729,11.8L130.478-68.986Q124.7-71.121,118.681-72.715Z" transform="translate(47.651 77.171)" fill="none" stroke="#f6cd53" stroke-miterlimit="10" stroke-width="1.078"/>
        <path id="Trazado_3" data-name="Trazado 3" d="M167.334-48.491-18.971,137.814c2.361,2.8,4.824,5.52,7.408,8.118L175.453-41.083C172.855-43.666,170.139-46.13,167.334-48.491Z" transform="translate(50.028 79.548)" fill="none" stroke="#f6cd53" stroke-miterlimit="10" stroke-width="1.078"/>
        <path id="Trazado_4" data-name="Trazado 4" d="M159.172-54.647l-184.3,184.3q3.205,4.523,6.761,8.765L167.938-47.887Q163.707-51.45,159.172-54.647Z" transform="translate(49.424 78.944)" fill="none" stroke="#f6cd53" stroke-miterlimit="10" stroke-width="1.078"/>
        <path id="Trazado_5" data-name="Trazado 5" d="M140.648-65.12-35.6,111.128c1.65,3.466,3.463,6.837,5.4,10.128L150.776-59.721C147.485-61.657,144.113-63.47,140.648-65.12Z" transform="translate(48.396 77.916)" fill="none" stroke="#f6cd53" stroke-miterlimit="10" stroke-width="1.078"/>
        <path id="Trazado_6" data-name="Trazado 6" d="M150.293-60.2-30.684,120.773q2.853,4.851,6.1,9.425l184.3-184.3Q155.143-57.345,150.293-60.2Z" transform="translate(48.879 78.399)" fill="none" stroke="#f6cd53" stroke-miterlimit="10" stroke-width="1.078"/>
        <path id="Trazado_7" data-name="Trazado 7" d="M130.144-69.319-39.8,100.624q2.064,5.582,4.611,10.915L141.06-64.708Q135.728-67.246,130.144-69.319Z" transform="translate(47.984 77.504)" fill="none" stroke="#f6cd53" stroke-miterlimit="10" stroke-width="1.078"/>
        <path id="Trazado_8" data-name="Trazado 8" d="M-38.97,6.476,36-68.489A132.614,132.614,0,0,0-38.97,6.476Z" transform="translate(48.066 77.586)" fill="none" stroke="#f6cd53" stroke-miterlimit="10" stroke-width="1.078"/>
        <path id="Trazado_9" data-name="Trazado 9" d="M36.575-67.909-38.39,7.057a131.088,131.088,0,0,0-6.5,22.022L58.6-74.405A131.142,131.142,0,0,0,36.575-67.909Z" transform="translate(47.485 77.005)" fill="none" stroke="#f6cd53" stroke-miterlimit="10" stroke-width="1.078"/>
        <path id="Trazado_10" data-name="Trazado 10" d="M92.256-76.583-47.064,62.736a132.584,132.584,0,0,0,1.521,14.006L106.263-75.063A132.614,132.614,0,0,0,92.256-76.583Z" transform="translate(47.272 76.792)" fill="none" stroke="#f6cd53" stroke-miterlimit="10" stroke-width="1.078"/>
        <path id="Trazado_11" data-name="Trazado 11" d="M85-76.773c-2.8,0-5.571.116-8.328.288L-46.965,47.149c-.171,2.756-.288,5.528-.288,8.328,0,2.442.077,4.867.208,7.277L92.275-76.564C89.864-76.7,87.44-76.773,85-76.773Z" transform="translate(47.253 76.773)" fill="none" stroke="#f6cd53" stroke-miterlimit="10" stroke-width="1.078"/>
        <path id="Trazado_12" data-name="Trazado 12" d="M58.8-74.2-44.678,29.285a132.306,132.306,0,0,0-2.313,17.839L76.643-76.511A132.491,132.491,0,0,0,58.8-74.2Z" transform="translate(47.279 76.799)" fill="none" stroke="#f6cd53" stroke-miterlimit="10" stroke-width="1.078"/>
        <path id="Trazado_13" data-name="Trazado 13" d="M205.52,23.422,52.941,176a132.379,132.379,0,0,0,13.916,1.61L207.13,37.338A132.3,132.3,0,0,0,205.52,23.422Z" transform="translate(57.084 86.604)" fill="none" stroke="#f6cd53" stroke-miterlimit="10" stroke-width="1.078"/>
        <path id="Trazado_14" data-name="Trazado 14" d="M206.173,44.4c0-2.794-.116-5.559-.287-8.308L65.614,176.366c2.751.171,5.516.287,8.308.287,2.393,0,4.767-.071,7.128-.2L205.976,51.531C206.1,49.17,206.173,46.8,206.173,44.4Z" transform="translate(58.327 87.847)" fill="none" stroke="#f6cd53" stroke-miterlimit="10" stroke-width="1.078"/>
        <path id="Trazado_15" data-name="Trazado 15" d="M204.6,50.152,79.671,175.077a132.312,132.312,0,0,0,17.688-2.162L202.435,67.84A132.526,132.526,0,0,0,204.6,50.152Z" transform="translate(59.706 89.226)" fill="none" stroke="#f6cd53" stroke-miterlimit="10" stroke-width="1.078"/>
        <path id="Trazado_16" data-name="Trazado 16" d="M200.854,66.26,95.779,171.334a131.188,131.188,0,0,0,21.542-6.015L194.839,87.8A131.435,131.435,0,0,0,200.854,66.26Z" transform="translate(61.287 90.807)" fill="none" stroke="#f6cd53" stroke-miterlimit="10" stroke-width="1.078"/>
        <path id="Trazado_17" data-name="Trazado 17" d="M192.914,85.877,115.4,163.394A132.623,132.623,0,0,0,192.914,85.877Z" transform="translate(63.212 92.732)" fill="none" stroke="#f6cd53" stroke-miterlimit="10" stroke-width="1.078"/>
        <path id="Trazado_18" data-name="Trazado 18" d="M203.851,11.837,41.357,174.332q6.244,1.707,12.721,2.8L206.656,24.559Q205.561,18.085,203.851,11.837Z" transform="translate(55.947 85.467)" fill="none" stroke="#f6cd53" stroke-miterlimit="10" stroke-width="1.078"/>
        <path id="Trazado_19" data-name="Trazado 19" d="M187.553-26.455,3.065,158.033c3.033,2.176,6.152,4.239,9.369,6.157L193.71-17.086C191.792-20.3,189.729-23.422,187.553-26.455Z" transform="translate(52.19 81.71)" fill="none" stroke="#f6cd53" stroke-miterlimit="10" stroke-width="1.078"/>
        <path id="Trazado_20" data-name="Trazado 20" d="M181.517-34.388-4.869,152q4.209,3.584,8.712,6.814L188.331-25.677Q185.1-30.177,181.517-34.388Z" transform="translate(51.412 80.932)" fill="none" stroke="#f6cd53" stroke-miterlimit="10" stroke-width="1.078"/>
        <path id="Trazado_21" data-name="Trazado 21" d="M201.1,1.157,30.676,171.581q5.742,2.168,11.729,3.8L204.9,12.885Q203.265,6.9,201.1,1.157Z" transform="translate(54.899 84.419)" fill="none" stroke="#f6cd53" stroke-miterlimit="10" stroke-width="1.078"/>
        <path id="Trazado_22" data-name="Trazado 22" d="M174.791-41.745-12.225,145.271c2.582,2.6,5.289,5.071,8.078,7.449L182.238-33.666C179.861-36.456,177.389-39.162,174.791-41.745Z" transform="translate(50.69 80.21)" fill="none" stroke="#f6cd53" stroke-miterlimit="10" stroke-width="1.078"/>
        <path id="Trazado_23" data-name="Trazado 23" d="M197.422-8.746,20.773,167.9c3.537,1.713,7.171,3.254,10.875,4.652L202.073,2.129C200.675-1.576,199.133-5.21,197.422-8.746Z" transform="translate(53.927 83.448)" fill="none" stroke="#f6cd53" stroke-miterlimit="10" stroke-width="1.078"/>
        <path id="Trazado_24" data-name="Trazado 24" d="M192.873-17.923,11.6,163.353c3.272,1.952,6.628,3.78,10.076,5.449L198.322-7.846C196.653-11.295,194.824-14.65,192.873-17.923Z" transform="translate(53.027 82.547)" fill="none" stroke="#f6cd53" stroke-miterlimit="10" stroke-width="1.078"/>
      </g>
      <path id="Trazado_623844" data-name="Trazado 623844" d="M339.265,26.853,45.609,190.238c-10.02,5.576-26.737,4.933-37.338-1.435h0c-10.6-6.367-11.073-16.048-1.053-21.623L300.873,3.795c10.02-5.575,26.737-4.932,37.338,1.435h0C348.814,11.6,349.285,21.278,339.265,26.853Z" transform="matrix(0.985, -0.174, 0.174, 0.985, 523.464, 89.519)" fill="none" stroke="#fecb2f" stroke-miterlimit="10" stroke-width="2" opacity="0.09"/>
      <path id="Trazado_623845" data-name="Trazado 623845" d="M229.533,31.209,29.851,240.011a16.941,16.941,0,0,1-24.712-.038h0A18.863,18.863,0,0,1,5.1,214.134L204.781,5.332a16.943,16.943,0,0,1,24.714.038h0A18.866,18.866,0,0,1,229.533,31.209Z" transform="translate(677.566 17.017) rotate(7)" fill="none" stroke="#fecb2f" stroke-miterlimit="10" stroke-width="2" opacity="0.09"/>
      <path id="Trazado_631475" data-name="Trazado 631475" d="M0,71.042A120.461,120.461,0,0,1,119.691,191.5,120.462,120.462,0,0,1,0,311.958V383c105.41-.417,190.733-85.993,190.733-191.5S105.41.417,0,0Z" transform="translate(-0.104 82.479)" fill="#edfbf9" opacity="0.69"/>
    </g>
  </g>
</svg>
