<svg xmlns="http://www.w3.org/2000/svg" width="1266.696" height="366.498" viewBox="0 0 1266.696 366.498">
  <g id="Grupo_911083" data-name="Grupo 911083" transform="translate(1541.64 20226.967)">
    <g id="Grupo_911074" data-name="Grupo 911074" transform="translate(-133.75 -435)">
      <path id="Trazado_636633" data-name="Trazado 636633" d="M182.515,67.981a115.27,115.27,0,0,0,0,230.536V366.5A183.252,183.252,0,0,1,0,183.249C0,82.287,81.647.4,182.515,0Z" transform="translate(-323.71 -19791.967)" fill="#fecb2f" opacity="0.13"/>
      <g id="Grupo_3" data-name="Grupo 3" transform="translate(-1407.891 -19723.357)" opacity="0.15">
        <path id="Trazado_25" data-name="Trazado 25" d="M95.151,242.017,87.2,234.064l-11.6,11.6L64,234.064l-7.952,7.953,11.6,11.6-11.6,11.6L64,273.162l11.6-11.6,11.6,11.6,7.953-7.952-11.6-11.6Z" transform="translate(-56.053 -234.064)" fill="#21cbae"/>
        <path id="Trazado_26" data-name="Trazado 26" d="M95.151,296.468,87.2,288.515l-11.6,11.6L64,288.515l-7.952,7.953,11.6,11.6-11.6,11.6L64,327.613l11.6-11.6,11.6,11.6,7.953-7.952-11.6-11.6Z" transform="translate(-56.053 -216.051)" fill="#21cbae"/>
        <path id="Trazado_27" data-name="Trazado 27" d="M95.151,350.918,87.2,342.965l-11.6,11.6L64,342.965l-7.952,7.953,11.6,11.6-11.6,11.6L64,382.063l11.6-11.6,11.6,11.6,7.953-7.952-11.6-11.6Z" transform="translate(-56.053 -198.038)" fill="#21cbae"/>
      </g>
    </g>
  </g>
</svg>
