<svg xmlns="http://www.w3.org/2000/svg" width="90.509" height="75.416" viewBox="0 0 90.509 75.416">
  <g id="Grupo_911021" data-name="Grupo 911021" transform="translate(12359.104 12907.999)">
    <g id="Grupo_910857" data-name="Grupo 910857" transform="translate(-12403.859 -13208.698)">
      <g id="Grupo_910853" data-name="Grupo 910853" transform="translate(47.378 307.802)">
        <path id="Trazado_636149" data-name="Trazado 636149" d="M51.025,332.662a4.856,4.856,0,0,0,.7,2.829c.912,1.346,2.858,2.159,6.6,2.908,7.221,1.452,22.982,1.535,28.522-.484,3.629-1.322,4.085-6.7,1.389-8.705l0,0a5.009,5.009,0,0,0-4.306-.9s1.97-6.983-4.2-9.729a10.031,10.031,0,0,0-8.337,0c-2.238,1.3-3.146,4.406-3.146,4.406a5.884,5.884,0,0,0-6.608-.391c-2.7,1.4-3.148,5.736-3.148,5.736C55.912,327.341,51.025,328.653,51.025,332.662Z" transform="translate(-51.025 -317.68)" fill="#d5ecf3"/>
        <path id="Trazado_636150" data-name="Trazado 636150" d="M52.7,351.528c.912,1.346,2.858,2.159,6.6,2.908,7.221,1.452,22.982,1.535,28.522-.484,3.629-1.322,4.085-6.7,1.389-8.705.075.073,2.446,2.33-.258,5.026a4.54,4.54,0,0,1-5.435.63s-.406,2.635-3.866,3.465a34.426,34.426,0,0,1-13.538.413,16.116,16.116,0,0,1-5.246-2.245A4.666,4.666,0,0,1,57.49,353.7a7.709,7.709,0,0,1-4.788-2.169Z" transform="translate(-51.998 -333.717)" fill="#c3e3ed"/>
        <path id="Trazado_636151" data-name="Trazado 636151" d="M106.824,318.785c3.714,1.027,4.03,6.7-.386,7.082-2.434.213-6.465-.794-7.386-2.128C96.628,320.227,101.108,317.2,106.824,318.785Z" transform="translate(-78.572 -318.073)" fill="#e3f2f6"/>
        <path id="Trazado_636152" data-name="Trazado 636152" d="M85.593,349.454c-7.826-1.51-2.186-6.332,2.362-6.3C92.182,343.189,94.293,351.134,85.593,349.454Z" transform="translate(-68.868 -332.501)" fill="#e3f2f6"/>
        <path id="Trazado_636153" data-name="Trazado 636153" d="M134.457,345.216c1.478.82.235,2.757-1.569,2.049C131.213,346.607,131.638,343.653,134.457,345.216Z" transform="translate(-98.075 -333.437)" fill="#e3f2f6"/>
        <path id="Trazado_636154" data-name="Trazado 636154" d="M82.018,327.97a4.76,4.76,0,0,0-5.635.57c-1.258,1.3.492,2.644,2.817,2.074S84.1,329.059,82.018,327.97Z" transform="translate(-65.532 -323.287)" fill="#e3f2f6"/>
      </g>
      <g id="Grupo_910854" data-name="Grupo 910854" transform="translate(72.136 300.699)">
        <ellipse id="Elipse_7199" data-name="Elipse 7199" cx="19.141" cy="4.867" rx="19.141" ry="4.867" transform="translate(0.209 7.654)" fill="#0b7560"/>
        <path id="Trazado_636155" data-name="Trazado 636155" d="M149.963,306.063v52.443c-3.518,9.181-29.624,9.181-34.457,0V306.063C115.506,299.325,149.963,298.508,149.963,306.063Z" transform="translate(-113.293 -300.699)" fill="#acd1d8"/>
        <path id="Trazado_636156" data-name="Trazado 636156" d="M149.963,361.6v4.369c-3.518,9.181-29.624,9.181-34.457,0V313.523c0,1.683,2.464,3,5.369,3.521,0,0-.39,33.321.491,41.174S140.191,373.826,149.963,361.6Z" transform="translate(-113.293 -308.159)" fill="#90bbbf"/>
        <path id="Trazado_636157" data-name="Trazado 636157" d="M146.495,324.728s.366,31.706.659,36.176,9.375,6.872,11.231-.116c1.93-7.27.918-36.059.918-36.059A54.279,54.279,0,0,1,146.495,324.728Z" transform="translate(-131.32 -314.677)" fill="#d5ecf3"/>
        <path id="Trazado_636158" data-name="Trazado 636158" d="M148.918,341.372c-.485,1.834-4.7,3.044-10.185,3.646a88.336,88.336,0,0,1-13.452.34,50.164,50.164,0,0,1-11.439-1.633c-2.012-.624-3.339-1.4-3.6-2.353l.19-11.1.005-.268a.978.978,0,0,0,.067.3c.3.814,1.572,1.488,3.473,2.024,9.483,2.676,34.747,1.923,34.747-2.325Z" transform="translate(-110.23 -317.747)" fill="#21cbae"/>
        <path id="Trazado_636159" data-name="Trazado 636159" d="M149.139,379.6c-.485,1.85-4.766,3.066-10.319,3.662a88.464,88.464,0,0,1-13.017.34,50.5,50.5,0,0,1-11.8-1.672c-1.979-.613-3.278-1.394-3.54-2.33l.2-11.362c.067.909,1.3,1.656,3.289,2.247a52.349,52.349,0,0,0,11.467,1.538,98.626,98.626,0,0,0,13.5-.307c5.725-.568,10.029-1.728,10.029-3.479Z" transform="translate(-110.362 -339.991)" fill="#21cbae"/>
        <path id="Trazado_636160" data-name="Trazado 636160" d="M112.9,363.683a1.755,1.755,0,0,0,.659,1.7c.777.554,2.359,1.154,5.75,1.739,7.471,1.288,18.421.644,24.354-.539a7.444,7.444,0,0,0,3.186-1.329,1.917,1.917,0,0,0,.514-1.484s1.8.778,1.818,1.822-2.7,4.014-19.58,3.883-18.4-3.029-18.7-3.883S112.9,363.683,112.9,363.683Z" transform="translate(-110.595 -337.338)" fill="#0b7560"/>
        <path id="Trazado_636161" data-name="Trazado 636161" d="M148.886,419.947c-.451,1.717-4.164,2.888-9.131,3.523-.151.011-.3.033-.463.056-.853.1-1.745.19-2.654.262-.067,0-.128.005-.189.011-10.965.842-25.315-.49-26.234-3.852l.195-11.361c.073.948,1.433,1.728,3.6,2.336a57.129,57.129,0,0,0,12.214,1.489,97.977,97.977,0,0,0,12.036-.307c5.926-.552,10.436-1.723,10.436-3.518Z" transform="translate(-110.215 -363.46)" fill="#21cbae"/>
        <path id="Trazado_636162" data-name="Trazado 636162" d="M112.645,404.026a1.755,1.755,0,0,0,.659,1.7c.777.554,2.359,1.154,5.75,1.739,7.471,1.288,18.421.644,24.354-.539a7.44,7.44,0,0,0,3.186-1.329,1.916,1.916,0,0,0,.513-1.484s1.8.778,1.819,1.822-2.7,4.014-19.58,3.883-18.4-3.029-18.7-3.883S112.645,404.026,112.645,404.026Z" transform="translate(-110.447 -360.807)" fill="#0b7560"/>
        <path id="Trazado_636163" data-name="Trazado 636163" d="M160.515,417c-1.416,6.851-8.05,8.155-10.887,4.215a10.376,10.376,0,0,1-1.149-3.908A97.971,97.971,0,0,0,160.515,417Z" transform="translate(-132.474 -368.352)" fill="#108972"/>
        <path id="Trazado_636164" data-name="Trazado 636164" d="M146.2,350.224c.022-6.394.177-11.547.177-11.547a104.971,104.971,0,0,0,13.02-.307s.154,5.37.255,11.514A88.332,88.332,0,0,1,146.2,350.224Z" transform="translate(-131.148 -322.613)" fill="#108972"/>
        <path id="Trazado_636165" data-name="Trazado 636165" d="M159.614,388.1a88.465,88.465,0,0,1-13.017.34c-.246-3.54-.351-7.643-.385-11.579a98.617,98.617,0,0,0,13.5-.307C159.743,380.617,159.732,384.782,159.614,388.1Z" transform="translate(-131.156 -344.829)" fill="#108972"/>
        <path id="Trazado_636166" data-name="Trazado 636166" d="M113.952,370.489c-.017,3.841,0,7.866.056,11.445-1.979-.613-3.278-1.394-3.54-2.33l.2-11.362C110.73,369.151,111.962,369.9,113.952,370.489Z" transform="translate(-110.362 -339.991)" fill="#0e997e"/>
        <path id="Trazado_636167" data-name="Trazado 636167" d="M110.241,341.736l.19-11.1.005-.006.067.039,3.473,2.024.072.039c-.056.167-.156,5.084-.206,11.356C111.83,343.464,110.5,342.684,110.241,341.736Z" transform="translate(-110.23 -318.111)" fill="#0e997e"/>
        <path id="Trazado_636168" data-name="Trazado 636168" d="M136.449,423.8c-10.965.842-25.315-.49-26.234-3.852l.195-11.361c.073.948,1.433,1.728,3.6,2.336a32.832,32.832,0,0,0,.468,5.4C115.461,419.724,125.841,424.329,136.449,423.8Z" transform="translate(-110.215 -363.46)" fill="#0e997e"/>
        <path id="Trazado_636169" data-name="Trazado 636169" d="M112.678,325.454a1.755,1.755,0,0,0,.659,1.7c.777.554,2.359,1.154,5.75,1.739,7.471,1.288,18.421.644,24.353-.539a7.445,7.445,0,0,0,3.186-1.329,1.917,1.917,0,0,0,.514-1.484s1.8.778,1.818,1.822-2.7,4.014-19.58,3.883-18.4-3.029-18.7-3.883S112.678,325.454,112.678,325.454Z" transform="translate(-110.467 -315.1)" fill="#0b7560"/>
        <path id="Trazado_636170" data-name="Trazado 636170" d="M188.481,342.156a1,1,0,1,1-1-1A1,1,0,0,1,188.481,342.156Z" transform="translate(-154.58 -324.233)" fill="#fecb2f"/>
        <path id="Trazado_636171" data-name="Trazado 636171" d="M189.648,379.411a1,1,0,1,1-1-1A1,1,0,0,1,189.648,379.411Z" transform="translate(-155.259 -345.906)" fill="#fecb2f"/>
        <path id="Trazado_636172" data-name="Trazado 636172" d="M189.648,420.058a1,1,0,1,1-1-1A1,1,0,0,1,189.648,420.058Z" transform="translate(-155.259 -369.551)" fill="#fecb2f"/>
        <circle id="Elipse_7200" data-name="Elipse 7200" cx="1.001" cy="1.001" r="1.001" transform="translate(27.822 17.735)" fill="#acd1d8"/>
        <circle id="Elipse_7201" data-name="Elipse 7201" cx="1.001" cy="1.001" r="1.001" transform="translate(28.31 33.318)" fill="#acd1d8"/>
        <circle id="Elipse_7202" data-name="Elipse 7202" cx="1.001" cy="1.001" r="1.001" transform="translate(28.31 50.32)" fill="#acd1d8"/>
      </g>
      <g id="Grupo_910855" data-name="Grupo 910855" transform="translate(44.756 346.36)">
        <path id="Trazado_636173" data-name="Trazado 636173" d="M97.937,430.33a6.635,6.635,0,0,1-.956,3.865c-1.246,1.838-3.9,2.948-9.01,3.972-9.862,1.983-31.391,2.1-38.959-.66-4.957-1.806-5.58-9.155-1.9-11.891l0,0A6.845,6.845,0,0,1,53,424.381s-2.69-9.538,5.736-13.289c4.485-2,9.271-1.226,11.387,0,3.058,1.771,4.3,6.018,4.3,6.018s3.689-3.3,9.027-.534c3.683,1.911,4.3,7.835,4.3,7.835C91.262,423.061,97.937,424.853,97.937,430.33Z" transform="translate(-44.756 -409.866)" fill="#d5ecf3"/>
        <path id="Trazado_636174" data-name="Trazado 636174" d="M96.981,456.1c-1.246,1.838-3.9,2.948-9.01,3.972-9.862,1.983-31.391,2.1-38.959-.66-4.957-1.806-5.58-9.155-1.9-11.891-.1.1-3.341,3.183.353,6.865,3.338,3.327,7.423.861,7.423.861s.554,3.6,5.281,4.732c4.708,1.129,12.647,1.847,18.492.564a22.024,22.024,0,0,0,7.165-3.066,6.375,6.375,0,0,0,4.606,1.59,10.529,10.529,0,0,0,6.54-2.962Z" transform="translate(-44.756 -431.771)" fill="#c3e3ed"/>
        <path id="Trazado_636175" data-name="Trazado 636175" d="M74.215,411.374c-5.073,1.4-5.5,9.147.527,9.674,3.326.291,8.832-1.085,10.089-2.907C88.142,413.344,82.024,409.214,74.215,411.374Z" transform="translate(-59.624 -410.401)" fill="#e3f2f6"/>
        <path id="Trazado_636176" data-name="Trazado 636176" d="M105.828,453.267c10.69-2.064,2.986-8.65-3.226-8.6C96.828,444.709,93.945,455.561,105.828,453.267Z" transform="translate(-75.493 -430.109)" fill="#e3f2f6"/>
        <path id="Trazado_636177" data-name="Trazado 636177" d="M51.844,447.478c-2.019,1.12-.32,3.766,2.143,2.8C56.276,449.378,55.695,445.342,51.844,447.478Z" transform="translate(-48.359 -431.388)" fill="#e3f2f6"/>
        <path id="Trazado_636178" data-name="Trazado 636178" d="M116.611,423.92a6.5,6.5,0,0,1,7.7.779c1.719,1.771-.673,3.612-3.849,2.833S113.771,425.407,116.611,423.92Z" transform="translate(-85.948 -417.524)" fill="#e3f2f6"/>
      </g>
      <g id="Grupo_910856" data-name="Grupo 910856" transform="translate(96.331 328.148)">
        <path id="Trazado_636179" data-name="Trazado 636179" d="M207,381.307a4.86,4.86,0,0,1-.7,2.83c-.912,1.346-2.859,2.158-6.6,2.908-7.22,1.452-22.982,1.535-28.522-.484-3.629-1.322-4.085-6.7-1.389-8.705l0,0a5.01,5.01,0,0,1,4.305-.9s-1.969-6.983,4.2-9.729a10.034,10.034,0,0,1,8.336,0c2.238,1.3,3.146,4.406,3.146,4.406a5.884,5.884,0,0,1,6.608-.391c2.7,1.4,3.148,5.736,3.148,5.736C202.109,375.985,207,377.3,207,381.307Z" transform="translate(-168.061 -366.325)" fill="#d5ecf3"/>
        <path id="Trazado_636180" data-name="Trazado 636180" d="M206.3,400.173c-.912,1.346-2.859,2.158-6.6,2.908-7.22,1.452-22.982,1.535-28.522-.484-3.629-1.322-4.085-6.7-1.389-8.705-.075.073-2.446,2.33.258,5.025a4.539,4.539,0,0,0,5.435.631s.406,2.635,3.866,3.465a34.434,34.434,0,0,0,13.538.412,16.12,16.12,0,0,0,5.246-2.244,4.667,4.667,0,0,0,3.372,1.164,7.71,7.71,0,0,0,4.788-2.168Z" transform="translate(-168.061 -382.362)" fill="#c3e3ed"/>
        <path id="Trazado_636181" data-name="Trazado 636181" d="M189.629,367.43c-3.714,1.028-4.03,6.7.386,7.083,2.435.213,6.466-.794,7.386-2.128C199.825,368.872,195.345,365.849,189.629,367.43Z" transform="translate(-178.946 -366.717)" fill="#e3f2f6"/>
        <path id="Trazado_636182" data-name="Trazado 636182" d="M212.773,398.1c7.826-1.511,2.186-6.333-2.362-6.3C206.184,391.834,204.073,399.779,212.773,398.1Z" transform="translate(-190.564 -381.145)" fill="#e3f2f6"/>
        <path id="Trazado_636183" data-name="Trazado 636183" d="M173.251,393.861c-1.478.82-.234,2.757,1.569,2.049C176.5,395.252,176.07,392.3,173.251,393.861Z" transform="translate(-170.7 -382.081)" fill="#e3f2f6"/>
        <path id="Trazado_636184" data-name="Trazado 636184" d="M220.666,376.615a4.758,4.758,0,0,1,5.635.57c1.259,1.3-.492,2.644-2.817,2.074S218.587,377.7,220.666,376.615Z" transform="translate(-198.218 -371.932)" fill="#e3f2f6"/>
      </g>
    </g>
  </g>
</svg>
