<svg xmlns="http://www.w3.org/2000/svg" width="95.333" height="71.926" viewBox="0 0 95.333 71.926">
  <g id="Grupo_911019" data-name="Grupo 911019" transform="translate(12361.516 13234.567)">
    <g id="Grupo_910893" data-name="Grupo 910893" transform="translate(-13187.603 -13770.272)">
      <g id="Grupo_910863" data-name="Grupo 910863" transform="translate(826.087 546.354)">
        <path id="Trazado_636185" data-name="Trazado 636185" d="M833.106,719.285s-5.339.247-6.477-3.971c-.664-2.461,8.945,0,8.945,0Z" transform="translate(-826.406 -658.012)" fill="#0b1416"/>
        <path id="Trazado_636186" data-name="Trazado 636186" d="M869.416,569.027v52.889a3.537,3.537,0,0,1-3.536,3.536H837.447a3.534,3.534,0,0,1-3.532-3.536V570.188a3.534,3.534,0,0,1,3.532-3.535h26.73l.476-2.456C869.116,565.091,869.416,568.3,869.416,569.027Z" transform="translate(-830.983 -564.174)" fill="#0b1416"/>
        <rect id="Rectángulo_306802" data-name="Rectángulo 306802" width="36.813" height="59.833" rx="2" transform="translate(0 0)" fill="#12263f"/>
        <path id="Trazado_636187" data-name="Trazado 636187" d="M861.664,627.579H831.535a1.988,1.988,0,0,1-1.988-1.988V573.965a1.988,1.988,0,0,1,1.988-1.988h30.129a1.988,1.988,0,0,1,1.988,1.988v51.627A1.988,1.988,0,0,1,861.664,627.579Z" transform="translate(-828.251 -569.041)" fill="#fff"/>
        <g id="Grupo_910862" data-name="Grupo 910862" transform="translate(4.199 13.259)">
          <path id="Trazado_636188" data-name="Trazado 636188" d="M860.741,607.471s-.337-3.23-2.344-4.272a4.383,4.383,0,0,0-4.922.291,6.27,6.27,0,0,0-2.343-3.282,7.474,7.474,0,0,0-6.209,0c-4.595,2.046-3.128,7.246-3.128,7.246a3.731,3.731,0,0,0-3.207.672l0,0c-2.008,1.491-1.668,5.5,1.034,6.483a20.726,20.726,0,0,0,4.7.881c-.054,1.227-.079,2.455-.061,3.684a.375.375,0,0,0,.749,0c-.018-1.206.006-2.412.058-3.617a67.6,67.6,0,0,0,15.8-.588c2.783-.558,4.233-1.164,4.912-2.166a3.617,3.617,0,0,0,.521-2.107C866.3,607.712,862.657,606.735,860.741,607.471Z" transform="translate(-837.299 -599.54)" fill="#e8e8e8"/>
          <g id="Grupo_910858" data-name="Grupo 910858" transform="translate(15.449 16.763)">
            <rect id="Rectángulo_306803" data-name="Rectángulo 306803" width="2.318" height="8.812" transform="translate(1.095 2.604)" fill="#fecb2f"/>
            <path id="Trazado_636189" data-name="Trazado 636189" d="M878.549,647.94h4.594L880.8,644.3Z" transform="translate(-878.549 -644.299)" fill="#fecb2f"/>
          </g>
          <g id="Grupo_910859" data-name="Grupo 910859" transform="translate(8.494 17.294)">
            <rect id="Rectángulo_306804" data-name="Rectángulo 306804" width="2.318" height="8.812" transform="translate(3.499 8.812) rotate(180)" fill="#fecb2f"/>
            <path id="Trazado_636190" data-name="Trazado 636190" d="M864.572,666.474h-4.594l2.34,3.641Z" transform="translate(-859.978 -658.7)" fill="#fecb2f"/>
          </g>
          <g id="Grupo_910861" data-name="Grupo 910861" transform="translate(10.344 6.768)">
            <g id="Grupo_910860" data-name="Grupo 910860" transform="translate(0.516)">
              <path id="Trazado_636191" data-name="Trazado 636191" d="M869.865,617.612a3.6,3.6,0,0,0-3.568,3.134q.276-.03.556-.039a3.054,3.054,0,0,1,6.063.358c.182.02.364.033.546.043A3.6,3.6,0,0,0,869.865,617.612Z" transform="translate(-866.297 -617.612)" fill="#21cbae"/>
              <path id="Trazado_636192" data-name="Trazado 636192" d="M872.861,628.938a3.05,3.05,0,0,1-5.937-.026,4.517,4.517,0,0,1-.578-.1,3.6,3.6,0,0,0,7.067.166C873.229,628.962,873.045,628.948,872.861,628.938Z" transform="translate(-866.328 -624.617)" fill="#21cbae"/>
            </g>
            <path id="Trazado_636193" data-name="Trazado 636193" d="M881.734,624.261c.118-.024,1.894-.284,1.894-.284a10.544,10.544,0,0,1-.71,1.468C882.871,625.35,881.734,624.261,881.734,624.261Z" transform="translate(-875.437 -621.593)" fill="#21cbae"/>
            <path id="Trazado_636194" data-name="Trazado 636194" d="M866.83,628.56c-.12.015-1.91.144-1.91.144a10.588,10.588,0,0,1,.816-1.412C865.777,627.39,866.83,628.56,866.83,628.56Z" transform="translate(-864.92 -623.664)" fill="#21cbae"/>
          </g>
          <rect id="Rectángulo_306805" data-name="Rectángulo 306805" width="0.902" height="6.778" rx="0.451" transform="translate(13.446 15.812)" fill="#d5ecf3"/>
          <path id="Trazado_636195" data-name="Trazado 636195" d="M894.228,662.873h0a.311.311,0,0,1-.312-.312v-1.74a.312.312,0,0,1,.312-.312h0a.312.312,0,0,1,.312.312v1.74A.312.312,0,0,1,894.228,662.873Z" transform="translate(-872.712 -637.676)" fill="#d5ecf3"/>
          <path id="Trazado_636196" data-name="Trazado 636196" d="M873.885,675.772h0a.312.312,0,0,1-.312-.312v-1.74a.312.312,0,0,1,.312-.312h0a.312.312,0,0,1,.312.312v1.74A.312.312,0,0,1,873.885,675.772Z" transform="translate(-859.988 -645.744)" fill="#d5ecf3"/>
          <path id="Trazado_636197" data-name="Trazado 636197" d="M856.191,659.719h0a.312.312,0,0,1-.312-.312v-1.74a.312.312,0,0,1,.312-.312h0a.311.311,0,0,1,.312.312v1.74A.312.312,0,0,1,856.191,659.719Z" transform="translate(-848.921 -635.703)" fill="#d5ecf3"/>
          <path id="Trazado_636198" data-name="Trazado 636198" d="M894.228,644.96h0a.312.312,0,0,1-.312-.312v-4.562a.311.311,0,0,1,.312-.312h0a.312.312,0,0,1,.312.312v4.562A.312.312,0,0,1,894.228,644.96Z" transform="translate(-872.712 -624.706)" fill="#d5ecf3"/>
        </g>
        <rect id="Rectángulo_306806" data-name="Rectángulo 306806" width="8.365" height="4.035" rx="2.017" transform="translate(14.224 0.711)" fill="#12263f"/>
        <rect id="Rectángulo_306807" data-name="Rectángulo 306807" width="19.41" height="0.529" transform="translate(8.993 57.059)" fill="#12263f"/>
      </g>
      <g id="Grupo_910870" data-name="Grupo 910870" transform="translate(870.267 572.442)">
        <rect id="Rectángulo_306808" data-name="Rectángulo 306808" width="15.545" height="2.412" transform="translate(1.872 30.886)" fill="#1b3756"/>
        <rect id="Rectángulo_306809" data-name="Rectángulo 306809" width="19.547" height="31.445" transform="translate(0 0)" fill="#0b5999"/>
        <rect id="Rectángulo_306810" data-name="Rectángulo 306810" width="19.547" height="0.588" transform="translate(0 2.461)" fill="#1b3756"/>
        <rect id="Rectángulo_306811" data-name="Rectángulo 306811" width="15.545" height="24.438" rx="3.263" transform="translate(1.872 4.821)" fill="#4f8eb2"/>
        <g id="Grupo_910864" data-name="Grupo 910864" transform="translate(2.127 6.363)">
          <rect id="Rectángulo_306812" data-name="Rectángulo 306812" width="14.917" height="2.821" rx="1.411" fill="#1b3756"/>
          <rect id="Rectángulo_306813" data-name="Rectángulo 306813" width="7.493" height="2.034" rx="1.017" transform="translate(0.396 0.394)" fill="#d5d4dd"/>
          <rect id="Rectángulo_306814" data-name="Rectángulo 306814" width="6.569" height="0.541" transform="translate(0.92 0.869)" fill="#e8e8e8"/>
          <rect id="Rectángulo_306815" data-name="Rectángulo 306815" width="6.569" height="0.541" transform="translate(0.92 1.583)" fill="#ccc"/>
          <rect id="Rectángulo_306816" data-name="Rectángulo 306816" width="2.048" height="0.476" transform="translate(8.215 0.394)" fill="#ccc"/>
          <rect id="Rectángulo_306817" data-name="Rectángulo 306817" width="2.048" height="0.476" transform="translate(10.635 0.394)" fill="#e8e8e8"/>
          <path id="Trazado_636199" data-name="Trazado 636199" d="M987.51,653.684c0,.176-.343.2-.372,0v-1.9c.023-.176.372-.165.372,0Z" transform="translate(-973.129 -651.329)" fill="#d5d4dd"/>
          <path id="Trazado_636200" data-name="Trazado 636200" d="M972.76,655.871a.236.236,0,1,1-.236-.249A.243.243,0,0,1,972.76,655.871Z" transform="translate(-963.84 -653.811)" fill="#e8e8e8"/>
          <ellipse id="Elipse_7203" data-name="Elipse 7203" cx="0.236" cy="0.249" rx="0.236" ry="0.249" transform="translate(9.239 1.811)" fill="#d5d4dd"/>
          <ellipse id="Elipse_7204" data-name="Elipse 7204" cx="0.236" cy="0.249" rx="0.236" ry="0.249" transform="translate(9.937 1.811)" fill="#ccc"/>
          <ellipse id="Elipse_7205" data-name="Elipse 7205" cx="0.236" cy="0.249" rx="0.236" ry="0.249" transform="translate(11.144 1.811)" fill="#e8e8e8"/>
        </g>
        <g id="Grupo_910865" data-name="Grupo 910865" transform="translate(2.247 14.154)">
          <rect id="Rectángulo_306818" data-name="Rectángulo 306818" width="14.917" height="2.821" rx="1.411" fill="#1b3756"/>
          <rect id="Rectángulo_306819" data-name="Rectángulo 306819" width="7.493" height="2.034" rx="1.017" transform="translate(0.396 0.394)" fill="#d5d4dd"/>
          <rect id="Rectángulo_306820" data-name="Rectángulo 306820" width="6.569" height="0.541" transform="translate(0.92 0.869)" fill="#e8e8e8"/>
          <rect id="Rectángulo_306821" data-name="Rectángulo 306821" width="6.569" height="0.541" transform="translate(0.92 1.583)" fill="#ccc"/>
          <rect id="Rectángulo_306822" data-name="Rectángulo 306822" width="2.048" height="0.476" transform="translate(8.215 0.394)" fill="#ccc"/>
          <rect id="Rectángulo_306823" data-name="Rectángulo 306823" width="2.048" height="0.476" transform="translate(10.635 0.394)" fill="#e8e8e8"/>
          <path id="Trazado_636201" data-name="Trazado 636201" d="M987.831,674.487c0,.176-.343.2-.373,0v-1.9c.024-.176.373-.165.373,0Z" transform="translate(-973.449 -672.132)" fill="#d5d4dd"/>
          <path id="Trazado_636202" data-name="Trazado 636202" d="M973.08,676.674a.236.236,0,1,1-.236-.249A.243.243,0,0,1,973.08,676.674Z" transform="translate(-964.16 -674.614)" fill="#e8e8e8"/>
          <path id="Trazado_636203" data-name="Trazado 636203" d="M975.193,676.674a.236.236,0,1,1-.236-.249A.243.243,0,0,1,975.193,676.674Z" transform="translate(-965.482 -674.614)" fill="#d5d4dd"/>
          <path id="Trazado_636204" data-name="Trazado 636204" d="M977.057,676.674a.236.236,0,1,1-.236-.249A.243.243,0,0,1,977.057,676.674Z" transform="translate(-966.648 -674.614)" fill="#ccc"/>
          <path id="Trazado_636205" data-name="Trazado 636205" d="M980.279,676.674a.236.236,0,1,1-.236-.249A.243.243,0,0,1,980.279,676.674Z" transform="translate(-968.663 -674.614)" fill="#fecb2f"/>
        </g>
        <g id="Grupo_910866" data-name="Grupo 910866" transform="translate(2.217 10.258)">
          <rect id="Rectángulo_306824" data-name="Rectángulo 306824" width="14.917" height="2.821" rx="1.411" fill="#1b3756"/>
          <rect id="Rectángulo_306825" data-name="Rectángulo 306825" width="7.493" height="2.034" rx="1.017" transform="translate(0.396 0.394)" fill="#d5d4dd"/>
          <rect id="Rectángulo_306826" data-name="Rectángulo 306826" width="6.569" height="0.541" transform="translate(0.92 0.869)" fill="#e8e8e8"/>
          <rect id="Rectángulo_306827" data-name="Rectángulo 306827" width="6.569" height="0.541" transform="translate(0.92 1.583)" fill="#ccc"/>
          <rect id="Rectángulo_306828" data-name="Rectángulo 306828" width="2.048" height="0.476" transform="translate(8.215 0.394)" fill="#ccc"/>
          <rect id="Rectángulo_306829" data-name="Rectángulo 306829" width="2.048" height="0.476" transform="translate(10.635 0.394)" fill="#e8e8e8"/>
          <path id="Trazado_636206" data-name="Trazado 636206" d="M987.748,664.085c0,.176-.343.2-.372,0v-1.9c.023-.176.372-.165.372,0Z" transform="translate(-973.367 -661.731)" fill="#d5d4dd"/>
          <path id="Trazado_636207" data-name="Trazado 636207" d="M973,666.272a.236.236,0,1,1-.236-.249A.243.243,0,0,1,973,666.272Z" transform="translate(-964.078 -664.212)" fill="#e8e8e8"/>
          <path id="Trazado_636208" data-name="Trazado 636208" d="M975.11,666.272a.236.236,0,1,1-.236-.249A.243.243,0,0,1,975.11,666.272Z" transform="translate(-965.399 -664.212)" fill="#d5d4dd"/>
          <path id="Trazado_636209" data-name="Trazado 636209" d="M976.974,666.272a.236.236,0,1,1-.236-.249A.243.243,0,0,1,976.974,666.272Z" transform="translate(-966.565 -664.212)" fill="#ccc"/>
          <ellipse id="Elipse_7206" data-name="Elipse 7206" cx="0.236" cy="0.249" rx="0.236" ry="0.249" transform="translate(11.144 1.811)" fill="#fecb2f"/>
        </g>
        <g id="Grupo_910867" data-name="Grupo 910867" transform="translate(2.217 25.677)">
          <rect id="Rectángulo_306830" data-name="Rectángulo 306830" width="14.917" height="2.821" rx="1.411" fill="#1b3756"/>
          <rect id="Rectángulo_306831" data-name="Rectángulo 306831" width="7.493" height="2.034" rx="1.017" transform="translate(0.396 0.394)" fill="#d5d4dd"/>
          <rect id="Rectángulo_306832" data-name="Rectángulo 306832" width="6.569" height="0.541" transform="translate(0.92 0.869)" fill="#e8e8e8"/>
          <rect id="Rectángulo_306833" data-name="Rectángulo 306833" width="6.569" height="0.541" transform="translate(0.92 1.583)" fill="#ccc"/>
          <rect id="Rectángulo_306834" data-name="Rectángulo 306834" width="2.048" height="0.476" transform="translate(8.215 0.394)" fill="#ccc"/>
          <rect id="Rectángulo_306835" data-name="Rectángulo 306835" width="2.048" height="0.476" transform="translate(10.635 0.394)" fill="#e8e8e8"/>
          <path id="Trazado_636210" data-name="Trazado 636210" d="M987.748,705.253c0,.176-.343.2-.372,0v-1.9c.023-.177.372-.165.372,0Z" transform="translate(-973.367 -702.898)" fill="#d5d4dd"/>
          <path id="Trazado_636211" data-name="Trazado 636211" d="M973,707.44a.236.236,0,1,1-.236-.249A.243.243,0,0,1,973,707.44Z" transform="translate(-964.078 -705.38)" fill="#e8e8e8"/>
          <path id="Trazado_636212" data-name="Trazado 636212" d="M975.11,707.44a.236.236,0,1,1-.236-.249A.243.243,0,0,1,975.11,707.44Z" transform="translate(-965.399 -705.38)" fill="#d5d4dd"/>
          <path id="Trazado_636213" data-name="Trazado 636213" d="M976.974,707.44a.236.236,0,1,1-.236-.249A.243.243,0,0,1,976.974,707.44Z" transform="translate(-966.565 -705.38)" fill="#ccc"/>
          <ellipse id="Elipse_7207" data-name="Elipse 7207" cx="0.236" cy="0.249" rx="0.236" ry="0.249" transform="translate(11.144 1.811)" fill="#fecb2f"/>
        </g>
        <g id="Grupo_910868" data-name="Grupo 910868" transform="translate(2.217 21.969)">
          <rect id="Rectángulo_306836" data-name="Rectángulo 306836" width="14.917" height="2.821" rx="1.411" fill="#1b3756"/>
          <rect id="Rectángulo_306837" data-name="Rectángulo 306837" width="7.493" height="2.034" rx="1.017" transform="translate(0.396 0.394)" fill="#d5d4dd"/>
          <rect id="Rectángulo_306838" data-name="Rectángulo 306838" width="6.569" height="0.541" transform="translate(0.92 0.869)" fill="#e8e8e8"/>
          <rect id="Rectángulo_306839" data-name="Rectángulo 306839" width="6.569" height="0.541" transform="translate(0.92 1.583)" fill="#ccc"/>
          <rect id="Rectángulo_306840" data-name="Rectángulo 306840" width="2.048" height="0.476" transform="translate(8.215 0.394)" fill="#ccc"/>
          <rect id="Rectángulo_306841" data-name="Rectángulo 306841" width="2.048" height="0.476" transform="translate(10.635 0.394)" fill="#e8e8e8"/>
          <path id="Trazado_636214" data-name="Trazado 636214" d="M987.748,695.354c0,.176-.343.2-.372,0v-1.9c.023-.176.372-.165.372,0Z" transform="translate(-973.367 -692.999)" fill="#d5d4dd"/>
          <path id="Trazado_636215" data-name="Trazado 636215" d="M973,697.541a.236.236,0,1,1-.236-.249A.243.243,0,0,1,973,697.541Z" transform="translate(-964.078 -695.481)" fill="#e8e8e8"/>
          <path id="Trazado_636216" data-name="Trazado 636216" d="M975.11,697.541a.236.236,0,1,1-.236-.249A.243.243,0,0,1,975.11,697.541Z" transform="translate(-965.399 -695.481)" fill="#d5d4dd"/>
          <path id="Trazado_636217" data-name="Trazado 636217" d="M976.974,697.541a.236.236,0,1,1-.236-.249A.243.243,0,0,1,976.974,697.541Z" transform="translate(-966.565 -695.481)" fill="#fecb2f"/>
          <ellipse id="Elipse_7208" data-name="Elipse 7208" cx="0.236" cy="0.249" rx="0.236" ry="0.249" transform="translate(11.144 1.811)" fill="#ccc"/>
        </g>
        <g id="Grupo_910869" data-name="Grupo 910869" transform="translate(2.217 18.044)">
          <rect id="Rectángulo_306842" data-name="Rectángulo 306842" width="14.917" height="2.821" rx="1.411" fill="#1b3756"/>
          <rect id="Rectángulo_306843" data-name="Rectángulo 306843" width="7.493" height="2.034" rx="1.017" transform="translate(0.396 0.394)" fill="#d5d4dd"/>
          <rect id="Rectángulo_306844" data-name="Rectángulo 306844" width="6.569" height="0.541" transform="translate(0.92 0.869)" fill="#e8e8e8"/>
          <rect id="Rectángulo_306845" data-name="Rectángulo 306845" width="6.569" height="0.541" transform="translate(0.92 1.583)" fill="#ccc"/>
          <rect id="Rectángulo_306846" data-name="Rectángulo 306846" width="2.048" height="0.476" transform="translate(8.215 0.394)" fill="#ccc"/>
          <rect id="Rectángulo_306847" data-name="Rectángulo 306847" width="2.048" height="0.476" transform="translate(10.635 0.394)" fill="#e8e8e8"/>
          <path id="Trazado_636218" data-name="Trazado 636218" d="M987.748,684.873c0,.176-.343.2-.372,0v-1.9c.023-.176.372-.165.372,0Z" transform="translate(-973.367 -682.518)" fill="#d5d4dd"/>
          <path id="Trazado_636219" data-name="Trazado 636219" d="M973,687.06a.236.236,0,1,1-.236-.249A.243.243,0,0,1,973,687.06Z" transform="translate(-964.078 -685)" fill="#e8e8e8"/>
          <path id="Trazado_636220" data-name="Trazado 636220" d="M975.11,687.06a.236.236,0,1,1-.236-.249A.243.243,0,0,1,975.11,687.06Z" transform="translate(-965.399 -685)" fill="#d5d4dd"/>
          <path id="Trazado_636221" data-name="Trazado 636221" d="M976.974,687.06a.236.236,0,1,1-.236-.249A.243.243,0,0,1,976.974,687.06Z" transform="translate(-966.565 -685)" fill="#ccc"/>
          <ellipse id="Elipse_7209" data-name="Elipse 7209" cx="0.236" cy="0.249" rx="0.236" ry="0.249" transform="translate(11.144 1.811)" fill="#fff"/>
        </g>
      </g>
      <g id="Grupo_910877" data-name="Grupo 910877" transform="translate(910.678 586.704)">
        <rect id="Rectángulo_306848" data-name="Rectángulo 306848" width="8.543" height="1.325" transform="translate(1.029 16.974)" fill="#1b3756"/>
        <rect id="Rectángulo_306849" data-name="Rectángulo 306849" width="10.742" height="17.281" fill="#0b5999"/>
        <rect id="Rectángulo_306850" data-name="Rectángulo 306850" width="10.742" height="0.323" transform="translate(0 1.352)" fill="#1b3756"/>
        <rect id="Rectángulo_306851" data-name="Rectángulo 306851" width="8.543" height="13.43" rx="3.263" transform="translate(1.029 2.649)" fill="#4f8eb2"/>
        <g id="Grupo_910871" data-name="Grupo 910871" transform="translate(1.169 3.497)">
          <path id="Trazado_636222" data-name="Trazado 636222" d="M1062.5,682.763h-6.647a.775.775,0,0,1-.775-.775h0a.775.775,0,0,1,.775-.775h6.647a.775.775,0,0,1,.775.775h0A.775.775,0,0,1,1062.5,682.763Z" transform="translate(-1055.073 -681.212)" fill="#1b3756"/>
          <path id="Trazado_636223" data-name="Trazado 636223" d="M1059.212,682.908h-3a.559.559,0,0,1-.559-.559h0a.559.559,0,0,1,.559-.559h3a.559.559,0,0,1,.559.559h0A.559.559,0,0,1,1059.212,682.908Z" transform="translate(-1055.436 -681.573)" fill="#d5d4dd"/>
          <rect id="Rectángulo_306852" data-name="Rectángulo 306852" width="3.61" height="0.297" transform="translate(0.506 0.478)" fill="#e8e8e8"/>
          <rect id="Rectángulo_306853" data-name="Rectángulo 306853" width="3.61" height="0.297" transform="translate(0.506 0.87)" fill="#ccc"/>
          <rect id="Rectángulo_306854" data-name="Rectángulo 306854" width="1.125" height="0.261" transform="translate(4.514 0.216)" fill="#ccc"/>
          <rect id="Rectángulo_306855" data-name="Rectángulo 306855" width="1.125" height="0.261" transform="translate(5.844 0.216)" fill="#e8e8e8"/>
          <path id="Trazado_636224" data-name="Trazado 636224" d="M1075.834,682.8c0,.1-.189.109-.2,0V681.76c.013-.1.2-.091.2,0Z" transform="translate(-1067.93 -681.51)" fill="#d5d4dd"/>
          <path id="Trazado_636225" data-name="Trazado 636225" d="M1067.728,684.007a.13.13,0,1,1-.13-.137A.134.134,0,0,1,1067.728,684.007Z" transform="translate(-1062.826 -682.875)" fill="#e8e8e8"/>
          <path id="Trazado_636226" data-name="Trazado 636226" d="M1068.889,684.007a.13.13,0,1,1-.13-.137A.134.134,0,0,1,1068.889,684.007Z" transform="translate(-1063.552 -682.875)" fill="#d5d4dd"/>
          <path id="Trazado_636227" data-name="Trazado 636227" d="M1069.913,684.007a.13.13,0,1,1-.13-.137A.133.133,0,0,1,1069.913,684.007Z" transform="translate(-1064.193 -682.875)" fill="#ccc"/>
          <path id="Trazado_636228" data-name="Trazado 636228" d="M1071.684,684.007a.13.13,0,1,1-.13-.137A.133.133,0,0,1,1071.684,684.007Z" transform="translate(-1065.301 -682.875)" fill="#e8e8e8"/>
        </g>
        <g id="Grupo_910872" data-name="Grupo 910872" transform="translate(1.235 7.779)">
          <path id="Trazado_636229" data-name="Trazado 636229" d="M1062.671,694.2h-6.647a.775.775,0,0,1-.775-.775h0a.775.775,0,0,1,.775-.775h6.647a.775.775,0,0,1,.775.775h0A.775.775,0,0,1,1062.671,694.2Z" transform="translate(-1055.248 -692.645)" fill="#1b3756"/>
          <path id="Trazado_636230" data-name="Trazado 636230" d="M1059.388,694.34h-3a.559.559,0,0,1-.559-.559h0a.559.559,0,0,1,.559-.559h3a.559.559,0,0,1,.559.559h0A.559.559,0,0,1,1059.388,694.34Z" transform="translate(-1055.611 -693.006)" fill="#d5d4dd"/>
          <rect id="Rectángulo_306856" data-name="Rectángulo 306856" width="3.61" height="0.297" transform="translate(0.506 0.478)" fill="#e8e8e8"/>
          <rect id="Rectángulo_306857" data-name="Rectángulo 306857" width="3.61" height="0.297" transform="translate(0.506 0.87)" fill="#ccc"/>
          <rect id="Rectángulo_306858" data-name="Rectángulo 306858" width="1.125" height="0.261" transform="translate(4.515 0.216)" fill="#ccc"/>
          <rect id="Rectángulo_306859" data-name="Rectángulo 306859" width="1.125" height="0.261" transform="translate(5.845 0.216)" fill="#e8e8e8"/>
          <path id="Trazado_636231" data-name="Trazado 636231" d="M1076.01,694.237c0,.1-.189.11-.2,0v-1.045c.013-.1.2-.09.2,0Z" transform="translate(-1068.106 -692.943)" fill="#d5d4dd"/>
          <path id="Trazado_636232" data-name="Trazado 636232" d="M1067.9,695.439a.13.13,0,1,1-.13-.137A.134.134,0,0,1,1067.9,695.439Z" transform="translate(-1063.001 -694.307)" fill="#e8e8e8"/>
          <path id="Trazado_636233" data-name="Trazado 636233" d="M1069.065,695.439a.13.13,0,1,1-.13-.137A.134.134,0,0,1,1069.065,695.439Z" transform="translate(-1063.728 -694.307)" fill="#d5d4dd"/>
          <ellipse id="Elipse_7210" data-name="Elipse 7210" cx="0.13" cy="0.137" rx="0.13" ry="0.137" transform="translate(5.461 0.995)" fill="#ccc"/>
          <ellipse id="Elipse_7211" data-name="Elipse 7211" cx="0.13" cy="0.137" rx="0.13" ry="0.137" transform="translate(6.124 0.995)" fill="#fecb2f"/>
        </g>
        <g id="Grupo_910873" data-name="Grupo 910873" transform="translate(1.218 5.637)">
          <path id="Trazado_636234" data-name="Trazado 636234" d="M1062.626,688.479h-6.647a.775.775,0,0,1-.775-.775h0a.775.775,0,0,1,.775-.775h6.647a.775.775,0,0,1,.775.775h0A.775.775,0,0,1,1062.626,688.479Z" transform="translate(-1055.203 -686.928)" fill="#1b3756"/>
          <path id="Trazado_636235" data-name="Trazado 636235" d="M1059.343,688.624h-3a.559.559,0,0,1-.559-.559h0a.559.559,0,0,1,.559-.559h3a.559.559,0,0,1,.559.559h0A.559.559,0,0,1,1059.343,688.624Z" transform="translate(-1055.566 -687.289)" fill="#d5d4dd"/>
          <rect id="Rectángulo_306860" data-name="Rectángulo 306860" width="3.61" height="0.297" transform="translate(0.506 0.478)" fill="#e8e8e8"/>
          <rect id="Rectángulo_306861" data-name="Rectángulo 306861" width="3.61" height="0.297" transform="translate(0.506 0.87)" fill="#ccc"/>
          <rect id="Rectángulo_306862" data-name="Rectángulo 306862" width="1.125" height="0.261" transform="translate(4.515 0.216)" fill="#ccc"/>
          <rect id="Rectángulo_306863" data-name="Rectángulo 306863" width="1.125" height="0.261" transform="translate(5.845 0.216)" fill="#e8e8e8"/>
          <path id="Trazado_636236" data-name="Trazado 636236" d="M1075.965,688.521c0,.1-.189.109-.2,0v-1.045c.013-.1.2-.091.2,0Z" transform="translate(-1068.061 -687.227)" fill="#d5d4dd"/>
          <path id="Trazado_636237" data-name="Trazado 636237" d="M1067.858,689.723a.13.13,0,1,1-.13-.137A.134.134,0,0,1,1067.858,689.723Z" transform="translate(-1062.956 -688.591)" fill="#e8e8e8"/>
          <path id="Trazado_636238" data-name="Trazado 636238" d="M1069.019,689.723a.13.13,0,1,1-.13-.137A.133.133,0,0,1,1069.019,689.723Z" transform="translate(-1063.683 -688.591)" fill="#d5d4dd"/>
          <path id="Trazado_636239" data-name="Trazado 636239" d="M1070.044,689.723a.13.13,0,1,1-.13-.137A.134.134,0,0,1,1070.044,689.723Z" transform="translate(-1064.323 -688.591)" fill="#ccc"/>
          <path id="Trazado_636240" data-name="Trazado 636240" d="M1071.815,689.723a.13.13,0,1,1-.13-.137A.134.134,0,0,1,1071.815,689.723Z" transform="translate(-1065.431 -688.591)" fill="#fecb2f"/>
        </g>
        <g id="Grupo_910874" data-name="Grupo 910874" transform="translate(1.218 14.111)">
          <path id="Trazado_636241" data-name="Trazado 636241" d="M1062.626,711.1h-6.647a.775.775,0,0,1-.775-.775h0a.775.775,0,0,1,.775-.775h6.647a.775.775,0,0,1,.775.775h0A.775.775,0,0,1,1062.626,711.1Z" transform="translate(-1055.203 -709.552)" fill="#1b3756"/>
          <path id="Trazado_636242" data-name="Trazado 636242" d="M1059.343,711.248h-3a.559.559,0,0,1-.559-.559h0a.559.559,0,0,1,.559-.559h3a.559.559,0,0,1,.559.559h0A.559.559,0,0,1,1059.343,711.248Z" transform="translate(-1055.566 -709.914)" fill="#d5d4dd"/>
          <rect id="Rectángulo_306864" data-name="Rectángulo 306864" width="3.61" height="0.297" transform="translate(0.506 0.478)" fill="#e8e8e8"/>
          <rect id="Rectángulo_306865" data-name="Rectángulo 306865" width="3.61" height="0.297" transform="translate(0.506 0.87)" fill="#ccc"/>
          <rect id="Rectángulo_306866" data-name="Rectángulo 306866" width="1.125" height="0.261" transform="translate(4.515 0.217)" fill="#ccc"/>
          <rect id="Rectángulo_306867" data-name="Rectángulo 306867" width="1.125" height="0.261" transform="translate(5.845 0.217)" fill="#e8e8e8"/>
          <path id="Trazado_636243" data-name="Trazado 636243" d="M1075.965,711.145c0,.1-.189.11-.2,0V710.1c.013-.1.2-.091.2,0Z" transform="translate(-1068.061 -709.851)" fill="#d5d4dd"/>
          <path id="Trazado_636244" data-name="Trazado 636244" d="M1067.858,712.347a.13.13,0,1,1-.13-.137A.134.134,0,0,1,1067.858,712.347Z" transform="translate(-1062.956 -711.215)" fill="#e8e8e8"/>
          <path id="Trazado_636245" data-name="Trazado 636245" d="M1069.019,712.347a.13.13,0,1,1-.13-.137A.133.133,0,0,1,1069.019,712.347Z" transform="translate(-1063.683 -711.215)" fill="#d5d4dd"/>
          <path id="Trazado_636246" data-name="Trazado 636246" d="M1070.044,712.347a.13.13,0,1,1-.13-.137A.134.134,0,0,1,1070.044,712.347Z" transform="translate(-1064.323 -711.215)" fill="#ccc"/>
          <ellipse id="Elipse_7212" data-name="Elipse 7212" cx="0.13" cy="0.137" rx="0.13" ry="0.137" transform="translate(6.124 0.995)" fill="#fecb2f"/>
        </g>
        <g id="Grupo_910875" data-name="Grupo 910875" transform="translate(1.218 12.073)">
          <path id="Trazado_636247" data-name="Trazado 636247" d="M1062.626,705.663h-6.647a.775.775,0,0,1-.775-.775h0a.775.775,0,0,1,.775-.775h6.647a.775.775,0,0,1,.775.775h0A.775.775,0,0,1,1062.626,705.663Z" transform="translate(-1055.203 -704.112)" fill="#1b3756"/>
          <path id="Trazado_636248" data-name="Trazado 636248" d="M1059.343,705.808h-3a.559.559,0,0,1-.559-.559h0a.559.559,0,0,1,.559-.559h3a.559.559,0,0,1,.559.559h0A.559.559,0,0,1,1059.343,705.808Z" transform="translate(-1055.566 -704.474)" fill="#d5d4dd"/>
          <rect id="Rectángulo_306868" data-name="Rectángulo 306868" width="3.61" height="0.297" transform="translate(0.506 0.478)" fill="#e8e8e8"/>
          <rect id="Rectángulo_306869" data-name="Rectángulo 306869" width="3.61" height="0.297" transform="translate(0.506 0.87)" fill="#ccc"/>
          <rect id="Rectángulo_306870" data-name="Rectángulo 306870" width="1.125" height="0.261" transform="translate(4.515 0.216)" fill="#ccc"/>
          <rect id="Rectángulo_306871" data-name="Rectángulo 306871" width="1.125" height="0.261" transform="translate(5.845 0.216)" fill="#e8e8e8"/>
          <path id="Trazado_636249" data-name="Trazado 636249" d="M1075.965,705.7c0,.1-.189.109-.2,0v-1.045c.013-.1.2-.091.2,0Z" transform="translate(-1068.061 -704.41)" fill="#d5d4dd"/>
          <path id="Trazado_636250" data-name="Trazado 636250" d="M1067.858,706.907a.13.13,0,1,1-.13-.137A.134.134,0,0,1,1067.858,706.907Z" transform="translate(-1062.956 -705.775)" fill="#e8e8e8"/>
          <path id="Trazado_636251" data-name="Trazado 636251" d="M1069.019,706.907a.13.13,0,1,1-.13-.137A.133.133,0,0,1,1069.019,706.907Z" transform="translate(-1063.683 -705.775)" fill="#d5d4dd"/>
          <path id="Trazado_636252" data-name="Trazado 636252" d="M1070.044,706.907a.13.13,0,1,1-.13-.137A.134.134,0,0,1,1070.044,706.907Z" transform="translate(-1064.323 -705.775)" fill="#fecb2f"/>
          <path id="Trazado_636253" data-name="Trazado 636253" d="M1071.815,706.907a.13.13,0,1,1-.13-.137A.134.134,0,0,1,1071.815,706.907Z" transform="translate(-1065.431 -705.775)" fill="#ccc"/>
        </g>
        <g id="Grupo_910876" data-name="Grupo 910876" transform="translate(1.218 9.916)">
          <path id="Trazado_636254" data-name="Trazado 636254" d="M1062.626,699.9h-6.647a.775.775,0,0,1-.775-.775h0a.775.775,0,0,1,.775-.775h6.647a.775.775,0,0,1,.775.775h0A.775.775,0,0,1,1062.626,699.9Z" transform="translate(-1055.203 -698.352)" fill="#1b3756"/>
          <path id="Trazado_636255" data-name="Trazado 636255" d="M1059.343,700.048h-3a.559.559,0,0,1-.559-.559h0a.559.559,0,0,1,.559-.559h3a.559.559,0,0,1,.559.559h0A.559.559,0,0,1,1059.343,700.048Z" transform="translate(-1055.566 -698.714)" fill="#d5d4dd"/>
          <rect id="Rectángulo_306872" data-name="Rectángulo 306872" width="3.61" height="0.297" transform="translate(0.506 0.478)" fill="#e8e8e8"/>
          <rect id="Rectángulo_306873" data-name="Rectángulo 306873" width="3.61" height="0.297" transform="translate(0.506 0.87)" fill="#ccc"/>
          <rect id="Rectángulo_306874" data-name="Rectángulo 306874" width="1.125" height="0.261" transform="translate(4.515 0.216)" fill="#ccc"/>
          <rect id="Rectángulo_306875" data-name="Rectángulo 306875" width="1.125" height="0.261" transform="translate(5.845 0.216)" fill="#e8e8e8"/>
          <path id="Trazado_636256" data-name="Trazado 636256" d="M1075.965,699.945c0,.1-.189.109-.2,0V698.9c.013-.1.2-.091.2,0Z" transform="translate(-1068.061 -698.65)" fill="#d5d4dd"/>
          <path id="Trazado_636257" data-name="Trazado 636257" d="M1067.858,701.147a.13.13,0,1,1-.13-.137A.134.134,0,0,1,1067.858,701.147Z" transform="translate(-1062.956 -700.015)" fill="#e8e8e8"/>
          <path id="Trazado_636258" data-name="Trazado 636258" d="M1069.019,701.147a.13.13,0,1,1-.13-.137A.133.133,0,0,1,1069.019,701.147Z" transform="translate(-1063.683 -700.015)" fill="#d5d4dd"/>
          <path id="Trazado_636259" data-name="Trazado 636259" d="M1070.044,701.147a.13.13,0,1,1-.13-.137A.134.134,0,0,1,1070.044,701.147Z" transform="translate(-1064.323 -700.015)" fill="#ccc"/>
          <ellipse id="Elipse_7213" data-name="Elipse 7213" cx="0.13" cy="0.137" rx="0.13" ry="0.137" transform="translate(6.124 0.995)" fill="#fff"/>
        </g>
      </g>
      <g id="Grupo_910884" data-name="Grupo 910884" transform="translate(892.473 579.369)">
        <rect id="Rectángulo_306876" data-name="Rectángulo 306876" width="12.363" height="1.918" transform="translate(1.488 24.564)" fill="#1b3756"/>
        <rect id="Rectángulo_306877" data-name="Rectángulo 306877" width="15.546" height="25.008" transform="translate(0)" fill="#0b5999"/>
        <rect id="Rectángulo_306878" data-name="Rectángulo 306878" width="15.546" height="0.468" transform="translate(0 1.957)" fill="#1b3756"/>
        <rect id="Rectángulo_306879" data-name="Rectángulo 306879" width="12.363" height="19.435" rx="3.263" transform="translate(1.488 3.834)" fill="#4f8eb2"/>
        <g id="Grupo_910878" data-name="Grupo 910878" transform="translate(1.692 5.06)">
          <rect id="Rectángulo_306880" data-name="Rectángulo 306880" width="11.863" height="2.244" rx="1.122" fill="#1b3756"/>
          <path id="Trazado_636260" data-name="Trazado 636260" d="M1013.852,668.258h-4.342a.809.809,0,0,1-.809-.809h0a.809.809,0,0,1,.809-.809h4.342a.809.809,0,0,1,.809.809h0A.809.809,0,0,1,1013.852,668.258Z" transform="translate(-1008.386 -666.327)" fill="#d5d4dd"/>
          <rect id="Rectángulo_306881" data-name="Rectángulo 306881" width="5.224" height="0.43" transform="translate(0.732 0.691)" fill="#e8e8e8"/>
          <rect id="Rectángulo_306882" data-name="Rectángulo 306882" width="5.224" height="0.43" transform="translate(0.732 1.259)" fill="#ccc"/>
          <rect id="Rectángulo_306883" data-name="Rectángulo 306883" width="1.629" height="0.378" transform="translate(6.533 0.313)" fill="#ccc"/>
          <rect id="Rectángulo_306884" data-name="Rectángulo 306884" width="1.629" height="0.378" transform="translate(8.458 0.313)" fill="#e8e8e8"/>
          <path id="Trazado_636261" data-name="Trazado 636261" d="M1037.906,668.109c0,.14-.273.158-.3,0V666.6c.018-.14.3-.131.3,0Z" transform="translate(-1026.468 -666.236)" fill="#d5d4dd"/>
          <path id="Trazado_636262" data-name="Trazado 636262" d="M1026.174,669.849a.188.188,0,1,1-.188-.2A.193.193,0,0,1,1026.174,669.849Z" transform="translate(-1019.081 -668.21)" fill="#e8e8e8"/>
          <path id="Trazado_636263" data-name="Trazado 636263" d="M1027.854,669.849a.188.188,0,1,1-.188-.2A.193.193,0,0,1,1027.854,669.849Z" transform="translate(-1020.132 -668.21)" fill="#d5d4dd"/>
          <path id="Trazado_636264" data-name="Trazado 636264" d="M1029.337,669.849a.188.188,0,1,1-.188-.2A.193.193,0,0,1,1029.337,669.849Z" transform="translate(-1021.059 -668.21)" fill="#ccc"/>
          <path id="Trazado_636265" data-name="Trazado 636265" d="M1031.9,669.849a.188.188,0,1,1-.188-.2A.193.193,0,0,1,1031.9,669.849Z" transform="translate(-1022.662 -668.21)" fill="#e8e8e8"/>
        </g>
        <g id="Grupo_910879" data-name="Grupo 910879" transform="translate(1.787 11.257)">
          <rect id="Rectángulo_306885" data-name="Rectángulo 306885" width="11.863" height="2.244" rx="1.122" fill="#1b3756"/>
          <path id="Trazado_636266" data-name="Trazado 636266" d="M1014.106,684.8h-4.342a.808.808,0,0,1-.809-.809h0a.809.809,0,0,1,.809-.809h4.342a.809.809,0,0,1,.809.809h0A.809.809,0,0,1,1014.106,684.8Z" transform="translate(-1008.641 -682.871)" fill="#d5d4dd"/>
          <rect id="Rectángulo_306886" data-name="Rectángulo 306886" width="5.224" height="0.43" transform="translate(0.732 0.691)" fill="#e8e8e8"/>
          <rect id="Rectángulo_306887" data-name="Rectángulo 306887" width="5.224" height="0.43" transform="translate(0.732 1.259)" fill="#ccc"/>
          <rect id="Rectángulo_306888" data-name="Rectángulo 306888" width="1.629" height="0.378" transform="translate(6.533 0.313)" fill="#ccc"/>
          <rect id="Rectángulo_306889" data-name="Rectángulo 306889" width="1.629" height="0.378" transform="translate(8.458 0.313)" fill="#e8e8e8"/>
          <path id="Trazado_636267" data-name="Trazado 636267" d="M1038.16,684.653c0,.14-.273.159-.3,0v-1.512c.019-.14.3-.131.3,0Z" transform="translate(-1026.723 -682.78)" fill="#d5d4dd"/>
          <path id="Trazado_636268" data-name="Trazado 636268" d="M1026.429,686.392a.188.188,0,1,1-.188-.2A.193.193,0,0,1,1026.429,686.392Z" transform="translate(-1019.336 -684.754)" fill="#e8e8e8"/>
          <path id="Trazado_636269" data-name="Trazado 636269" d="M1028.109,686.392a.188.188,0,1,1-.188-.2A.193.193,0,0,1,1028.109,686.392Z" transform="translate(-1020.386 -684.754)" fill="#d5d4dd"/>
          <path id="Trazado_636270" data-name="Trazado 636270" d="M1029.592,686.392a.188.188,0,1,1-.188-.2A.193.193,0,0,1,1029.592,686.392Z" transform="translate(-1021.314 -684.754)" fill="#ccc"/>
          <path id="Trazado_636271" data-name="Trazado 636271" d="M1032.155,686.392a.188.188,0,1,1-.188-.2A.193.193,0,0,1,1032.155,686.392Z" transform="translate(-1022.917 -684.754)" fill="#fecb2f"/>
        </g>
        <g id="Grupo_910880" data-name="Grupo 910880" transform="translate(1.763 8.158)">
          <rect id="Rectángulo_306890" data-name="Rectángulo 306890" width="11.863" height="2.244" rx="1.122" fill="#1b3756"/>
          <path id="Trazado_636272" data-name="Trazado 636272" d="M1014.041,676.53H1009.7a.809.809,0,0,1-.809-.809h0a.809.809,0,0,1,.809-.809h4.342a.809.809,0,0,1,.809.809h0A.809.809,0,0,1,1014.041,676.53Z" transform="translate(-1008.575 -674.599)" fill="#d5d4dd"/>
          <rect id="Rectángulo_306891" data-name="Rectángulo 306891" width="5.224" height="0.43" transform="translate(0.732 0.691)" fill="#e8e8e8"/>
          <rect id="Rectángulo_306892" data-name="Rectángulo 306892" width="5.224" height="0.43" transform="translate(0.732 1.259)" fill="#ccc"/>
          <rect id="Rectángulo_306893" data-name="Rectángulo 306893" width="1.629" height="0.378" transform="translate(6.533 0.313)" fill="#ccc"/>
          <rect id="Rectángulo_306894" data-name="Rectángulo 306894" width="1.629" height="0.378" transform="translate(8.458 0.313)" fill="#e8e8e8"/>
          <path id="Trazado_636273" data-name="Trazado 636273" d="M1038.1,676.381c0,.14-.273.158-.3,0v-1.512c.018-.14.3-.131.3,0Z" transform="translate(-1026.657 -674.508)" fill="#d5d4dd"/>
          <path id="Trazado_636274" data-name="Trazado 636274" d="M1026.363,678.121a.188.188,0,1,1-.188-.2A.193.193,0,0,1,1026.363,678.121Z" transform="translate(-1019.27 -676.482)" fill="#e8e8e8"/>
          <path id="Trazado_636275" data-name="Trazado 636275" d="M1028.044,678.121a.188.188,0,1,1-.188-.2A.194.194,0,0,1,1028.044,678.121Z" transform="translate(-1020.321 -676.482)" fill="#d5d4dd"/>
          <path id="Trazado_636276" data-name="Trazado 636276" d="M1029.526,678.121a.188.188,0,1,1-.188-.2A.193.193,0,0,1,1029.526,678.121Z" transform="translate(-1021.248 -676.482)" fill="#ccc"/>
          <path id="Trazado_636277" data-name="Trazado 636277" d="M1032.089,678.121a.188.188,0,1,1-.188-.2A.193.193,0,0,1,1032.089,678.121Z" transform="translate(-1022.851 -676.482)" fill="#fecb2f"/>
        </g>
        <g id="Grupo_910881" data-name="Grupo 910881" transform="translate(1.763 20.421)">
          <rect id="Rectángulo_306895" data-name="Rectángulo 306895" width="11.863" height="2.244" rx="1.122" fill="#1b3756"/>
          <path id="Trazado_636278" data-name="Trazado 636278" d="M1014.041,709.271H1009.7a.809.809,0,0,1-.809-.809h0a.809.809,0,0,1,.809-.809h4.342a.809.809,0,0,1,.809.809h0A.809.809,0,0,1,1014.041,709.271Z" transform="translate(-1008.575 -707.34)" fill="#d5d4dd"/>
          <rect id="Rectángulo_306896" data-name="Rectángulo 306896" width="5.224" height="0.43" transform="translate(0.732 0.691)" fill="#e8e8e8"/>
          <rect id="Rectángulo_306897" data-name="Rectángulo 306897" width="5.224" height="0.431" transform="translate(0.732 1.259)" fill="#ccc"/>
          <rect id="Rectángulo_306898" data-name="Rectángulo 306898" width="1.629" height="0.378" transform="translate(6.533 0.313)" fill="#ccc"/>
          <rect id="Rectángulo_306899" data-name="Rectángulo 306899" width="1.629" height="0.378" transform="translate(8.458 0.313)" fill="#e8e8e8"/>
          <path id="Trazado_636279" data-name="Trazado 636279" d="M1038.1,709.122c0,.14-.273.158-.3,0v-1.513c.018-.14.3-.131.3,0Z" transform="translate(-1026.657 -707.249)" fill="#d5d4dd"/>
          <path id="Trazado_636280" data-name="Trazado 636280" d="M1026.363,710.862a.188.188,0,1,1-.188-.2A.193.193,0,0,1,1026.363,710.862Z" transform="translate(-1019.27 -709.223)" fill="#e8e8e8"/>
          <path id="Trazado_636281" data-name="Trazado 636281" d="M1028.044,710.862a.188.188,0,1,1-.188-.2A.193.193,0,0,1,1028.044,710.862Z" transform="translate(-1020.321 -709.223)" fill="#d5d4dd"/>
          <path id="Trazado_636282" data-name="Trazado 636282" d="M1029.526,710.862a.188.188,0,1,1-.188-.2A.193.193,0,0,1,1029.526,710.862Z" transform="translate(-1021.248 -709.223)" fill="#ccc"/>
          <path id="Trazado_636283" data-name="Trazado 636283" d="M1032.089,710.862a.188.188,0,1,1-.188-.2A.193.193,0,0,1,1032.089,710.862Z" transform="translate(-1022.851 -709.223)" fill="#fecb2f"/>
        </g>
        <g id="Grupo_910882" data-name="Grupo 910882" transform="translate(1.763 17.472)">
          <rect id="Rectángulo_306900" data-name="Rectángulo 306900" width="11.863" height="2.244" rx="1.122" fill="#1b3756"/>
          <rect id="Rectángulo_306901" data-name="Rectángulo 306901" width="5.959" height="1.618" rx="0.809" transform="translate(0.315 0.313)" fill="#d5d4dd"/>
          <rect id="Rectángulo_306902" data-name="Rectángulo 306902" width="5.224" height="0.43" transform="translate(0.732 0.691)" fill="#e8e8e8"/>
          <rect id="Rectángulo_306903" data-name="Rectángulo 306903" width="5.224" height="0.43" transform="translate(0.732 1.259)" fill="#ccc"/>
          <rect id="Rectángulo_306904" data-name="Rectángulo 306904" width="1.629" height="0.378" transform="translate(6.533 0.313)" fill="#ccc"/>
          <rect id="Rectángulo_306905" data-name="Rectángulo 306905" width="1.629" height="0.378" transform="translate(8.458 0.313)" fill="#e8e8e8"/>
          <path id="Trazado_636284" data-name="Trazado 636284" d="M1038.1,701.249c0,.14-.273.158-.3,0v-1.512c.018-.141.3-.131.3,0Z" transform="translate(-1026.657 -699.376)" fill="#d5d4dd"/>
          <path id="Trazado_636285" data-name="Trazado 636285" d="M1026.363,702.989a.188.188,0,1,1-.188-.2A.193.193,0,0,1,1026.363,702.989Z" transform="translate(-1019.27 -701.35)" fill="#e8e8e8"/>
          <path id="Trazado_636286" data-name="Trazado 636286" d="M1028.044,702.989a.188.188,0,1,1-.188-.2A.194.194,0,0,1,1028.044,702.989Z" transform="translate(-1020.321 -701.35)" fill="#d5d4dd"/>
          <path id="Trazado_636287" data-name="Trazado 636287" d="M1029.526,702.989a.188.188,0,1,1-.188-.2A.193.193,0,0,1,1029.526,702.989Z" transform="translate(-1021.248 -701.35)" fill="#fecb2f"/>
          <path id="Trazado_636288" data-name="Trazado 636288" d="M1032.089,702.989a.188.188,0,1,1-.188-.2A.193.193,0,0,1,1032.089,702.989Z" transform="translate(-1022.851 -701.35)" fill="#ccc"/>
        </g>
        <g id="Grupo_910883" data-name="Grupo 910883" transform="translate(1.763 14.35)">
          <rect id="Rectángulo_306906" data-name="Rectángulo 306906" width="11.863" height="2.244" rx="1.122" fill="#1b3756"/>
          <path id="Trazado_636289" data-name="Trazado 636289" d="M1014.041,693.062H1009.7a.809.809,0,0,1-.809-.809h0a.809.809,0,0,1,.809-.809h4.342a.809.809,0,0,1,.809.809h0A.809.809,0,0,1,1014.041,693.062Z" transform="translate(-1008.575 -691.131)" fill="#d5d4dd"/>
          <rect id="Rectángulo_306907" data-name="Rectángulo 306907" width="5.224" height="0.43" transform="translate(0.732 0.691)" fill="#e8e8e8"/>
          <rect id="Rectángulo_306908" data-name="Rectángulo 306908" width="5.224" height="0.43" transform="translate(0.732 1.259)" fill="#ccc"/>
          <rect id="Rectángulo_306909" data-name="Rectángulo 306909" width="1.629" height="0.378" transform="translate(6.533 0.313)" fill="#ccc"/>
          <rect id="Rectángulo_306910" data-name="Rectángulo 306910" width="1.629" height="0.378" transform="translate(8.458 0.313)" fill="#e8e8e8"/>
          <path id="Trazado_636290" data-name="Trazado 636290" d="M1038.1,692.913c0,.14-.273.159-.3,0V691.4c.018-.14.3-.131.3,0Z" transform="translate(-1026.657 -691.04)" fill="#d5d4dd"/>
          <path id="Trazado_636291" data-name="Trazado 636291" d="M1026.363,694.652a.188.188,0,1,1-.188-.2A.193.193,0,0,1,1026.363,694.652Z" transform="translate(-1019.27 -693.014)" fill="#e8e8e8"/>
          <path id="Trazado_636292" data-name="Trazado 636292" d="M1028.044,694.652a.188.188,0,1,1-.188-.2A.193.193,0,0,1,1028.044,694.652Z" transform="translate(-1020.321 -693.014)" fill="#d5d4dd"/>
          <path id="Trazado_636293" data-name="Trazado 636293" d="M1029.526,694.652a.188.188,0,1,1-.188-.2A.193.193,0,0,1,1029.526,694.652Z" transform="translate(-1021.248 -693.014)" fill="#ccc"/>
          <path id="Trazado_636294" data-name="Trazado 636294" d="M1032.089,694.652a.188.188,0,1,1-.188-.2A.193.193,0,0,1,1032.089,694.652Z" transform="translate(-1022.851 -693.014)" fill="#fff"/>
        </g>
      </g>
      <g id="Grupo_910892" data-name="Grupo 910892" transform="translate(858.721 535.705)">
        <g id="Grupo_910885" data-name="Grupo 910885" transform="translate(0 5.15)">
          <path id="Trazado_636295" data-name="Trazado 636295" d="M913.785,552.687a.556.556,0,0,1-.293-.082.562.562,0,0,1-.2-.742c.021-.052.047-.142.085-.261a15.091,15.091,0,0,1,.676-1.815.562.562,0,1,1,1.023.464,14.049,14.049,0,0,0-.627,1.686,2.225,2.225,0,0,1-.18.481A.562.562,0,0,1,913.785,552.687Zm-.479-.854-.012.021Z" transform="translate(-913.223 -549.457)" fill="#fecb2f"/>
        </g>
        <g id="Grupo_910886" data-name="Grupo 910886" transform="translate(3.354 0)">
          <path id="Trazado_636296" data-name="Trazado 636296" d="M940.769,554.653a.562.562,0,0,1-.561-.542,42.641,42.641,0,0,0-.354-4.284.562.562,0,0,1,1.113-.153,43.787,43.787,0,0,1,.363,4.4.561.561,0,0,1-.542.581Zm-1.258-8.6a.562.562,0,0,1-.538-.4,16.9,16.9,0,0,0-1.661-3.859.562.562,0,1,1,.962-.58,17.992,17.992,0,0,1,1.775,4.116.561.561,0,0,1-.376.7A.567.567,0,0,1,939.511,546.055Zm-4.58-7.224a.558.558,0,0,1-.337-.113,9.718,9.718,0,0,0-3.708-1.691.562.562,0,0,1,.249-1.1,10.832,10.832,0,0,1,4.134,1.889.562.562,0,0,1-.338,1.011Zm-12.19-.311a.562.562,0,0,1-.355-1,8.524,8.524,0,0,1,4.225-1.812.562.562,0,1,1,.16,1.112,7.417,7.417,0,0,0-3.677,1.572A.558.558,0,0,1,922.741,538.52Z" transform="translate(-922.179 -535.705)" fill="#fecb2f"/>
        </g>
        <g id="Grupo_910887" data-name="Grupo 910887" transform="translate(21.255 22.202)">
          <path id="Trazado_636297" data-name="Trazado 636297" d="M969.975,599.82l.057-2.043c.007-.273.018-.579.03-.915.014-.4.03-.849.043-1.331a.562.562,0,0,1,.561-.546h.016a.561.561,0,0,1,.546.577q-.006.242-.014.471c.1-.125.216-.255.336-.388a.562.562,0,1,1,.84.746,14.921,14.921,0,0,0-1.321,1.7Z" transform="translate(-969.975 -594.985)" fill="#fecb2f"/>
        </g>
        <g id="Grupo_910888" data-name="Grupo 910888" transform="translate(26.164 18.361)">
          <path id="Trazado_636298" data-name="Trazado 636298" d="M999.635,598.064a.562.562,0,0,1-.545-.425,26.414,26.414,0,0,0-1.432-4.238.562.562,0,1,1,1.027-.455,27.523,27.523,0,0,1,1.495,4.419.562.562,0,0,1-.408.682A.58.58,0,0,1,999.635,598.064Zm-3.8-8.242a.56.56,0,0,1-.436-.208,10.726,10.726,0,0,0-3.305-2.772.562.562,0,0,1,.524-.994,11.834,11.834,0,0,1,3.653,3.058.562.562,0,0,1-.436.916Zm-12.186-2.6a.562.562,0,0,1-.288-1.044,9.715,9.715,0,0,1,4.577-1.448.562.562,0,1,1,.048,1.123,8.609,8.609,0,0,0-4.049,1.289A.56.56,0,0,1,983.646,587.224Z" transform="translate(-983.083 -584.732)" fill="#fecb2f"/>
        </g>
        <g id="Grupo_910889" data-name="Grupo 910889" transform="translate(42.976 35.075)">
          <path id="Trazado_636299" data-name="Trazado 636299" d="M1028.247,635.53l-.091-3.356c0-.009-.025-.865-.181-2.187a.562.562,0,0,1,1.116-.132c0,.02,0,.039.007.059l.042-.076a.562.562,0,0,1,.983.543,11.879,11.879,0,0,0-.869,1.946Z" transform="translate(-1027.972 -629.359)" fill="#fecb2f"/>
        </g>
        <g id="Grupo_910890" data-name="Grupo 910890" transform="translate(46.936 30.763)">
          <path id="Trazado_636300" data-name="Trazado 636300" d="M1049.957,624.21a.562.562,0,0,1-.516-.34,8.6,8.6,0,0,0-2.421-3.351.562.562,0,1,1,.707-.873,9.707,9.707,0,0,1,2.746,3.78.562.562,0,0,1-.295.738A.555.555,0,0,1,1049.957,624.21Zm-10.848-4.095a.562.562,0,0,1-.323-1.021,6.654,6.654,0,0,1,4.579-1.216.562.562,0,1,1-.107,1.118,5.535,5.535,0,0,0-3.827,1.018A.559.559,0,0,1,1039.109,620.115Z" transform="translate(-1038.547 -617.844)" fill="#fecb2f"/>
        </g>
        <g id="Grupo_910891" data-name="Grupo 910891" transform="translate(58.9 40.305)">
          <path id="Trazado_636301" data-name="Trazado 636301" d="M1071.19,646.688h-.016a.562.562,0,0,1-.545-.578,15.905,15.905,0,0,0-.133-2.156.562.562,0,1,1,1.115-.138,16.516,16.516,0,0,1,.141,2.327A.561.561,0,0,1,1071.19,646.688Z" transform="translate(-1070.491 -643.323)" fill="#fecb2f"/>
        </g>
      </g>
    </g>
  </g>
</svg>
