<svg xmlns="http://www.w3.org/2000/svg" width="74.408" height="77.359" viewBox="0 0 74.408 77.359">
  <g id="Grupo_911020" data-name="Grupo 911020" transform="translate(12351.053 13074)">
    <g id="Grupo_910840" data-name="Grupo 910840" transform="translate(-12362.127 -13525.199)">
      <path id="Trazado_634487" data-name="Trazado 634487" d="M181.962,477c1.487-.374,2.317.09-.868,3.887-1.537,1.834-5.4,5.886-7.5,6.977a24.111,24.111,0,0,1-10.78,2.174c-2.055-.127-1.186-2.819.682-4.093,5.567-3.8-7.4-.062-7.6-5.471-.054-1.418,2.419-1.954,4.018-2.677,1.782-.8.551-2.477-.482-3.213-2-1.426-4.588-2.229-4.037-5.132.676-3.568,3.631-.266,4.735-4.315.42-1.543-.734-4.553-1.171-6.019-.923-3.1-.092-7.352,2.32-7.874,2.524-.544,2.371,4.124,3.82,5.565,2.925,2.9,2.637-3.536,5.032-3.1,4.252.77,1.162,7.847.992,9.293-.114.981.149,1.66,1.431,1.059,1.448-.68,2.924-4.27,4.246-3.557,5.241,2.822-2.46,9.338-2.029,10.834.534,1.851,3.4-2.234,5.53-2.548,3.435-.508.11,4.571-1.7,7.01-3.131,4.224,2.2,1.492,3.368,1.2Zm0,0" transform="translate(-129.301 0)" fill="#21cbae" fill-rule="evenodd"/>
      <path id="Trazado_634488" data-name="Trazado 634488" d="M166.271,472.57a.368.368,0,0,1,.263-.435.34.34,0,0,1,.43.239q1.631,6.64,4.19,13.9a46.864,46.864,0,0,0,3.233-6.876,16.44,16.44,0,0,0,1.145-5.669.376.376,0,0,1,.351-.374.335.335,0,0,1,.36.327,17.155,17.155,0,0,1-1.186,5.92,49.094,49.094,0,0,1-3.6,7.539q.2.572.415,1.149.9,2.452,1.9,4.975c.006.011.01.022.013.031q.39.984.794,1.977c.637-3.654,2.451-6.157,4.115-8.453,1.534-2.115,2.935-4.046,3.084-6.521a.376.376,0,0,1,.376-.347.333.333,0,0,1,.334.355c-.163,2.684-1.623,4.7-3.222,6.9-1.8,2.477-3.77,5.2-4.145,9.379q.84,2.023,1.744,4.089a43.955,43.955,0,0,1,3.434-5.617,68.806,68.806,0,0,1,5.445-6.654.364.364,0,0,1,.5-.039.345.345,0,0,1,.015.5,67.783,67.783,0,0,0-5.385,6.581,42.457,42.457,0,0,0-3.645,6.065q.949,2.152,1.971,4.353a.361.361,0,0,1-.179.471.345.345,0,0,1-.471-.153q-1.053-2.269-2.032-4.491c-.005-.011-.011-.022-.015-.032q-.409-.927-.805-1.845a38.148,38.148,0,0,1-7.33.614,15.933,15.933,0,0,1-5.622-1.042.335.335,0,0,1-.17-.458.37.37,0,0,1,.473-.191,15.3,15.3,0,0,0,5.376.99,36.967,36.967,0,0,0,6.992-.571q-.5-1.172-.981-2.328a.156.156,0,0,1-.017-.043q-.642-1.544-1.244-3.066a39.449,39.449,0,0,1-11.488-5.443.34.34,0,0,1-.077-.486.368.368,0,0,1,.5-.1,39.455,39.455,0,0,0,10.738,5.2q-.861-2.191-1.642-4.332c-.157-.429-.312-.859-.463-1.285-.005-.011-.009-.021-.013-.031a152,152,0,0,1-4.461-14.67Zm0,0" transform="translate(-134.887 -18.755)" fill="#11917b" fill-rule="evenodd"/>
      <path id="Trazado_634489" data-name="Trazado 634489" d="M67.568,669.863c-1.222.947-1.375,1.926,3.6,1.924,2.4,0,7.995-.379,10.165-1.341a23.581,23.581,0,0,0,8.44-7.222c1.182-1.743-1.474-2.858-3.642-2.212-6.46,1.922,4.571-6.006.45-9.822-1.078-1-3.045.63-4.61,1.433-1.743.893-2.29-1.227-2.223-2.557.131-2.574,1.113-5.2-1.509-6.717-3.226-1.863-2.477,2.748-6.348.9-1.474-.7-3.117-3.665-4-5-1.857-2.836-5.716-5.036-7.631-3.445-2,1.667,1.76,4.695,1.984,6.835.452,4.314-4.423-.261-5.578,1.962-2.049,3.947,5.44,6.235,6.682,7.074.843.569,1.21,1.24-.062,1.868-1.438.708-5.18-.527-5.445,1.02-1.056,6.131,8.871,4.321,9.777,5.679,1.121,1.681-3.876,1.231-5.455,2.737-2.542,2.427,3.524,3.174,6.57,3.362,5.271.327-.2,2.778-1.164,3.523Zm0,0" transform="translate(-40.553 -165.007)" fill="#21cbae" fill-rule="evenodd"/>
      <path id="Trazado_634490" data-name="Trazado 634490" d="M70.075,651.321a.363.363,0,1,0-.588.426q4.2,5.8,8.3,12.76a46.16,46.16,0,0,1-7.42-2.034,16.824,16.824,0,0,1-5.169-2.9.363.363,0,1,0-.48.544,17.539,17.539,0,0,0,5.391,3.039,48.087,48.087,0,0,0,8.167,2.188q.32.552.643,1.111,1.364,2.376,2.724,4.887l.017.032q.53.978,1.056,1.974c-3.267-1.954-6.366-2.182-9.209-2.389-2.617-.191-5.01-.366-7.048-1.915a.361.361,0,0,0-.437.576c2.212,1.681,4.706,1.864,7.435,2.064,3.067.224,6.441.471,9.955,2.989q1.065,2.04,2.124,4.166a42.842,42.842,0,0,0-6.557-1.026,66.117,66.117,0,0,0-8.626-.1.363.363,0,0,0,.035.725,65.342,65.342,0,0,1,8.531.1,41.162,41.162,0,0,1,7.04,1.156q1.1,2.219,2.187,4.526a.363.363,0,1,0,.656-.31q-1.123-2.382-2.259-4.67a.155.155,0,0,0-.017-.032q-.471-.955-.947-1.9a37.74,37.74,0,0,0,5.06-5.492,16.5,16.5,0,0,0,2.692-5.238.362.362,0,1,0-.7-.192,15.752,15.752,0,0,1-2.578,5,36.961,36.961,0,0,1-4.814,5.253q-.608-1.2-1.218-2.363a.178.178,0,0,0-.022-.043q-.813-1.561-1.629-3.071a42.426,42.426,0,0,0,2.9-12.934.362.362,0,1,0-.723-.056,42.416,42.416,0,0,1-2.621,12.164q-1.185-2.172-2.378-4.246c-.239-.419-.478-.831-.719-1.242-.006-.011-.011-.021-.017-.03q-4.33-7.405-8.737-13.5Zm0,0" transform="translate(-47.982 -179.262)" fill="#11917b" fill-rule="evenodd"/>
      <path id="Trazado_634491" data-name="Trazado 634491" d="M454.181,480.672a.756.756,0,0,0,.637-.062c.127-.1.047-.251-.179-.322a34.285,34.285,0,0,0-13.9-1.53c-.247.024-.391.146-.32.271a.652.652,0,0,0,.579.183,32.567,32.567,0,0,1,13.184,1.459Zm-3.234.075a.624.624,0,0,0,.585-.127c.075-.12-.063-.254-.31-.3-1.309-.254-2.572-.46-3.8-.6a29.918,29.918,0,0,0-3.613-.211c-.258,0-.444.106-.421.233s.256.23.512.228a28.335,28.335,0,0,1,3.387.2c1.175.135,2.391.334,3.655.579Zm0,0" transform="translate(-384.863 -24.561)" fill="#fff" fill-rule="evenodd"/>
      <path id="Trazado_634492" data-name="Trazado 634492" d="M396.093,507.618l-.9.523a.64.64,0,0,0-.231.874l.2.342c.235.4.132.587.06.652-.2.179-.387.373-.574.568-.054.058-.228.252-.685-.015l-.316-.181a.641.641,0,0,0-.874.232l-.523.9a.641.641,0,0,0,.232.874l.31.181c.429.249.418.377.364.56-.075.248-.155.5-.209.758-.049.23-.026.4-.611.4h-.359a.64.64,0,0,0-.639.639v1.042a.64.64,0,0,0,.639.639h.359c.585,0,.562.164.611.4.054.258.134.508.209.758.054.183.065.312-.364.561l-.31.181a.641.641,0,0,0-.232.875l.523.9a.641.641,0,0,0,.874.232l.316-.181c.458-.267.631-.073.685-.015.187.194.374.388.574.568.073.065.176.249-.06.652l-.2.342a.641.641,0,0,0,.231.874l.9.523a.642.642,0,0,0,.874-.23l.2-.342c.239-.409.473-.394.572-.362.288.092.553.151.85.228.108.028.3.108.3.6v.366a.64.64,0,0,0,.639.639h1.042a.641.641,0,0,0,.638-.639v-.366c0-.487.185-.568.294-.6.3-.077.562-.137.85-.228.1-.031.335-.047.572.362l.2.342a.64.64,0,0,0,.873.23l.9-.523a.642.642,0,0,0,.232-.874l-.2-.342c-.234-.4-.133-.587-.06-.652.2-.179.387-.374.574-.568.056-.058.23-.253.687.015l.314.181a.64.64,0,0,0,.874-.232l.525-.9a.642.642,0,0,0-.231-.875l-.312-.181c-.43-.249-.419-.378-.364-.561.075-.25.155-.5.211-.758.049-.232.026-.4.611-.4h.359a.64.64,0,0,0,.639-.639v-1.042a.64.64,0,0,0-.639-.639h-.359c-.585,0-.562-.166-.611-.4-.056-.258-.136-.51-.211-.758-.054-.183-.065-.312.364-.56l.312-.181a.642.642,0,0,0,.231-.874l-.525-.9a.64.64,0,0,0-.874-.232l-.314.181c-.457.267-.631.073-.687.015-.187-.194-.371-.388-.574-.568-.073-.066-.174-.249.06-.652l.2-.342a.642.642,0,0,0-.232-.874l-.9-.523a.639.639,0,0,0-.873.23l-.2.342c-.237.409-.473.394-.572.362-.288-.091-.553-.151-.85-.228-.108-.028-.294-.108-.294-.6v-.366a.641.641,0,0,0-.638-.639H399.52a.64.64,0,0,0-.639.639v.366c0,.488-.187.568-.3.6-.3.077-.562.136-.85.228-.1.032-.333.047-.572-.362l-.2-.342a.641.641,0,0,0-.874-.23Zm3.949,3.734a4.091,4.091,0,1,1-4.093,4.091,4.09,4.09,0,0,1,4.093-4.091Zm0-1.024a5.115,5.115,0,1,1-5.115,5.115,5.115,5.115,0,0,1,5.115-5.115Zm0,0" transform="translate(-340.88 -49.774)" fill="#fff" fill-rule="evenodd"/>
      <rect id="Rectángulo_305369" data-name="Rectángulo 305369" width="32.494" height="13.117" transform="translate(40.284 506.356)" fill="#ac8714"/>
      <rect id="Rectángulo_305370" data-name="Rectángulo 305370" width="49.291" height="12.011" transform="translate(31.886 506.356)" fill="#fecb2f"/>
      <path id="Trazado_634493" data-name="Trazado 634493" d="M221.184,991.293h45.88a.876.876,0,0,1,.844.9v8.652a.876.876,0,0,1-.844.9h-45.88a.877.877,0,0,1-.845-.9V992.2a.877.877,0,0,1,.845-.9Zm0,0" transform="translate(-187.593 -484.16)" fill="#f6f6f6" fill-rule="evenodd"/>
      <path id="Trazado_634494" data-name="Trazado 634494" d="M239.541,1031.769a1.037,1.037,0,1,1-1.037,1.037,1.037,1.037,0,0,1,1.037-1.037Zm10.812,0a1.037,1.037,0,1,1-1.037,1.037,1.035,1.035,0,0,1,1.037-1.037Zm-3.6,0a1.037,1.037,0,1,1-1.039,1.037,1.037,1.037,0,0,1,1.039-1.037Zm-3.6,0a1.037,1.037,0,1,1-1.039,1.037,1.037,1.037,0,0,1,1.039-1.037Zm0,0" transform="translate(-203.877 -520.444)" fill="#eee5f4" fill-rule="evenodd"/>
      <rect id="Rectángulo_305371" data-name="Rectángulo 305371" width="32.494" height="13.117" transform="translate(40.284 493.239)" fill="#ac8714"/>
      <rect id="Rectángulo_305372" data-name="Rectángulo 305372" width="49.291" height="12.011" transform="translate(31.886 493.239)" fill="#fecb2f"/>
      <path id="Trazado_634495" data-name="Trazado 634495" d="M221.184,864.636h45.88a.876.876,0,0,1,.844.9v8.653a.878.878,0,0,1-.844.9h-45.88a.878.878,0,0,1-.845-.9v-8.653a.877.877,0,0,1,.845-.9Zm0,0" transform="translate(-187.593 -370.62)" fill="#f6f6f6" fill-rule="evenodd"/>
      <path id="Trazado_634496" data-name="Trazado 634496" d="M239.541,905.094a1.038,1.038,0,1,1-1.037,1.039,1.039,1.039,0,0,1,1.037-1.039Zm10.812,0a1.038,1.038,0,1,1-1.037,1.039,1.037,1.037,0,0,1,1.037-1.039Zm-3.6,0a1.038,1.038,0,1,1-1.039,1.039,1.039,1.039,0,0,1,1.039-1.039Zm-3.6,0a1.038,1.038,0,1,1-1.039,1.039,1.038,1.038,0,0,1,1.039-1.039Zm0,0" transform="translate(-203.877 -406.888)" fill="#0b5999" fill-rule="evenodd"/>
      <rect id="Rectángulo_305373" data-name="Rectángulo 305373" width="32.494" height="13.119" transform="translate(40.284 480.12)" fill="#ac8714"/>
      <rect id="Rectángulo_305374" data-name="Rectángulo 305374" width="49.291" height="12.013" transform="translate(31.886 480.12)" fill="#fecb2f"/>
      <path id="Trazado_634497" data-name="Trazado 634497" d="M221.184,737.977h45.88a.876.876,0,0,1,.844.9v8.655a.876.876,0,0,1-.844.9h-45.88a.876.876,0,0,1-.845-.9v-8.655a.876.876,0,0,1,.845-.9Zm0,0" transform="translate(-187.593 -257.078)" fill="#f6f6f6" fill-rule="evenodd"/>
      <path id="Trazado_634498" data-name="Trazado 634498" d="M239.541,778.437a1.038,1.038,0,1,1-1.037,1.037,1.038,1.038,0,0,1,1.037-1.037Zm10.812,0a1.038,1.038,0,1,1-1.037,1.037,1.036,1.036,0,0,1,1.037-1.037Zm-3.6,0a1.038,1.038,0,1,1-1.039,1.037,1.038,1.038,0,0,1,1.039-1.037Zm-3.6,0a1.038,1.038,0,1,1-1.039,1.037,1.038,1.038,0,0,1,1.039-1.037Zm0,0" transform="translate(-203.877 -293.348)" fill="#0b5999" fill-rule="evenodd"/>
      <rect id="Rectángulo_305375" data-name="Rectángulo 305375" width="32.494" height="13.117" transform="translate(40.284 467.003)" fill="#ac8714"/>
      <path id="Trazado_636133" data-name="Trazado 636133" d="M0,0H49.291V12.011H0Z" transform="translate(31.886 467.003)" fill="#fecb2f"/>
      <path id="Trazado_634499" data-name="Trazado 634499" d="M221.184,611.3h45.88a.878.878,0,0,1,.844.9v8.652a.877.877,0,0,1-.844.9h-45.88a.877.877,0,0,1-.845-.9v-8.652a.878.878,0,0,1,.845-.9Zm0,0" transform="translate(-187.593 -143.524)" fill="#f6f6f6" fill-rule="evenodd"/>
      <path id="Trazado_634500" data-name="Trazado 634500" d="M239.541,651.778a1.038,1.038,0,1,1-1.037,1.037,1.037,1.037,0,0,1,1.037-1.037Zm10.812,0a1.038,1.038,0,1,1-1.037,1.037,1.035,1.035,0,0,1,1.037-1.037Zm-3.6,0a1.038,1.038,0,1,1-1.039,1.037,1.037,1.037,0,0,1,1.039-1.037Zm-3.6,0a1.038,1.038,0,1,1-1.039,1.037,1.037,1.037,0,0,1,1.039-1.037Zm0,0" transform="translate(-203.877 -179.806)" fill="#0b5999" fill-rule="evenodd"/>
      <path id="Trazado_634501" data-name="Trazado 634501" d="M32.963,928.777H66.691a1.329,1.329,0,0,1,1.326,1.324V952.84a1.329,1.329,0,0,1-1.326,1.326H32.963a1.33,1.33,0,0,1-1.327-1.326V930.1a1.33,1.33,0,0,1,1.327-1.324Zm0,0" transform="translate(-18.433 -428.118)" fill="#ef3c79" fill-rule="evenodd"/>
      <path id="Trazado_634502" data-name="Trazado 634502" d="M41.4,938.174a.356.356,0,0,0-.351.351v22.739a.356.356,0,0,0,.351.353H75.131a.357.357,0,0,0,.353-.353V938.525a.356.356,0,0,0-.353-.351Zm0,0" transform="translate(-26.872 -436.542)" fill="#aec8e6" fill-rule="evenodd"/>
      <path id="Trazado_634503" data-name="Trazado 634503" d="M11.074,1173.938h40.64v1.255a1.259,1.259,0,0,1-1.255,1.255H12.329a1.26,1.26,0,0,1-1.255-1.255Zm0,0" transform="translate(0 -647.889)" fill="#ef3c79" fill-rule="evenodd"/>
      <path id="Trazado_634504" data-name="Trazado 634504" d="M52.036,953.776h8.78v.947h-8.78Zm0,19.263h8.78v.949h-8.78Zm0-1.926h8.78v.947h-8.78Zm0-1.926h8.78v.947h-8.78Zm0-1.926h8.78v.947h-8.78Zm0-1.928h8.78v.949h-8.78Zm0-1.926h8.78v.947h-8.78Zm0-1.926h8.78v.947h-8.78Zm0-1.926h8.78v.947h-8.78Zm0-1.928h8.78v.949h-8.78Zm0-1.926h8.78v.947h-8.78Zm0,0" transform="translate(-36.72 -450.528)" fill="#0b5999" fill-rule="evenodd"/>
      <path id="Trazado_634505" data-name="Trazado 634505" d="M175.537,953.776h19.39v.947h-19.39Zm0,19.263h19.39v.949h-19.39Zm0-1.926h19.39v.947h-19.39Zm0-1.926h19.39v.947h-19.39Zm0-1.926h19.39v.947h-19.39Zm0-1.928h19.39v.949h-19.39Zm0-1.926h19.39v.947h-19.39Zm0-1.926h19.39v.947h-19.39Zm0-1.926h19.39v.947h-19.39Zm0-1.928h19.39v.949h-19.39Zm0-1.926h19.39v.947h-19.39Zm0,0" transform="translate(-147.431 -450.528)" fill="#21cbae" fill-rule="evenodd"/>
      <rect id="Rectángulo_305377" data-name="Rectángulo 305377" width="0.482" height="20.74" transform="translate(25.889 502.983)" fill="#0b5999"/>
      <path id="Trazado_634506" data-name="Trazado 634506" d="M596.027,458.448a6.963,6.963,0,0,1,7.237,6.314l.917,7.175-7.233.062a6.962,6.962,0,0,1-7.235-6.314,6.809,6.809,0,0,1,6.314-7.236Zm0,0" transform="translate(-518.699 -6.484)" fill="#ef3c79" fill-rule="evenodd"/>
      <path id="Trazado_634507" data-name="Trazado 634507" d="M639.153,480.531a1.062,1.062,0,0,1,.314-.794,1.089,1.089,0,0,1,.785-.344,1.032,1.032,0,0,1,.777.307,1.146,1.146,0,0,1,.028,1.586,1.038,1.038,0,0,1-.771.348,1.058,1.058,0,0,1-.792-.314,1.093,1.093,0,0,1-.34-.788Zm-.725,8.21-.009-.48.944-.019-.111-5.279-1.04.022,0-.48c.579-.03,1.135-.065,1.674-.108s1.059-.094,1.562-.153l.125,5.952.992-.021.011.48Zm0,0" transform="translate(-562.186 -25.274)" fill="#fff" fill-rule="evenodd"/>
      <path id="Trazado_634508" data-name="Trazado 634508" d="M396.133,667.286h1.4v6.949h-1.4Zm24.5-39.351h1.4v6.947h-1.4Zm-2.451,0h1.4v6.947h-1.4Zm-2.449,0h1.4v6.947h-1.4Zm-2.449,0h1.4v6.947h-1.4Zm-2.451,0h1.4v6.947h-1.4Zm-2.449,0h1.4v6.947h-1.4Zm-2.449,0h1.4v6.947h-1.4Zm-2.451,0h1.4v6.947h-1.4Zm-2.449,0h1.4v6.947h-1.4Zm-2.449,0h1.4v6.947h-1.4Zm-2.451,0h1.4v6.947h-1.4Zm24.5,13.117h1.4V648h-1.4Zm-2.451,0h1.4V648h-1.4Zm-2.449,0h1.4V648h-1.4Zm-2.449,0h1.4V648h-1.4Zm-2.451,0h1.4V648h-1.4Zm-2.449,0h1.4V648h-1.4Zm-2.449,0h1.4V648h-1.4Zm-2.451,0h1.4V648h-1.4Zm-2.449,0h1.4V648h-1.4Zm-2.449,0h1.4V648h-1.4Zm-2.451,0h1.4V648h-1.4Zm24.5,13.117h1.4v6.949h-1.4Zm-2.451,0h1.4v6.949h-1.4Zm-2.449,0h1.4v6.949h-1.4Zm-2.449,0h1.4v6.949h-1.4Zm-2.451,0h1.4v6.949h-1.4Zm-2.449,0h1.4v6.949h-1.4Zm-2.449,0h1.4v6.949h-1.4Zm-2.451,0h1.4v6.949h-1.4Zm-2.449,0h1.4v6.949h-1.4Zm-2.449,0h1.4v6.949h-1.4Zm-2.451,0h1.4v6.949h-1.4Zm24.5,13.117h1.4v6.949h-1.4Zm-2.451,0h1.4v6.949h-1.4Zm-2.449,0h1.4v6.949h-1.4Zm-2.449,0h1.4v6.949h-1.4Zm-2.451,0h1.4v6.949h-1.4Zm-2.449,0h1.4v6.949h-1.4Zm-2.449,0h1.4v6.949h-1.4Zm-2.451,0h1.4v6.949h-1.4Zm-2.449,0h1.4v6.949h-1.4Zm-2.449,0h1.4v6.949h-1.4Zm0,0" transform="translate(-345.181 -158.433)" fill="#fecb2f" fill-rule="evenodd"/>
    </g>
  </g>
</svg>
