<svg xmlns="http://www.w3.org/2000/svg" width="114.336" height="87.984" viewBox="0 0 114.336 87.984">
  <g id="Grupo_911014" data-name="Grupo 911014" transform="translate(11491.837 12387)">
    <g id="Grupo_910849" data-name="Grupo 910849" transform="translate(-11841.35 -12417.158)">
      <g id="Grupo_910843" data-name="Grupo 910843" transform="translate(349.513 30.158)">
        <rect id="Rectángulo_306626" data-name="Rectángulo 306626" width="80.938" height="67.724" fill="#e8e8e8"/>
        <g id="Grupo_910842" data-name="Grupo 910842" transform="translate(4.297 3.672)">
          <rect id="Rectángulo_306627" data-name="Rectángulo 306627" width="72.644" height="50.257" transform="translate(0 8.956)" fill="#0b5999"/>
          <rect id="Rectángulo_306628" data-name="Rectángulo 306628" width="72.644" height="6.03" fill="#0b5999"/>
          <g id="Grupo_910841" data-name="Grupo 910841" transform="translate(5.468 11.034)">
            <rect id="Rectángulo_306629" data-name="Rectángulo 306629" width="4.6" height="1.5" fill="#1de3c9"/>
            <rect id="Rectángulo_306630" data-name="Rectángulo 306630" width="4.6" height="1.5" transform="translate(0 15.05)" fill="#1de3c9"/>
            <rect id="Rectángulo_306631" data-name="Rectángulo 306631" width="4.6" height="1.5" transform="translate(3 2.4)" fill="#fecb2f"/>
            <rect id="Rectángulo_306632" data-name="Rectángulo 306632" width="4.6" height="1.5" transform="translate(8.301 2.4)" fill="#fecb2f"/>
            <rect id="Rectángulo_306633" data-name="Rectángulo 306633" width="4.6" height="1.5" transform="translate(13.601 2.4)" fill="#f9fafb"/>
            <rect id="Rectángulo_306634" data-name="Rectángulo 306634" width="4.6" height="1.5" transform="translate(18.901 2.4)" fill="#f9fafb"/>
            <rect id="Rectángulo_306635" data-name="Rectángulo 306635" width="8.099" height="1.5" transform="translate(24.701 2.4)" fill="#f9fafb"/>
            <rect id="Rectángulo_306636" data-name="Rectángulo 306636" width="4.6" height="1.5" transform="translate(5.3 4.9)" fill="#fecb2f"/>
            <rect id="Rectángulo_306637" data-name="Rectángulo 306637" width="4.6" height="1.5" transform="translate(10.601 4.9)" fill="#fecb2f"/>
            <rect id="Rectángulo_306638" data-name="Rectángulo 306638" width="4.6" height="1.5" transform="translate(15.901 4.9)" fill="#f9fafb"/>
            <rect id="Rectángulo_306639" data-name="Rectángulo 306639" width="4.6" height="1.5" transform="translate(21.201 4.9)" fill="#f9fafb"/>
            <rect id="Rectángulo_306640" data-name="Rectángulo 306640" width="4.6" height="1.5" transform="translate(5.3 10.025)" fill="#fecb2f"/>
            <rect id="Rectángulo_306641" data-name="Rectángulo 306641" width="4.6" height="1.5" transform="translate(10.601 10.025)" fill="#fecb2f"/>
            <rect id="Rectángulo_306642" data-name="Rectángulo 306642" width="4.6" height="1.5" transform="translate(15.901 10.025)" fill="#f9fafb"/>
            <rect id="Rectángulo_306643" data-name="Rectángulo 306643" width="4.6" height="1.5" transform="translate(21.201 10.025)" fill="#f9fafb"/>
            <rect id="Rectángulo_306644" data-name="Rectángulo 306644" width="8.099" height="1.5" transform="translate(27.001 10.025)" fill="#f9fafb"/>
            <rect id="Rectángulo_306645" data-name="Rectángulo 306645" width="4.6" height="1.5" transform="translate(3 12.6)" fill="#fecb2f"/>
            <rect id="Rectángulo_306646" data-name="Rectángulo 306646" width="4.6" height="1.5" transform="translate(8.301 12.6)" fill="#fecb2f"/>
            <rect id="Rectángulo_306647" data-name="Rectángulo 306647" width="4.6" height="1.5" transform="translate(13.601 12.6)" fill="#f9fafb"/>
            <rect id="Rectángulo_306648" data-name="Rectángulo 306648" width="4.6" height="1.5" transform="translate(18.901 12.6)" fill="#f9fafb"/>
            <rect id="Rectángulo_306649" data-name="Rectángulo 306649" width="4.6" height="1.501" transform="translate(7.6 7.4)" fill="#fecb2f"/>
            <rect id="Rectángulo_306650" data-name="Rectángulo 306650" width="4.6" height="1.501" transform="translate(12.901 7.4)" fill="#fecb2f"/>
            <rect id="Rectángulo_306651" data-name="Rectángulo 306651" width="4.6" height="1.501" transform="translate(18.201 7.4)" fill="#f9fafb"/>
            <rect id="Rectángulo_306652" data-name="Rectángulo 306652" width="4.6" height="1.501" transform="translate(23.501 7.4)" fill="#f9fafb"/>
            <rect id="Rectángulo_306653" data-name="Rectángulo 306653" width="8.099" height="1.501" transform="translate(29.301 7.4)" fill="#f9fafb"/>
            <rect id="Rectángulo_306654" data-name="Rectángulo 306654" width="4.6" height="1.5" transform="translate(0 18.5)" fill="#1de3c9"/>
            <rect id="Rectángulo_306655" data-name="Rectángulo 306655" width="4.6" height="1.5" transform="translate(0 33.551)" fill="#1de3c9"/>
            <rect id="Rectángulo_306656" data-name="Rectángulo 306656" width="4.6" height="1.5" transform="translate(3 20.901)" fill="#fecb2f"/>
            <rect id="Rectángulo_306657" data-name="Rectángulo 306657" width="4.6" height="1.5" transform="translate(8.301 20.901)" fill="#fecb2f"/>
            <rect id="Rectángulo_306658" data-name="Rectángulo 306658" width="4.6" height="1.5" transform="translate(13.601 20.901)" fill="#f9fafb"/>
            <rect id="Rectángulo_306659" data-name="Rectángulo 306659" width="4.6" height="1.5" transform="translate(18.901 20.901)" fill="#f9fafb"/>
            <rect id="Rectángulo_306660" data-name="Rectángulo 306660" width="8.099" height="1.5" transform="translate(24.701 20.901)" fill="#f9fafb"/>
            <rect id="Rectángulo_306661" data-name="Rectángulo 306661" width="4.6" height="1.5" transform="translate(5.3 23.4)" fill="#fecb2f"/>
            <rect id="Rectángulo_306662" data-name="Rectángulo 306662" width="4.6" height="1.5" transform="translate(10.601 23.4)" fill="#fecb2f"/>
            <rect id="Rectángulo_306663" data-name="Rectángulo 306663" width="4.6" height="1.5" transform="translate(15.901 23.4)" fill="#f9fafb"/>
            <rect id="Rectángulo_306664" data-name="Rectángulo 306664" width="4.6" height="1.5" transform="translate(21.201 23.4)" fill="#f9fafb"/>
            <rect id="Rectángulo_306665" data-name="Rectángulo 306665" width="4.6" height="1.5" transform="translate(5.3 28.526)" fill="#fecb2f"/>
            <rect id="Rectángulo_306666" data-name="Rectángulo 306666" width="4.6" height="1.5" transform="translate(10.601 28.526)" fill="#fecb2f"/>
            <rect id="Rectángulo_306667" data-name="Rectángulo 306667" width="4.6" height="1.5" transform="translate(15.901 28.526)" fill="#f9fafb"/>
            <rect id="Rectángulo_306668" data-name="Rectángulo 306668" width="4.6" height="1.5" transform="translate(3 31.1)" fill="#fecb2f"/>
            <rect id="Rectángulo_306669" data-name="Rectángulo 306669" width="4.6" height="1.5" transform="translate(8.301 31.1)" fill="#fecb2f"/>
            <rect id="Rectángulo_306670" data-name="Rectángulo 306670" width="4.6" height="1.5" transform="translate(13.601 31.1)" fill="#f9fafb"/>
            <rect id="Rectángulo_306671" data-name="Rectángulo 306671" width="4.6" height="1.5" transform="translate(18.901 31.1)" fill="#f9fafb"/>
            <rect id="Rectángulo_306672" data-name="Rectángulo 306672" width="4.6" height="1.5" transform="translate(7.6 25.9)" fill="#fecb2f"/>
            <rect id="Rectángulo_306673" data-name="Rectángulo 306673" width="4.6" height="1.5" transform="translate(12.901 25.9)" fill="#fecb2f"/>
            <rect id="Rectángulo_306674" data-name="Rectángulo 306674" width="4.6" height="1.5" transform="translate(18.201 25.9)" fill="#f9fafb"/>
            <rect id="Rectángulo_306675" data-name="Rectángulo 306675" width="4.6" height="1.5" transform="translate(23.501 25.9)" fill="#f9fafb"/>
            <rect id="Rectángulo_306676" data-name="Rectángulo 306676" width="8.099" height="1.5" transform="translate(29.301 25.9)" fill="#f9fafb"/>
            <rect id="Rectángulo_306677" data-name="Rectángulo 306677" width="4.6" height="1.5" transform="translate(0 37.001)" fill="#1de3c9"/>
            <rect id="Rectángulo_306678" data-name="Rectángulo 306678" width="4.6" height="1.5" transform="translate(3 39.401)" fill="#fecb2f"/>
            <rect id="Rectángulo_306679" data-name="Rectángulo 306679" width="4.6" height="1.5" transform="translate(8.301 39.401)" fill="#fecb2f"/>
            <rect id="Rectángulo_306680" data-name="Rectángulo 306680" width="4.6" height="1.5" transform="translate(13.601 39.401)" fill="#f9fafb"/>
            <rect id="Rectángulo_306681" data-name="Rectángulo 306681" width="4.6" height="1.5" transform="translate(18.901 39.401)" fill="#f9fafb"/>
            <rect id="Rectángulo_306682" data-name="Rectángulo 306682" width="8.099" height="1.5" transform="translate(24.701 39.401)" fill="#f9fafb"/>
            <rect id="Rectángulo_306683" data-name="Rectángulo 306683" width="4.6" height="1.5" transform="translate(5.3 41.901)" fill="#fecb2f"/>
            <rect id="Rectángulo_306684" data-name="Rectángulo 306684" width="4.6" height="1.5" transform="translate(10.601 41.901)" fill="#fecb2f"/>
            <rect id="Rectángulo_306685" data-name="Rectángulo 306685" width="4.6" height="1.5" transform="translate(15.901 41.901)" fill="#f9fafb"/>
            <rect id="Rectángulo_306686" data-name="Rectángulo 306686" width="4.6" height="1.5" transform="translate(7.6 44.401)" fill="#fecb2f"/>
            <rect id="Rectángulo_306687" data-name="Rectángulo 306687" width="4.6" height="1.5" transform="translate(12.901 44.401)" fill="#fecb2f"/>
            <rect id="Rectángulo_306688" data-name="Rectángulo 306688" width="4.6" height="1.5" transform="translate(18.201 44.401)" fill="#f9fafb"/>
            <rect id="Rectángulo_306689" data-name="Rectángulo 306689" width="4.6" height="1.5" transform="translate(23.501 44.401)" fill="#f9fafb"/>
            <rect id="Rectángulo_306690" data-name="Rectángulo 306690" width="8.099" height="1.5" transform="translate(29.301 44.401)" fill="#f9fafb"/>
            <rect id="Rectángulo_306691" data-name="Rectángulo 306691" width="8.1" height="1.5" transform="translate(38.4 25.9)" fill="#f9fafb"/>
            <rect id="Rectángulo_306692" data-name="Rectángulo 306692" width="8.101" height="1.5" transform="translate(47.501 25.9)" fill="#f9fafb"/>
          </g>
        </g>
        <rect id="Rectángulo_306693" data-name="Rectángulo 306693" width="3.481" height="3.481" transform="translate(71.528 4.946)" fill="#ede8ea"/>
        <rect id="Rectángulo_306694" data-name="Rectángulo 306694" width="3.481" height="3.481" transform="translate(66.197 4.946)" fill="#ede8ea"/>
        <rect id="Rectángulo_306695" data-name="Rectángulo 306695" width="3.481" height="3.481" transform="translate(60.866 4.946)" fill="#ede8ea"/>
        <rect id="Rectángulo_306696" data-name="Rectángulo 306696" width="3.481" height="3.481" transform="translate(6.283 4.946)" fill="#ede8ea"/>
      </g>
      <g id="Grupo_910848" data-name="Grupo 910848" transform="translate(368.034 86.175)">
        <rect id="Rectángulo_306697" data-name="Rectángulo 306697" width="93.134" height="31.968" rx="1.701" transform="translate(0 0)" fill="#12263f"/>
        <g id="Grupo_910847" data-name="Grupo 910847" transform="translate(2.708 2.39)">
          <rect id="Rectángulo_306698" data-name="Rectángulo 306698" width="3.339" height="3.34" rx="0.169" fill="#d1cfd0"/>
          <rect id="Rectángulo_306699" data-name="Rectángulo 306699" width="3.339" height="3.34" rx="0.169" transform="translate(0 5.043)" fill="#d1cfd0"/>
          <rect id="Rectángulo_306700" data-name="Rectángulo 306700" width="3.339" height="3.34" rx="0.169" transform="translate(3.9 5.043)" fill="#d1cfd0"/>
          <rect id="Rectángulo_306701" data-name="Rectángulo 306701" width="3.34" height="3.34" rx="0.169" transform="translate(7.8 5.043)" fill="#d1cfd0"/>
          <rect id="Rectángulo_306702" data-name="Rectángulo 306702" width="3.34" height="3.34" rx="0.169" transform="translate(11.7 5.043)" fill="#d1cfd0"/>
          <rect id="Rectángulo_306703" data-name="Rectángulo 306703" width="3.34" height="3.34" rx="0.169" transform="translate(15.601 5.043)" fill="#d1cfd0"/>
          <path id="Rectángulo_306704" data-name="Rectángulo 306704" d="M.169,0h3a.17.17,0,0,1,.17.17v3a.169.169,0,0,1-.169.169h-3A.17.17,0,0,1,0,3.17v-3A.169.169,0,0,1,.169,0Z" transform="translate(19.501 5.043)" fill="#d1cfd0"/>
          <path id="Rectángulo_306705" data-name="Rectángulo 306705" d="M.169,0h3a.17.17,0,0,1,.17.17v3a.169.169,0,0,1-.169.169h-3A.17.17,0,0,1,0,3.17v-3A.169.169,0,0,1,.169,0Z" transform="translate(23.401 5.043)" fill="#d1cfd0"/>
          <path id="Rectángulo_306706" data-name="Rectángulo 306706" d="M.169,0h3a.17.17,0,0,1,.17.17v3a.169.169,0,0,1-.169.169h-3A.17.17,0,0,1,0,3.17v-3A.169.169,0,0,1,.169,0Z" transform="translate(27.301 5.043)" fill="#d1cfd0"/>
          <path id="Rectángulo_306707" data-name="Rectángulo 306707" d="M.169,0h3a.17.17,0,0,1,.17.17v3a.169.169,0,0,1-.169.169h-3A.17.17,0,0,1,0,3.17v-3A.169.169,0,0,1,.169,0Z" transform="translate(31.201 5.043)" fill="#d1cfd0"/>
          <path id="Rectángulo_306708" data-name="Rectángulo 306708" d="M.169,0h3a.17.17,0,0,1,.17.17v3a.169.169,0,0,1-.169.169h-3A.17.17,0,0,1,0,3.17v-3A.169.169,0,0,1,.169,0Z" transform="translate(35.102 5.043)" fill="#d1cfd0"/>
          <rect id="Rectángulo_306709" data-name="Rectángulo 306709" width="3.339" height="3.34" rx="0.169" transform="translate(39.003 5.043)" fill="#d1cfd0"/>
          <rect id="Rectángulo_306710" data-name="Rectángulo 306710" width="3.339" height="3.34" rx="0.169" transform="translate(42.903 5.043)" fill="#d1cfd0"/>
          <rect id="Rectángulo_306711" data-name="Rectángulo 306711" width="3.34" height="3.34" rx="0.169" transform="translate(46.804 5.043)" fill="#d1cfd0"/>
          <rect id="Rectángulo_306712" data-name="Rectángulo 306712" width="6.76" height="3.34" rx="0.169" transform="translate(50.704 5.043)" fill="#d1cfd0"/>
          <rect id="Rectángulo_306713" data-name="Rectángulo 306713" width="4.896" height="3.34" rx="0.169" transform="translate(0 9.081)" fill="#d1cfd0"/>
          <path id="Rectángulo_306714" data-name="Rectángulo 306714" d="M.169,0H5.733A.169.169,0,0,1,5.9.169v3a.169.169,0,0,1-.169.169H.17A.17.17,0,0,1,0,3.17v-3A.169.169,0,0,1,.169,0Z" transform="translate(0 13.1)" fill="#d1cfd0"/>
          <rect id="Rectángulo_306715" data-name="Rectángulo 306715" width="7.893" height="3.34" rx="0.169" transform="translate(0 17.118)" fill="#d1cfd0"/>
          <path id="Rectángulo_306716" data-name="Rectángulo 306716" d="M.169,0H4.876a.169.169,0,0,1,.169.169v3a.169.169,0,0,1-.169.169H.17A.17.17,0,0,1,0,3.17v-3A.169.169,0,0,1,.169,0Z" transform="translate(0 21.077)" fill="#d1cfd0"/>
          <rect id="Rectángulo_306717" data-name="Rectángulo 306717" width="3.339" height="3.34" rx="0.169" transform="translate(5.57 9.081)" fill="#d1cfd0"/>
          <path id="Rectángulo_306718" data-name="Rectángulo 306718" d="M.169,0h3a.17.17,0,0,1,.17.17v3a.169.169,0,0,1-.169.169h-3A.17.17,0,0,1,0,3.17v-3A.169.169,0,0,1,.169,0Z" transform="translate(6.53 13.1)" fill="#d1cfd0"/>
          <path id="Rectángulo_306719" data-name="Rectángulo 306719" d="M.169,0h3a.17.17,0,0,1,.17.17v3a.169.169,0,0,1-.169.169h-3A.17.17,0,0,1,0,3.17v-3A.169.169,0,0,1,.169,0Z" transform="translate(10.561 13.1)" fill="#d1cfd0"/>
          <path id="Rectángulo_306720" data-name="Rectángulo 306720" d="M.169,0h3a.169.169,0,0,1,.169.169v3a.169.169,0,0,1-.169.169h-3A.17.17,0,0,1,0,3.17v-3A.169.169,0,0,1,.169,0Z" transform="translate(8.592 17.118)" fill="#d1cfd0"/>
          <rect id="Rectángulo_306721" data-name="Rectángulo 306721" width="3.339" height="3.34" rx="0.169" transform="translate(5.679 21.077)" fill="#d1cfd0"/>
          <rect id="Rectángulo_306722" data-name="Rectángulo 306722" width="3.34" height="3.34" rx="0.169" transform="translate(9.71 21.077)" fill="#d1cfd0"/>
          <path id="Rectángulo_306723" data-name="Rectángulo 306723" d="M.169,0h3a.17.17,0,0,1,.17.17v3a.169.169,0,0,1-.169.169h-3A.17.17,0,0,1,0,3.17v-3A.169.169,0,0,1,.169,0Z" transform="translate(13.703 21.077)" fill="#d1cfd0"/>
          <path id="Rectángulo_306724" data-name="Rectángulo 306724" d="M.169,0H23.22a.17.17,0,0,1,.17.17v3a.17.17,0,0,1-.17.17H.169A.169.169,0,0,1,0,3.171v-3A.169.169,0,0,1,.169,0Z" transform="translate(17.665 21.077)" fill="#d1cfd0"/>
          <rect id="Rectángulo_306725" data-name="Rectángulo 306725" width="3.34" height="3.34" rx="0.169" transform="translate(12.65 17.118)" fill="#d1cfd0"/>
          <path id="Rectángulo_306726" data-name="Rectángulo 306726" d="M.169,0h3a.17.17,0,0,1,.17.17v3a.169.169,0,0,1-.169.169h-3A.169.169,0,0,1,0,3.171v-3A.169.169,0,0,1,.169,0Z" transform="translate(16.707 17.118)" fill="#d1cfd0"/>
          <rect id="Rectángulo_306727" data-name="Rectángulo 306727" width="3.339" height="3.34" rx="0.169" transform="translate(20.766 17.118)" fill="#d1cfd0"/>
          <rect id="Rectángulo_306728" data-name="Rectángulo 306728" width="3.339" height="3.34" rx="0.169" transform="translate(24.824 17.118)" fill="#d1cfd0"/>
          <path id="Rectángulo_306729" data-name="Rectángulo 306729" d="M.169,0h3a.17.17,0,0,1,.17.17v3a.169.169,0,0,1-.169.169h-3A.169.169,0,0,1,0,3.171v-3A.169.169,0,0,1,.169,0Z" transform="translate(28.881 17.118)" fill="#d1cfd0"/>
          <rect id="Rectángulo_306730" data-name="Rectángulo 306730" width="3.34" height="3.34" rx="0.169" transform="translate(32.939 17.118)" fill="#d1cfd0"/>
          <path id="Rectángulo_306731" data-name="Rectángulo 306731" d="M.169,0h3a.17.17,0,0,1,.17.17v3a.169.169,0,0,1-.169.169h-3A.17.17,0,0,1,0,3.17v-3A.169.169,0,0,1,.169,0Z" transform="translate(36.996 17.118)" fill="#d1cfd0"/>
          <rect id="Rectángulo_306732" data-name="Rectángulo 306732" width="3.339" height="3.34" rx="0.169" transform="translate(41.055 17.118)" fill="#d1cfd0"/>
          <path id="Rectángulo_306733" data-name="Rectángulo 306733" d="M.169,0h3a.17.17,0,0,1,.17.17v3a.169.169,0,0,1-.169.169h-3A.17.17,0,0,1,0,3.17v-3A.169.169,0,0,1,.169,0Z" transform="translate(41.932 21.077)" fill="#d1cfd0"/>
          <rect id="Rectángulo_306734" data-name="Rectángulo 306734" width="3.339" height="3.34" rx="0.169" transform="translate(45.996 21.077)" fill="#d1cfd0"/>
          <rect id="Rectángulo_306735" data-name="Rectángulo 306735" width="3.339" height="3.34" rx="0.169" transform="translate(50.06 21.077)" fill="#d1cfd0"/>
          <rect id="Rectángulo_306736" data-name="Rectángulo 306736" width="3.339" height="3.34" rx="0.169" transform="translate(54.124 21.077)" fill="#d1cfd0"/>
          <rect id="Rectángulo_306737" data-name="Rectángulo 306737" width="3.339" height="3.34" rx="0.169" transform="translate(45.113 17.118)" fill="#d1cfd0"/>
          <rect id="Rectángulo_306738" data-name="Rectángulo 306738" width="8.293" height="3.34" rx="0.169" transform="translate(49.17 17.118)" fill="#d1cfd0"/>
          <path id="Rectángulo_306739" data-name="Rectángulo 306739" d="M.169,0h3a.17.17,0,0,1,.17.17v3a.169.169,0,0,1-.169.169h-3A.169.169,0,0,1,0,3.171v-3A.169.169,0,0,1,.169,0Z" transform="translate(14.593 13.1)" fill="#d1cfd0"/>
          <rect id="Rectángulo_306740" data-name="Rectángulo 306740" width="3.339" height="3.34" rx="0.169" transform="translate(18.624 13.1)" fill="#d1cfd0"/>
          <rect id="Rectángulo_306741" data-name="Rectángulo 306741" width="3.34" height="3.34" rx="0.169" transform="translate(22.655 13.1)" fill="#d1cfd0"/>
          <rect id="Rectángulo_306742" data-name="Rectángulo 306742" width="3.339" height="3.34" rx="0.169" transform="translate(26.686 13.1)" fill="#d1cfd0"/>
          <rect id="Rectángulo_306743" data-name="Rectángulo 306743" width="3.339" height="3.34" rx="0.169" transform="translate(30.717 13.1)" fill="#d1cfd0"/>
          <rect id="Rectángulo_306744" data-name="Rectángulo 306744" width="3.339" height="3.34" rx="0.169" transform="translate(34.748 13.1)" fill="#d1cfd0"/>
          <rect id="Rectángulo_306745" data-name="Rectángulo 306745" width="3.339" height="3.34" rx="0.169" transform="translate(38.78 13.1)" fill="#d1cfd0"/>
          <rect id="Rectángulo_306746" data-name="Rectángulo 306746" width="3.34" height="3.34" rx="0.169" transform="translate(42.811 13.1)" fill="#d1cfd0"/>
          <rect id="Rectángulo_306747" data-name="Rectángulo 306747" width="3.339" height="3.34" rx="0.169" transform="translate(46.842 13.1)" fill="#d1cfd0"/>
          <rect id="Rectángulo_306748" data-name="Rectángulo 306748" width="3.339" height="3.34" rx="0.169" transform="translate(9.563 9.081)" fill="#d1cfd0"/>
          <rect id="Rectángulo_306749" data-name="Rectángulo 306749" width="3.339" height="3.34" rx="0.169" transform="translate(13.556 9.081)" fill="#d1cfd0"/>
          <rect id="Rectángulo_306750" data-name="Rectángulo 306750" width="3.339" height="3.34" rx="0.169" transform="translate(17.549 9.081)" fill="#d1cfd0"/>
          <path id="Rectángulo_306751" data-name="Rectángulo 306751" d="M.169,0h3a.17.17,0,0,1,.17.17v3a.169.169,0,0,1-.169.169h-3A.169.169,0,0,1,0,3.171v-3A.169.169,0,0,1,.169,0Z" transform="translate(21.54 9.081)" fill="#d1cfd0"/>
          <path id="Rectángulo_306752" data-name="Rectángulo 306752" d="M.169,0h3a.17.17,0,0,1,.17.17v3a.169.169,0,0,1-.169.169h-3A.169.169,0,0,1,0,3.171v-3A.169.169,0,0,1,.169,0Z" transform="translate(25.533 9.081)" fill="#d1cfd0"/>
          <rect id="Rectángulo_306753" data-name="Rectángulo 306753" width="3.339" height="3.34" rx="0.169" transform="translate(29.526 9.081)" fill="#d1cfd0"/>
          <rect id="Rectángulo_306754" data-name="Rectángulo 306754" width="3.339" height="3.34" rx="0.169" transform="translate(33.519 9.081)" fill="#d1cfd0"/>
          <rect id="Rectángulo_306755" data-name="Rectángulo 306755" width="3.339" height="3.34" rx="0.169" transform="translate(37.512 9.081)" fill="#d1cfd0"/>
          <rect id="Rectángulo_306756" data-name="Rectángulo 306756" width="3.339" height="3.34" rx="0.169" transform="translate(41.505 9.081)" fill="#d1cfd0"/>
          <path id="Rectángulo_306757" data-name="Rectángulo 306757" d="M.169,0h3a.17.17,0,0,1,.17.17v3a.169.169,0,0,1-.169.169h-3A.17.17,0,0,1,0,3.17v-3A.169.169,0,0,1,.169,0Z" transform="translate(45.497 9.081)" fill="#d1cfd0"/>
          <path id="Rectángulo_306758" data-name="Rectángulo 306758" d="M.169,0h3a.17.17,0,0,1,.17.17v3a.169.169,0,0,1-.169.169h-3A.17.17,0,0,1,0,3.17v-3A.169.169,0,0,1,.169,0Z" transform="translate(49.49 9.081)" fill="#d1cfd0"/>
          <g id="Grupo_910846" data-name="Grupo 910846" transform="translate(50.872 9.081)">
            <g id="Grupo_910844" data-name="Grupo 910844" transform="translate(2.611)">
              <path id="Trazado_636134" data-name="Trazado 636134" d="M403.232,78.47a.237.237,0,0,0-.236.236v2.868a.237.237,0,0,0,.236.236h.922a.237.237,0,0,1,.236.236v3.545a.237.237,0,0,0,.237.237h2.114a.238.238,0,0,0,.236-.237V78.706a.238.238,0,0,0-.236-.236Z" transform="translate(-402.996 -78.47)" fill="#d1cfd0"/>
            </g>
            <g id="Grupo_910845" data-name="Grupo 910845" transform="translate(0 4.019)">
              <path id="Trazado_636135" data-name="Trazado 636135" d="M403.974,81.347h-2.609a.237.237,0,0,0-.237.236V84.45a.237.237,0,0,0,.237.237h2.867a.238.238,0,0,0,.237-.237V81.583a.238.238,0,0,0-.237-.236Z" transform="translate(-401.127 -81.347)" fill="#d1cfd0"/>
            </g>
          </g>
          <rect id="Rectángulo_306759" data-name="Rectángulo 306759" width="3.34" height="3.34" rx="0.169" transform="translate(6.223)" fill="#d1cfd0"/>
          <path id="Rectángulo_306760" data-name="Rectángulo 306760" d="M.17,0h3a.169.169,0,0,1,.169.169v3a.169.169,0,0,1-.169.169h-3A.17.17,0,0,1,0,3.17v-3A.17.17,0,0,1,.17,0Z" transform="translate(10.561)" fill="#d1cfd0"/>
          <rect id="Rectángulo_306761" data-name="Rectángulo 306761" width="3.339" height="3.34" rx="0.169" transform="translate(14.901)" fill="#d1cfd0"/>
          <rect id="Rectángulo_306762" data-name="Rectángulo 306762" width="3.339" height="3.34" rx="0.169" transform="translate(19.24)" fill="#d1cfd0"/>
          <rect id="Rectángulo_306763" data-name="Rectángulo 306763" width="3.339" height="3.34" rx="0.169" transform="translate(23.664)" fill="#d1cfd0"/>
          <rect id="Rectángulo_306764" data-name="Rectángulo 306764" width="3.34" height="3.34" rx="0.169" transform="translate(28.004)" fill="#d1cfd0"/>
          <rect id="Rectángulo_306765" data-name="Rectángulo 306765" width="3.339" height="3.34" rx="0.169" transform="translate(32.343)" fill="#d1cfd0"/>
          <rect id="Rectángulo_306766" data-name="Rectángulo 306766" width="3.339" height="3.34" rx="0.169" transform="translate(36.681)" fill="#d1cfd0"/>
          <rect id="Rectángulo_306767" data-name="Rectángulo 306767" width="3.339" height="3.34" rx="0.169" transform="translate(41.107)" fill="#d1cfd0"/>
          <path id="Rectángulo_306768" data-name="Rectángulo 306768" d="M.169,0h3a.17.17,0,0,1,.17.17v3a.169.169,0,0,1-.169.169h-3A.17.17,0,0,1,0,3.17v-3A.169.169,0,0,1,.169,0Z" transform="translate(45.445)" fill="#d1cfd0"/>
          <rect id="Rectángulo_306769" data-name="Rectángulo 306769" width="3.34" height="3.34" rx="0.169" transform="translate(49.784)" fill="#d1cfd0"/>
          <rect id="Rectángulo_306770" data-name="Rectángulo 306770" width="3.339" height="3.34" rx="0.169" transform="translate(54.124)" fill="#d1cfd0"/>
          <path id="Rectángulo_306771" data-name="Rectángulo 306771" d="M.169,0h3a.17.17,0,0,1,.17.17v3a.169.169,0,0,1-.169.169h-3A.17.17,0,0,1,0,3.17v-3A.169.169,0,0,1,.169,0Z" transform="translate(59.441)" fill="#d1cfd0"/>
          <rect id="Rectángulo_306772" data-name="Rectángulo 306772" width="3.34" height="3.34" rx="0.169" transform="translate(63.638)" fill="#d1cfd0"/>
          <rect id="Rectángulo_306773" data-name="Rectángulo 306773" width="3.34" height="3.34" rx="0.169" transform="translate(67.834)" fill="#d1cfd0"/>
          <path id="Rectángulo_306774" data-name="Rectángulo 306774" d="M.169,0h3a.17.17,0,0,1,.17.17v3a.169.169,0,0,1-.169.169h-3A.17.17,0,0,1,0,3.17v-3A.169.169,0,0,1,.169,0Z" transform="translate(59.441 5.043)" fill="#d1cfd0"/>
          <rect id="Rectángulo_306775" data-name="Rectángulo 306775" width="3.34" height="3.34" rx="0.169" transform="translate(63.638 5.043)" fill="#d1cfd0"/>
          <rect id="Rectángulo_306776" data-name="Rectángulo 306776" width="3.34" height="3.34" rx="0.169" transform="translate(67.834 5.043)" fill="#d1cfd0"/>
          <rect id="Rectángulo_306777" data-name="Rectángulo 306777" width="3.339" height="3.34" rx="0.169" transform="translate(72.413 5.043)" fill="#d1cfd0"/>
          <rect id="Rectángulo_306778" data-name="Rectángulo 306778" width="3.339" height="3.34" rx="0.169" transform="translate(76.402 5.043)" fill="#d1cfd0"/>
          <rect id="Rectángulo_306779" data-name="Rectángulo 306779" width="3.339" height="3.34" rx="0.169" transform="translate(80.391 5.043)" fill="#d1cfd0"/>
          <rect id="Rectángulo_306780" data-name="Rectángulo 306780" width="3.339" height="3.34" rx="0.169" transform="translate(84.38 5.043)" fill="#d1cfd0"/>
          <rect id="Rectángulo_306781" data-name="Rectángulo 306781" width="3.339" height="3.34" rx="0.169" transform="translate(72.413 9.081)" fill="#d1cfd0"/>
          <rect id="Rectángulo_306782" data-name="Rectángulo 306782" width="3.339" height="3.34" rx="0.169" transform="translate(76.402 9.081)" fill="#d1cfd0"/>
          <rect id="Rectángulo_306783" data-name="Rectángulo 306783" width="3.339" height="3.34" rx="0.169" transform="translate(80.391 9.081)" fill="#d1cfd0"/>
          <rect id="Rectángulo_306784" data-name="Rectángulo 306784" width="3.339" height="3.34" rx="0.169" transform="translate(84.38 9.081)" fill="#d1cfd0"/>
          <rect id="Rectángulo_306785" data-name="Rectángulo 306785" width="3.339" height="3.34" rx="0.169" transform="translate(72.413 13.119)" fill="#d1cfd0"/>
          <rect id="Rectángulo_306786" data-name="Rectángulo 306786" width="3.339" height="3.34" rx="0.169" transform="translate(76.402 13.119)" fill="#d1cfd0"/>
          <rect id="Rectángulo_306787" data-name="Rectángulo 306787" width="3.339" height="3.34" rx="0.169" transform="translate(80.391 13.119)" fill="#d1cfd0"/>
          <rect id="Rectángulo_306788" data-name="Rectángulo 306788" width="3.339" height="3.34" rx="0.169" transform="translate(84.38 13.119)" fill="#d1cfd0"/>
          <rect id="Rectángulo_306789" data-name="Rectángulo 306789" width="3.339" height="3.34" rx="0.169" transform="translate(72.413 17.157)" fill="#d1cfd0"/>
          <rect id="Rectángulo_306790" data-name="Rectángulo 306790" width="3.339" height="3.34" rx="0.169" transform="translate(76.402 17.157)" fill="#d1cfd0"/>
          <rect id="Rectángulo_306791" data-name="Rectángulo 306791" width="3.339" height="3.34" rx="0.169" transform="translate(80.391 17.157)" fill="#d1cfd0"/>
          <rect id="Rectángulo_306792" data-name="Rectángulo 306792" width="3.339" height="7.26" rx="0.169" transform="translate(84.38 17.157)" fill="#d1cfd0"/>
          <rect id="Rectángulo_306793" data-name="Rectángulo 306793" width="7.328" height="3.339" rx="0.169" transform="translate(72.413 21.196)" fill="#d1cfd0"/>
          <rect id="Rectángulo_306794" data-name="Rectángulo 306794" width="3.339" height="3.339" rx="0.169" transform="translate(80.391 21.196)" fill="#d1cfd0"/>
          <path id="Rectángulo_306795" data-name="Rectángulo 306795" d="M.169,0h3a.17.17,0,0,1,.17.17v3a.169.169,0,0,1-.169.169h-3A.17.17,0,0,1,0,3.17v-3A.169.169,0,0,1,.169,0Z" transform="translate(59.441 9.081)" fill="#d1cfd0"/>
          <rect id="Rectángulo_306796" data-name="Rectángulo 306796" width="3.34" height="3.34" rx="0.169" transform="translate(63.638 9.081)" fill="#d1cfd0"/>
          <rect id="Rectángulo_306797" data-name="Rectángulo 306797" width="3.34" height="3.34" rx="0.169" transform="translate(67.834 9.081)" fill="#d1cfd0"/>
          <rect id="Rectángulo_306798" data-name="Rectángulo 306798" width="3.34" height="3.34" rx="0.169" transform="translate(63.638 17.039)" fill="#d1cfd0"/>
          <path id="Rectángulo_306799" data-name="Rectángulo 306799" d="M.169,0h3a.17.17,0,0,1,.17.17v3a.17.17,0,0,1-.17.17h-3A.17.17,0,0,1,0,3.17v-3A.169.169,0,0,1,.169,0Z" transform="translate(59.441 21.077)" fill="#d1cfd0"/>
          <rect id="Rectángulo_306800" data-name="Rectángulo 306800" width="3.34" height="3.34" rx="0.169" transform="translate(63.638 21.077)" fill="#d1cfd0"/>
          <rect id="Rectángulo_306801" data-name="Rectángulo 306801" width="3.34" height="3.34" rx="0.169" transform="translate(67.834 21.077)" fill="#d1cfd0"/>
          <path id="Trazado_636136" data-name="Trazado 636136" d="M420.393,73.091a1.034,1.034,0,1,1-1.035-1.034A1.033,1.033,0,0,1,420.393,73.091Z" transform="translate(-343.429 -71.934)" fill="#d1cfd0"/>
          <path id="Trazado_636137" data-name="Trazado 636137" d="M423.121,73.091a1.034,1.034,0,1,1-1.034-1.034A1.033,1.033,0,0,1,423.121,73.091Z" transform="translate(-342.346 -71.934)" fill="#d1cfd0"/>
          <path id="Trazado_636138" data-name="Trazado 636138" d="M425.852,73.091a1.034,1.034,0,1,1-1.035-1.034A1.034,1.034,0,0,1,425.852,73.091Z" transform="translate(-341.263 -71.934)" fill="#d1cfd0"/>
        </g>
      </g>
    </g>
    <g id="Grupo_910851" data-name="Grupo 910851" transform="translate(-12729.988 -12604.826)">
      <path id="Trazado_636139" data-name="Trazado 636139" d="M412.465,74.179V68.79a6.655,6.655,0,1,1,0-5.937V55.488c-.1-.057-.2-.124-.3-.177l-1.238,1.479a10.235,10.235,0,0,0-2.763-.883l-.155-1.9a11.887,11.887,0,0,0-2.492-.047l-.237,1.876a10.167,10.167,0,0,0-2.813.747L401.337,55.1a12.076,12.076,0,0,0-2.123,1.317L400,58.079l-.035.029a10.179,10.179,0,0,0-1.939,2.132l-1.7-.615a11.909,11.909,0,0,0-1.08,2.263l1.514.94a10.235,10.235,0,0,0-.49,2.9l-1.711.39a11.776,11.776,0,0,0,.307,2.495l1.742-.028a10.16,10.16,0,0,0,1.164,2.71l-1.214,1.238q.348.518.753,1.011a11.923,11.923,0,0,0,.851.925l1.442-.958a10.238,10.238,0,0,0,2.447,1.646l-.353,1.707a12,12,0,0,0,2.393.767l.7-1.609a10.167,10.167,0,0,0,2.94.059l.64,1.665A11.823,11.823,0,0,0,410.8,77.1l-.286-1.782A10.244,10.244,0,0,0,412.465,74.179Z" transform="translate(906.522 197.098)" fill="#72aed6" style="mix-blend-mode: multiply;isolation: isolate"/>
      <path id="Trazado_636140" data-name="Trazado 636140" d="M411.124,51.867a6.624,6.624,0,1,1,0-13.019V35.363c-.115-.015-.225-.047-.339-.059l-.282-1.841a12.157,12.157,0,0,0-2.5.137l-.1,1.834-.045.007a10.219,10.219,0,0,0-2.724.94l-1.193-1.354a12,12,0,0,0-2.034,1.464l.877,1.553a10.225,10.225,0,0,0-1.823,2.3l-1.687-.479a11.821,11.821,0,0,0-.929,2.336l1.542.812a10.161,10.161,0,0,0-.281,2.936l-1.66.5c.038.413.094.83.173,1.247a12.464,12.464,0,0,0,.3,1.221l1.724-.149A10.344,10.344,0,0,0,401.5,51.4l-1.129,1.328a12.084,12.084,0,0,0,1.731,1.822l1.387-1.074a10.183,10.183,0,0,0,2.552,1.464L405.8,56.7a11.888,11.888,0,0,0,2.432.6l.606-1.7a10.2,10.2,0,0,0,2.283-.07Z" transform="translate(907.863 188.975)" fill="#72aed6" style="mix-blend-mode: multiply;isolation: isolate"/>
      <path id="Trazado_636141" data-name="Trazado 636141" d="M414.975,64.775a10.161,10.161,0,0,0-.351-2.878l1.682-.942a11.883,11.883,0,0,0-.979-2.287l-1.847.576a10.191,10.191,0,0,0-.847-1.179,9.768,9.768,0,0,0-1-1.05l.909-1.708a11.963,11.963,0,0,0-2.065-1.39L409.242,55.4a10.271,10.271,0,0,0-2.763-.884l-.155-1.9a11.987,11.987,0,0,0-2.492-.046l-.238,1.876a10.128,10.128,0,0,0-2.815.747l-1.131-1.478a12.029,12.029,0,0,0-2.123,1.317l.789,1.658a.378.378,0,0,1-.035.028,10.186,10.186,0,0,0-1.939,2.133l-1.694-.615a11.871,11.871,0,0,0-1.081,2.263l1.516.939a10.2,10.2,0,0,0-.492,2.9l-1.71.39a11.78,11.78,0,0,0,.307,2.495l1.742-.029a10.121,10.121,0,0,0,1.164,2.71l-1.214,1.239c.232.344.481.682.753,1.011a12.454,12.454,0,0,0,.851.925l1.44-.96a10.245,10.245,0,0,0,2.447,1.647l-.353,1.707a12.025,12.025,0,0,0,2.393.767l.7-1.609a10.176,10.176,0,0,0,2.942.059l.64,1.665a11.943,11.943,0,0,0,2.422-.64l-.286-1.782a10.113,10.113,0,0,0,2.457-1.506.221.221,0,0,1,.035-.028l1.482,1.085a11.985,11.985,0,0,0,1.69-1.841l-1.242-1.387a10,10,0,0,0,1.257-2.626l1.89.116a12.043,12.043,0,0,0,.419-2.457Zm-10.22,6.29a6.647,6.647,0,1,1,6.747-6.547A6.646,6.646,0,0,1,404.756,71.065Z" transform="translate(905.852 196.544)" fill="#fecb2f"/>
      <path id="Trazado_636142" data-name="Trazado 636142" d="M416.941,49.138a10.208,10.208,0,0,0,1.074-2.693l1.928-.017a11.849,11.849,0,0,0,.239-2.477l-1.9-.381a9.83,9.83,0,0,0-.175-1.442,10.03,10.03,0,0,0-.373-1.4l1.618-1.063a12.017,12.017,0,0,0-1.141-2.21l-1.8.7a10.194,10.194,0,0,0-2-2.1l.778-1.742a11.938,11.938,0,0,0-2.164-1.238l-1.109,1.531a10.211,10.211,0,0,0-2.829-.7l-.282-1.841a12.144,12.144,0,0,0-2.495.137l-.1,1.833a.245.245,0,0,1-.046.008,10.236,10.236,0,0,0-2.724.94l-1.192-1.354a11.812,11.812,0,0,0-2.034,1.464l.877,1.553a10.221,10.221,0,0,0-1.822,2.3l-1.689-.479a11.888,11.888,0,0,0-.929,2.334l1.541.813a10.163,10.163,0,0,0-.281,2.936l-1.658.5a11.947,11.947,0,0,0,.476,2.468l1.724-.149A10.216,10.216,0,0,0,399.815,50l-1.131,1.327a12.028,12.028,0,0,0,1.731,1.823l1.389-1.074a10.135,10.135,0,0,0,2.552,1.464l-.24,1.769a11.936,11.936,0,0,0,2.432.6l.606-1.7a10.177,10.177,0,0,0,2.878-.141.261.261,0,0,1,.043-.008l.779,1.662a11.8,11.8,0,0,0,2.366-.8l-.422-1.812a10.053,10.053,0,0,0,2.365-1.7l1.6,1.007a12.057,12.057,0,0,0,1.548-1.953Zm-11.987.608a6.647,6.647,0,1,1,9.063-2.5A6.646,6.646,0,0,1,404.954,49.746Z" transform="translate(907.192 188.421)" fill="#ef3c79"/>
      <path id="Trazado_636143" data-name="Trazado 636143" d="M438.137,55.265l2.21-1.145a16.688,16.688,0,0,0-1.263-3.269l-2.429.675a14.37,14.37,0,0,0-2.474-3.175l-.046-.045,1.277-2.227a16.7,16.7,0,0,0-2.822-2.059l-1.728,1.939a14.139,14.139,0,0,0-3.842-1.341l-.131-2.642a16.974,16.974,0,0,0-3.48-.2l-.418,2.636a14.257,14.257,0,0,0-3.941.935l-1.567-2.192a16.66,16.66,0,0,0-3.024,1.717l1.087,2.48a13.991,13.991,0,0,0-1.509,1.352,14.419,14.419,0,0,0-1.3,1.558l-2.512-1a16.625,16.625,0,0,0-1.608,3.079l2.246,1.492a14.123,14.123,0,0,0-.8,3.973l-2.618.511a16.65,16.65,0,0,0,.323,3.47l2.64.038a14.141,14.141,0,0,0,1.479,3.79l-1.879,1.8a16.784,16.784,0,0,0,2.161,2.746l2.178-1.356c.014.015.031.031.046.045a14.36,14.36,0,0,0,3.26,2.364l-.588,2.449a16.693,16.693,0,0,0,3.311,1.148l1.067-2.249a14.28,14.28,0,0,0,4.1.229l.806,2.315a16.56,16.56,0,0,0,3.418-.812l-.312-2.415a14.16,14.16,0,0,0,3.582-2.04l1.907,1.5a17.039,17.039,0,0,0,1.288-1.2c.412-.427.8-.874,1.152-1.327l-1.558-1.854a14.221,14.221,0,0,0,1.908-3.653l2.425.225a16.76,16.76,0,0,0,.693-3.443l-2.341-.725A14.414,14.414,0,0,0,438.137,55.265Zm-6.669,3.565a7.283,7.283,0,1,1-6.823-7.712A7.285,7.285,0,0,1,431.468,58.83Z" transform="translate(911.633 192.272)" fill="#1de3c9"/>
    </g>
  </g>
</svg>
