<svg xmlns="http://www.w3.org/2000/svg" width="150" height="150" viewBox="0 0 150 150">
  <g id="Grupo_911076" data-name="Grupo 911076" transform="translate(-656.579 18152.428)">
    <g id="Grupo_911064" data-name="Grupo 911064" transform="translate(-506 -225)">
      <circle id="Elipse_7222" data-name="Elipse 7222" cx="75" cy="75" r="75" transform="translate(1162.579 -17927.428)" fill="#fff"/>
      <g id="Grupo_911061" data-name="Grupo 911061" transform="translate(934.574 -18028.703)">
        <g id="Grupo_910097" data-name="Grupo 910097" transform="translate(252.311 134.609)">
          <rect id="Rectángulo_305267" data-name="Rectángulo 305267" width="94.596" height="79.152" fill="silver"/>
          <g id="Grupo_910096" data-name="Grupo 910096" transform="translate(5.022 4.291)">
            <rect id="Rectángulo_305268" data-name="Rectángulo 305268" width="84.902" height="58.737" transform="translate(0 10.468)" fill="#0b5999"/>
            <rect id="Rectángulo_305269" data-name="Rectángulo 305269" width="84.902" height="7.048" fill="#0b5999"/>
            <g id="Grupo_910095" data-name="Grupo 910095" transform="translate(4.226 12.896)">
              <rect id="Rectángulo_305270" data-name="Rectángulo 305270" width="5.376" height="1.753" transform="translate(2.165)" fill="#21cbae"/>
              <rect id="Rectángulo_305271" data-name="Rectángulo 305271" width="5.376" height="1.753" transform="translate(2.165 17.589)" fill="#21cbae"/>
              <rect id="Rectángulo_305272" data-name="Rectángulo 305272" width="5.376" height="1.753" transform="translate(5.671 2.805)" fill="#fecb2f"/>
              <rect id="Rectángulo_305273" data-name="Rectángulo 305273" width="5.376" height="1.753" transform="translate(11.865 2.805)" fill="#fecb2f"/>
              <rect id="Rectángulo_305274" data-name="Rectángulo 305274" width="5.376" height="1.753" transform="translate(18.06 2.805)" fill="#f9fafb"/>
              <rect id="Rectángulo_305275" data-name="Rectángulo 305275" width="5.377" height="1.753" transform="translate(24.253 2.805)" fill="#f9fafb"/>
              <rect id="Rectángulo_305276" data-name="Rectángulo 305276" width="9.466" height="1.753" transform="translate(31.033 2.805)" fill="#f9fafb"/>
              <rect id="Rectángulo_305277" data-name="Rectángulo 305277" width="5.376" height="1.753" transform="translate(8.359 5.727)" fill="#fecb2f"/>
              <rect id="Rectángulo_305278" data-name="Rectángulo 305278" width="5.376" height="1.753" transform="translate(14.553 5.727)" fill="#fecb2f"/>
              <rect id="Rectángulo_305279" data-name="Rectángulo 305279" width="5.376" height="1.753" transform="translate(20.748 5.727)" fill="#f9fafb"/>
              <rect id="Rectángulo_305280" data-name="Rectángulo 305280" width="5.376" height="1.753" transform="translate(26.943 5.727)" fill="#f9fafb"/>
              <rect id="Rectángulo_305281" data-name="Rectángulo 305281" width="5.376" height="1.753" transform="translate(8.359 11.717)" fill="#fecb2f"/>
              <rect id="Rectángulo_305282" data-name="Rectángulo 305282" width="5.376" height="1.753" transform="translate(14.553 11.717)" fill="#fecb2f"/>
              <rect id="Rectángulo_305283" data-name="Rectángulo 305283" width="5.376" height="1.753" transform="translate(20.748 11.717)" fill="#f9fafb"/>
              <rect id="Rectángulo_305284" data-name="Rectángulo 305284" width="5.376" height="1.753" transform="translate(26.943 11.717)" fill="#f9fafb"/>
              <rect id="Rectángulo_305285" data-name="Rectángulo 305285" width="9.466" height="1.753" transform="translate(33.721 11.717)" fill="#f9fafb"/>
              <rect id="Rectángulo_305286" data-name="Rectángulo 305286" width="5.376" height="1.753" transform="translate(5.671 14.726)" fill="#fecb2f"/>
              <rect id="Rectángulo_305287" data-name="Rectángulo 305287" width="5.376" height="1.753" transform="translate(11.865 14.726)" fill="#fecb2f"/>
              <rect id="Rectángulo_305288" data-name="Rectángulo 305288" width="5.376" height="1.753" transform="translate(18.06 14.726)" fill="#f9fafb"/>
              <rect id="Rectángulo_305289" data-name="Rectángulo 305289" width="5.377" height="1.753" transform="translate(24.253 14.726)" fill="#f9fafb"/>
              <rect id="Rectángulo_305290" data-name="Rectángulo 305290" width="5.376" height="1.753" transform="translate(11.047 8.649)" fill="#fecb2f"/>
              <rect id="Rectángulo_305291" data-name="Rectángulo 305291" width="5.377" height="1.753" transform="translate(17.241 8.649)" fill="#fecb2f"/>
              <rect id="Rectángulo_305292" data-name="Rectángulo 305292" width="5.376" height="1.753" transform="translate(23.436 8.649)" fill="#f9fafb"/>
              <rect id="Rectángulo_305293" data-name="Rectángulo 305293" width="5.376" height="1.753" transform="translate(29.631 8.649)" fill="#f9fafb"/>
              <rect id="Rectángulo_305294" data-name="Rectángulo 305294" width="9.466" height="1.753" transform="translate(36.409 8.649)" fill="#f9fafb"/>
              <rect id="Rectángulo_305295" data-name="Rectángulo 305295" width="5.376" height="1.753" transform="translate(2.165 43.244)" fill="#21cbae"/>
              <rect id="Rectángulo_305296" data-name="Rectángulo 305296" width="5.376" height="1.753" transform="translate(5.671 46.049)" fill="#fecb2f"/>
              <rect id="Rectángulo_305297" data-name="Rectángulo 305297" width="5.376" height="1.753" transform="translate(11.865 46.049)" fill="#fecb2f"/>
              <rect id="Rectángulo_305298" data-name="Rectángulo 305298" width="5.376" height="1.753" transform="translate(18.06 46.049)" fill="#f9fafb"/>
              <rect id="Rectángulo_305299" data-name="Rectángulo 305299" width="5.377" height="1.753" transform="translate(24.253 46.049)" fill="#f9fafb"/>
              <rect id="Rectángulo_305300" data-name="Rectángulo 305300" width="9.466" height="1.753" transform="translate(31.033 46.049)" fill="#f9fafb"/>
              <rect id="Rectángulo_305301" data-name="Rectángulo 305301" width="5.376" height="1.753" transform="translate(8.359 48.97)" fill="#fecb2f"/>
              <rect id="Rectángulo_305302" data-name="Rectángulo 305302" width="5.376" height="1.753" transform="translate(14.553 48.97)" fill="#fecb2f"/>
              <rect id="Rectángulo_305303" data-name="Rectángulo 305303" width="5.376" height="1.753" transform="translate(20.748 48.97)" fill="#f9fafb"/>
              <rect id="Rectángulo_305304" data-name="Rectángulo 305304" width="5.376" height="1.753" transform="translate(11.047 51.892)" fill="#fecb2f"/>
              <rect id="Rectángulo_305305" data-name="Rectángulo 305305" width="5.377" height="1.753" transform="translate(17.241 51.892)" fill="#fecb2f"/>
              <rect id="Rectángulo_305306" data-name="Rectángulo 305306" width="5.376" height="1.753" transform="translate(23.436 51.892)" fill="#f9fafb"/>
              <rect id="Rectángulo_305307" data-name="Rectángulo 305307" width="5.376" height="1.753" transform="translate(29.631 51.892)" fill="#f9fafb"/>
              <rect id="Rectángulo_305308" data-name="Rectángulo 305308" width="9.466" height="1.753" transform="translate(36.409 51.892)" fill="#f9fafb"/>
              <g id="Grupo_910094" data-name="Grupo 910094" transform="translate(0 20.083)">
                <path id="Trazado_633806" data-name="Trazado 633806" d="M265.4,177.1l-6.454-4.157v-3.289l6.454-4.112v3.1l-4.46,2.658,4.46,2.737Z" transform="translate(-258.95 -159.722)" fill="#f9fafb"/>
                <path id="Trazado_633807" data-name="Trazado 633807" d="M265.022,181.387l4.81-19.925h2.647l-4.821,19.925Z" transform="translate(-256.564 -161.327)" fill="#f9fafb"/>
                <path id="Trazado_633808" data-name="Trazado 633808" d="M279.487,180.267a3.747,3.747,0,0,1-3.222,1.38,3.816,3.816,0,0,1-3.282-1.47,7.026,7.026,0,0,1-1.088-4.23v-8.639q0-4.425,2.319-5.53a4.827,4.827,0,0,1,2.074-.405q4.179,0,4.179,5.271v2.726h-2.918v-2.534a6.583,6.583,0,0,0-.258-2.191.993.993,0,0,0-1.014-.659,1.052,1.052,0,0,0-1.047.7,5.825,5.825,0,0,0-.294,2.14v9.258a6.593,6.593,0,0,0,.281,2.287,1.1,1.1,0,0,0,2.05-.013,6.732,6.732,0,0,0,.281-2.308v-2.837h2.963v2.8A7.138,7.138,0,0,1,279.487,180.267Z" transform="translate(-253.863 -161.362)" fill="#f9fafb"/>
                <path id="Trazado_633809" data-name="Trazado 633809" d="M287.393,180.22a3.821,3.821,0,0,1-3.318,1.431,3.889,3.889,0,0,1-3.344-1.436,7.26,7.26,0,0,1-1.064-4.331v-9.067q0-5.451,4.448-5.452a3.811,3.811,0,0,1,3.305,1.386,6.862,6.862,0,0,1,1.008,4.066v9.067A7.4,7.4,0,0,1,287.393,180.22Zm-4.421-1.869a1.051,1.051,0,0,0,1.087.687,1.04,1.04,0,0,0,1.082-.7,7.819,7.819,0,0,0,.258-2.415v-9.235a5.872,5.872,0,0,0-.263-2.056,1.015,1.015,0,0,0-1.036-.648,1.1,1.1,0,0,0-1.082.648,5.027,5.027,0,0,0-.309,2.045v9.246A7.624,7.624,0,0,0,282.971,178.351Z" transform="translate(-250.809 -161.365)" fill="#f9fafb"/>
                <path id="Trazado_633810" data-name="Trazado 633810" d="M287.913,181.358V161.535h4.449a3.736,3.736,0,0,1,3.17,1.29,6.188,6.188,0,0,1,.986,3.8l.011,8.943a7.7,7.7,0,0,1-.99,4.392,3.74,3.74,0,0,1-3.279,1.4Zm3.019-2.343h.992a1.373,1.373,0,0,0,1.21-.54,3.686,3.686,0,0,0,.378-1.982l-.011-9.787a4.664,4.664,0,0,0-.377-2.2,1.377,1.377,0,0,0-1.3-.652h-.89Z" transform="translate(-247.569 -161.298)" fill="#f9fafb"/>
                <path id="Trazado_633811" data-name="Trazado 633811" d="M296.048,181.358V161.535h6.644v2.6h-3.626V169.9h3.445v2.546h-3.445v6.307h3.761v2.6Z" transform="translate(-244.372 -161.298)" fill="#f9fafb"/>
                <path id="Trazado_633812" data-name="Trazado 633812" d="M302.306,177.1V174l4.46-2.659-4.46-2.736v-3.065l6.465,4.123v3.3Z" transform="translate(-241.913 -159.722)" fill="#f9fafb"/>
              </g>
            </g>
          </g>
          <rect id="Rectángulo_305309" data-name="Rectángulo 305309" width="4.069" height="4.069" transform="translate(83.598 5.781)" fill="#ebebeb"/>
          <rect id="Rectángulo_305310" data-name="Rectángulo 305310" width="4.07" height="4.069" transform="translate(77.366 5.781)" fill="#ebebeb"/>
          <rect id="Rectángulo_305311" data-name="Rectángulo 305311" width="4.069" height="4.069" transform="translate(71.136 5.781)" fill="#ebebeb"/>
          <rect id="Rectángulo_305312" data-name="Rectángulo 305312" width="4.069" height="4.069" transform="translate(7.344 5.781)" fill="#ebebeb"/>
        </g>
        <path id="Trazado_633813" data-name="Trazado 633813" d="M331.8,191.145l-.9-.74a20.763,20.763,0,0,0,.9-1.988v-15.66A21.318,21.318,0,1,0,326.5,196.2l5.306,4.373Zm-19.834,3.911a14.493,14.493,0,1,1,14.494-14.494A14.493,14.493,0,0,1,311.969,195.057Z" transform="translate(15.056 9.671)" fill="#a5a6a7" style="mix-blend-mode: multiply;isolation: isolate"/>
        <path id="Trazado_633814" data-name="Trazado 633814" d="M339.943,202.258,324.26,189.336a21.361,21.361,0,1,0-4.41,5.789l15.469,12.746a3.6,3.6,0,0,0,5.068-.489l.046-.056A3.6,3.6,0,0,0,339.943,202.258Zm-34.619-8.273a14.493,14.493,0,1,1,14.492-14.492A14.493,14.493,0,0,1,305.324,193.986Z" transform="translate(12.444 9.25)" fill="#12263f"/>
      </g>
    </g>
  </g>
</svg>
