<svg xmlns="http://www.w3.org/2000/svg" width="330.598" height="287.414" viewBox="0 0 330.598 287.414">
  <g id="Grupo_911073" data-name="Grupo 911073" transform="translate(-3586.341 17292.266)">
    <g id="Grupo_911060" data-name="Grupo 911060" transform="translate(3357.151 -24524.775)">
      <g id="Grupo_880390" data-name="Grupo 880390" transform="translate(249.912 7232.511)">
        <g id="Rectángulo_293058" data-name="Rectángulo 293058" transform="translate(42.012 0)" fill="none" stroke="#21cbae" stroke-width="3">
          <rect width="216.588" height="266.73" rx="30" stroke="none"/>
          <rect x="1.5" y="1.5" width="213.588" height="263.73" rx="28.5" fill="none"/>
        </g>
        <g id="Grupo_2" data-name="Grupo 2" transform="translate(0 9.051)">
          <path id="Trazado_1" data-name="Trazado 1" d="M39.663-75.2-45.679,10.143q.593,3.661,1.533,7.194l91-91Q43.326-74.6,39.663-75.2Z" transform="translate(46.651 76.171)" fill="none" stroke="#ef3c79" stroke-miterlimit="10" stroke-width="1.078"/>
          <path id="Trazado_2" data-name="Trazado 2" d="M47.808-72.715l-91,91q.9,3.381,2.1,6.632L54.44-70.619Q51.194-71.819,47.808-72.715Z" transform="translate(45.7 75.22)" fill="none" stroke="#ef3c79" stroke-miterlimit="10" stroke-width="1.078"/>
          <path id="Trazado_3" data-name="Trazado 3" d="M85.766-48.491-18.971,56.246c1.327,1.577,2.712,3.1,4.165,4.564L90.33-44.326C88.869-45.778,87.343-47.164,85.766-48.491Z" transform="translate(36.431 65.951)" fill="none" stroke="#ef3c79" stroke-miterlimit="10" stroke-width="1.078"/>
          <path id="Trazado_4" data-name="Trazado 4" d="M78.482-54.647-25.128,48.963q1.8,2.543,3.8,4.928L83.41-50.847Q81.031-52.85,78.482-54.647Z" transform="translate(38.787 68.306)" fill="none" stroke="#ef3c79" stroke-miterlimit="10" stroke-width="1.078"/>
          <path id="Trazado_5" data-name="Trazado 5" d="M63.483-65.12-35.6,33.963c.928,1.948,1.947,3.844,3.035,5.694L69.176-62.085C67.326-63.173,65.431-64.192,63.483-65.12Z" transform="translate(42.794 72.314)" fill="none" stroke="#ef3c79" stroke-miterlimit="10" stroke-width="1.078"/>
          <path id="Trazado_6" data-name="Trazado 6" d="M71.058-60.2-30.684,41.538q1.6,2.727,3.43,5.3L76.356-56.773Q73.784-58.6,71.058-60.2Z" transform="translate(40.913 70.432)" fill="none" stroke="#ef3c79" stroke-miterlimit="10" stroke-width="1.078"/>
          <path id="Trazado_7" data-name="Trazado 7" d="M55.74-69.319-39.8,26.22q1.16,3.138,2.592,6.136L61.876-66.727Q58.878-68.154,55.74-69.319Z" transform="translate(44.401 73.921)" fill="none" stroke="#ef3c79" stroke-miterlimit="10" stroke-width="1.078"/>
          <path id="Trazado_8" data-name="Trazado 8" d="M-38.97-26.345,3.174-68.489A74.553,74.553,0,0,0-38.97-26.345Z" transform="translate(44.083 73.603)" fill="none" stroke="#ef3c79" stroke-miterlimit="10" stroke-width="1.078"/>
          <path id="Trazado_9" data-name="Trazado 9" d="M.91-70.753-41.233-28.609a73.7,73.7,0,0,0-3.652,12.38L13.291-74.4A73.722,73.722,0,0,0,.91-70.753Z" transform="translate(46.347 75.867)" fill="none" stroke="#ef3c79" stroke-miterlimit="10" stroke-width="1.078"/>
          <path id="Trazado_10" data-name="Trazado 10" d="M31.259-76.583-47.064,1.739a74.535,74.535,0,0,0,.855,7.874L39.133-75.729A74.556,74.556,0,0,0,31.259-76.583Z" transform="translate(47.181 76.7)" fill="none" stroke="#ef3c79" stroke-miterlimit="10" stroke-width="1.078"/>
          <path id="Trazado_11" data-name="Trazado 11" d="M27.095-76.773c-1.574,0-3.132.065-4.682.162l-69.5,69.5c-.1,1.55-.162,3.108-.162,4.682,0,1.373.043,2.736.117,4.091L31.187-76.656C29.832-76.729,28.468-76.773,27.095-76.773Z" transform="translate(47.253 76.773)" fill="none" stroke="#ef3c79" stroke-miterlimit="10" stroke-width="1.078"/>
          <path id="Trazado_12" data-name="Trazado 12" d="M12.485-75.211-45.691-17.035a74.38,74.38,0,0,0-1.3,10.029l69.5-69.5A74.48,74.48,0,0,0,12.485-75.211Z" transform="translate(47.153 76.673)" fill="none" stroke="#ef3c79" stroke-miterlimit="10" stroke-width="1.078"/>
          <path id="Trazado_13" data-name="Trazado 13" d="M138.718,23.422,52.941,109.2a74.421,74.421,0,0,0,7.824.9l78.858-78.857A74.377,74.377,0,0,0,138.718,23.422Z" transform="translate(8.913 38.432)" fill="none" stroke="#ef3c79" stroke-miterlimit="10" stroke-width="1.078"/>
          <path id="Trazado_14" data-name="Trazado 14" d="M144.633,40.766c0-1.571-.065-3.125-.161-4.671L65.614,114.952c1.546.1,3.1.161,4.671.161,1.345,0,2.68-.04,4.007-.111l70.231-70.23C144.593,43.446,144.633,42.11,144.633,40.766Z" transform="translate(4.063 33.583)" fill="none" stroke="#ef3c79" stroke-miterlimit="10" stroke-width="1.078"/>
          <path id="Trazado_15" data-name="Trazado 15" d="M149.9,50.152l-70.231,70.23a74.385,74.385,0,0,0,9.944-1.216L148.686,60.1A74.5,74.5,0,0,0,149.9,50.152Z" transform="translate(-1.316 28.204)" fill="none" stroke="#ef3c79" stroke-miterlimit="10" stroke-width="1.078"/>
          <path id="Trazado_16" data-name="Trazado 16" d="M154.85,66.26,95.779,125.331a73.75,73.75,0,0,0,12.11-3.382L151.468,78.37A73.887,73.887,0,0,0,154.85,66.26Z" transform="translate(-7.48 22.04)" fill="none" stroke="#ef3c79" stroke-miterlimit="10" stroke-width="1.078"/>
          <path id="Trazado_17" data-name="Trazado 17" d="M158.975,85.877,115.4,129.455A74.558,74.558,0,0,0,158.975,85.877Z" transform="translate(-14.987 14.533)" fill="none" stroke="#ef3c79" stroke-miterlimit="10" stroke-width="1.078"/>
          <path id="Trazado_18" data-name="Trazado 18" d="M132.708,11.837,41.357,103.188q3.51.959,7.151,1.577l85.777-85.776Q133.669,15.35,132.708,11.837Z" transform="translate(13.345 42.865)" fill="none" stroke="#ef3c79" stroke-miterlimit="10" stroke-width="1.078"/>
          <path id="Trazado_19" data-name="Trazado 19" d="M106.78-26.455,3.065,77.26c1.705,1.224,3.458,2.383,5.267,3.461l101.91-101.91C109.163-23,108-24.75,106.78-26.455Z" transform="translate(27.998 57.518)" fill="none" stroke="#ef3c79" stroke-miterlimit="10" stroke-width="1.078"/>
          <path id="Trazado_20" data-name="Trazado 20" d="M99.913-34.388-4.869,70.394q2.366,2.015,4.9,3.831L103.744-29.491Q101.928-32.021,99.913-34.388Z" transform="translate(31.034 60.554)" fill="none" stroke="#ef3c79" stroke-miterlimit="10" stroke-width="1.078"/>
          <path id="Trazado_21" data-name="Trazado 21" d="M126.486,1.157,30.676,96.966Q33.9,98.185,37.27,99.1L128.62,7.75Q127.7,4.388,126.486,1.157Z" transform="translate(17.433 46.952)" fill="none" stroke="#ef3c79" stroke-miterlimit="10" stroke-width="1.078"/>
          <path id="Trazado_22" data-name="Trazado 22" d="M92.911-41.745-12.225,63.391c1.451,1.461,2.973,2.851,4.541,4.187L97.1-37.2C95.762-38.772,94.372-40.293,92.911-41.745Z" transform="translate(33.849 63.369)" fill="none" stroke="#ef3c79" stroke-miterlimit="10" stroke-width="1.078"/>
          <path id="Trazado_23" data-name="Trazado 23" d="M120.081-8.746,20.773,90.561c1.988.963,4.031,1.829,6.113,2.615L122.7-2.633C121.91-4.715,121.044-6.758,120.081-8.746Z" transform="translate(21.222 50.742)" fill="none" stroke="#ef3c79" stroke-miterlimit="10" stroke-width="1.078"/>
          <path id="Trazado_24" data-name="Trazado 24" d="M113.507-17.923,11.6,83.986c1.84,1.1,3.726,2.125,5.665,3.063L116.57-12.258C115.631-14.2,114.6-16.083,113.507-17.923Z" transform="translate(24.733 54.253)" fill="none" stroke="#ef3c79" stroke-miterlimit="10" stroke-width="1.078"/>
        </g>
        <ellipse id="Elipse_4759" data-name="Elipse 4759" cx="125.008" cy="125.008" rx="125.008" ry="125.008" transform="translate(3.012 19.5)" fill="#0b5999"/>
        <g id="Grupo_91" data-name="Grupo 91" transform="translate(160.68 105.278)">
          <g id="Grupo_68" data-name="Grupo 68" transform="translate(65.582 0)">
            <g id="Grupo_67" data-name="Grupo 67" transform="translate(0)">
              <rect id="Rectángulo_193" data-name="Rectángulo 193" width="2.623" height="2.623" transform="translate(79.905 81.76) rotate(-44.999)" fill="#61c8af"/>
              <rect id="Rectángulo_194" data-name="Rectángulo 194" width="2.489" height="2.489" transform="translate(72.641 74.401) rotate(-45)" fill="#61c8af"/>
              <rect id="Rectángulo_195" data-name="Rectángulo 195" width="2.355" height="2.355" transform="translate(65.377 67.043) rotate(-45)" fill="#61c8af"/>
              <rect id="Rectángulo_196" data-name="Rectángulo 196" width="2.222" height="2.222" transform="matrix(0.707, -0.707, 0.707, 0.707, 58.113, 59.684)" fill="#61c8af"/>
              <rect id="Rectángulo_197" data-name="Rectángulo 197" width="2.088" height="2.088" transform="translate(50.849 52.326) rotate(-45)" fill="#61c8af"/>
              <rect id="Rectángulo_198" data-name="Rectángulo 198" width="1.955" height="1.955" transform="matrix(0.707, -0.707, 0.707, 0.707, 43.585, 44.967)" fill="#61c8af"/>
              <rect id="Rectángulo_199" data-name="Rectángulo 199" width="1.821" height="1.821" transform="translate(36.321 37.608) rotate(-45)" fill="#61c8af"/>
              <rect id="Rectángulo_200" data-name="Rectángulo 200" width="1.688" height="1.688" transform="translate(29.057 30.25) rotate(-45.001)" fill="#61c8af"/>
              <rect id="Rectángulo_201" data-name="Rectángulo 201" width="1.554" height="1.554" transform="translate(21.792 22.891) rotate(-45)" fill="#61c8af"/>
              <rect id="Rectángulo_202" data-name="Rectángulo 202" width="1.421" height="1.421" transform="matrix(0.707, -0.707, 0.707, 0.707, 14.528, 15.533)" fill="#61c8af"/>
              <rect id="Rectángulo_203" data-name="Rectángulo 203" width="1.287" height="1.287" transform="translate(7.264 8.174) rotate(-45)" fill="#61c8af"/>
              <rect id="Rectángulo_204" data-name="Rectángulo 204" width="1.154" height="1.154" transform="matrix(0.707, -0.707, 0.707, 0.707, 0, 0.816)" fill="#61c8af"/>
            </g>
          </g>
          <g id="Grupo_70" data-name="Grupo 70" transform="translate(59.62 5.962)">
            <g id="Grupo_69" data-name="Grupo 69" transform="translate(0 0)">
              <rect id="Rectángulo_205" data-name="Rectángulo 205" width="2.623" height="2.623" transform="translate(79.905 81.76) rotate(-44.999)" fill="#61c8af"/>
              <rect id="Rectángulo_206" data-name="Rectángulo 206" width="2.489" height="2.489" transform="translate(72.641 74.401) rotate(-45)" fill="#61c8af"/>
              <rect id="Rectángulo_207" data-name="Rectángulo 207" width="2.355" height="2.355" transform="translate(65.377 67.043) rotate(-44.999)" fill="#61c8af"/>
              <rect id="Rectángulo_208" data-name="Rectángulo 208" width="2.222" height="2.222" transform="translate(58.113 59.684) rotate(-45)" fill="#61c8af"/>
              <rect id="Rectángulo_209" data-name="Rectángulo 209" width="2.088" height="2.088" transform="translate(50.849 52.326) rotate(-45)" fill="#61c8af"/>
              <rect id="Rectángulo_210" data-name="Rectángulo 210" width="1.955" height="1.955" transform="translate(43.585 44.967) rotate(-45)" fill="#61c8af"/>
              <rect id="Rectángulo_211" data-name="Rectángulo 211" width="1.821" height="1.821" transform="translate(36.321 37.609) rotate(-45)" fill="#61c8af"/>
              <rect id="Rectángulo_212" data-name="Rectángulo 212" width="1.688" height="1.688" transform="translate(29.057 30.25) rotate(-45)" fill="#61c8af"/>
              <rect id="Rectángulo_213" data-name="Rectángulo 213" width="1.554" height="1.554" transform="translate(21.792 22.891) rotate(-45)" fill="#61c8af"/>
              <rect id="Rectángulo_214" data-name="Rectángulo 214" width="1.421" height="1.421" transform="translate(14.528 15.533) rotate(-45)" fill="#61c8af"/>
              <rect id="Rectángulo_215" data-name="Rectángulo 215" width="1.287" height="1.287" transform="translate(7.264 8.174) rotate(-45)" fill="#61c8af"/>
              <rect id="Rectángulo_216" data-name="Rectángulo 216" width="1.154" height="1.154" transform="matrix(0.707, -0.707, 0.707, 0.707, 0, 0.816)" fill="#61c8af"/>
            </g>
          </g>
          <g id="Grupo_72" data-name="Grupo 72" transform="translate(53.658 11.924)">
            <g id="Grupo_71" data-name="Grupo 71" transform="translate(0 0)">
              <rect id="Rectángulo_217" data-name="Rectángulo 217" width="2.623" height="2.623" transform="translate(79.905 81.76) rotate(-44.999)" fill="#61c8af"/>
              <rect id="Rectángulo_218" data-name="Rectángulo 218" width="2.489" height="2.489" transform="translate(72.641 74.401) rotate(-44.999)" fill="#61c8af"/>
              <rect id="Rectángulo_219" data-name="Rectángulo 219" width="2.355" height="2.355" transform="translate(65.377 67.043) rotate(-44.999)" fill="#61c8af"/>
              <rect id="Rectángulo_220" data-name="Rectángulo 220" width="2.222" height="2.222" transform="matrix(0.707, -0.707, 0.707, 0.707, 58.113, 59.684)" fill="#61c8af"/>
              <rect id="Rectángulo_221" data-name="Rectángulo 221" width="2.088" height="2.088" transform="translate(50.849 52.326) rotate(-44.999)" fill="#61c8af"/>
              <rect id="Rectángulo_222" data-name="Rectángulo 222" width="1.955" height="1.955" transform="matrix(0.707, -0.707, 0.707, 0.707, 43.585, 44.967)" fill="#61c8af"/>
              <rect id="Rectángulo_223" data-name="Rectángulo 223" width="1.821" height="1.821" transform="matrix(0.707, -0.707, 0.707, 0.707, 36.321, 37.608)" fill="#61c8af"/>
              <rect id="Rectángulo_224" data-name="Rectángulo 224" width="1.688" height="1.688" transform="translate(29.057 30.25) rotate(-44.999)" fill="#61c8af"/>
              <rect id="Rectángulo_225" data-name="Rectángulo 225" width="1.554" height="1.554" transform="translate(21.792 22.891) rotate(-45)" fill="#61c8af"/>
              <rect id="Rectángulo_226" data-name="Rectángulo 226" width="1.421" height="1.421" transform="translate(14.528 15.533) rotate(-44.998)" fill="#61c8af"/>
              <rect id="Rectángulo_227" data-name="Rectángulo 227" width="1.287" height="1.287" transform="translate(7.264 8.174) rotate(-45)" fill="#61c8af"/>
              <rect id="Rectángulo_228" data-name="Rectángulo 228" width="1.154" height="1.154" transform="matrix(0.707, -0.707, 0.707, 0.707, 0, 0.816)" fill="#61c8af"/>
            </g>
          </g>
          <g id="Grupo_74" data-name="Grupo 74" transform="translate(47.696 17.886)">
            <g id="Grupo_73" data-name="Grupo 73" transform="translate(0 0)">
              <rect id="Rectángulo_229" data-name="Rectángulo 229" width="2.623" height="2.623" transform="translate(79.905 81.76) rotate(-45.001)" fill="#61c8af"/>
              <rect id="Rectángulo_230" data-name="Rectángulo 230" width="2.489" height="2.489" transform="translate(72.641 74.401) rotate(-45.001)" fill="#61c8af"/>
              <rect id="Rectángulo_231" data-name="Rectángulo 231" width="2.355" height="2.355" transform="translate(65.377 67.043) rotate(-45)" fill="#61c8af"/>
              <rect id="Rectángulo_232" data-name="Rectángulo 232" width="2.222" height="2.222" transform="matrix(0.707, -0.707, 0.707, 0.707, 58.113, 59.684)" fill="#61c8af"/>
              <rect id="Rectángulo_233" data-name="Rectángulo 233" width="2.088" height="2.088" transform="translate(50.849 52.326) rotate(-45)" fill="#61c8af"/>
              <rect id="Rectángulo_234" data-name="Rectángulo 234" width="1.955" height="1.955" transform="matrix(0.707, -0.707, 0.707, 0.707, 43.585, 44.967)" fill="#61c8af"/>
              <rect id="Rectángulo_235" data-name="Rectángulo 235" width="1.821" height="1.821" transform="translate(36.321 37.608) rotate(-45)" fill="#61c8af"/>
              <rect id="Rectángulo_236" data-name="Rectángulo 236" width="1.688" height="1.688" transform="translate(29.056 30.25) rotate(-45.001)" fill="#61c8af"/>
              <rect id="Rectángulo_237" data-name="Rectángulo 237" width="1.554" height="1.554" transform="translate(21.792 22.891) rotate(-45)" fill="#61c8af"/>
              <rect id="Rectángulo_238" data-name="Rectángulo 238" width="1.421" height="1.421" transform="translate(14.528 15.533) rotate(-45)" fill="#61c8af"/>
              <rect id="Rectángulo_239" data-name="Rectángulo 239" width="1.287" height="1.287" transform="translate(7.264 8.174) rotate(-45)" fill="#61c8af"/>
              <rect id="Rectángulo_240" data-name="Rectángulo 240" width="1.154" height="1.154" transform="translate(0 0.816) rotate(-44.998)" fill="#61c8af"/>
            </g>
          </g>
          <g id="Grupo_76" data-name="Grupo 76" transform="translate(41.734 23.848)">
            <g id="Grupo_75" data-name="Grupo 75" transform="translate(0 0)">
              <rect id="Rectángulo_241" data-name="Rectángulo 241" width="2.623" height="2.623" transform="translate(79.905 81.76) rotate(-45.001)" fill="#61c8af"/>
              <rect id="Rectángulo_242" data-name="Rectángulo 242" width="2.489" height="2.489" transform="translate(72.641 74.401) rotate(-45.001)" fill="#61c8af"/>
              <rect id="Rectángulo_243" data-name="Rectángulo 243" width="2.355" height="2.355" transform="translate(65.377 67.043) rotate(-45)" fill="#61c8af"/>
              <rect id="Rectángulo_244" data-name="Rectángulo 244" width="2.222" height="2.222" transform="matrix(0.707, -0.707, 0.707, 0.707, 58.113, 59.684)" fill="#61c8af"/>
              <rect id="Rectángulo_245" data-name="Rectángulo 245" width="2.088" height="2.088" transform="translate(50.849 52.326) rotate(-45)" fill="#61c8af"/>
              <rect id="Rectángulo_246" data-name="Rectángulo 246" width="1.955" height="1.955" transform="translate(43.585 44.967) rotate(-45.001)" fill="#61c8af"/>
              <rect id="Rectángulo_247" data-name="Rectángulo 247" width="1.821" height="1.821" transform="translate(36.321 37.608) rotate(-45)" fill="#61c8af"/>
              <rect id="Rectángulo_248" data-name="Rectángulo 248" width="1.688" height="1.688" transform="translate(29.057 30.25) rotate(-45.001)" fill="#61c8af"/>
              <rect id="Rectángulo_249" data-name="Rectángulo 249" width="1.554" height="1.554" transform="translate(21.792 22.891) rotate(-45)" fill="#61c8af"/>
              <rect id="Rectángulo_250" data-name="Rectángulo 250" width="1.421" height="1.421" transform="matrix(0.707, -0.707, 0.707, 0.707, 14.528, 15.533)" fill="#61c8af"/>
              <rect id="Rectángulo_251" data-name="Rectángulo 251" width="1.287" height="1.287" transform="translate(7.264 8.174) rotate(-45)" fill="#61c8af"/>
              <rect id="Rectángulo_252" data-name="Rectángulo 252" width="1.154" height="1.154" transform="matrix(0.707, -0.707, 0.707, 0.707, 0, 0.816)" fill="#61c8af"/>
            </g>
          </g>
          <g id="Grupo_78" data-name="Grupo 78" transform="translate(35.772 29.81)">
            <g id="Grupo_77" data-name="Grupo 77" transform="translate(0 0)">
              <rect id="Rectángulo_253" data-name="Rectángulo 253" width="2.623" height="2.623" transform="translate(79.905 81.76) rotate(-45)" fill="#61c8af"/>
              <rect id="Rectángulo_254" data-name="Rectángulo 254" width="2.489" height="2.489" transform="translate(72.641 74.401) rotate(-45)" fill="#61c8af"/>
              <rect id="Rectángulo_255" data-name="Rectángulo 255" width="2.355" height="2.355" transform="translate(65.377 67.043) rotate(-45.001)" fill="#61c8af"/>
              <rect id="Rectángulo_256" data-name="Rectángulo 256" width="2.222" height="2.222" transform="matrix(0.707, -0.707, 0.707, 0.707, 58.113, 59.684)" fill="#61c8af"/>
              <rect id="Rectángulo_257" data-name="Rectángulo 257" width="2.088" height="2.088" transform="matrix(0.707, -0.707, 0.707, 0.707, 50.849, 52.326)" fill="#61c8af"/>
              <rect id="Rectángulo_258" data-name="Rectángulo 258" width="1.955" height="1.955" transform="matrix(0.707, -0.707, 0.707, 0.707, 43.585, 44.967)" fill="#61c8af"/>
              <rect id="Rectángulo_259" data-name="Rectángulo 259" width="1.821" height="1.821" transform="translate(36.321 37.608) rotate(-45)" fill="#61c8af"/>
              <rect id="Rectángulo_260" data-name="Rectángulo 260" width="1.688" height="1.688" transform="translate(29.057 30.25) rotate(-45.001)" fill="#61c8af"/>
              <rect id="Rectángulo_261" data-name="Rectángulo 261" width="1.554" height="1.554" transform="translate(21.792 22.891) rotate(-45)" fill="#61c8af"/>
              <rect id="Rectángulo_262" data-name="Rectángulo 262" width="1.421" height="1.421" transform="matrix(0.707, -0.707, 0.707, 0.707, 14.528, 15.533)" fill="#61c8af"/>
              <rect id="Rectángulo_263" data-name="Rectángulo 263" width="1.287" height="1.287" transform="translate(7.264 8.174) rotate(-45)" fill="#61c8af"/>
              <rect id="Rectángulo_264" data-name="Rectángulo 264" width="1.154" height="1.154" transform="matrix(0.707, -0.707, 0.707, 0.707, 0, 0.816)" fill="#61c8af"/>
            </g>
          </g>
          <g id="Grupo_80" data-name="Grupo 80" transform="translate(29.81 35.772)">
            <g id="Grupo_79" data-name="Grupo 79" transform="translate(0 0)">
              <rect id="Rectángulo_265" data-name="Rectángulo 265" width="2.623" height="2.623" transform="translate(79.905 81.76) rotate(-44.999)" fill="#61c8af"/>
              <rect id="Rectángulo_266" data-name="Rectángulo 266" width="2.489" height="2.489" transform="translate(72.641 74.401) rotate(-45)" fill="#61c8af"/>
              <rect id="Rectángulo_267" data-name="Rectángulo 267" width="2.355" height="2.355" transform="translate(65.377 67.043) rotate(-44.999)" fill="#61c8af"/>
              <rect id="Rectángulo_268" data-name="Rectángulo 268" width="2.222" height="2.222" transform="translate(58.113 59.684) rotate(-45)" fill="#61c8af"/>
              <rect id="Rectángulo_269" data-name="Rectángulo 269" width="2.088" height="2.088" transform="translate(50.849 52.326) rotate(-44.999)" fill="#61c8af"/>
              <rect id="Rectángulo_270" data-name="Rectángulo 270" width="1.955" height="1.955" transform="matrix(0.707, -0.707, 0.707, 0.707, 43.585, 44.967)" fill="#61c8af"/>
              <rect id="Rectángulo_271" data-name="Rectángulo 271" width="1.821" height="1.821" transform="matrix(0.707, -0.707, 0.707, 0.707, 36.321, 37.608)" fill="#61c8af"/>
              <rect id="Rectángulo_272" data-name="Rectángulo 272" width="1.688" height="1.688" transform="translate(29.056 30.25) rotate(-45.001)" fill="#61c8af"/>
              <rect id="Rectángulo_273" data-name="Rectángulo 273" width="1.554" height="1.554" transform="translate(21.792 22.891) rotate(-45)" fill="#61c8af"/>
              <rect id="Rectángulo_274" data-name="Rectángulo 274" width="1.421" height="1.421" transform="translate(14.528 15.533) rotate(-45.002)" fill="#61c8af"/>
              <rect id="Rectángulo_275" data-name="Rectángulo 275" width="1.287" height="1.287" transform="translate(7.264 8.174) rotate(-45)" fill="#61c8af"/>
              <rect id="Rectángulo_276" data-name="Rectángulo 276" width="1.154" height="1.154" transform="matrix(0.707, -0.707, 0.707, 0.707, 0, 0.816)" fill="#61c8af"/>
            </g>
          </g>
          <g id="Grupo_82" data-name="Grupo 82" transform="translate(23.848 41.734)">
            <g id="Grupo_81" data-name="Grupo 81" transform="translate(0 0)">
              <rect id="Rectángulo_277" data-name="Rectángulo 277" width="2.623" height="2.623" transform="translate(79.905 81.76) rotate(-44.999)" fill="#61c8af"/>
              <rect id="Rectángulo_278" data-name="Rectángulo 278" width="2.489" height="2.489" transform="translate(72.641 74.401) rotate(-45)" fill="#61c8af"/>
              <rect id="Rectángulo_279" data-name="Rectángulo 279" width="2.355" height="2.355" transform="translate(65.377 67.043) rotate(-44.999)" fill="#61c8af"/>
              <rect id="Rectángulo_280" data-name="Rectángulo 280" width="2.222" height="2.222" transform="translate(58.113 59.684) rotate(-45)" fill="#61c8af"/>
              <rect id="Rectángulo_281" data-name="Rectángulo 281" width="2.088" height="2.088" transform="translate(50.849 52.326) rotate(-44.999)" fill="#61c8af"/>
              <rect id="Rectángulo_282" data-name="Rectángulo 282" width="1.955" height="1.955" transform="translate(43.585 44.967) rotate(-45)" fill="#61c8af"/>
              <rect id="Rectángulo_283" data-name="Rectángulo 283" width="1.821" height="1.821" transform="matrix(0.707, -0.707, 0.707, 0.707, 36.321, 37.608)" fill="#61c8af"/>
              <rect id="Rectángulo_284" data-name="Rectángulo 284" width="1.688" height="1.688" transform="translate(29.057 30.25) rotate(-45)" fill="#61c8af"/>
              <rect id="Rectángulo_285" data-name="Rectángulo 285" width="1.554" height="1.554" transform="translate(21.792 22.891) rotate(-45)" fill="#61c8af"/>
              <rect id="Rectángulo_286" data-name="Rectángulo 286" width="1.421" height="1.421" transform="translate(14.528 15.533) rotate(-45)" fill="#61c8af"/>
              <rect id="Rectángulo_287" data-name="Rectángulo 287" width="1.287" height="1.287" transform="translate(7.264 8.174) rotate(-45)" fill="#61c8af"/>
              <rect id="Rectángulo_288" data-name="Rectángulo 288" width="1.154" height="1.154" transform="matrix(0.707, -0.707, 0.707, 0.707, 0, 0.816)" fill="#61c8af"/>
            </g>
          </g>
          <g id="Grupo_84" data-name="Grupo 84" transform="translate(17.886 47.696)">
            <g id="Grupo_83" data-name="Grupo 83" transform="translate(0 0)">
              <rect id="Rectángulo_289" data-name="Rectángulo 289" width="2.623" height="2.623" transform="translate(79.905 81.76) rotate(-44.999)" fill="#61c8af"/>
              <rect id="Rectángulo_290" data-name="Rectángulo 290" width="2.489" height="2.489" transform="translate(72.641 74.401) rotate(-44.999)" fill="#61c8af"/>
              <rect id="Rectángulo_291" data-name="Rectángulo 291" width="2.355" height="2.355" transform="translate(65.377 67.043) rotate(-44.999)" fill="#61c8af"/>
              <rect id="Rectángulo_292" data-name="Rectángulo 292" width="2.222" height="2.222" transform="matrix(0.707, -0.707, 0.707, 0.707, 58.113, 59.684)" fill="#61c8af"/>
              <rect id="Rectángulo_293" data-name="Rectángulo 293" width="2.088" height="2.088" transform="translate(50.849 52.326) rotate(-44.999)" fill="#61c8af"/>
              <rect id="Rectángulo_294" data-name="Rectángulo 294" width="1.955" height="1.955" transform="matrix(0.707, -0.707, 0.707, 0.707, 43.585, 44.967)" fill="#61c8af"/>
              <rect id="Rectángulo_295" data-name="Rectángulo 295" width="1.821" height="1.821" transform="matrix(0.707, -0.707, 0.707, 0.707, 36.321, 37.608)" fill="#61c8af"/>
              <rect id="Rectángulo_296" data-name="Rectángulo 296" width="1.688" height="1.688" transform="translate(29.057 30.25) rotate(-44.999)" fill="#61c8af"/>
              <rect id="Rectángulo_297" data-name="Rectángulo 297" width="1.554" height="1.554" transform="matrix(0.707, -0.707, 0.707, 0.707, 21.792, 22.891)" fill="#61c8af"/>
              <rect id="Rectángulo_298" data-name="Rectángulo 298" width="1.421" height="1.421" transform="translate(14.528 15.533) rotate(-44.998)" fill="#61c8af"/>
              <rect id="Rectángulo_299" data-name="Rectángulo 299" width="1.287" height="1.287" transform="translate(7.264 8.174) rotate(-44.998)" fill="#61c8af"/>
              <rect id="Rectángulo_300" data-name="Rectángulo 300" width="1.154" height="1.154" transform="translate(0 0.816) rotate(-44.998)" fill="#61c8af"/>
            </g>
          </g>
          <g id="Grupo_86" data-name="Grupo 86" transform="translate(11.924 53.658)">
            <g id="Grupo_85" data-name="Grupo 85" transform="translate(0 0)">
              <rect id="Rectángulo_301" data-name="Rectángulo 301" width="2.623" height="2.623" transform="matrix(0.707, -0.707, 0.707, 0.707, 79.905, 81.76)" fill="#61c8af"/>
              <rect id="Rectángulo_302" data-name="Rectángulo 302" width="2.489" height="2.489" transform="translate(72.641 74.401) rotate(-45.001)" fill="#61c8af"/>
              <rect id="Rectángulo_303" data-name="Rectángulo 303" width="2.355" height="2.355" transform="translate(65.377 67.043) rotate(-45.001)" fill="#61c8af"/>
              <rect id="Rectángulo_304" data-name="Rectángulo 304" width="2.222" height="2.222" transform="matrix(0.707, -0.707, 0.707, 0.707, 58.113, 59.684)" fill="#61c8af"/>
              <rect id="Rectángulo_305" data-name="Rectángulo 305" width="2.088" height="2.088" transform="translate(50.849 52.326) rotate(-45)" fill="#61c8af"/>
              <rect id="Rectángulo_306" data-name="Rectángulo 306" width="1.955" height="1.955" transform="translate(43.585 44.967) rotate(-45.001)" fill="#61c8af"/>
              <rect id="Rectángulo_307" data-name="Rectángulo 307" width="1.821" height="1.821" transform="translate(36.321 37.609) rotate(-45)" fill="#61c8af"/>
              <rect id="Rectángulo_308" data-name="Rectángulo 308" width="1.688" height="1.688" transform="translate(29.057 30.25) rotate(-45.001)" fill="#61c8af"/>
              <rect id="Rectángulo_309" data-name="Rectángulo 309" width="1.554" height="1.554" transform="translate(21.792 22.891) rotate(-45)" fill="#61c8af"/>
              <rect id="Rectángulo_310" data-name="Rectángulo 310" width="1.421" height="1.421" transform="translate(14.528 15.533) rotate(-45)" fill="#61c8af"/>
              <rect id="Rectángulo_311" data-name="Rectángulo 311" width="1.287" height="1.287" transform="translate(7.264 8.174) rotate(-45)" fill="#61c8af"/>
              <rect id="Rectángulo_312" data-name="Rectángulo 312" width="1.154" height="1.154" transform="translate(0 0.816) rotate(-45)" fill="#61c8af"/>
            </g>
          </g>
          <g id="Grupo_88" data-name="Grupo 88" transform="translate(5.962 59.62)">
            <g id="Grupo_87" data-name="Grupo 87" transform="translate(0 0)">
              <rect id="Rectángulo_313" data-name="Rectángulo 313" width="2.623" height="2.623" transform="translate(79.905 81.76) rotate(-45)" fill="#61c8af"/>
              <rect id="Rectángulo_314" data-name="Rectángulo 314" width="2.489" height="2.489" transform="translate(72.641 74.401) rotate(-45)" fill="#61c8af"/>
              <rect id="Rectángulo_315" data-name="Rectángulo 315" width="2.355" height="2.355" transform="translate(65.377 67.043) rotate(-45)" fill="#61c8af"/>
              <rect id="Rectángulo_316" data-name="Rectángulo 316" width="2.222" height="2.222" transform="matrix(0.707, -0.707, 0.707, 0.707, 58.113, 59.684)" fill="#61c8af"/>
              <rect id="Rectángulo_317" data-name="Rectángulo 317" width="2.088" height="2.088" transform="translate(50.849 52.326) rotate(-45.001)" fill="#61c8af"/>
              <rect id="Rectángulo_318" data-name="Rectángulo 318" width="1.955" height="1.955" transform="matrix(0.707, -0.707, 0.707, 0.707, 43.585, 44.967)" fill="#61c8af"/>
              <rect id="Rectángulo_319" data-name="Rectángulo 319" width="1.821" height="1.821" transform="translate(36.321 37.609) rotate(-45)" fill="#61c8af"/>
              <rect id="Rectángulo_320" data-name="Rectángulo 320" width="1.688" height="1.688" transform="translate(29.056 30.25) rotate(-45.001)" fill="#61c8af"/>
              <rect id="Rectángulo_321" data-name="Rectángulo 321" width="1.554" height="1.554" transform="translate(21.792 22.891) rotate(-45)" fill="#61c8af"/>
              <rect id="Rectángulo_322" data-name="Rectángulo 322" width="1.421" height="1.421" transform="matrix(0.707, -0.707, 0.707, 0.707, 14.528, 15.533)" fill="#61c8af"/>
              <rect id="Rectángulo_323" data-name="Rectángulo 323" width="1.287" height="1.287" transform="translate(7.264 8.174) rotate(-45)" fill="#61c8af"/>
              <rect id="Rectángulo_324" data-name="Rectángulo 324" width="1.154" height="1.154" transform="matrix(0.707, -0.707, 0.707, 0.707, 0, 0.816)" fill="#61c8af"/>
            </g>
          </g>
          <g id="Grupo_90" data-name="Grupo 90" transform="translate(0 65.582)">
            <g id="Grupo_89" data-name="Grupo 89" transform="translate(0 0)">
              <rect id="Rectángulo_325" data-name="Rectángulo 325" width="2.623" height="2.623" transform="translate(79.905 81.76) rotate(-45)" fill="#61c8af"/>
              <rect id="Rectángulo_326" data-name="Rectángulo 326" width="2.489" height="2.489" transform="translate(72.641 74.401) rotate(-45)" fill="#61c8af"/>
              <rect id="Rectángulo_327" data-name="Rectángulo 327" width="2.355" height="2.355" transform="translate(65.377 67.043) rotate(-45)" fill="#61c8af"/>
              <rect id="Rectángulo_328" data-name="Rectángulo 328" width="2.222" height="2.222" transform="translate(58.113 59.684) rotate(-45)" fill="#61c8af"/>
              <rect id="Rectángulo_329" data-name="Rectángulo 329" width="2.088" height="2.088" transform="translate(50.849 52.326) rotate(-45)" fill="#61c8af"/>
              <rect id="Rectángulo_330" data-name="Rectángulo 330" width="1.955" height="1.955" transform="translate(43.585 44.967) rotate(-45)" fill="#61c8af"/>
              <rect id="Rectángulo_331" data-name="Rectángulo 331" width="1.821" height="1.821" transform="matrix(0.707, -0.707, 0.707, 0.707, 36.321, 37.608)" fill="#61c8af"/>
              <rect id="Rectángulo_332" data-name="Rectángulo 332" width="1.688" height="1.688" transform="translate(29.057 30.25) rotate(-45.001)" fill="#61c8af"/>
              <rect id="Rectángulo_333" data-name="Rectángulo 333" width="1.554" height="1.554" transform="translate(21.792 22.891) rotate(-45.002)" fill="#61c8af"/>
              <rect id="Rectángulo_334" data-name="Rectángulo 334" width="1.421" height="1.421" transform="translate(14.528 15.533) rotate(-45.002)" fill="#61c8af"/>
              <rect id="Rectángulo_335" data-name="Rectángulo 335" width="1.287" height="1.287" transform="matrix(0.707, -0.707, 0.707, 0.707, 7.264, 8.174)" fill="#61c8af"/>
              <rect id="Rectángulo_336" data-name="Rectángulo 336" width="1.154" height="1.154" transform="matrix(0.707, -0.707, 0.707, 0.707, 0, 0.816)" fill="#61c8af"/>
            </g>
          </g>
        </g>
        <g id="Grupo_875935" data-name="Grupo 875935" transform="translate(0 173.701)">
          <g id="Grupo_4" data-name="Grupo 4">
            <rect id="Rectángulo_4" data-name="Rectángulo 4" width="2.623" height="2.623" fill="none" stroke="#fecb27" stroke-miterlimit="10" stroke-width="1.078"/>
            <rect id="Rectángulo_5" data-name="Rectángulo 5" width="2.623" height="2.623" transform="translate(20.044)" fill="none" stroke="#fecb27" stroke-miterlimit="10" stroke-width="1.078"/>
            <rect id="Rectángulo_6" data-name="Rectángulo 6" width="2.623" height="2.623" transform="translate(40.088)" fill="none" stroke="#fecb27" stroke-miterlimit="10" stroke-width="1.078"/>
            <rect id="Rectángulo_7" data-name="Rectángulo 7" width="2.623" height="2.623" transform="translate(60.131)" fill="none" stroke="#fecb27" stroke-miterlimit="10" stroke-width="1.078"/>
            <rect id="Rectángulo_8" data-name="Rectángulo 8" width="2.623" height="2.623" transform="translate(80.175)" fill="none" stroke="#fecb27" stroke-miterlimit="10" stroke-width="1.078"/>
            <rect id="Rectángulo_9" data-name="Rectángulo 9" width="2.623" height="2.623" transform="translate(100.219)" fill="none" stroke="#fecb27" stroke-miterlimit="10" stroke-width="1.078"/>
          </g>
          <g id="Grupo_5" data-name="Grupo 5" transform="translate(0 14.611)">
            <rect id="Rectángulo_10" data-name="Rectángulo 10" width="2.623" height="2.623" fill="none" stroke="#fecb27" stroke-miterlimit="10" stroke-width="1.078"/>
            <rect id="Rectángulo_11" data-name="Rectángulo 11" width="2.623" height="2.623" transform="translate(20.044)" fill="none" stroke="#fecb27" stroke-miterlimit="10" stroke-width="1.078"/>
            <rect id="Rectángulo_12" data-name="Rectángulo 12" width="2.623" height="2.623" transform="translate(40.088)" fill="none" stroke="#fecb27" stroke-miterlimit="10" stroke-width="1.078"/>
            <rect id="Rectángulo_13" data-name="Rectángulo 13" width="2.623" height="2.623" transform="translate(60.131)" fill="none" stroke="#fecb27" stroke-miterlimit="10" stroke-width="1.078"/>
            <rect id="Rectángulo_14" data-name="Rectángulo 14" width="2.623" height="2.623" transform="translate(80.175)" fill="none" stroke="#fecb27" stroke-miterlimit="10" stroke-width="1.078"/>
            <rect id="Rectángulo_15" data-name="Rectángulo 15" width="2.623" height="2.623" transform="translate(100.219)" fill="none" stroke="#fecb27" stroke-miterlimit="10" stroke-width="1.078"/>
          </g>
          <g id="Grupo_6" data-name="Grupo 6" transform="translate(0 29.223)">
            <rect id="Rectángulo_16" data-name="Rectángulo 16" width="2.623" height="2.623" fill="none" stroke="#fecb27" stroke-miterlimit="10" stroke-width="1.078"/>
            <rect id="Rectángulo_17" data-name="Rectángulo 17" width="2.623" height="2.623" transform="translate(20.044)" fill="none" stroke="#fecb27" stroke-miterlimit="10" stroke-width="1.078"/>
            <rect id="Rectángulo_18" data-name="Rectángulo 18" width="2.623" height="2.623" transform="translate(40.088)" fill="none" stroke="#fecb27" stroke-miterlimit="10" stroke-width="1.078"/>
            <rect id="Rectángulo_19" data-name="Rectángulo 19" width="2.623" height="2.623" transform="translate(60.131)" fill="none" stroke="#fecb27" stroke-miterlimit="10" stroke-width="1.078"/>
            <rect id="Rectángulo_20" data-name="Rectángulo 20" width="2.623" height="2.623" transform="translate(80.175)" fill="none" stroke="#fecb27" stroke-miterlimit="10" stroke-width="1.078"/>
            <rect id="Rectángulo_21" data-name="Rectángulo 21" width="2.623" height="2.623" transform="translate(100.219)" fill="none" stroke="#fecb27" stroke-miterlimit="10" stroke-width="1.078"/>
          </g>
          <g id="Grupo_7" data-name="Grupo 7" transform="translate(0 43.834)">
            <rect id="Rectángulo_22" data-name="Rectángulo 22" width="2.623" height="2.623" fill="none" stroke="#fecb27" stroke-miterlimit="10" stroke-width="1.078"/>
            <rect id="Rectángulo_23" data-name="Rectángulo 23" width="2.623" height="2.623" transform="translate(20.044)" fill="none" stroke="#fecb27" stroke-miterlimit="10" stroke-width="1.078"/>
            <rect id="Rectángulo_24" data-name="Rectángulo 24" width="2.623" height="2.623" transform="translate(40.088)" fill="none" stroke="#fecb27" stroke-miterlimit="10" stroke-width="1.078"/>
            <rect id="Rectángulo_25" data-name="Rectángulo 25" width="2.623" height="2.623" transform="translate(60.131)" fill="none" stroke="#fecb27" stroke-miterlimit="10" stroke-width="1.078"/>
            <rect id="Rectángulo_26" data-name="Rectángulo 26" width="2.623" height="2.623" transform="translate(80.175)" fill="none" stroke="#fecb27" stroke-miterlimit="10" stroke-width="1.078"/>
            <rect id="Rectángulo_27" data-name="Rectángulo 27" width="2.623" height="2.623" transform="translate(100.219)" fill="none" stroke="#fecb27" stroke-miterlimit="10" stroke-width="1.078"/>
          </g>
          <g id="Grupo_8" data-name="Grupo 8" transform="translate(0 58.445)">
            <rect id="Rectángulo_28" data-name="Rectángulo 28" width="2.623" height="2.623" fill="none" stroke="#fecb27" stroke-miterlimit="10" stroke-width="1.078"/>
            <rect id="Rectángulo_29" data-name="Rectángulo 29" width="2.623" height="2.623" transform="translate(20.044)" fill="none" stroke="#fecb27" stroke-width="1"/>
            <rect id="Rectángulo_30" data-name="Rectángulo 30" width="2.623" height="2.623" transform="translate(40.088)" fill="none" stroke="#fecb27" stroke-width="1"/>
            <rect id="Rectángulo_31" data-name="Rectángulo 31" width="2.623" height="2.623" transform="translate(60.131)" fill="none" stroke="#fecb27" stroke-miterlimit="10" stroke-width="1.078"/>
            <rect id="Rectángulo_32" data-name="Rectángulo 32" width="2.623" height="2.623" transform="translate(80.175)" fill="none" stroke="#fecb27" stroke-miterlimit="10" stroke-width="1.078"/>
            <rect id="Rectángulo_33" data-name="Rectángulo 33" width="2.623" height="2.623" transform="translate(100.219)" fill="none" stroke="#fecb27" stroke-miterlimit="10" stroke-width="1.078"/>
          </g>
          <g id="Grupo_9" data-name="Grupo 9" transform="translate(0 73.057)">
            <rect id="Rectángulo_34" data-name="Rectángulo 34" width="2.623" height="2.623" fill="none" stroke="#fecb27" stroke-miterlimit="10" stroke-width="1.078"/>
            <rect id="Rectángulo_35" data-name="Rectángulo 35" width="2.623" height="2.623" transform="translate(20.044)" fill="none" stroke="#fecb27" stroke-miterlimit="10" stroke-width="1.078"/>
            <rect id="Rectángulo_36" data-name="Rectángulo 36" width="2.623" height="2.623" transform="translate(40.088)" fill="none" stroke="#fecb27" stroke-miterlimit="10" stroke-width="1.078"/>
            <rect id="Rectángulo_37" data-name="Rectángulo 37" width="2.623" height="2.623" transform="translate(60.131)" fill="none" stroke="#fecb27" stroke-width="1"/>
            <rect id="Rectángulo_38" data-name="Rectángulo 38" width="2.623" height="2.623" transform="translate(80.175)" fill="none" stroke="#fecb27" stroke-miterlimit="10" stroke-width="1.078"/>
            <rect id="Rectángulo_39" data-name="Rectángulo 39" width="2.623" height="2.623" transform="translate(100.219)" fill="none" stroke="#fecb27" stroke-miterlimit="10" stroke-width="1.078"/>
          </g>
          <g id="Grupo_10" data-name="Grupo 10" transform="translate(0 87.668)">
            <rect id="Rectángulo_40" data-name="Rectángulo 40" width="2.623" height="2.623" fill="none" stroke="#fecb27" stroke-miterlimit="10" stroke-width="1.078"/>
            <rect id="Rectángulo_41" data-name="Rectángulo 41" width="2.623" height="2.623" transform="translate(20.044)" fill="none" stroke="#fecb27" stroke-miterlimit="10" stroke-width="1.078"/>
            <rect id="Rectángulo_42" data-name="Rectángulo 42" width="2.623" height="2.623" transform="translate(40.088)" fill="none" stroke="#fecb27" stroke-miterlimit="10" stroke-width="1.078"/>
            <rect id="Rectángulo_43" data-name="Rectángulo 43" width="2.623" height="2.623" transform="translate(60.131)" fill="none" stroke="#fecb27" stroke-miterlimit="10" stroke-width="1.078"/>
            <rect id="Rectángulo_44" data-name="Rectángulo 44" width="2.623" height="2.623" transform="translate(80.175)" fill="none" stroke="#fecb27" stroke-width="1"/>
            <rect id="Rectángulo_45" data-name="Rectángulo 45" width="2.623" height="2.623" transform="translate(100.219)" fill="none" stroke="#fecb27" stroke-miterlimit="10" stroke-width="1.078"/>
          </g>
        </g>
        <g id="Grupo_879273" data-name="Grupo 879273" transform="translate(39.287 5.266)">
          <path id="Trazado_34" data-name="Trazado 34" d="M693.431,390.082l-6.113,10.589h12.227Z" transform="translate(-687.318 -291.25)" fill="#fdfdfd"/>
          <path id="Trazado_35" data-name="Trazado 35" d="M693.431,361.354l-6.113,10.589h12.227Z" transform="translate(-687.318 -280.257)" fill="#fdfdfd"/>
          <path id="Trazado_36" data-name="Trazado 36" d="M693.431,332.626l-6.113,10.589h12.227Z" transform="translate(-687.318 -269.264)" fill="#fdfdfd"/>
          <path id="Trazado_37" data-name="Trazado 37" d="M695.022,245.931l-3.547,6.143h7.093Z" transform="translate(-648.844 -245.931)" fill="#f13b76"/>
        </g>
      </g>
    </g>
    <g id="Grupo_911065" data-name="Grupo 911065" transform="translate(3592.992 -17167.918)">
      <g id="Grupo_910295" data-name="Grupo 910295" transform="translate(-1498.816 -1925.393)">
        <path id="Trazado_634423" data-name="Trazado 634423" d="M1636.175,2080.772a37.264,37.264,0,0,0,36.8,56.628l.039-.006a36.863,36.863,0,0,0,5.053-1.125c32.652-7.919,55.241-25.79,121.77-17.613v-.006a79.624,79.624,0,0,0,39.765-4.237c40.011-14.944,60.731-58.151,46.269-96.494-10.271-27.24-35.529-44.7-63.641-47.171v-.005c-20.86-2.172-53.254,6.011-85.85,1.389-28.281-4.014-51.944-25.88-79.346-15.923-.726.229-1.454.481-2.177.756-23.048,8.607-35.22,32.841-27.195,54.137a39.046,39.046,0,0,0,1.746,3.935h-.006q18.277,35.7,6.761,65.734Zm0,0" transform="translate(-98.992 -49.333)" fill="#e7f1fb" fill-rule="evenodd"/>
        <path id="Trazado_634424" data-name="Trazado 634424" d="M1493.7,2092.4c11.44,40.8,39.038,87.053,80.2,138.974l.09-.011.039-.006a36.832,36.832,0,0,0,5.054-1.125c2.272-.554,4.5-1.153,6.688-1.791-9.011-52.688-32.64-95.039-72.993-134.893-7.175-7.087-26.087-26.143-19.079-1.148Zm0,0" transform="translate(0 -143.295)" fill="#fecb2f" fill-rule="evenodd"/>
        <path id="Trazado_634425" data-name="Trazado 634425" d="M1529.01,2130.232q39.944,50.17,79.24,137.01l.464-.123q-33.035-84.825-79.7-136.886Zm0,0" transform="translate(-27.417 -180.741)" fill="#d3a116" fill-rule="evenodd"/>
        <path id="Trazado_634426" data-name="Trazado 634426" d="M1539.034,2395.685c5.3,19.689,21.553,40.079,47.036,61.543a37.05,37.05,0,0,0,15.319,4.158c-1.847-29.535-17.189-50.6-47.154-67.7-5.143-2.933-18.671-10.88-15.2,2Zm0,0" transform="translate(-34.458 -372.971)" fill="#d3a116" fill-rule="evenodd"/>
        <path id="Trazado_634427" data-name="Trazado 634427" d="M1565.278,2412.978q28.124,22.6,52.447,66.221l.319.045q-19.276-43.5-52.766-66.266Zm0,0" transform="translate(-54.405 -391.138)" fill="#fecb2f" fill-rule="evenodd"/>
        <path id="Trazado_634428" data-name="Trazado 634428" d="M2454.363,2298.247a22.548,22.548,0,0,1,.739,8.037l3.268,1.008a1.984,1.984,0,0,1,1.31,2.479l-.414,1.349-.856,2.754-.414,1.343a1.986,1.986,0,0,1-2.479,1.3l-3.269-1.008a22.63,22.63,0,0,1-5.155,6.207l1.6,3.022a1.992,1.992,0,0,1-.829,2.681l-1.242.654-2.552,1.343-1.248.655a1.981,1.981,0,0,1-2.675-.829l-1.6-3.022a22.657,22.657,0,0,1-8.031.744l-1.013,3.263a1.984,1.984,0,0,1-2.479,1.31l-1.343-.415-2.754-.856-1.347-.414a1.985,1.985,0,0,1-1.305-2.479l1.013-3.269a22.574,22.574,0,0,1-6.213-5.154l-3.022,1.595a1.993,1.993,0,0,1-2.681-.828l-.655-1.243-1.343-2.552-.655-1.242a1.991,1.991,0,0,1,.829-2.681l3.022-1.6a22.52,22.52,0,0,1-.739-8.031l-3.269-1.013a1.994,1.994,0,0,1-1.31-2.48l.419-1.343.851-2.754.414-1.349a1.99,1.99,0,0,1,2.485-1.3l3.263,1.013a22.669,22.669,0,0,1,5.155-6.212l-1.595-3.023a1.984,1.984,0,0,1,.828-2.675l1.248-.661,2.546-1.343,1.249-.655a1.985,1.985,0,0,1,2.675.828l1.6,3.022a22.561,22.561,0,0,1,8.037-.739l1.008-3.269a1.994,1.994,0,0,1,2.479-1.31l1.349.42,2.753.852,1.343.414a1.99,1.99,0,0,1,1.3,2.486l-1.008,3.262a22.737,22.737,0,0,1,6.207,5.155l3.022-1.6a1.991,1.991,0,0,1,2.681.829l.655,1.248,1.344,2.546.655,1.248a1.982,1.982,0,0,1-.828,2.676Zm-4.584,49.1-1.176,2.764a1.97,1.97,0,0,1-2.58,1.042l-1.757-.744a10.613,10.613,0,0,1-3.174,2.384l.235,1.9a1.981,1.981,0,0,1-1.718,2.194l-2.983.364a1.973,1.973,0,0,1-2.194-1.713l-.229-1.9a10.552,10.552,0,0,1-3.649-1.555l-1.528,1.153a1.977,1.977,0,0,1-2.759-.392l-1.808-2.4a1.97,1.97,0,0,1,.386-2.754l1.528-1.153a10.585,10.585,0,0,1-.481-3.935l-1.758-.75a1.972,1.972,0,0,1-1.041-2.58l1.175-2.771a1.975,1.975,0,0,1,2.58-1.041l1.758.75a10.53,10.53,0,0,1,3.173-2.384l-.234-1.9a1.969,1.969,0,0,1,1.718-2.188l2.984-.369a1.981,1.981,0,0,1,2.193,1.718l.23,1.9a10.675,10.675,0,0,1,3.649,1.55l1.528-1.153a1.976,1.976,0,0,1,2.759.392l1.807,2.4a1.981,1.981,0,0,1-.386,2.759l-1.528,1.147a10.614,10.614,0,0,1,.481,3.94l1.757.744a1.976,1.976,0,0,1,1.041,2.586Zm-8.714-2.608a4.848,4.848,0,1,1-3.2-6.062,4.848,4.848,0,0,1,3.2,6.062Zm-19.595-9.57-.5,2.966a1.977,1.977,0,0,1-2.266,1.612l-1.886-.319a10.555,10.555,0,0,1-2.53,3.062l.672,1.791a1.979,1.979,0,0,1-1.159,2.535l-2.815,1.047a1.977,1.977,0,0,1-2.536-1.153l-.666-1.791a10.832,10.832,0,0,1-1.987-.146,10.318,10.318,0,0,1-1.925-.515l-1.214,1.478a1.982,1.982,0,0,1-2.776.263l-2.317-1.915a1.974,1.974,0,0,1-.263-2.77l1.214-1.478a10.652,10.652,0,0,1-1.387-3.716l-1.881-.313a1.983,1.983,0,0,1-1.618-2.273l.5-2.96a1.977,1.977,0,0,1,2.267-1.618l1.886.319a10.559,10.559,0,0,1,2.53-3.061l-.671-1.791a1.967,1.967,0,0,1,1.158-2.53l2.815-1.052a1.979,1.979,0,0,1,2.537,1.153l.664,1.791a10.872,10.872,0,0,1,1.988.146,10.5,10.5,0,0,1,1.925.515l1.215-1.478a1.981,1.981,0,0,1,2.776-.263l2.317,1.914a1.975,1.975,0,0,1,.263,2.77l-1.215,1.478a10.727,10.727,0,0,1,1.388,3.716l1.88.319a1.973,1.973,0,0,1,1.617,2.267Zm-9.29.616a4.848,4.848,0,1,1-3.2-6.062,4.847,4.847,0,0,1,3.2,6.062Zm35.976-26.591a16.425,16.425,0,1,1-1.159-12.52,16.365,16.365,0,0,1,1.159,12.52Zm-10.125,5.7a11.94,11.94,0,1,0-9.095.84,11.911,11.911,0,0,0,9.095-.84Zm0,0" transform="translate(-670.778 -289.974)" fill="#ef3c79" fill-rule="evenodd"/>
        <path id="Trazado_634429" data-name="Trazado 634429" d="M1607.334,1887.339H1798.79c9.263,0,17.122,7.588,16.841,16.839l-3.492,115.351a17.1,17.1,0,0,1-16.847,16.841H1610.833c-9.2,0-16.562-7.578-16.842-16.841l-3.5-115.351c-.279-9.261,7.579-16.839,16.841-16.839Zm0,9.194H1798.79a7.6,7.6,0,0,1,7.645,7.645l-3.5,115.351a7.845,7.845,0,0,1-7.645,7.64H1610.833a7.8,7.8,0,0,1-7.646-7.64l-3.492-115.351a7.583,7.583,0,0,1,7.64-7.645Zm0,0" transform="translate(-73.162 0)" fill="#21cbae" fill-rule="evenodd"/>
        <rect id="Rectángulo_305368" data-name="Rectángulo 305368" width="37.655" height="23.383" transform="translate(1611.273 2036.37)" fill="#47b29e"/>
        <path id="Trazado_634430" data-name="Trazado 634430" d="M1924.4,2561.144h20.261c1.013,0,1.595.873,1.841,1.841l2.245,9.011c.24.974-.84,1.842-1.842,1.842h-82.665c-1,0-2.087-.862-1.84-1.842l2.249-9.011c.241-.979.828-1.841,1.841-1.841Zm0,0" transform="translate(-275.474 -501.391)" fill="#21cbae" fill-rule="evenodd"/>
        <path id="Trazado_634431" data-name="Trazado 634431" d="M1833.264,1930.915a7.669,7.669,0,0,0-6.106-7.488l-.369-.067-.191-.029-.19-.022-.19-.017-.2-.011-.392-.012H1634.174l-.391.012-.191.011-.2.017-.191.022-.185.029a7.675,7.675,0,0,0-6.48,7.555l3.5,115.351a7.8,7.8,0,0,0,7.64,7.645h184.465a7.846,7.846,0,0,0,7.64-7.645Zm0,0" transform="translate(-99.991 -26.737)" fill="#deedff" fill-rule="evenodd"/>
        <path id="Trazado_634432" data-name="Trazado 634432" d="M1751.4,1957.765h-29.534l-9.2,9.2v42.121h38.73Zm0,0" transform="translate(-164.086 -52.405)" fill="#fff" fill-rule="evenodd"/>
        <path id="Trazado_634433" data-name="Trazado 634433" d="M1721.871,1957.765v9.2h-9.2Zm0,0" transform="translate(-164.086 -52.405)" fill="#21cbae" fill-rule="evenodd"/>
        <path id="Trazado_634434" data-name="Trazado 634434" d="M1751.4,2198.759h-29.534l-9.2,9.2v42.121h38.73Zm0,0" transform="translate(-164.086 -231.733)" fill="#fff" fill-rule="evenodd"/>
        <path id="Trazado_634435" data-name="Trazado 634435" d="M1721.871,2198.759v9.2h-9.2Zm0,0" transform="translate(-164.086 -231.733)" fill="#21cbae" fill-rule="evenodd"/>
        <path id="Trazado_634436" data-name="Trazado 634436" d="M1993.5,2198.759h-29.533l-9.2,9.2v42.121H1993.5Zm0,0" transform="translate(-344.227 -231.733)" fill="#fff" fill-rule="evenodd"/>
        <path id="Trazado_634437" data-name="Trazado 634437" d="M1963.962,2198.759v9.2h-9.2Zm0,0" transform="translate(-344.227 -231.733)" fill="#21cbae" fill-rule="evenodd"/>
        <path id="Trazado_634438" data-name="Trazado 634438" d="M2235.6,2198.759H2206.07l-9.2,9.2v42.121h38.73Zm0,0" transform="translate(-524.383 -231.733)" fill="#fff" fill-rule="evenodd"/>
        <path id="Trazado_634439" data-name="Trazado 634439" d="M2206.07,2198.759v9.2h-9.2Zm0,0" transform="translate(-524.383 -231.733)" fill="#21cbae" fill-rule="evenodd"/>
        <path id="Trazado_634440" data-name="Trazado 634440" d="M1993.5,1957.765h-29.533l-9.2,9.2v42.121H1993.5Zm0,0" transform="translate(-344.227 -52.405)" fill="#fff" fill-rule="evenodd"/>
        <path id="Trazado_634441" data-name="Trazado 634441" d="M1963.962,1957.765v9.2h-9.2Zm0,0" transform="translate(-344.227 -52.405)" fill="#21cbae" fill-rule="evenodd"/>
        <path id="Trazado_634442" data-name="Trazado 634442" d="M2235.6,1957.765h-29.534l-9.2,9.2v42.121h38.73Zm0,0" transform="translate(-524.383 -52.405)" fill="#fff" fill-rule="evenodd"/>
        <path id="Trazado_634443" data-name="Trazado 634443" d="M2206.064,1957.765v9.2h-9.2Zm0,0" transform="translate(-524.383 -52.405)" fill="#21cbae" fill-rule="evenodd"/>
        <path id="Trazado_634444" data-name="Trazado 634444" d="M2243.1,2263.048l.8-2.065-.011-1.92H2239l-3.19,2.631a.754.754,0,0,1-.47.168h-12.694l-.459,1.187Zm-24.4,9.017h20.915l2.916-7.534h-20.909Zm16.175-1.2h3.521a.741.741,0,0,0,0-1.483h-3.521a.741.741,0,0,0,0,1.483Zm3.566-13.219a.766.766,0,0,1,.3-.062h.638v-.571a2.1,2.1,0,0,0-.577-1.438c-.017-.005-.022-.017-.033-.028a2.165,2.165,0,0,0-.33-.269Zm-17.222,3.833.218-.565a.74.74,0,0,1,.711-.532h12.935l1.8-1.489v-10.533h-15.666Zm-1.556-6.392a2.131,2.131,0,0,0-.688.459,2.07,2.07,0,0,0-.61,1.466v11.837l1.3-3.352Zm3.442-1.152h11.994a.778.778,0,0,0,0-1.557H2223.1a.778.778,0,0,0,0,1.557Zm1.836-2.8h8.322a.778.778,0,1,0,0-1.557h-8.322a.778.778,0,0,0,0,1.557Zm-1.836,5.6h11.994a.778.778,0,0,0,0-1.557H2223.1a.778.778,0,0,0,0,1.557Zm15.335-3.084a3.512,3.512,0,0,1,1.377.856.269.269,0,0,1,.039.044,3.528,3.528,0,0,1,1,2.468v.571h3.778a.737.737,0,0,1,.734.739l.011,2.765a.934.934,0,0,1-.045.3l-4.505,11.625a.722.722,0,0,1-.414.47.592.592,0,0,1-.263.063h-22.527a.738.738,0,0,1-.739-.739v-15.794a3.527,3.527,0,0,1,1.046-2.513,3.486,3.486,0,0,1,1.735-.958v-5.474a1.263,1.263,0,0,1,1.26-1.259h16.253a1.263,1.263,0,0,1,1.259,1.259Zm0,0" transform="translate(-539.276 -267.491)" fill="#21cbae" fill-rule="evenodd"/>
        <path id="Trazado_634445" data-name="Trazado 634445" d="M2209.086,2025.232a.56.56,0,0,1-.319-.1.548.548,0,0,1-.219-.432v-22.847a.534.534,0,0,1,.381-.508l14.5-4.455a.534.534,0,0,1,.476.078.541.541,0,0,1,.213.431v1.976a.531.531,0,1,1-1.062,0v-1.254l-13.434,4.13v21.727l1.36-.42a.532.532,0,0,1,.666.353.526.526,0,0,1-.352.666l-2.049.632a.5.5,0,0,1-.156.022Zm0,0" transform="translate(-533.074 -81.5)" fill="#21cbae" fill-rule="evenodd"/>
        <path id="Trazado_634446" data-name="Trazado 634446" d="M2217.544,2030.985a.541.541,0,0,1-.531-.537v-22.841a.528.528,0,0,1,.375-.509l14.5-4.455a.534.534,0,0,1,.694.509v2.027a.535.535,0,0,1-1.069,0v-1.3L2218.082,2008v21.726l1.494-.458a.533.533,0,1,1,.313,1.019l-2.188.671a.486.486,0,0,1-.157.028Zm0,0" transform="translate(-539.373 -85.782)" fill="#21cbae" fill-rule="evenodd"/>
        <path id="Trazado_634447" data-name="Trazado 634447" d="M2225.993,2036.719a.54.54,0,0,1-.319-.1.547.547,0,0,1-.218-.43v-22.847a.54.54,0,0,1,.381-.509l14.5-4.456a.525.525,0,0,1,.47.084.52.52,0,0,1,.218.426v2a.535.535,0,1,1-1.069,0v-1.275l-13.426,4.131v21.727l9.694-2.984a.535.535,0,0,1,.313,1.024l-10.382,3.191a.532.532,0,0,1-.157.023Zm0,0" transform="translate(-545.656 -90.049)" fill="#21cbae" fill-rule="evenodd"/>
        <path id="Trazado_634448" data-name="Trazado 634448" d="M2234.347,2019.175c2.042,10.3,5.9,16.936,11.456,19.74a113.657,113.657,0,0,1,11.944-5.2c-6.178-3.676-9.542-9.939-10.018-18.653Zm11.456,20.865a.554.554,0,0,1-.229-.05c-6.095-2.933-10.254-10.024-12.364-21.083a.528.528,0,0,1,.364-.61l14.5-4.455a.532.532,0,0,1,.694.487c.336,9.179,3.9,15.594,10.589,19.058a.536.536,0,0,1,.285.537.523.523,0,0,1-.4.452c-2.328.6-6.766,2.491-13.2,5.614a.584.584,0,0,1-.235.05Zm0,0" transform="translate(-551.418 -94.114)" fill="#21cbae" fill-rule="evenodd"/>
        <path id="Trazado_634449" data-name="Trazado 634449" d="M2237.954,2033.261l-.314-1.019,14.042-4.331.319,1.018Zm0,0" transform="translate(-554.722 -104.602)" fill="#21cbae" fill-rule="evenodd"/>
        <path id="Trazado_634450" data-name="Trazado 634450" d="M2227.262,2040.6l-.3-1.024,2.379-.688.3,1.024Zm0,0" transform="translate(-546.779 -112.773)" fill="#21cbae" fill-rule="evenodd"/>
        <path id="Trazado_634451" data-name="Trazado 634451" d="M2218.82,2032.8l-.3-1.023,2.16-.627.3,1.024Zm0,0" transform="translate(-540.497 -107.011)" fill="#21cbae" fill-rule="evenodd"/>
        <path id="Trazado_634452" data-name="Trazado 634452" d="M2210.355,2026.74l-.3-1.029,2.166-.621.3,1.024Zm0,0" transform="translate(-534.198 -102.503)" fill="#21cbae" fill-rule="evenodd"/>
        <path id="Trazado_634453" data-name="Trazado 634453" d="M2269.688,2058.92a2.165,2.165,0,0,0-.784-1.1,1.115,1.115,0,0,0-.94-.2.835.835,0,0,0-.576.565,1.91,1.91,0,0,0,.14,1.231,2.129,2.129,0,0,0,.744,1.1,1.033,1.033,0,0,0,.9.157.893.893,0,0,0,.6-.588,1.7,1.7,0,0,0-.089-1.163Zm-2.16,4.549,1.427-.615a1.358,1.358,0,0,0,.537.626.894.894,0,0,0,.683.051.921.921,0,0,0,.633-.7,4.321,4.321,0,0,0-.28-2.031,1.717,1.717,0,0,1-1.186,1.13,2.311,2.311,0,0,1-1.9-.28,3.285,3.285,0,0,1-1.416-1.785,2.965,2.965,0,0,1-.034-2.272,2.326,2.326,0,0,1,1.556-1.326,2.7,2.7,0,0,1,2.356.391,6.051,6.051,0,0,1,1.976,3.029,5.567,5.567,0,0,1,.408,3.565,2.463,2.463,0,0,1-1.735,1.65,2.355,2.355,0,0,1-1.7-.078,3,3,0,0,1-1.321-1.355Zm0,0" transform="translate(-575.66 -125.615)" fill="#21cbae" fill-rule="evenodd"/>
        <path id="Trazado_634454" data-name="Trazado 634454" d="M1999.205,2050.7l5.742,5.742,5.743-5.742h-1.825a.868.868,0,0,1-.867-.867v-6.963h-6.1v6.963a.864.864,0,0,1-.862.867Zm5.742,7.83a.881.881,0,0,1-.61-.252l-7.83-7.831a.866.866,0,0,1,.61-1.477h3.05v-6.968a.863.863,0,0,1,.867-.862h7.83a.863.863,0,0,1,.863.862v6.968h3.05a.87.87,0,0,1,.8.532.861.861,0,0,1-.191.945l-7.829,7.831a.884.884,0,0,1-.611.252Zm0,0" transform="translate(-375.104 -114.449)" fill="#21cbae" fill-rule="evenodd"/>
        <path id="Trazado_634455" data-name="Trazado 634455" d="M1990.95,2028.325h-4.36V2026.6h4.36a5.8,5.8,0,0,0,.342-11.6l-.818-.05v-.817a5.412,5.412,0,0,0-10.337-2.256l-.576,1.264-.879-1.079a3.275,3.275,0,0,0-5.821,2.059v.8l-.794.084a5.8,5.8,0,0,0,.441,11.591h4.3v1.729h-4.3a7.531,7.531,0,0,1-1.31-14.948,4.995,4.995,0,0,1,7.948-3.253,7.14,7.14,0,0,1,13.018,3.235,7.532,7.532,0,0,1-1.215,14.966Zm0,0" transform="translate(-351.828 -89.026)" fill="#21cbae" fill-rule="evenodd"/>
        <path id="Trazado_634456" data-name="Trazado 634456" d="M1986.7,2240.095l-12.106,8.568a7.591,7.591,0,0,1-.755.47c-.756.431-.957.6-.957.968v16.65a1.3,1.3,0,0,0,1.3,1.3h24.727a1.3,1.3,0,0,0,1.3-1.3V2250.1c0-.358-.2-.526-.94-.951a9.031,9.031,0,0,1-.784-.487Zm12.207,29.393h-24.727a2.735,2.735,0,0,1-2.73-2.737V2250.1c0-1.248.934-1.78,1.679-2.211.218-.123.442-.252.643-.391l12.52-8.872a.722.722,0,0,1,.834.006l12.207,8.871a7.431,7.431,0,0,0,.655.408c.738.426,1.656.952,1.656,2.188v16.65a2.737,2.737,0,0,1-2.737,2.737Zm0,0" transform="translate(-356.647 -261.304)" fill="#21cbae" fill-rule="evenodd"/>
        <path id="Trazado_634457" data-name="Trazado 634457" d="M1983.844,2258.11h5.815l10.337-8.575c-1.9-1.56-8.669-6.329-11.406-8.26-.71-.5-1.292-.907-1.684-1.187-.391.274-.969.667-1.668,1.148-2.821,1.936-9.806,6.732-11.73,8.3Zm6.073,1.433h-6.33a.727.727,0,0,1-.459-.168l-11.142-9.245a.707.707,0,0,1-.235-.734c.117-.454.208-.778,12.677-9.342,1.014-.694,1.768-1.208,2.071-1.427a.722.722,0,0,1,.834.006c.3.217,1.057.755,2.082,1.478,12.146,8.558,12.223,8.849,12.341,9.285a.7.7,0,0,1-.235.734l-11.143,9.251a.72.72,0,0,1-.459.162Zm0,0" transform="translate(-356.85 -261.304)" fill="#21cbae" fill-rule="evenodd"/>
        <path id="Trazado_634458" data-name="Trazado 634458" d="M1974.406,2324.9a1.238,1.238,0,0,0,.66.185h24.727a1.245,1.245,0,0,0,.667-.185l-10.114-8.328h-5.825Zm25.387,1.617h-24.727a2.716,2.716,0,0,1-2.317-1.3.709.709,0,0,1,.151-.929l10.907-8.989a.759.759,0,0,1,.459-.162h6.33a.756.756,0,0,1,.459.162l10.907,8.989a.708.708,0,0,1,.152.929,2.719,2.719,0,0,1-2.323,1.3Zm0,0" transform="translate(-357.53 -318.336)" fill="#21cbae" fill-rule="evenodd"/>
        <path id="Trazado_634459" data-name="Trazado 634459" d="M1998.487,2271.019h6.33l6.739-5.591v-9.347a1.2,1.2,0,0,0-1.2-1.2h-17.411a1.2,1.2,0,0,0-1.2,1.2v9.347Zm0,0" transform="translate(-371.75 -273.497)" fill="#fff" fill-rule="evenodd"/>
        <path id="Trazado_634460" data-name="Trazado 634460" d="M1996.66,2268.219h5.815l6.285-5.21V2254a.483.483,0,0,0-.487-.481h-17.411a.49.49,0,0,0-.488.481v9.011Zm6.073,1.433h-6.33a.727.727,0,0,1-.46-.168l-6.738-5.586a.732.732,0,0,1-.258-.554V2254a1.913,1.913,0,0,1,1.915-1.914h17.411a1.914,1.914,0,0,1,1.915,1.914v9.347a.734.734,0,0,1-.258.554l-6.738,5.586a.725.725,0,0,1-.459.168Zm0,0" transform="translate(-369.666 -271.414)" fill="#21cbae" fill-rule="evenodd"/>
        <path id="Trazado_634461" data-name="Trazado 634461" d="M2015.723,2273.593c.291-.7.856-1.406,1.473-1.406.223,0,.4.084.425.331l-.705,1.924a1.468,1.468,0,0,1-.28.5c-.313.385-1.063.409-1.136-.094a3.284,3.284,0,0,1,.224-1.26Zm2.1,2.664a3.978,3.978,0,0,0,2.7-1.941c1.825-3.05.325-5.3-2.949-5.239a5.755,5.755,0,0,0-5.843,5.6,3.275,3.275,0,0,0,.862,2.385,3.721,3.721,0,0,0,2.843.952,5.649,5.649,0,0,0,3.615-1.232v-.632c-1.231,1.052-4.012,1.489-5.172.492a2.28,2.28,0,0,1-.7-2.148,4.517,4.517,0,0,1,5.216-4.025c2.216.329,1.987,3.3.465,4.572-.409.365-1.053.611-.818-.022l1.321-3.531-1.321-.14-.129.347a.856.856,0,0,0-.834-.43,2.974,2.974,0,0,0-2.6,1.812c-.705,1.365-.76,3.274.935,3.274a2.04,2.04,0,0,0,1.7-.879c-.084.459.173.783.711.783Zm0,0" transform="translate(-386.623 -284.057)" fill="#21cbae" fill-rule="evenodd"/>
        <path id="Trazado_634462" data-name="Trazado 634462" d="M1748.076,2251.964a1.442,1.442,0,0,0-1.438,1.438v21.7a2.435,2.435,0,0,1,1.724-.717h18.206V2253.4a1.441,1.441,0,0,0-1.437-1.438Zm-1.8,25.214a.357.357,0,0,1-.358-.358V2253.4a2.155,2.155,0,0,1,2.155-2.149h17.054a2.154,2.154,0,0,1,2.153,2.149v21.341a.355.355,0,0,1-.357.352h-18.565a1.724,1.724,0,0,0-1.724,1.724.357.357,0,0,1-.358.358Zm0,0" transform="translate(-188.825 -270.795)" fill="#21cbae" fill-rule="evenodd"/>
        <path id="Trazado_634463" data-name="Trazado 634463" d="M1754.16,2345.81h12.061a3.009,3.009,0,0,1-.023-3.448h-17.837a1.724,1.724,0,0,0,0,3.448h2.62v-1.086a.36.36,0,0,1,.358-.358h2.468a.356.356,0,0,1,.353.358Zm12.777.716H1753.8a.356.356,0,0,1-.353-.358v-1.086h-1.757v1.086a.356.356,0,0,1-.352.358h-2.983a2.438,2.438,0,0,1,0-4.875h18.569a.356.356,0,0,1,.325.213.353.353,0,0,1-.062.381,2.469,2.469,0,0,0-.033,3.644.359.359,0,0,1-.224.638Zm0,0" transform="translate(-188.825 -338.062)" fill="#21cbae" fill-rule="evenodd"/>
        <path id="Trazado_634464" data-name="Trazado 634464" d="M1788,2352.976H1775.7a.358.358,0,1,1,0-.716H1788a.358.358,0,0,1,0,.716Zm0,0" transform="translate(-210.715 -345.956)" fill="#21cbae" fill-rule="evenodd"/>
        <path id="Trazado_634465" data-name="Trazado 634465" d="M1775.537,2347.919h-16.571a.355.355,0,1,1,0-.711h16.571a.355.355,0,1,1,0,.711Zm0,0" transform="translate(-198.265 -342.197)" fill="#21cbae" fill-rule="evenodd"/>
        <path id="Trazado_634466" data-name="Trazado 634466" d="M1767.269,2355a.356.356,0,0,1,.219.073l.676.526v-2.625h-1.751v2.614l.632-.509a.378.378,0,0,1,.224-.078Zm-1.214,1.684a.384.384,0,0,1-.157-.033.36.36,0,0,1-.2-.325v-3.711a.36.36,0,0,1,.358-.358h2.467a.356.356,0,0,1,.353.358v3.711a.341.341,0,0,1-.2.319.364.364,0,0,1-.376-.034l-1.036-.8-.99.8a.377.377,0,0,1-.223.078Zm0,0" transform="translate(-203.54 -345.956)" fill="#21cbae" fill-rule="evenodd"/>
        <path id="Trazado_634467" data-name="Trazado 634467" d="M1762.578,2269.569h13.416v-3.448h-13.416Zm13.773.71h-14.131a.35.35,0,0,1-.352-.352v-4.164a.355.355,0,0,1,.352-.358h14.131a.36.36,0,0,1,.359.358v4.164a.355.355,0,0,1-.359.352Zm0,0" transform="translate(-200.69 -281.326)" fill="#21cbae" fill-rule="evenodd"/>
        <path id="Trazado_634468" data-name="Trazado 634468" d="M1753.3,2266.478a.358.358,0,0,1-.358-.358v-2.329a.356.356,0,1,1,.711,0v2.329a.356.356,0,0,1-.353.358Zm0,17.681a.353.353,0,0,1-.358-.353v-15.665a.356.356,0,1,1,.711,0v15.665a.351.351,0,0,1-.353.353Zm0,0" transform="translate(-194.049 -279.859)" fill="#21cbae" fill-rule="evenodd"/>
        <path id="Trazado_634469" data-name="Trazado 634469" d="M1782.918,2294.027h-7.242a.359.359,0,0,1,0-.717h7.242a.359.359,0,0,1,0,.717Zm0,0" transform="translate(-210.7 -302.091)" fill="#21cbae" fill-rule="evenodd"/>
        <path id="Trazado_634470" data-name="Trazado 634470" d="M1778.078,2299.608H1765.77a.358.358,0,0,1,0-.717h12.308a.358.358,0,0,1,0,.717Zm0,0" transform="translate(-203.329 -306.244)" fill="#21cbae" fill-rule="evenodd"/>
        <path id="Trazado_634471" data-name="Trazado 634471" d="M1729.757,2023.839a.42.42,0,0,0-.42.42v23.422a.419.419,0,0,0,.42.42h17.731a.416.416,0,0,0,.42-.42v-18.239l-5.6-5.6Zm17.731,25.308h-17.731a1.468,1.468,0,0,1-1.466-1.466V2024.26a1.468,1.468,0,0,1,1.466-1.467h12.766a.528.528,0,0,1,.37.15l5.91,5.91a.5.5,0,0,1,.152.37v18.458a1.464,1.464,0,0,1-1.467,1.466Zm0,0" transform="translate(-175.706 -100.794)" fill="#21cbae" fill-rule="evenodd"/>
        <path id="Trazado_634472" data-name="Trazado 634472" d="M1782.927,2024.571v3.7a.42.42,0,0,0,.42.425h3.7Zm5.383,5.165h-4.963a1.464,1.464,0,0,1-1.467-1.466v-4.964a.522.522,0,0,1,.89-.37l5.91,5.91a.516.516,0,0,1,.111.572.509.509,0,0,1-.481.318Zm0,0" transform="translate(-215.582 -100.786)" fill="#21cbae" fill-rule="evenodd"/>
        <path id="Trazado_634473" data-name="Trazado 634473" d="M1740.34,2061.811a.525.525,0,0,1-.521-.527.52.52,0,0,1,.521-.52h13.722a.52.52,0,0,1,.526.52.526.526,0,0,1-.526.527Zm0,0" transform="translate(-184.284 -129.048)" fill="#21cbae" fill-rule="evenodd"/>
        <path id="Trazado_634474" data-name="Trazado 634474" d="M1740.34,2048.315a.523.523,0,0,1,0-1.046h6.228a.523.523,0,1,1,0,1.046Zm0,0" transform="translate(-184.284 -119.007)" fill="#21cbae" fill-rule="evenodd"/>
        <path id="Trazado_634475" data-name="Trazado 634475" d="M1740.34,2073.293a.523.523,0,0,1,0-1.046h13.722a.523.523,0,1,1,0,1.046Zm0,0" transform="translate(-184.284 -137.594)" fill="#21cbae" fill-rule="evenodd"/>
        <path id="Trazado_634476" data-name="Trazado 634476" d="M1754.063,2084.8H1740.34a.524.524,0,0,1,0-1.047h13.722a.524.524,0,1,1,0,1.047Zm0,0" transform="translate(-184.284 -146.155)" fill="#21cbae" fill-rule="evenodd"/>
        <path id="Trazado_634477" data-name="Trazado 634477" d="M1754.063,2096.279H1740.34a.524.524,0,0,1,0-1.047h13.722a.524.524,0,1,1,0,1.047Zm0,0" transform="translate(-184.284 -154.697)" fill="#21cbae" fill-rule="evenodd"/>
        <path id="Trazado_634478" data-name="Trazado 634478" d="M1754.063,2107.787H1740.34a.524.524,0,0,1,0-1.047h13.722a.524.524,0,1,1,0,1.047Zm0,0" transform="translate(-184.284 -163.26)" fill="#21cbae" fill-rule="evenodd"/>
        <path id="Trazado_634479" data-name="Trazado 634479" d="M1763.6,2031.859h3.57a.425.425,0,0,0,.42-.426v-18.241l-5.6-5.6h-12.549a.416.416,0,0,0-.42.42v2.692h8.149a.527.527,0,0,1,.37.151l5.91,5.91a.5.5,0,0,1,.152.37Zm3.57,1.04h-4.092a.52.52,0,0,1-.526-.521v-15.026l-5.6-5.6H1748.5a.521.521,0,0,1-.521-.526v-3.212a1.465,1.465,0,0,1,1.467-1.466h12.767a.544.544,0,0,1,.369.15l5.91,5.91a.523.523,0,0,1,.151.369v18.459a1.468,1.468,0,0,1-1.466,1.466Zm0,0" transform="translate(-190.353 -88.704)" fill="#21cbae" fill-rule="evenodd"/>
        <path id="Trazado_634480" data-name="Trazado 634480" d="M1783.273,2015.6h3.566a.427.427,0,0,0,.426-.427v-18.239l-5.609-5.6h-12.547a.42.42,0,0,0-.419.42v2.693h8.154a.543.543,0,0,1,.369.15l5.91,5.91a.523.523,0,0,1,.151.369Zm3.566,1.041h-4.092a.519.519,0,0,1-.52-.521V2001.1l-5.6-5.6h-8.457a.526.526,0,0,1-.526-.526v-3.213a1.468,1.468,0,0,1,1.467-1.467h12.766a.529.529,0,0,1,.37.151l5.91,5.91a.506.506,0,0,1,.15.37v18.457a1.464,1.464,0,0,1-1.466,1.468Zm0,0" transform="translate(-204.987 -76.608)" fill="#21cbae" fill-rule="evenodd"/>
        <path id="Trazado_634481" data-name="Trazado 634481" d="M1802.589,2008.32v3.7a.424.424,0,0,0,.42.426h3.705Zm5.384,5.166h-4.964a1.468,1.468,0,0,1-1.467-1.467v-4.964a.526.526,0,0,1,.9-.369l5.91,5.91a.538.538,0,0,1,.112.57.526.526,0,0,1-.487.32Zm0,0" transform="translate(-230.213 -88.694)" fill="#21cbae" fill-rule="evenodd"/>
        <path id="Trazado_634482" data-name="Trazado 634482" d="M1822.278,1992.068v3.7a.421.421,0,0,0,.42.426h3.7Zm5.385,5.172H1822.7a1.469,1.469,0,0,1-1.465-1.472V1990.8a.521.521,0,0,1,.89-.37l5.91,5.91a.526.526,0,0,1-.37.9Zm0,0" transform="translate(-244.865 -76.601)" fill="#21cbae" fill-rule="evenodd"/>
        <path id="Trazado_634483" data-name="Trazado 634483" d="M1806.56,2045.56h-2.439a.523.523,0,0,1,0-1.047h2.439a.523.523,0,0,1,0,1.047Zm0,2.938h-2.087a.523.523,0,1,1,0-1.047h2.087a.523.523,0,0,1,0,1.047Zm0,2.944h-2.087a.523.523,0,1,1,0-1.046h2.087a.523.523,0,0,1,0,1.046Zm0,2.939h-2.087a.524.524,0,1,1,0-1.047h2.087a.524.524,0,0,1,0,1.047Zm0,2.943h-2.087a.523.523,0,1,1,0-1.047h2.087a.523.523,0,0,1,0,1.047Zm0,0" transform="translate(-231.745 -116.956)" fill="#21cbae" fill-rule="evenodd"/>
        <path id="Trazado_634484" data-name="Trazado 634484" d="M1826.223,2029.306h-2.435a.523.523,0,1,1,0-1.047h2.435a.523.523,0,1,1,0,1.047Zm0,2.939h-2.087a.523.523,0,0,1,0-1.047h2.087a.523.523,0,1,1,0,1.047Zm0,2.943h-2.087a.523.523,0,0,1,0-1.046h2.087a.523.523,0,1,1,0,1.046Zm0,2.939h-2.087a.523.523,0,0,1,0-1.047h2.087a.523.523,0,1,1,0,1.047Zm0,2.944h-2.087a.523.523,0,0,1,0-1.047h2.087a.523.523,0,1,1,0,1.047Zm0,0" transform="translate(-246.376 -104.861)" fill="#21cbae" fill-rule="evenodd"/>
        <path id="Trazado_634485" data-name="Trazado 634485" d="M1700.628,2438.357c-1.263.358-2.193.867-2.176,1.612a36.891,36.891,0,0,0,24.564,5.043l.039-.006a36.86,36.86,0,0,0,5.054-1.125c6.963-1.69,13.467-3.834,20.036-6.078a9.429,9.429,0,0,0-4.992-2.043c-13.9-1.321,13.443-7.986,8.49-18.52-1.294-2.759-6.336-1.153-9.968-.828-4.046.364-3.447-4.136-2.289-6.638,2.25-4.841,6.185-9.128,2.317-14.076-4.752-6.084-6.89,3.358-12.895-3.19-2.289-2.5-3.145-9.464-3.795-12.721-1.366-6.89-7.075-14.115-11.988-12.542-5.144,1.645-.264,10.382-1.495,14.674-2.48,8.642-8.294-3.934-12.234-.559-7.008,5.988,5.607,16.2,7.342,18.771,1.175,1.752,1.36,3.325-1.573,3.543-3.308.246-9.542-5.031-11.25-2.267-6.789,10.958,13.69,15.189,14.373,18.5.849,4.1-8.4-.644-12.6,1.024-6.766,2.681,4.3,8.832,10.013,11.558,9.873,4.724-2.54,5.183-4.971,5.865Zm0,0" transform="translate(-149.028 -356.944)" fill="#fecb2f" fill-rule="evenodd"/>
        <path id="Trazado_634486" data-name="Trazado 634486" d="M1722.758,2382.95a.752.752,0,0,0-1.46.358q3.559,14.4,6.044,30.967a95.339,95.339,0,0,1-12.677-9.671,35,35,0,0,1-7.68-9.593.748.748,0,1,0-1.337.672,36.349,36.349,0,0,0,7.992,10.024,99.681,99.681,0,0,0,13.993,10.544c.128.873.251,1.752.375,2.631q.781,5.633,1.438,11.507a.169.169,0,0,0,.011.073c.173,1.528.336,3.067.5,4.617-4.763-6.3-10.538-9.134-15.839-11.742-4.88-2.4-9.346-4.595-12.055-9.151a.749.749,0,1,0-1.287.767c2.943,4.948,7.594,7.231,12.682,9.733,5.715,2.815,12.005,5.91,16.808,13.471q.453,4.752.839,9.655a87.938,87.938,0,0,0-11.8-7.058,136.221,136.221,0,0,0-16.494-6.889.75.75,0,1,0-.5,1.416,134.35,134.35,0,0,1,16.314,6.817,85.626,85.626,0,0,1,12.626,7.684c.157,2.043.3,4.1.431,6.184.5-.112.99-.23,1.483-.364q-.2-3.148-.437-6.235a.2.2,0,0,0-.011-.078q-.168-2.2-.347-4.371a78.716,78.716,0,0,0,13.987-6.626,34.235,34.235,0,0,0,9.235-7.97.752.752,0,0,0-1.192-.918,32.652,32.652,0,0,1-8.838,7.612,76,76,0,0,1-13.327,6.347q-.234-2.762-.5-5.479a.317.317,0,0,0-.011-.1q-.353-3.626-.744-7.164,8.654-8.748,15.6-22.6a.751.751,0,1,0-1.343-.671,88.029,88.029,0,0,1-14.485,21.34q-.588-5.1-1.265-10.007-.209-1.485-.418-2.943c0-.028-.012-.051-.012-.073q-2.57-17.588-6.309-32.713Zm0,0" transform="translate(-155.151 -368.368)" fill="#d3a116" fill-rule="evenodd"/>
      </g>
      <g id="Grupo_910296" data-name="Grupo 910296" transform="translate(221.667 -31.779)">
        <path id="Trazado_634215" data-name="Trazado 634215" d="M472.334,1529.749c15.769,0,36.489-5.933,42.888-7.888a1.479,1.479,0,0,1,1.969,1.3v43.865c0,33.894-44.171,61.372-44.171,61.372s-44.172-27.478-44.172-61.372V1525.2a1.472,1.472,0,0,1,1.873-1.328C436.812,1525.329,456.568,1529.749,472.334,1529.749Z" transform="translate(-428.848 -1521.79)" fill="#fecb2f"/>
        <path id="Trazado_634216" data-name="Trazado 634216" d="M471.931,1535.4c11.831,0,26.54-3.88,33.928-6.941a3.318,3.318,0,0,1,4.7,2.781v35.2c0,29.641-38.629,53.671-38.629,53.671s-38.629-24.029-38.629-53.671v-33.671a3.3,3.3,0,0,1,4.493-2.859A124.16,124.16,0,0,0,471.931,1535.4Z" transform="translate(-427.759 -1520.226)" fill="#d4a720"/>
        <path id="Trazado_634217" data-name="Trazado 634217" d="M470.707,1542.821v65.8s-30.723-19.577-30.723-42.838v-26.664a2.4,2.4,0,0,1,3.28-2.075C449,1539.036,461.159,1542.821,470.707,1542.821Z" transform="translate(-426.127 -1518.099)" fill="#e8e8e8"/>
        <path id="Trazado_634218" data-name="Trazado 634218" d="M464.674,1542.834v65.8s31.818-19.577,31.818-42.838v-26.726a2.4,2.4,0,0,0-3.24-2.089C487.3,1538.951,474.342,1542.834,464.674,1542.834Z" transform="translate(-420.094 -1518.111)" fill="#f6f6f6"/>
        <path id="Trazado_634219" data-name="Trazado 634219" d="M455.076,1556.428c.478.344.935.7,1.385,1.068s.895.726,1.319,1.129.852.794,1.269,1.2c.207.205.422.408.62.617l.594.633c.4.421.786.851,1.171,1.284s.742.887,1.114,1.331.718.907,1.069,1.368c.177.229.351.462.521.694s.347.465.509.7c.331.476.655.956.979,1.436s.623.977.93,1.469.6.994.886,1.5l.425.759c.141.255.27.515.4.774s.269.515.4.778l.372.792c.245.529.477,1.068.7,1.61s.428,1.094.623,1.657c.1.28.19.561.282.852.046.147.093.284.137.438l.141.482-6.089-.366c.124-.228.229-.416.347-.617l.347-.588c.233-.39.464-.777.7-1.16l1.435-2.285,2.881-4.532q1.454-2.255,3-4.445c1.027-1.463,2.107-2.891,3.205-4.3s2.249-2.786,3.437-4.127,2.418-2.646,3.694-3.9a53.311,53.311,0,0,1,4.016-3.571c.7-.564,1.417-1.1,2.154-1.6s1.488-.992,2.262-1.434a.33.33,0,0,1,.378.536q-1,.853-1.924,1.766c-.62.607-1.216,1.238-1.8,1.879s-1.147,1.3-1.692,1.97-1.078,1.352-1.6,2.04c-1.045,1.378-2.036,2.8-2.985,4.242-.473.725-.942,1.451-1.4,2.184s-.906,1.473-1.348,2.217c-.888,1.483-1.735,2.993-2.573,4.506s-1.64,3.045-2.429,4.583q-.59,1.155-1.156,2.321c-.376.779-.732,1.567-1.074,2.361s-.676,1.589-1,2.386l-.48,1.195-.454,1.163-2.795,7.144-3.3-7.51-1.242-2.833c-.112-.242-.216-.488-.321-.733s-.22-.488-.322-.737l-.635-1.481-2.532-6c-.208-.506-.438-1-.645-1.512l-.317-.761-.328-.759c-.213-.509-.437-1.013-.642-1.531s-.443-1.017-.652-1.537-.422-1.039-.64-1.549-.424-1.036-.632-1.563-.433-1.063-.637-1.6-.412-1.085-.592-1.646a.344.344,0,0,1,.221-.435A.351.351,0,0,1,455.076,1556.428Z" transform="translate(-422.573 -1515.867)" fill="#fecb2f"/>
      </g>
    </g>
  </g>
</svg>
