<svg xmlns="http://www.w3.org/2000/svg" xmlns:xlink="http://www.w3.org/1999/xlink" width="324.938" height="275.859" viewBox="0 0 324.938 275.859">
  <defs>
    <linearGradient id="linear-gradient" x1="1.547" y1="-0.453" x2="1.146" y2="-0.125" gradientUnits="objectBoundingBox">
      <stop offset="0" stop-color="#a3d3ca"/>
      <stop offset="1" stop-color="#21cbae"/>
    </linearGradient>
  </defs>
  <g id="Grupo_911071" data-name="Grupo 911071" transform="translate(-3581.64 18090.191)">
    <g id="Grupo_911058" data-name="Grupo 911058" transform="translate(3346.79 -25322.701)">
      <g id="Grupo_880390" data-name="Grupo 880390" transform="translate(249.912 7232.511)">
        <g id="Rectángulo_293058" data-name="Rectángulo 293058" transform="translate(42.012 0)" fill="none" stroke="#dc4c79" stroke-width="3">
          <rect width="216.588" height="266.73" rx="30" stroke="none"/>
          <rect x="1.5" y="1.5" width="213.588" height="263.73" rx="28.5" fill="none"/>
        </g>
        <g id="Grupo_2" data-name="Grupo 2" transform="translate(0 9.051)">
          <path id="Trazado_1" data-name="Trazado 1" d="M39.663-75.2-45.679,10.143q.593,3.661,1.533,7.194l91-91Q43.326-74.6,39.663-75.2Z" transform="translate(46.651 76.171)" fill="none" stroke="#21cbae" stroke-miterlimit="10" stroke-width="1.078"/>
          <path id="Trazado_2" data-name="Trazado 2" d="M47.808-72.715l-91,91q.9,3.381,2.1,6.632L54.44-70.619Q51.194-71.819,47.808-72.715Z" transform="translate(45.7 75.22)" fill="none" stroke="#21cbae" stroke-miterlimit="10" stroke-width="1.078"/>
          <path id="Trazado_3" data-name="Trazado 3" d="M85.766-48.491-18.971,56.246c1.327,1.577,2.712,3.1,4.165,4.564L90.33-44.326C88.869-45.778,87.343-47.164,85.766-48.491Z" transform="translate(36.431 65.951)" fill="none" stroke="#21cbae" stroke-miterlimit="10" stroke-width="1.078"/>
          <path id="Trazado_4" data-name="Trazado 4" d="M78.482-54.647-25.128,48.963q1.8,2.543,3.8,4.928L83.41-50.847Q81.031-52.85,78.482-54.647Z" transform="translate(38.787 68.306)" fill="none" stroke="#21cbae" stroke-miterlimit="10" stroke-width="1.078"/>
          <path id="Trazado_5" data-name="Trazado 5" d="M63.483-65.12-35.6,33.963c.928,1.948,1.947,3.844,3.035,5.694L69.176-62.085C67.326-63.173,65.431-64.192,63.483-65.12Z" transform="translate(42.794 72.314)" fill="none" stroke="#21cbae" stroke-miterlimit="10" stroke-width="1.078"/>
          <path id="Trazado_6" data-name="Trazado 6" d="M71.058-60.2-30.684,41.538q1.6,2.727,3.43,5.3L76.356-56.773Q73.784-58.6,71.058-60.2Z" transform="translate(40.913 70.432)" fill="none" stroke="#21cbae" stroke-miterlimit="10" stroke-width="1.078"/>
          <path id="Trazado_7" data-name="Trazado 7" d="M55.74-69.319-39.8,26.22q1.16,3.138,2.592,6.136L61.876-66.727Q58.878-68.154,55.74-69.319Z" transform="translate(44.401 73.921)" fill="none" stroke="#21cbae" stroke-miterlimit="10" stroke-width="1.078"/>
          <path id="Trazado_8" data-name="Trazado 8" d="M-38.97-26.345,3.174-68.489A74.553,74.553,0,0,0-38.97-26.345Z" transform="translate(44.083 73.603)" fill="none" stroke="#21cbae" stroke-miterlimit="10" stroke-width="1.078"/>
          <path id="Trazado_9" data-name="Trazado 9" d="M.91-70.753-41.233-28.609a73.7,73.7,0,0,0-3.652,12.38L13.291-74.4A73.722,73.722,0,0,0,.91-70.753Z" transform="translate(46.347 75.867)" fill="none" stroke="#21cbae" stroke-miterlimit="10" stroke-width="1.078"/>
          <path id="Trazado_10" data-name="Trazado 10" d="M31.259-76.583-47.064,1.739a74.535,74.535,0,0,0,.855,7.874L39.133-75.729A74.556,74.556,0,0,0,31.259-76.583Z" transform="translate(47.181 76.7)" fill="none" stroke="#21cbae" stroke-miterlimit="10" stroke-width="1.078"/>
          <path id="Trazado_11" data-name="Trazado 11" d="M27.095-76.773c-1.574,0-3.132.065-4.682.162l-69.5,69.5c-.1,1.55-.162,3.108-.162,4.682,0,1.373.043,2.736.117,4.091L31.187-76.656C29.832-76.729,28.468-76.773,27.095-76.773Z" transform="translate(47.253 76.773)" fill="none" stroke="#21cbae" stroke-miterlimit="10" stroke-width="1.078"/>
          <path id="Trazado_12" data-name="Trazado 12" d="M12.485-75.211-45.691-17.035a74.38,74.38,0,0,0-1.3,10.029l69.5-69.5A74.48,74.48,0,0,0,12.485-75.211Z" transform="translate(47.153 76.673)" fill="none" stroke="#21cbae" stroke-miterlimit="10" stroke-width="1.078"/>
          <path id="Trazado_13" data-name="Trazado 13" d="M138.718,23.422,52.941,109.2a74.421,74.421,0,0,0,7.824.9l78.858-78.857A74.377,74.377,0,0,0,138.718,23.422Z" transform="translate(8.913 38.432)" fill="none" stroke="#21cbae" stroke-miterlimit="10" stroke-width="1.078"/>
          <path id="Trazado_14" data-name="Trazado 14" d="M144.633,40.766c0-1.571-.065-3.125-.161-4.671L65.614,114.952c1.546.1,3.1.161,4.671.161,1.345,0,2.68-.04,4.007-.111l70.231-70.23C144.593,43.446,144.633,42.11,144.633,40.766Z" transform="translate(4.063 33.583)" fill="none" stroke="#21cbae" stroke-miterlimit="10" stroke-width="1.078"/>
          <path id="Trazado_15" data-name="Trazado 15" d="M149.9,50.152l-70.231,70.23a74.385,74.385,0,0,0,9.944-1.216L148.686,60.1A74.5,74.5,0,0,0,149.9,50.152Z" transform="translate(-1.316 28.204)" fill="none" stroke="#21cbae" stroke-miterlimit="10" stroke-width="1.078"/>
          <path id="Trazado_16" data-name="Trazado 16" d="M154.85,66.26,95.779,125.331a73.75,73.75,0,0,0,12.11-3.382L151.468,78.37A73.887,73.887,0,0,0,154.85,66.26Z" transform="translate(-7.48 22.04)" fill="none" stroke="#21cbae" stroke-miterlimit="10" stroke-width="1.078"/>
          <path id="Trazado_17" data-name="Trazado 17" d="M158.975,85.877,115.4,129.455A74.558,74.558,0,0,0,158.975,85.877Z" transform="translate(-14.987 14.533)" fill="none" stroke="#21cbae" stroke-miterlimit="10" stroke-width="1.078"/>
          <path id="Trazado_18" data-name="Trazado 18" d="M132.708,11.837,41.357,103.188q3.51.959,7.151,1.577l85.777-85.776Q133.669,15.35,132.708,11.837Z" transform="translate(13.345 42.865)" fill="none" stroke="#21cbae" stroke-miterlimit="10" stroke-width="1.078"/>
          <path id="Trazado_19" data-name="Trazado 19" d="M106.78-26.455,3.065,77.26c1.705,1.224,3.458,2.383,5.267,3.461l101.91-101.91C109.163-23,108-24.75,106.78-26.455Z" transform="translate(27.998 57.518)" fill="none" stroke="#21cbae" stroke-miterlimit="10" stroke-width="1.078"/>
          <path id="Trazado_20" data-name="Trazado 20" d="M99.913-34.388-4.869,70.394q2.366,2.015,4.9,3.831L103.744-29.491Q101.928-32.021,99.913-34.388Z" transform="translate(31.034 60.554)" fill="none" stroke="#21cbae" stroke-miterlimit="10" stroke-width="1.078"/>
          <path id="Trazado_21" data-name="Trazado 21" d="M126.486,1.157,30.676,96.966Q33.9,98.185,37.27,99.1L128.62,7.75Q127.7,4.388,126.486,1.157Z" transform="translate(17.433 46.952)" fill="none" stroke="#21cbae" stroke-miterlimit="10" stroke-width="1.078"/>
          <path id="Trazado_22" data-name="Trazado 22" d="M92.911-41.745-12.225,63.391c1.451,1.461,2.973,2.851,4.541,4.187L97.1-37.2C95.762-38.772,94.372-40.293,92.911-41.745Z" transform="translate(33.849 63.369)" fill="none" stroke="#21cbae" stroke-miterlimit="10" stroke-width="1.078"/>
          <path id="Trazado_23" data-name="Trazado 23" d="M120.081-8.746,20.773,90.561c1.988.963,4.031,1.829,6.113,2.615L122.7-2.633C121.91-4.715,121.044-6.758,120.081-8.746Z" transform="translate(21.222 50.742)" fill="none" stroke="#21cbae" stroke-miterlimit="10" stroke-width="1.078"/>
          <path id="Trazado_24" data-name="Trazado 24" d="M113.507-17.923,11.6,83.986c1.84,1.1,3.726,2.125,5.665,3.063L116.57-12.258C115.631-14.2,114.6-16.083,113.507-17.923Z" transform="translate(24.733 54.253)" fill="none" stroke="#21cbae" stroke-miterlimit="10" stroke-width="1.078"/>
        </g>
        <ellipse id="Elipse_4759" data-name="Elipse 4759" cx="125.008" cy="125.008" rx="125.008" ry="125.008" transform="translate(3.012 19.5)" fill="#0b5999"/>
        <g id="Grupo_91" data-name="Grupo 91" transform="translate(160.68 105.278)">
          <g id="Grupo_68" data-name="Grupo 68" transform="translate(65.582 0)">
            <g id="Grupo_67" data-name="Grupo 67" transform="translate(0)">
              <rect id="Rectángulo_193" data-name="Rectángulo 193" width="2.623" height="2.623" transform="translate(79.905 81.76) rotate(-44.999)" fill="#61c8af"/>
              <rect id="Rectángulo_194" data-name="Rectángulo 194" width="2.489" height="2.489" transform="translate(72.641 74.401) rotate(-45)" fill="#61c8af"/>
              <rect id="Rectángulo_195" data-name="Rectángulo 195" width="2.355" height="2.355" transform="translate(65.377 67.043) rotate(-45)" fill="#61c8af"/>
              <rect id="Rectángulo_196" data-name="Rectángulo 196" width="2.222" height="2.222" transform="matrix(0.707, -0.707, 0.707, 0.707, 58.113, 59.684)" fill="#61c8af"/>
              <rect id="Rectángulo_197" data-name="Rectángulo 197" width="2.088" height="2.088" transform="translate(50.849 52.326) rotate(-45)" fill="#61c8af"/>
              <rect id="Rectángulo_198" data-name="Rectángulo 198" width="1.955" height="1.955" transform="matrix(0.707, -0.707, 0.707, 0.707, 43.585, 44.967)" fill="#61c8af"/>
              <rect id="Rectángulo_199" data-name="Rectángulo 199" width="1.821" height="1.821" transform="translate(36.321 37.608) rotate(-45)" fill="#61c8af"/>
              <rect id="Rectángulo_200" data-name="Rectángulo 200" width="1.688" height="1.688" transform="translate(29.057 30.25) rotate(-45.001)" fill="#61c8af"/>
              <rect id="Rectángulo_201" data-name="Rectángulo 201" width="1.554" height="1.554" transform="translate(21.792 22.891) rotate(-45)" fill="#61c8af"/>
              <rect id="Rectángulo_202" data-name="Rectángulo 202" width="1.421" height="1.421" transform="matrix(0.707, -0.707, 0.707, 0.707, 14.528, 15.533)" fill="#61c8af"/>
              <rect id="Rectángulo_203" data-name="Rectángulo 203" width="1.287" height="1.287" transform="translate(7.264 8.174) rotate(-45)" fill="#61c8af"/>
              <rect id="Rectángulo_204" data-name="Rectángulo 204" width="1.154" height="1.154" transform="matrix(0.707, -0.707, 0.707, 0.707, 0, 0.816)" fill="#61c8af"/>
            </g>
          </g>
          <g id="Grupo_70" data-name="Grupo 70" transform="translate(59.62 5.962)">
            <g id="Grupo_69" data-name="Grupo 69" transform="translate(0 0)">
              <rect id="Rectángulo_205" data-name="Rectángulo 205" width="2.623" height="2.623" transform="translate(79.905 81.76) rotate(-44.999)" fill="#61c8af"/>
              <rect id="Rectángulo_206" data-name="Rectángulo 206" width="2.489" height="2.489" transform="translate(72.641 74.401) rotate(-45)" fill="#61c8af"/>
              <rect id="Rectángulo_207" data-name="Rectángulo 207" width="2.355" height="2.355" transform="translate(65.377 67.043) rotate(-44.999)" fill="#61c8af"/>
              <rect id="Rectángulo_208" data-name="Rectángulo 208" width="2.222" height="2.222" transform="translate(58.113 59.684) rotate(-45)" fill="#61c8af"/>
              <rect id="Rectángulo_209" data-name="Rectángulo 209" width="2.088" height="2.088" transform="translate(50.849 52.326) rotate(-45)" fill="#61c8af"/>
              <rect id="Rectángulo_210" data-name="Rectángulo 210" width="1.955" height="1.955" transform="translate(43.585 44.967) rotate(-45)" fill="#61c8af"/>
              <rect id="Rectángulo_211" data-name="Rectángulo 211" width="1.821" height="1.821" transform="translate(36.321 37.609) rotate(-45)" fill="#61c8af"/>
              <rect id="Rectángulo_212" data-name="Rectángulo 212" width="1.688" height="1.688" transform="translate(29.057 30.25) rotate(-45)" fill="#61c8af"/>
              <rect id="Rectángulo_213" data-name="Rectángulo 213" width="1.554" height="1.554" transform="translate(21.792 22.891) rotate(-45)" fill="#61c8af"/>
              <rect id="Rectángulo_214" data-name="Rectángulo 214" width="1.421" height="1.421" transform="translate(14.528 15.533) rotate(-45)" fill="#61c8af"/>
              <rect id="Rectángulo_215" data-name="Rectángulo 215" width="1.287" height="1.287" transform="translate(7.264 8.174) rotate(-45)" fill="#61c8af"/>
              <rect id="Rectángulo_216" data-name="Rectángulo 216" width="1.154" height="1.154" transform="matrix(0.707, -0.707, 0.707, 0.707, 0, 0.816)" fill="#61c8af"/>
            </g>
          </g>
          <g id="Grupo_72" data-name="Grupo 72" transform="translate(53.658 11.924)">
            <g id="Grupo_71" data-name="Grupo 71" transform="translate(0 0)">
              <rect id="Rectángulo_217" data-name="Rectángulo 217" width="2.623" height="2.623" transform="translate(79.905 81.76) rotate(-44.999)" fill="#61c8af"/>
              <rect id="Rectángulo_218" data-name="Rectángulo 218" width="2.489" height="2.489" transform="translate(72.641 74.401) rotate(-44.999)" fill="#61c8af"/>
              <rect id="Rectángulo_219" data-name="Rectángulo 219" width="2.355" height="2.355" transform="translate(65.377 67.043) rotate(-44.999)" fill="#61c8af"/>
              <rect id="Rectángulo_220" data-name="Rectángulo 220" width="2.222" height="2.222" transform="matrix(0.707, -0.707, 0.707, 0.707, 58.113, 59.684)" fill="#61c8af"/>
              <rect id="Rectángulo_221" data-name="Rectángulo 221" width="2.088" height="2.088" transform="translate(50.849 52.326) rotate(-44.999)" fill="#61c8af"/>
              <rect id="Rectángulo_222" data-name="Rectángulo 222" width="1.955" height="1.955" transform="matrix(0.707, -0.707, 0.707, 0.707, 43.585, 44.967)" fill="#61c8af"/>
              <rect id="Rectángulo_223" data-name="Rectángulo 223" width="1.821" height="1.821" transform="matrix(0.707, -0.707, 0.707, 0.707, 36.321, 37.608)" fill="#61c8af"/>
              <rect id="Rectángulo_224" data-name="Rectángulo 224" width="1.688" height="1.688" transform="translate(29.057 30.25) rotate(-44.999)" fill="#61c8af"/>
              <rect id="Rectángulo_225" data-name="Rectángulo 225" width="1.554" height="1.554" transform="translate(21.792 22.891) rotate(-45)" fill="#61c8af"/>
              <rect id="Rectángulo_226" data-name="Rectángulo 226" width="1.421" height="1.421" transform="translate(14.528 15.533) rotate(-44.998)" fill="#61c8af"/>
              <rect id="Rectángulo_227" data-name="Rectángulo 227" width="1.287" height="1.287" transform="translate(7.264 8.174) rotate(-45)" fill="#61c8af"/>
              <rect id="Rectángulo_228" data-name="Rectángulo 228" width="1.154" height="1.154" transform="matrix(0.707, -0.707, 0.707, 0.707, 0, 0.816)" fill="#61c8af"/>
            </g>
          </g>
          <g id="Grupo_74" data-name="Grupo 74" transform="translate(47.696 17.886)">
            <g id="Grupo_73" data-name="Grupo 73" transform="translate(0 0)">
              <rect id="Rectángulo_229" data-name="Rectángulo 229" width="2.623" height="2.623" transform="translate(79.905 81.76) rotate(-45.001)" fill="#61c8af"/>
              <rect id="Rectángulo_230" data-name="Rectángulo 230" width="2.489" height="2.489" transform="translate(72.641 74.401) rotate(-45.001)" fill="#61c8af"/>
              <rect id="Rectángulo_231" data-name="Rectángulo 231" width="2.355" height="2.355" transform="translate(65.377 67.043) rotate(-45)" fill="#61c8af"/>
              <rect id="Rectángulo_232" data-name="Rectángulo 232" width="2.222" height="2.222" transform="matrix(0.707, -0.707, 0.707, 0.707, 58.113, 59.684)" fill="#61c8af"/>
              <rect id="Rectángulo_233" data-name="Rectángulo 233" width="2.088" height="2.088" transform="translate(50.849 52.326) rotate(-45)" fill="#61c8af"/>
              <rect id="Rectángulo_234" data-name="Rectángulo 234" width="1.955" height="1.955" transform="matrix(0.707, -0.707, 0.707, 0.707, 43.585, 44.967)" fill="#61c8af"/>
              <rect id="Rectángulo_235" data-name="Rectángulo 235" width="1.821" height="1.821" transform="translate(36.321 37.608) rotate(-45)" fill="#61c8af"/>
              <rect id="Rectángulo_236" data-name="Rectángulo 236" width="1.688" height="1.688" transform="translate(29.056 30.25) rotate(-45.001)" fill="#61c8af"/>
              <rect id="Rectángulo_237" data-name="Rectángulo 237" width="1.554" height="1.554" transform="translate(21.792 22.891) rotate(-45)" fill="#61c8af"/>
              <rect id="Rectángulo_238" data-name="Rectángulo 238" width="1.421" height="1.421" transform="translate(14.528 15.533) rotate(-45)" fill="#61c8af"/>
              <rect id="Rectángulo_239" data-name="Rectángulo 239" width="1.287" height="1.287" transform="translate(7.264 8.174) rotate(-45)" fill="#61c8af"/>
              <rect id="Rectángulo_240" data-name="Rectángulo 240" width="1.154" height="1.154" transform="translate(0 0.816) rotate(-44.998)" fill="#61c8af"/>
            </g>
          </g>
          <g id="Grupo_76" data-name="Grupo 76" transform="translate(41.734 23.848)">
            <g id="Grupo_75" data-name="Grupo 75" transform="translate(0 0)">
              <rect id="Rectángulo_241" data-name="Rectángulo 241" width="2.623" height="2.623" transform="translate(79.905 81.76) rotate(-45.001)" fill="#61c8af"/>
              <rect id="Rectángulo_242" data-name="Rectángulo 242" width="2.489" height="2.489" transform="translate(72.641 74.401) rotate(-45.001)" fill="#61c8af"/>
              <rect id="Rectángulo_243" data-name="Rectángulo 243" width="2.355" height="2.355" transform="translate(65.377 67.043) rotate(-45)" fill="#61c8af"/>
              <rect id="Rectángulo_244" data-name="Rectángulo 244" width="2.222" height="2.222" transform="matrix(0.707, -0.707, 0.707, 0.707, 58.113, 59.684)" fill="#61c8af"/>
              <rect id="Rectángulo_245" data-name="Rectángulo 245" width="2.088" height="2.088" transform="translate(50.849 52.326) rotate(-45)" fill="#61c8af"/>
              <rect id="Rectángulo_246" data-name="Rectángulo 246" width="1.955" height="1.955" transform="translate(43.585 44.967) rotate(-45.001)" fill="#61c8af"/>
              <rect id="Rectángulo_247" data-name="Rectángulo 247" width="1.821" height="1.821" transform="translate(36.321 37.608) rotate(-45)" fill="#61c8af"/>
              <rect id="Rectángulo_248" data-name="Rectángulo 248" width="1.688" height="1.688" transform="translate(29.057 30.25) rotate(-45.001)" fill="#61c8af"/>
              <rect id="Rectángulo_249" data-name="Rectángulo 249" width="1.554" height="1.554" transform="translate(21.792 22.891) rotate(-45)" fill="#61c8af"/>
              <rect id="Rectángulo_250" data-name="Rectángulo 250" width="1.421" height="1.421" transform="matrix(0.707, -0.707, 0.707, 0.707, 14.528, 15.533)" fill="#61c8af"/>
              <rect id="Rectángulo_251" data-name="Rectángulo 251" width="1.287" height="1.287" transform="translate(7.264 8.174) rotate(-45)" fill="#61c8af"/>
              <rect id="Rectángulo_252" data-name="Rectángulo 252" width="1.154" height="1.154" transform="matrix(0.707, -0.707, 0.707, 0.707, 0, 0.816)" fill="#61c8af"/>
            </g>
          </g>
          <g id="Grupo_78" data-name="Grupo 78" transform="translate(35.772 29.81)">
            <g id="Grupo_77" data-name="Grupo 77" transform="translate(0 0)">
              <rect id="Rectángulo_253" data-name="Rectángulo 253" width="2.623" height="2.623" transform="translate(79.905 81.76) rotate(-45)" fill="#61c8af"/>
              <rect id="Rectángulo_254" data-name="Rectángulo 254" width="2.489" height="2.489" transform="translate(72.641 74.401) rotate(-45)" fill="#61c8af"/>
              <rect id="Rectángulo_255" data-name="Rectángulo 255" width="2.355" height="2.355" transform="translate(65.377 67.043) rotate(-45.001)" fill="#61c8af"/>
              <rect id="Rectángulo_256" data-name="Rectángulo 256" width="2.222" height="2.222" transform="matrix(0.707, -0.707, 0.707, 0.707, 58.113, 59.684)" fill="#61c8af"/>
              <rect id="Rectángulo_257" data-name="Rectángulo 257" width="2.088" height="2.088" transform="matrix(0.707, -0.707, 0.707, 0.707, 50.849, 52.326)" fill="#61c8af"/>
              <rect id="Rectángulo_258" data-name="Rectángulo 258" width="1.955" height="1.955" transform="matrix(0.707, -0.707, 0.707, 0.707, 43.585, 44.967)" fill="#61c8af"/>
              <rect id="Rectángulo_259" data-name="Rectángulo 259" width="1.821" height="1.821" transform="translate(36.321 37.608) rotate(-45)" fill="#61c8af"/>
              <rect id="Rectángulo_260" data-name="Rectángulo 260" width="1.688" height="1.688" transform="translate(29.057 30.25) rotate(-45.001)" fill="#61c8af"/>
              <rect id="Rectángulo_261" data-name="Rectángulo 261" width="1.554" height="1.554" transform="translate(21.792 22.891) rotate(-45)" fill="#61c8af"/>
              <rect id="Rectángulo_262" data-name="Rectángulo 262" width="1.421" height="1.421" transform="matrix(0.707, -0.707, 0.707, 0.707, 14.528, 15.533)" fill="#61c8af"/>
              <rect id="Rectángulo_263" data-name="Rectángulo 263" width="1.287" height="1.287" transform="translate(7.264 8.174) rotate(-45)" fill="#61c8af"/>
              <rect id="Rectángulo_264" data-name="Rectángulo 264" width="1.154" height="1.154" transform="matrix(0.707, -0.707, 0.707, 0.707, 0, 0.816)" fill="#61c8af"/>
            </g>
          </g>
          <g id="Grupo_80" data-name="Grupo 80" transform="translate(29.81 35.772)">
            <g id="Grupo_79" data-name="Grupo 79" transform="translate(0 0)">
              <rect id="Rectángulo_265" data-name="Rectángulo 265" width="2.623" height="2.623" transform="translate(79.905 81.76) rotate(-44.999)" fill="#61c8af"/>
              <rect id="Rectángulo_266" data-name="Rectángulo 266" width="2.489" height="2.489" transform="translate(72.641 74.401) rotate(-45)" fill="#61c8af"/>
              <rect id="Rectángulo_267" data-name="Rectángulo 267" width="2.355" height="2.355" transform="translate(65.377 67.043) rotate(-44.999)" fill="#61c8af"/>
              <rect id="Rectángulo_268" data-name="Rectángulo 268" width="2.222" height="2.222" transform="translate(58.113 59.684) rotate(-45)" fill="#61c8af"/>
              <rect id="Rectángulo_269" data-name="Rectángulo 269" width="2.088" height="2.088" transform="translate(50.849 52.326) rotate(-44.999)" fill="#61c8af"/>
              <rect id="Rectángulo_270" data-name="Rectángulo 270" width="1.955" height="1.955" transform="matrix(0.707, -0.707, 0.707, 0.707, 43.585, 44.967)" fill="#61c8af"/>
              <rect id="Rectángulo_271" data-name="Rectángulo 271" width="1.821" height="1.821" transform="matrix(0.707, -0.707, 0.707, 0.707, 36.321, 37.608)" fill="#61c8af"/>
              <rect id="Rectángulo_272" data-name="Rectángulo 272" width="1.688" height="1.688" transform="translate(29.056 30.25) rotate(-45.001)" fill="#61c8af"/>
              <rect id="Rectángulo_273" data-name="Rectángulo 273" width="1.554" height="1.554" transform="translate(21.792 22.891) rotate(-45)" fill="#61c8af"/>
              <rect id="Rectángulo_274" data-name="Rectángulo 274" width="1.421" height="1.421" transform="translate(14.528 15.533) rotate(-45.002)" fill="#61c8af"/>
              <rect id="Rectángulo_275" data-name="Rectángulo 275" width="1.287" height="1.287" transform="translate(7.264 8.174) rotate(-45)" fill="#61c8af"/>
              <rect id="Rectángulo_276" data-name="Rectángulo 276" width="1.154" height="1.154" transform="matrix(0.707, -0.707, 0.707, 0.707, 0, 0.816)" fill="#61c8af"/>
            </g>
          </g>
          <g id="Grupo_82" data-name="Grupo 82" transform="translate(23.848 41.734)">
            <g id="Grupo_81" data-name="Grupo 81" transform="translate(0 0)">
              <rect id="Rectángulo_277" data-name="Rectángulo 277" width="2.623" height="2.623" transform="translate(79.905 81.76) rotate(-44.999)" fill="#61c8af"/>
              <rect id="Rectángulo_278" data-name="Rectángulo 278" width="2.489" height="2.489" transform="translate(72.641 74.401) rotate(-45)" fill="#61c8af"/>
              <rect id="Rectángulo_279" data-name="Rectángulo 279" width="2.355" height="2.355" transform="translate(65.377 67.043) rotate(-44.999)" fill="#61c8af"/>
              <rect id="Rectángulo_280" data-name="Rectángulo 280" width="2.222" height="2.222" transform="translate(58.113 59.684) rotate(-45)" fill="#61c8af"/>
              <rect id="Rectángulo_281" data-name="Rectángulo 281" width="2.088" height="2.088" transform="translate(50.849 52.326) rotate(-44.999)" fill="#61c8af"/>
              <rect id="Rectángulo_282" data-name="Rectángulo 282" width="1.955" height="1.955" transform="translate(43.585 44.967) rotate(-45)" fill="#61c8af"/>
              <rect id="Rectángulo_283" data-name="Rectángulo 283" width="1.821" height="1.821" transform="matrix(0.707, -0.707, 0.707, 0.707, 36.321, 37.608)" fill="#61c8af"/>
              <rect id="Rectángulo_284" data-name="Rectángulo 284" width="1.688" height="1.688" transform="translate(29.057 30.25) rotate(-45)" fill="#61c8af"/>
              <rect id="Rectángulo_285" data-name="Rectángulo 285" width="1.554" height="1.554" transform="translate(21.792 22.891) rotate(-45)" fill="#61c8af"/>
              <rect id="Rectángulo_286" data-name="Rectángulo 286" width="1.421" height="1.421" transform="translate(14.528 15.533) rotate(-45)" fill="#61c8af"/>
              <rect id="Rectángulo_287" data-name="Rectángulo 287" width="1.287" height="1.287" transform="translate(7.264 8.174) rotate(-45)" fill="#61c8af"/>
              <rect id="Rectángulo_288" data-name="Rectángulo 288" width="1.154" height="1.154" transform="matrix(0.707, -0.707, 0.707, 0.707, 0, 0.816)" fill="#61c8af"/>
            </g>
          </g>
          <g id="Grupo_84" data-name="Grupo 84" transform="translate(17.886 47.696)">
            <g id="Grupo_83" data-name="Grupo 83" transform="translate(0 0)">
              <rect id="Rectángulo_289" data-name="Rectángulo 289" width="2.623" height="2.623" transform="translate(79.905 81.76) rotate(-44.999)" fill="#61c8af"/>
              <rect id="Rectángulo_290" data-name="Rectángulo 290" width="2.489" height="2.489" transform="translate(72.641 74.401) rotate(-44.999)" fill="#61c8af"/>
              <rect id="Rectángulo_291" data-name="Rectángulo 291" width="2.355" height="2.355" transform="translate(65.377 67.043) rotate(-44.999)" fill="#61c8af"/>
              <rect id="Rectángulo_292" data-name="Rectángulo 292" width="2.222" height="2.222" transform="matrix(0.707, -0.707, 0.707, 0.707, 58.113, 59.684)" fill="#61c8af"/>
              <rect id="Rectángulo_293" data-name="Rectángulo 293" width="2.088" height="2.088" transform="translate(50.849 52.326) rotate(-44.999)" fill="#61c8af"/>
              <rect id="Rectángulo_294" data-name="Rectángulo 294" width="1.955" height="1.955" transform="matrix(0.707, -0.707, 0.707, 0.707, 43.585, 44.967)" fill="#61c8af"/>
              <rect id="Rectángulo_295" data-name="Rectángulo 295" width="1.821" height="1.821" transform="matrix(0.707, -0.707, 0.707, 0.707, 36.321, 37.608)" fill="#61c8af"/>
              <rect id="Rectángulo_296" data-name="Rectángulo 296" width="1.688" height="1.688" transform="translate(29.057 30.25) rotate(-44.999)" fill="#61c8af"/>
              <rect id="Rectángulo_297" data-name="Rectángulo 297" width="1.554" height="1.554" transform="matrix(0.707, -0.707, 0.707, 0.707, 21.792, 22.891)" fill="#61c8af"/>
              <rect id="Rectángulo_298" data-name="Rectángulo 298" width="1.421" height="1.421" transform="translate(14.528 15.533) rotate(-44.998)" fill="#61c8af"/>
              <rect id="Rectángulo_299" data-name="Rectángulo 299" width="1.287" height="1.287" transform="translate(7.264 8.174) rotate(-44.998)" fill="#61c8af"/>
              <rect id="Rectángulo_300" data-name="Rectángulo 300" width="1.154" height="1.154" transform="translate(0 0.816) rotate(-44.998)" fill="#61c8af"/>
            </g>
          </g>
          <g id="Grupo_86" data-name="Grupo 86" transform="translate(11.924 53.658)">
            <g id="Grupo_85" data-name="Grupo 85" transform="translate(0 0)">
              <rect id="Rectángulo_301" data-name="Rectángulo 301" width="2.623" height="2.623" transform="matrix(0.707, -0.707, 0.707, 0.707, 79.905, 81.76)" fill="#61c8af"/>
              <rect id="Rectángulo_302" data-name="Rectángulo 302" width="2.489" height="2.489" transform="translate(72.641 74.401) rotate(-45.001)" fill="#61c8af"/>
              <rect id="Rectángulo_303" data-name="Rectángulo 303" width="2.355" height="2.355" transform="translate(65.377 67.043) rotate(-45.001)" fill="#61c8af"/>
              <rect id="Rectángulo_304" data-name="Rectángulo 304" width="2.222" height="2.222" transform="matrix(0.707, -0.707, 0.707, 0.707, 58.113, 59.684)" fill="#61c8af"/>
              <rect id="Rectángulo_305" data-name="Rectángulo 305" width="2.088" height="2.088" transform="translate(50.849 52.326) rotate(-45)" fill="#61c8af"/>
              <rect id="Rectángulo_306" data-name="Rectángulo 306" width="1.955" height="1.955" transform="translate(43.585 44.967) rotate(-45.001)" fill="#61c8af"/>
              <rect id="Rectángulo_307" data-name="Rectángulo 307" width="1.821" height="1.821" transform="translate(36.321 37.609) rotate(-45)" fill="#61c8af"/>
              <rect id="Rectángulo_308" data-name="Rectángulo 308" width="1.688" height="1.688" transform="translate(29.057 30.25) rotate(-45.001)" fill="#61c8af"/>
              <rect id="Rectángulo_309" data-name="Rectángulo 309" width="1.554" height="1.554" transform="translate(21.792 22.891) rotate(-45)" fill="#61c8af"/>
              <rect id="Rectángulo_310" data-name="Rectángulo 310" width="1.421" height="1.421" transform="translate(14.528 15.533) rotate(-45)" fill="#61c8af"/>
              <rect id="Rectángulo_311" data-name="Rectángulo 311" width="1.287" height="1.287" transform="translate(7.264 8.174) rotate(-45)" fill="#61c8af"/>
              <rect id="Rectángulo_312" data-name="Rectángulo 312" width="1.154" height="1.154" transform="translate(0 0.816) rotate(-45)" fill="#61c8af"/>
            </g>
          </g>
          <g id="Grupo_88" data-name="Grupo 88" transform="translate(5.962 59.62)">
            <g id="Grupo_87" data-name="Grupo 87" transform="translate(0 0)">
              <rect id="Rectángulo_313" data-name="Rectángulo 313" width="2.623" height="2.623" transform="translate(79.905 81.76) rotate(-45)" fill="#61c8af"/>
              <rect id="Rectángulo_314" data-name="Rectángulo 314" width="2.489" height="2.489" transform="translate(72.641 74.401) rotate(-45)" fill="#61c8af"/>
              <rect id="Rectángulo_315" data-name="Rectángulo 315" width="2.355" height="2.355" transform="translate(65.377 67.043) rotate(-45)" fill="#61c8af"/>
              <rect id="Rectángulo_316" data-name="Rectángulo 316" width="2.222" height="2.222" transform="matrix(0.707, -0.707, 0.707, 0.707, 58.113, 59.684)" fill="#61c8af"/>
              <rect id="Rectángulo_317" data-name="Rectángulo 317" width="2.088" height="2.088" transform="translate(50.849 52.326) rotate(-45.001)" fill="#61c8af"/>
              <rect id="Rectángulo_318" data-name="Rectángulo 318" width="1.955" height="1.955" transform="matrix(0.707, -0.707, 0.707, 0.707, 43.585, 44.967)" fill="#61c8af"/>
              <rect id="Rectángulo_319" data-name="Rectángulo 319" width="1.821" height="1.821" transform="translate(36.321 37.609) rotate(-45)" fill="#61c8af"/>
              <rect id="Rectángulo_320" data-name="Rectángulo 320" width="1.688" height="1.688" transform="translate(29.056 30.25) rotate(-45.001)" fill="#61c8af"/>
              <rect id="Rectángulo_321" data-name="Rectángulo 321" width="1.554" height="1.554" transform="translate(21.792 22.891) rotate(-45)" fill="#61c8af"/>
              <rect id="Rectángulo_322" data-name="Rectángulo 322" width="1.421" height="1.421" transform="matrix(0.707, -0.707, 0.707, 0.707, 14.528, 15.533)" fill="#61c8af"/>
              <rect id="Rectángulo_323" data-name="Rectángulo 323" width="1.287" height="1.287" transform="translate(7.264 8.174) rotate(-45)" fill="#61c8af"/>
              <rect id="Rectángulo_324" data-name="Rectángulo 324" width="1.154" height="1.154" transform="matrix(0.707, -0.707, 0.707, 0.707, 0, 0.816)" fill="#61c8af"/>
            </g>
          </g>
          <g id="Grupo_90" data-name="Grupo 90" transform="translate(0 65.582)">
            <g id="Grupo_89" data-name="Grupo 89" transform="translate(0 0)">
              <rect id="Rectángulo_325" data-name="Rectángulo 325" width="2.623" height="2.623" transform="translate(79.905 81.76) rotate(-45)" fill="#61c8af"/>
              <rect id="Rectángulo_326" data-name="Rectángulo 326" width="2.489" height="2.489" transform="translate(72.641 74.401) rotate(-45)" fill="#61c8af"/>
              <rect id="Rectángulo_327" data-name="Rectángulo 327" width="2.355" height="2.355" transform="translate(65.377 67.043) rotate(-45)" fill="#61c8af"/>
              <rect id="Rectángulo_328" data-name="Rectángulo 328" width="2.222" height="2.222" transform="translate(58.113 59.684) rotate(-45)" fill="#61c8af"/>
              <rect id="Rectángulo_329" data-name="Rectángulo 329" width="2.088" height="2.088" transform="translate(50.849 52.326) rotate(-45)" fill="#61c8af"/>
              <rect id="Rectángulo_330" data-name="Rectángulo 330" width="1.955" height="1.955" transform="translate(43.585 44.967) rotate(-45)" fill="#61c8af"/>
              <rect id="Rectángulo_331" data-name="Rectángulo 331" width="1.821" height="1.821" transform="matrix(0.707, -0.707, 0.707, 0.707, 36.321, 37.608)" fill="#61c8af"/>
              <rect id="Rectángulo_332" data-name="Rectángulo 332" width="1.688" height="1.688" transform="translate(29.057 30.25) rotate(-45.001)" fill="#61c8af"/>
              <rect id="Rectángulo_333" data-name="Rectángulo 333" width="1.554" height="1.554" transform="translate(21.792 22.891) rotate(-45.002)" fill="#61c8af"/>
              <rect id="Rectángulo_334" data-name="Rectángulo 334" width="1.421" height="1.421" transform="translate(14.528 15.533) rotate(-45.002)" fill="#61c8af"/>
              <rect id="Rectángulo_335" data-name="Rectángulo 335" width="1.287" height="1.287" transform="matrix(0.707, -0.707, 0.707, 0.707, 7.264, 8.174)" fill="#61c8af"/>
              <rect id="Rectángulo_336" data-name="Rectángulo 336" width="1.154" height="1.154" transform="matrix(0.707, -0.707, 0.707, 0.707, 0, 0.816)" fill="#61c8af"/>
            </g>
          </g>
        </g>
        <g id="Grupo_875935" data-name="Grupo 875935" transform="translate(0 173.701)">
          <g id="Grupo_4" data-name="Grupo 4">
            <rect id="Rectángulo_4" data-name="Rectángulo 4" width="2.623" height="2.623" fill="none" stroke="#fecb27" stroke-miterlimit="10" stroke-width="1.078"/>
            <rect id="Rectángulo_5" data-name="Rectángulo 5" width="2.623" height="2.623" transform="translate(20.044)" fill="none" stroke="#fecb27" stroke-miterlimit="10" stroke-width="1.078"/>
            <rect id="Rectángulo_6" data-name="Rectángulo 6" width="2.623" height="2.623" transform="translate(40.088)" fill="none" stroke="#fecb27" stroke-miterlimit="10" stroke-width="1.078"/>
            <rect id="Rectángulo_7" data-name="Rectángulo 7" width="2.623" height="2.623" transform="translate(60.131)" fill="none" stroke="#fecb27" stroke-miterlimit="10" stroke-width="1.078"/>
            <rect id="Rectángulo_8" data-name="Rectángulo 8" width="2.623" height="2.623" transform="translate(80.175)" fill="none" stroke="#fecb27" stroke-miterlimit="10" stroke-width="1.078"/>
            <rect id="Rectángulo_9" data-name="Rectángulo 9" width="2.623" height="2.623" transform="translate(100.219)" fill="none" stroke="#fecb27" stroke-miterlimit="10" stroke-width="1.078"/>
          </g>
          <g id="Grupo_5" data-name="Grupo 5" transform="translate(0 14.611)">
            <rect id="Rectángulo_10" data-name="Rectángulo 10" width="2.623" height="2.623" fill="none" stroke="#fecb27" stroke-miterlimit="10" stroke-width="1.078"/>
            <rect id="Rectángulo_11" data-name="Rectángulo 11" width="2.623" height="2.623" transform="translate(20.044)" fill="none" stroke="#fecb27" stroke-miterlimit="10" stroke-width="1.078"/>
            <rect id="Rectángulo_12" data-name="Rectángulo 12" width="2.623" height="2.623" transform="translate(40.088)" fill="none" stroke="#fecb27" stroke-miterlimit="10" stroke-width="1.078"/>
            <rect id="Rectángulo_13" data-name="Rectángulo 13" width="2.623" height="2.623" transform="translate(60.131)" fill="none" stroke="#fecb27" stroke-miterlimit="10" stroke-width="1.078"/>
            <rect id="Rectángulo_14" data-name="Rectángulo 14" width="2.623" height="2.623" transform="translate(80.175)" fill="none" stroke="#fecb27" stroke-miterlimit="10" stroke-width="1.078"/>
            <rect id="Rectángulo_15" data-name="Rectángulo 15" width="2.623" height="2.623" transform="translate(100.219)" fill="none" stroke="#fecb27" stroke-miterlimit="10" stroke-width="1.078"/>
          </g>
          <g id="Grupo_6" data-name="Grupo 6" transform="translate(0 29.223)">
            <rect id="Rectángulo_16" data-name="Rectángulo 16" width="2.623" height="2.623" fill="none" stroke="#fecb27" stroke-miterlimit="10" stroke-width="1.078"/>
            <rect id="Rectángulo_17" data-name="Rectángulo 17" width="2.623" height="2.623" transform="translate(20.044)" fill="none" stroke="#fecb27" stroke-miterlimit="10" stroke-width="1.078"/>
            <rect id="Rectángulo_18" data-name="Rectángulo 18" width="2.623" height="2.623" transform="translate(40.088)" fill="none" stroke="#fecb27" stroke-miterlimit="10" stroke-width="1.078"/>
            <rect id="Rectángulo_19" data-name="Rectángulo 19" width="2.623" height="2.623" transform="translate(60.131)" fill="none" stroke="#fecb27" stroke-miterlimit="10" stroke-width="1.078"/>
            <rect id="Rectángulo_20" data-name="Rectángulo 20" width="2.623" height="2.623" transform="translate(80.175)" fill="none" stroke="#fecb27" stroke-miterlimit="10" stroke-width="1.078"/>
            <rect id="Rectángulo_21" data-name="Rectángulo 21" width="2.623" height="2.623" transform="translate(100.219)" fill="none" stroke="#fecb27" stroke-miterlimit="10" stroke-width="1.078"/>
          </g>
          <g id="Grupo_7" data-name="Grupo 7" transform="translate(0 43.834)">
            <rect id="Rectángulo_22" data-name="Rectángulo 22" width="2.623" height="2.623" fill="none" stroke="#fecb27" stroke-miterlimit="10" stroke-width="1.078"/>
            <rect id="Rectángulo_23" data-name="Rectángulo 23" width="2.623" height="2.623" transform="translate(20.044)" fill="none" stroke="#fecb27" stroke-miterlimit="10" stroke-width="1.078"/>
            <rect id="Rectángulo_24" data-name="Rectángulo 24" width="2.623" height="2.623" transform="translate(40.088)" fill="none" stroke="#fecb27" stroke-miterlimit="10" stroke-width="1.078"/>
            <rect id="Rectángulo_25" data-name="Rectángulo 25" width="2.623" height="2.623" transform="translate(60.131)" fill="none" stroke="#fecb27" stroke-miterlimit="10" stroke-width="1.078"/>
            <rect id="Rectángulo_26" data-name="Rectángulo 26" width="2.623" height="2.623" transform="translate(80.175)" fill="none" stroke="#fecb27" stroke-miterlimit="10" stroke-width="1.078"/>
            <rect id="Rectángulo_27" data-name="Rectángulo 27" width="2.623" height="2.623" transform="translate(100.219)" fill="none" stroke="#fecb27" stroke-miterlimit="10" stroke-width="1.078"/>
          </g>
          <g id="Grupo_8" data-name="Grupo 8" transform="translate(0 58.445)">
            <rect id="Rectángulo_28" data-name="Rectángulo 28" width="2.623" height="2.623" fill="none" stroke="#fecb27" stroke-miterlimit="10" stroke-width="1.078"/>
            <rect id="Rectángulo_29" data-name="Rectángulo 29" width="2.623" height="2.623" transform="translate(20.044)" fill="none" stroke="#fecb27" stroke-width="1"/>
            <rect id="Rectángulo_30" data-name="Rectángulo 30" width="2.623" height="2.623" transform="translate(40.088)" fill="none" stroke="#fecb27" stroke-width="1"/>
            <rect id="Rectángulo_31" data-name="Rectángulo 31" width="2.623" height="2.623" transform="translate(60.131)" fill="none" stroke="#fecb27" stroke-miterlimit="10" stroke-width="1.078"/>
            <rect id="Rectángulo_32" data-name="Rectángulo 32" width="2.623" height="2.623" transform="translate(80.175)" fill="none" stroke="#fecb27" stroke-miterlimit="10" stroke-width="1.078"/>
            <rect id="Rectángulo_33" data-name="Rectángulo 33" width="2.623" height="2.623" transform="translate(100.219)" fill="none" stroke="#fecb27" stroke-miterlimit="10" stroke-width="1.078"/>
          </g>
          <g id="Grupo_9" data-name="Grupo 9" transform="translate(0 73.057)">
            <rect id="Rectángulo_34" data-name="Rectángulo 34" width="2.623" height="2.623" fill="none" stroke="#fecb27" stroke-miterlimit="10" stroke-width="1.078"/>
            <rect id="Rectángulo_35" data-name="Rectángulo 35" width="2.623" height="2.623" transform="translate(20.044)" fill="none" stroke="#fecb27" stroke-miterlimit="10" stroke-width="1.078"/>
            <rect id="Rectángulo_36" data-name="Rectángulo 36" width="2.623" height="2.623" transform="translate(40.088)" fill="none" stroke="#fecb27" stroke-miterlimit="10" stroke-width="1.078"/>
            <rect id="Rectángulo_37" data-name="Rectángulo 37" width="2.623" height="2.623" transform="translate(60.131)" fill="none" stroke="#fecb27" stroke-width="1"/>
            <rect id="Rectángulo_38" data-name="Rectángulo 38" width="2.623" height="2.623" transform="translate(80.175)" fill="none" stroke="#fecb27" stroke-miterlimit="10" stroke-width="1.078"/>
            <rect id="Rectángulo_39" data-name="Rectángulo 39" width="2.623" height="2.623" transform="translate(100.219)" fill="none" stroke="#fecb27" stroke-miterlimit="10" stroke-width="1.078"/>
          </g>
          <g id="Grupo_10" data-name="Grupo 10" transform="translate(0 87.668)">
            <rect id="Rectángulo_40" data-name="Rectángulo 40" width="2.623" height="2.623" fill="none" stroke="#fecb27" stroke-miterlimit="10" stroke-width="1.078"/>
            <rect id="Rectángulo_41" data-name="Rectángulo 41" width="2.623" height="2.623" transform="translate(20.044)" fill="none" stroke="#fecb27" stroke-miterlimit="10" stroke-width="1.078"/>
            <rect id="Rectángulo_42" data-name="Rectángulo 42" width="2.623" height="2.623" transform="translate(40.088)" fill="none" stroke="#fecb27" stroke-miterlimit="10" stroke-width="1.078"/>
            <rect id="Rectángulo_43" data-name="Rectángulo 43" width="2.623" height="2.623" transform="translate(60.131)" fill="none" stroke="#fecb27" stroke-miterlimit="10" stroke-width="1.078"/>
            <rect id="Rectángulo_44" data-name="Rectángulo 44" width="2.623" height="2.623" transform="translate(80.175)" fill="none" stroke="#fecb27" stroke-width="1"/>
            <rect id="Rectángulo_45" data-name="Rectángulo 45" width="2.623" height="2.623" transform="translate(100.219)" fill="none" stroke="#fecb27" stroke-miterlimit="10" stroke-width="1.078"/>
          </g>
        </g>
        <g id="Grupo_879273" data-name="Grupo 879273" transform="translate(39.287 5.266)">
          <path id="Trazado_34" data-name="Trazado 34" d="M693.431,390.082l-6.113,10.589h12.227Z" transform="translate(-687.318 -291.25)" fill="#fdfdfd"/>
          <path id="Trazado_35" data-name="Trazado 35" d="M693.431,361.354l-6.113,10.589h12.227Z" transform="translate(-687.318 -280.257)" fill="#fdfdfd"/>
          <path id="Trazado_36" data-name="Trazado 36" d="M693.431,332.626l-6.113,10.589h12.227Z" transform="translate(-687.318 -269.264)" fill="#fdfdfd"/>
          <path id="Trazado_37" data-name="Trazado 37" d="M695.022,245.931l-3.547,6.143h7.093Z" transform="translate(-648.844 -245.931)" fill="#f13b76"/>
        </g>
      </g>
    </g>
    <g id="Grupo_911064" data-name="Grupo 911064" transform="translate(-1604.528 -17966.193)">
      <g id="Grupo_910289" data-name="Grupo 910289" transform="translate(5240.904 -68.664)">
        <path id="Trazado_634381" data-name="Trazado 634381" d="M5673.523-24.785c-22.89,0-20.276,43.6-36.8,56.9-21.875,17.59-59.5,8.879-59.5,39.071,0,53.007,48.807,72.207,101.99,72.207s98.571-29.4,82.732-82.262-35.234-85.912-88.422-85.912Zm0,0" transform="translate(-5528.744 36.366)" fill="#e7f1fb" fill-rule="evenodd"/>
        <path id="Trazado_634382" data-name="Trazado 634382" d="M5873.895,14.229c2.8,2.761,2.909,5.218-9.593,3.419-6.037-.872-20-3.814-25.18-6.96-8.107-4.914-16.049-14.854-19.162-20.763-2.476-4.7,4.522-6.479,9.793-4.113,15.7,7.052-9.774-16.376,1.681-24.255,3-2.061,7.474,2.652,11.183,5.185,4.128,2.819,6.113-2.185,6.327-5.47.4-6.36-1.314-13.168,5.713-15.934,8.65-3.4,5.441,7.636,15.706,4.513,3.909-1.2,8.893-7.864,11.483-10.836,5.484-6.284,15.825-10.287,20.181-5.694,4.566,4.813-5.77,10.878-6.946,16.048-2.371,10.421,11.2.957,13.468,6.827,4.023,10.421-15.468,13.33-18.829,14.939-2.28,1.1-3.4,2.609-.376,4.6,3.409,2.256,13.173.58,13.4,4.471.9,15.42-23.551,7.394-26.217,10.4-3.3,3.718,9.4,4.423,12.935,8.684,5.7,6.87-9.769,6.513-17.481,5.874-13.354-1.1-.295,6.885,1.914,9.065Zm0,0" transform="translate(-5707.035 68.664)" fill="#fecb2f" fill-rule="evenodd"/>
        <path id="Trazado_634383" data-name="Trazado 634383" d="M5932.867-53.43a.936.936,0,0,1,1.3-.02.892.892,0,0,1,.057,1.276q-12.211,12.7-24.532,28.3a117.193,117.193,0,0,0,19.243-2.313q8.733-1.915,13.83-5.256a.941.941,0,0,1,1.275.262.873.873,0,0,1-.224,1.242q-5.384,3.529-14.425,5.509a122.589,122.589,0,0,1-21.167,2.418c-.647.829-1.29,1.657-1.937,2.495q-4.113,5.335-8.25,11c-.015.023-.033.048-.047.071q-1.614,2.206-3.223,4.461c8.779-3.614,16.634-3.052,23.847-2.533,6.636.476,12.706.909,18.271-2.151a.943.943,0,0,1,1.257.352.87.87,0,0,1-.323,1.219c-6.042,3.322-12.364,2.87-19.286,2.375-7.774-.557-16.334-1.171-25.894,3.737q-3.256,4.62-6.527,9.45a109.742,109.742,0,0,1,16.782-.143,172.06,172.06,0,0,1,21.724,2.866.93.93,0,0,1,.756,1.052.88.88,0,0,1-1.052.709,170.714,170.714,0,0,0-21.485-2.832,106.445,106.445,0,0,0-18.038.295q-3.393,5.042-6.8,10.312a.916.916,0,0,1-1.262.252.9.9,0,0,1-.3-1.248q3.513-5.433,7.018-10.64c.019-.029.033-.052.052-.076q1.464-2.171,2.923-4.3a98.348,98.348,0,0,1-11.155-15.3,41.593,41.593,0,0,1-5.27-13.819.863.863,0,0,1,.762-1,.943.943,0,0,1,1.047.781,39.844,39.844,0,0,0,5.056,13.2,95.549,95.549,0,0,0,10.606,14.62q1.865-2.706,3.732-5.352a.413.413,0,0,1,.072-.1q2.492-3.534,4.975-6.945-4.192-14.262-3.58-32.768a.877.877,0,0,1,.947-.838.948.948,0,0,1,.89.962q-.571,17.3,3.1,30.783,3.606-4.9,7.2-9.56c.719-.933,1.442-1.861,2.162-2.785a.59.59,0,0,1,.057-.067,390.353,390.353,0,0,1,25.832-29.95Zm0,0" transform="translate(-5744.241 57.651)" fill="#21cbae" fill-rule="evenodd"/>
        <path id="Trazado_634384" data-name="Trazado 634384" d="M5656.666.28c-3.689-1.395-6.022-.391.643,10.559,3.218,5.285,11.532,17.086,16.529,20.552,7.808,5.413,20.229,8.407,26.965,8.679,5.365.219,4.222-7.165-.081-11.054-12.821-11.592,19.143,1.828,21.9-12.483.723-3.747-5.447-5.842-9.284-8.189-4.275-2.619-.4-6.732,2.566-8.408,5.755-3.241,12.778-4.684,12.544-12.539-.281-9.659-9.274-1.684-10.464-12.74-.448-4.213,3.771-11.9,5.5-15.673,3.661-7.979,3.261-19.5-2.756-21.533-6.3-2.128-7.822,10.317-12.164,13.749-8.75,6.912-5.361-10.1-11.731-9.593-11.3.895-6.227,20.533-6.389,24.418-.1,2.638-1.066,4.366-4.132,2.423-3.461-2.194-5.794-12.125-9.507-10.592-14.71,6.089,2.514,25.471.781,29.327-2.142,4.775-7.86-6.847-13.24-8.261-8.667-2.271-2.161,12.116,1.51,19.085,6.351,12.06-6.29,3.371-9.2,2.272Zm0,0" transform="translate(-5584.579 64.341)" fill="#fecb2f" fill-rule="evenodd"/>
        <path id="Trazado_634385" data-name="Trazado 634385" d="M5498.236,258.425c3.566-3.047,6.446-3.213,2.8,10.169-1.761,6.46-6.922,21.423-11.23,27.022-6.727,8.755-19.3,17.439-26.57,20.885-5.789,2.742-6.993-4.694-3.584-10.369,10.16-16.9-20.3,10.778-28.064-1.285-2.033-3.156,4.01-8.036,7.422-12.045,3.8-4.466-1.79-6.479-5.593-6.637-7.365-.3-15.511,1.676-17.868-5.77-2.895-9.16,9.579-5.965,7.2-16.858-.905-4.147-8.065-9.327-11.212-12.03-6.646-5.723-10.036-16.673-4.138-21.425,6.175-4.969,11.969,5.933,17.848,7.085,11.854,2.313,2.5-11.973,9.626-14.515,12.645-4.513,13.621,16.229,15.083,19.781.995,2.413,2.618,3.575,5.322.309,3.051-3.69,2.3-14.073,6.87-14.4,18.086-1.286,5.7,24.979,8.879,27.759,3.922,3.447,6.313-10.122,11.72-13.988,8.708-6.226,6.379,10.293,4.685,18.539-2.936,14.277,7.989.176,10.8-2.233Zm0,0" transform="translate(-5401.507 -145.292)" fill="#6fc1b1" fill-rule="evenodd"/>
        <path id="Trazado_634386" data-name="Trazado 634386" d="M5747.916-39.01a.944.944,0,0,0-.5-1.229.928.928,0,0,0-1.209.519q-6.948,17.195-16.548,35.8a120.87,120.87,0,0,1-5.527-19.138q-1.707-9.069-.634-15.367a.927.927,0,0,0-.751-1.081.928.928,0,0,0-1.066.766,46.333,46.333,0,0,0,.633,16.044A126.252,126.252,0,0,0,5728.506-1.7q-.764,1.463-1.547,2.937-3.32,6.269-6.946,12.707a.438.438,0,0,0-.047.08q-1.407,2.507-2.866,5.032c-.138-9.879-3.8-17.015-7.16-23.561-3.089-6.027-5.918-11.54-5.284-18.153a.93.93,0,0,0-.829-1.019.933.933,0,0,0-1.009.848c-.681,7.174,2.262,12.921,5.484,19.205,3.623,7.059,7.607,14.834,6.855,26.026q-3,5.149-6.188,10.392a112,112,0,0,0-6.561-15.848,171.45,171.45,0,0,0-11.34-19.138.91.91,0,0,0-1.28-.238.954.954,0,0,0-.243,1.309A169.09,169.09,0,0,1,5700.756,17.8a108.071,108.071,0,0,1,6.926,17.1q-3.341,5.456-6.884,11.026a.954.954,0,0,0,.267,1.3.923.923,0,0,0,1.281-.28q3.656-5.749,7.1-11.384c.014-.029.033-.052.047-.081q1.436-2.356,2.842-4.684a94.9,94.9,0,0,0,18.691,3.608,41.315,41.315,0,0,0,14.963-1.256.945.945,0,0,0,.628-1.166.919.919,0,0,0-1.147-.638,39.488,39.488,0,0,1-14.3,1.18,91.583,91.583,0,0,1-17.839-3.4q1.778-2.972,3.494-5.918a.811.811,0,0,0,.067-.11q2.292-3.927,4.475-7.8,14.947-2.471,31.926-11.363a.952.952,0,0,0,.4-1.271.912.912,0,0,0-1.247-.4q-15.875,8.32-29.893,10.916,3.127-5.591,6.027-11.063.879-1.649,1.729-3.29a.265.265,0,0,0,.042-.081q10.262-19.688,17.567-37.758Zm0,0" transform="translate(-5611.301 47.791)" fill="#6fc1b1" fill-rule="evenodd"/>
        <path id="Trazado_634387" data-name="Trazado 634387" d="M5422.1,243.084a.945.945,0,0,1,.143-1.386,1.117,1.117,0,0,1,1.49-.09,363.064,363.064,0,0,0,29.955,25.6,111.547,111.547,0,0,0-.314-20.5q-1.151-9.276-4.414-14.653a1.034,1.034,0,0,1,.461-1.366,1.022,1.022,0,0,1,1.423.214q3.443,5.67,4.637,15.287a117.3,117.3,0,0,1,.2,22.537q1.321,1.007,2.666,2.014,5.713,4.285,11.807,8.579a.711.711,0,0,1,.076.052q2.372,1.671,4.8,3.347c-3.128-9.3-1.5-17.7,0-25.4,1.375-7.093,2.632-13.578-.252-19.457a1.067,1.067,0,0,1,.566-1.347.988.988,0,0,1,1.38.32c3.133,6.379,1.819,13.139.386,20.533-1.614,8.312-3.385,17.458,1.152,27.56q4.985,3.385,10.212,6.774a109.742,109.742,0,0,1,1.9-17.91,182.263,182.263,0,0,1,6.032-23.246,1.265,1.265,0,0,1,1.323-.834.825.825,0,0,1,.694,1.109,180.5,180.5,0,0,0-5.96,22.995,105.325,105.325,0,0,0-1.89,19.248q5.462,3.513,11.183,7.037a.884.884,0,0,1,.133,1.347,1.194,1.194,0,0,1-1.49.343q-5.9-3.635-11.536-7.27a.8.8,0,0,1-.08-.052q-2.35-1.514-4.656-3.033a137.54,137.54,0,0,1-19.215,12.226,58.118,58.118,0,0,1-16.763,5.918.858.858,0,0,1-1.071-.8,1.213,1.213,0,0,1,1.038-1.138,55.326,55.326,0,0,0,16.011-5.67,133.341,133.341,0,0,0,18.357-11.621q-2.928-1.942-5.779-3.875a.882.882,0,0,1-.109-.076q-3.8-2.585-7.479-5.165-17.146,4.77-38.643,4.508a.833.833,0,0,1-.857-1,1.259,1.259,0,0,1,1.228-.962,137.579,137.579,0,0,0,36.273-3.961q-5.271-3.742-10.255-7.479-1.5-1.128-2.98-2.256a.571.571,0,0,1-.071-.053,368.531,368.531,0,0,1-31.716-26.95Zm0,0" transform="translate(-5414.383 -151.54)" fill="#21cbae" fill-rule="evenodd"/>
        <rect id="Rectángulo_305360" data-name="Rectángulo 305360" width="82.813" height="33.43" transform="translate(90.336 140.612)" fill="#0b5999"/>
        <rect id="Rectángulo_305361" data-name="Rectángulo 305361" width="125.616" height="30.612" transform="translate(68.936 140.612)" fill="#5e849e"/>
        <path id="Trazado_634388" data-name="Trazado 634388" d="M5665.183,471.579h116.924a2.238,2.238,0,0,1,2.157,2.3V495.93a2.238,2.238,0,0,1-2.157,2.3H5665.183a2.237,2.237,0,0,1-2.156-2.3V473.879a2.237,2.237,0,0,1,2.156-2.3Zm0,0" transform="translate(-5591.9 -328.987)" fill="#aec8e6" fill-rule="evenodd"/>
        <path id="Trazado_634389" data-name="Trazado 634389" d="M5683.836,512.056a2.642,2.642,0,1,1-2.647,2.642,2.642,2.642,0,0,1,2.647-2.642Zm27.551,0a2.642,2.642,0,1,1-2.643,2.642,2.643,2.643,0,0,1,2.643-2.642Zm-9.184,0a2.642,2.642,0,1,1-2.643,2.642,2.639,2.639,0,0,1,2.643-2.642Zm-9.184,0a2.642,2.642,0,1,1-2.647,2.642,2.639,2.639,0,0,1,2.647-2.642Zm0,0" transform="translate(-5605.269 -358.78)" fill="#eee5f4" fill-rule="evenodd"/>
        <rect id="Rectángulo_305362" data-name="Rectángulo 305362" width="82.813" height="33.431" transform="translate(90.336 107.183)" fill="#0b5999"/>
        <rect id="Rectángulo_305363" data-name="Rectángulo 305363" width="125.616" height="30.611" transform="translate(68.936 107.183)" fill="#5e849e"/>
        <path id="Trazado_634390" data-name="Trazado 634390" d="M5665.183,344.925h116.924a2.237,2.237,0,0,1,2.157,2.3v22.052a2.241,2.241,0,0,1-2.157,2.3H5665.183a2.24,2.24,0,0,1-2.156-2.3V347.224a2.237,2.237,0,0,1,2.156-2.3Zm0,0" transform="translate(-5591.9 -235.762)" fill="#aec8e6" fill-rule="evenodd"/>
        <path id="Trazado_634391" data-name="Trazado 634391" d="M5683.836,385.38a2.645,2.645,0,1,1-2.647,2.647,2.647,2.647,0,0,1,2.647-2.647Zm27.551,0a2.645,2.645,0,1,1-2.643,2.647,2.647,2.647,0,0,1,2.643-2.647Zm-9.184,0a2.645,2.645,0,1,1-2.643,2.647,2.643,2.643,0,0,1,2.643-2.647Zm-9.184,0a2.645,2.645,0,1,1-2.647,2.647,2.643,2.643,0,0,1,2.647-2.647Zm0,0" transform="translate(-5605.269 -265.539)" fill="#e7f1fb" fill-rule="evenodd"/>
        <rect id="Rectángulo_305364" data-name="Rectángulo 305364" width="82.813" height="33.435" transform="translate(90.336 73.747)" fill="#0b5999"/>
        <rect id="Rectángulo_305365" data-name="Rectángulo 305365" width="125.616" height="30.616" transform="translate(68.936 73.747)" fill="#5e849e"/>
        <path id="Trazado_634392" data-name="Trazado 634392" d="M5665.183,218.266h116.924a2.237,2.237,0,0,1,2.157,2.3v22.055a2.237,2.237,0,0,1-2.157,2.3H5665.183a2.237,2.237,0,0,1-2.156-2.3V220.561a2.236,2.236,0,0,1,2.156-2.3Zm0,0" transform="translate(-5591.9 -142.533)" fill="#aec8e6" fill-rule="evenodd"/>
        <path id="Trazado_634393" data-name="Trazado 634393" d="M5683.836,258.725a2.644,2.644,0,1,1-2.647,2.646,2.646,2.646,0,0,1,2.647-2.646Zm27.551,0a2.644,2.644,0,1,1-2.643,2.646,2.647,2.647,0,0,1,2.643-2.646Zm-9.184,0a2.644,2.644,0,1,1-2.643,2.646,2.642,2.642,0,0,1,2.643-2.646Zm-9.184,0a2.644,2.644,0,1,1-2.647,2.646,2.643,2.643,0,0,1,2.647-2.646Zm0,0" transform="translate(-5605.269 -172.314)" fill="#e7f1fb" fill-rule="evenodd"/>
        <rect id="Rectángulo_305366" data-name="Rectángulo 305366" width="82.813" height="33.43" transform="translate(90.336 40.317)" fill="#0b5999"/>
        <rect id="Rectángulo_305367" data-name="Rectángulo 305367" width="125.616" height="30.611" transform="translate(68.936 40.317)" fill="#5e849e"/>
        <path id="Trazado_634394" data-name="Trazado 634394" d="M5665.183,91.59h116.924a2.241,2.241,0,0,1,2.157,2.3v22.052a2.237,2.237,0,0,1-2.157,2.3H5665.183a2.237,2.237,0,0,1-2.156-2.3V93.889a2.24,2.24,0,0,1,2.156-2.3Zm0,0" transform="translate(-5591.9 -49.292)" fill="#aec8e6" fill-rule="evenodd"/>
        <path id="Trazado_634395" data-name="Trazado 634395" d="M5683.836,132.066a2.645,2.645,0,1,1-2.647,2.642,2.646,2.646,0,0,1,2.647-2.642Zm27.551,0a2.645,2.645,0,1,1-2.643,2.642,2.647,2.647,0,0,1,2.643-2.642Zm-9.184,0a2.645,2.645,0,1,1-2.643,2.642,2.642,2.642,0,0,1,2.643-2.642Zm-9.184,0a2.645,2.645,0,1,1-2.647,2.642,2.643,2.643,0,0,1,2.647-2.642Zm0,0" transform="translate(-5605.269 -79.085)" fill="#e7f1fb" fill-rule="evenodd"/>
        <path id="Trazado_634396" data-name="Trazado 634396" d="M5838.834,208.511h3.566v17.71h-3.566Zm62.428-100.29h3.566v17.71h-3.566Zm-6.246,0h3.571v17.71h-3.571Zm-6.241,0h3.57v17.71h-3.57Zm-6.241,0h3.566v17.71h-3.566Zm-6.242,0h3.565v17.71h-3.565Zm-6.246,0h3.571v17.71h-3.571Zm-6.242,0h3.566v17.71H5863.8Zm-6.241,0h3.566v17.71h-3.566Zm-6.246,0h3.571v17.71h-3.571Zm-6.241,0h3.566v17.71h-3.566Zm-6.241,0h3.566v17.71h-3.566Zm62.428,33.431h3.566v17.709h-3.566Zm-6.246,0h3.571v17.709h-3.571Zm-6.241,0h3.57v17.709h-3.57Zm-6.241,0h3.566v17.709h-3.566Zm-6.242,0h3.565v17.709h-3.565Zm-6.246,0h3.571v17.709h-3.571Zm-6.242,0h3.566v17.709H5863.8Zm-6.241,0h3.566v17.709h-3.566Zm-6.246,0h3.571v17.709h-3.571Zm-6.241,0h3.566v17.709h-3.566Zm-6.241,0h3.566v17.709h-3.566Zm62.428,33.429h3.566v17.71h-3.566Zm-6.246,0h3.571v17.71h-3.571Zm-6.241,0h3.57v17.71h-3.57Zm-6.241,0h3.566v17.71h-3.566Zm-6.242,0h3.565v17.71h-3.565Zm-6.246,0h3.571v17.71h-3.571Zm-6.242,0h3.566v17.71H5863.8Zm-6.241,0h3.566v17.71h-3.566Zm-6.246,0h3.571v17.71h-3.571Zm-6.241,0h3.566v17.71h-3.566Zm-6.241,0h3.566v17.71h-3.566Zm62.428,33.43h3.566v17.71h-3.566Zm-6.246,0h3.571v17.71h-3.571Zm-6.241,0h3.57v17.71h-3.57Zm-6.241,0h3.566v17.71h-3.566Zm-6.242,0h3.565v17.71h-3.565Zm-6.246,0h3.571v17.71h-3.571Zm-6.242,0h3.566v17.71H5863.8Zm-6.241,0h3.566v17.71h-3.566Zm-6.246,0h3.571v17.71h-3.571Zm-6.241,0h3.566v17.71h-3.566Zm0,0" transform="translate(-5721.305 -61.534)" fill="#5e849e" fill-rule="evenodd"/>
        <path id="Trazado_634397" data-name="Trazado 634397" d="M5520.6,657.056c70.174,0,127.056,6.484,127.056,14.487s-56.882,14.492-127.056,14.492-127.055-6.489-127.055-14.492,56.887-14.487,127.055-14.487Zm0,0" transform="translate(-5393.55 -465.509)" fill="#c7dcf5" fill-rule="evenodd"/>
        <path id="Trazado_634398" data-name="Trazado 634398" d="M6181.561,24.9c2.723-3.98-3.156-5-3.1-9.36.038-3-1.843-6.132-1.281-9.126,1.157-6.132-1.238-7.988-1.252-8.456-.143-4.646-2.923-4.765-5.685-6.326-4.908-2.78-9.179.619-10.569.709-7.093.462-3.166,3.514-6.341,6.26-2.613,2.261-1.376,3.98-1.109,5.337.124.615.69,3.137-1.119,4.413-2.656,1.871.063,6.869-1.5,7.341-6.027,1.828-3.6,2.58-3.442,6.788.053,1.352,1.353,2.371,2.2,3.362,10.383-3.251,17.525,9.664,33.2-.943Zm0,0" transform="translate(-5947.064 25.084)" fill="#12263f" fill-rule="evenodd"/>
        <path id="Trazado_634399" data-name="Trazado 634399" d="M6216.533,95.681a3.965,3.965,0,0,0-1.4-1.385,20.3,20.3,0,0,1-9.526,2.652,54.421,54.421,0,0,0,.781,6.066q8.284-6.442,10.15-7.332Zm0,0" transform="translate(-5991.268 -51.284)" fill="#eee5f4" fill-rule="evenodd"/>
        <path id="Trazado_634400" data-name="Trazado 634400" d="M6192.008,96.05a20.374,20.374,0,0,0-1.647,4.8,6.431,6.431,0,0,1,4.023-3.294c-.695-.728-.638-1.671-.918-2.433-.781.48-1.267.785-1.457.924Zm0,0" transform="translate(-5980.049 -51.895)" fill="#eee5f4" fill-rule="evenodd"/>
        <path id="Trazado_634401" data-name="Trazado 634401" d="M6157.863,98.677c-8.341,21.2-1.31,19.552,16.758.457a18.617,18.617,0,0,1,2.909.934q-3.521,3.248-2.633,10.878.535,5.906,1.171,11.483a19.138,19.138,0,0,0-1.643,7.255,30.152,30.152,0,0,0,.719,7.228,100.376,100.376,0,0,0,4.514,14.334q-18.967,6.462-32.478.142c5.222-11.478,4.528-15.038,3.932-22.718-.591-12.469-8.188-8.555,4.446-29.521a10.859,10.859,0,0,1,2.3-.472Zm0,0" transform="translate(-5948.266 -54.509)" fill="#ef3c79" fill-rule="evenodd"/>
        <path id="Trazado_634402" data-name="Trazado 634402" d="M6182.67,100.033a54.427,54.427,0,0,0,.781,6.066q8.284-6.442,10.15-7.332c.371.067.737.148,1.09.228-18.067,19.1-25.1,20.743-16.758-.457a16.405,16.405,0,0,1,2.361-.014,20.307,20.307,0,0,0-1.647,4.8,6.43,6.43,0,0,1,4.022-3.294Zm0,0" transform="translate(-5968.336 -54.37)" fill="#fecb2f" fill-rule="evenodd"/>
        <path id="Trazado_634403" data-name="Trazado 634403" d="M6222.686,133.758q5.156.015,9.617-.385-1.164-8.828-2.043-18.548-.885-7.627,2.633-10.878a9.665,9.665,0,0,1,5.96,6.17c1.843,5.955,1.619,28.14-.39,30.149q-3.8,1.664-16.068-.681a11.9,11.9,0,0,0,.291-5.827Zm0,0" transform="translate(-6003.628 -58.387)" fill="#fecb2f" fill-rule="evenodd"/>
        <path id="Trazado_634404" data-name="Trazado 634404" d="M6180.856,208.124c.466.053,1.2.1,2.2.142a11.882,11.882,0,0,1-.181,4c-.876-.162-1.99-.4-3.333-.7a19.513,19.513,0,0,1-8.646-.095q-3.514-1.35-2.133-4.952,5.492.643,6.575-.415-1.921-.977-1.357-2.256,5.4,1.978,6.87,4.271Zm0,0" transform="translate(-5963.87 -131.925)" fill="#ffb27d" fill-rule="evenodd"/>
        <path id="Trazado_634405" data-name="Trazado 634405" d="M6097.074,184.1l-25.632-3.88,5.532,11.069,25.685,4.027-.409-.82q-1.293-.135-2.7-.418-3.514-1.35-2.133-4.952c.829.1,1.581.162,2.261.2Zm0,0" transform="translate(-5892.518 -114.533)" fill="#d9dadb" fill-rule="evenodd"/>
        <path id="Trazado_634406" data-name="Trazado 634406" d="M6108.674,203.348l1.128,2.247c-.357-.034-.737-.077-1.128-.119q-1.2,3.128,1.3,4.555l-21.076-3.295-2.157-4.308a37.782,37.782,0,0,0,9,1.942,3.5,3.5,0,0,0,2.381,1.247.871.871,0,0,0,.971-1.1,41.393,41.393,0,0,0,9.583-1.171Zm0,0" transform="translate(-5903.775 -130.877)" fill="#b1b3b4" fill-rule="evenodd"/>
        <path id="Trazado_634407" data-name="Trazado 634407" d="M6191.417,234.4l-2.847.733-.409-.82a20.361,20.361,0,0,0,3.256.086Zm0,0" transform="translate(-5978.431 -154.347)" fill="#b1b3b4" fill-rule="evenodd"/>
        <path id="Trazado_634408" data-name="Trazado 634408" d="M6117.952,226.189l2.847-.733a14.011,14.011,0,0,0,2.69-.409c.9.2,1.7.376,2.39.514l-7.1,2.328-7-1.19-19.557-3.323.048-1.214,18.776,2.947V225.1Zm0,0" transform="translate(-5907.813 -145.401)" fill="#b1b3b4" fill-rule="evenodd"/>
        <path id="Trazado_634409" data-name="Trazado 634409" d="M6144.872,182.177a13.134,13.134,0,0,0,2.523-3.284c.4,1.132.895,2.328,1.294,3.864Zm0,0" transform="translate(-5946.567 -113.553)" fill="#fecb2f" fill-rule="evenodd"/>
        <path id="Trazado_634410" data-name="Trazado 634410" d="M6161.565,100.465a82.013,82.013,0,0,0-5.9,11.183c-1.076-8.412.462-10.307,5.9-11.183Zm0,0" transform="translate(-5954.272 -55.825)" fill="#fecb2f" fill-rule="evenodd"/>
        <path id="Trazado_634411" data-name="Trazado 634411" d="M6170.852,300.3q4.477,9.242,2.518,40.172-24.594,3.328-35.443-.681.885-28.243,3.984-39.319,12.3,4.977,28.941-.172Zm0,0" transform="translate(-5941.455 -202.912)" fill="#0b5999" fill-rule="evenodd"/>
        <path id="Trazado_634412" data-name="Trazado 634412" d="M6200.685,44.1a20.3,20.3,0,0,1-9.526,2.652,4.3,4.3,0,0,1-.828-2.152,1.083,1.083,0,0,1-.033-.119,2.432,2.432,0,0,0,.547-2.437.318.318,0,0,1-.014-.057c-3.618-1.214-5.865-7.3-4.395-10.874-.071-1.2-.19-2.438-.343-3.723,5.356,1.558,8.722,1.471,12.645-1.29a7,7,0,0,1,.619,4.689c-.091.652-.424,2.042.447,2.171.405-2.262,1.229-3.514,2.757-2.971,1.356,2.176.547,4.918-2.719,5.484q-1.442,2.978-1.243,4.07c-.1,1.233.981,2.9,1.791,4.113.1.157.2.3.295.443Zm0,0" transform="translate(-5976.824 -1.087)" fill="#ffb27d" fill-rule="evenodd"/>
        <path id="Trazado_634413" data-name="Trazado 634413" d="M6204.286,84.412a8.769,8.769,0,0,0,5.208-.575,7.545,7.545,0,0,1-5.156,2.17,3.357,3.357,0,0,0-.052-1.595Zm0,0" transform="translate(-5990.3 -43.586)" fill="#f08261" fill-rule="evenodd"/>
        <path id="Trazado_634414" data-name="Trazado 634414" d="M6144.46,470.532q-.636-8.712-.752-18.486a51.1,51.1,0,0,0,13.668,1.623c-1.319,5.58-3.328,11.683-4.371,17.705,5.551,15.058-2.09,27.5-1.009,37.348-1.514,2.414-4.022,7.869-7.812,9.874-1.262-.328-.318-1.48-.738-2.137q2.928-3.042,3.666-9.545.679-15.453-2.651-36.382Zm0,0" transform="translate(-5945.517 -314.609)" fill="#ffb27d" fill-rule="evenodd"/>
        <path id="Trazado_634415" data-name="Trazado 634415" d="M6212.313,469.968c-1.143-4.761-3.218-9.56-4.728-14.735q6.063-.143,13.5-1.024-.122,7.327-.19,15.3c7.774,13.749,2.571,29.812,4.646,36.72-1.514,3.594-1.919,8.093-5.284,10.74-1.243-.1-.6-1.309-1.066-1.876a24,24,0,0,0,1.732-9.041q-1.786-15.553-8.607-36.082Zm0,0" transform="translate(-5992.728 -316.202)" fill="#ffb27d" fill-rule="evenodd"/>
        <path id="Trazado_634416" data-name="Trazado 634416" d="M6115.7,672.784c2.662.143.233,2.143,1.966,2.595,3.79-2,5.889-7.465,7.4-9.878.795-1.266,1.371.348,1.766,2.157.624,2.875-.167,1.871-.519,4.166-.091.576.652,3.656.771,5.37a1.3,1.3,0,0,1-.391,1.057c-.69-1.166-1.286-4.761-1.919-6.955-3.718,3.2-2.909,6.722-5.112,7.922-5.294.566-8.151.709-12.169.795-.886-3.3,6.1-2.19,8.2-7.227Zm0,0" transform="translate(-5919.002 -471.392)" fill="#0b5999" fill-rule="evenodd"/>
        <path id="Trazado_634417" data-name="Trazado 634417" d="M6227.942,658.536c2.571-.324.609,2,2.352,2.137,3.251-2.557,4.261-8.131,5.266-10.693.528-1.347,1.376.1,2.08,1.757,1.123,2.637.186,1.814.267,4.071.02.562,1.29,3.38,1.719,4.994a1.282,1.282,0,0,1-.181,1.076c-.877-1-2.1-4.328-3.1-6.317-2.971,3.689-1.547,6.917-3.437,8.441-4.951,1.443-7.655,2.066-11.478,2.832-1.447-3,5.432-3.132,6.518-8.3Zm0,0" transform="translate(-6002.768 -459.909)" fill="#0b5999" fill-rule="evenodd"/>
        <path id="Trazado_634418" data-name="Trazado 634418" d="M6121.86,203.764c-.619,0-.829.5-.471,1.114a2.309,2.309,0,0,0,1.757,1.114c.613,0,.823-.5.471-1.114a2.317,2.317,0,0,0-1.757-1.114Zm0,0" transform="translate(-5929.154 -131.859)" fill="#b1b3b4" fill-rule="evenodd"/>
      </g>
      <g id="Grupo_910292" data-name="Grupo 910292" transform="translate(5186.168 -42.123)">
        <g id="Grupo_910290" data-name="Grupo 910290" transform="translate(0 0)">
          <path id="Trazado_634419" data-name="Trazado 634419" d="M5187.752,58.84a5,5,0,0,1,3.869-1.332c15.2,1.367,43.552-5.954,62.083-24.915,1.287-1.317,3.632-.572,5.107.53,20.609,15.4,54.772,18.593,66.632,19.245a5,5,0,0,1,4.7,4.482c10.785,104.165-57.036,141.911-71.1,148.574a5.015,5.015,0,0,1-4.792-.277c-70.105-43.668-67.107-100.456-68.076-142.534A5.012,5.012,0,0,1,5187.752,58.84Z" transform="translate(-5186.168 -31.891)" fill="url(#linear-gradient)"/>
          <path id="Trazado_634420" data-name="Trazado 634420" d="M5278.166,223.056a1.671,1.671,0,0,1-.9-.262c-26.876-17.181-44.394-37.721-53.553-62.794-8.18-22.393-8.58-45.2-8.934-65.313L5214.732,92a1.642,1.642,0,0,1,.473-1.189,1.661,1.661,0,0,1,1.193-.5h0c16.645,0,41.627-7.349,59.951-23.768a1.66,1.66,0,0,1,2.026-.146c20.133,13.359,48.852,17.249,64.179,18.378a1.653,1.653,0,0,1,1.53,1.512c3.563,40.644-4.891,75.012-25.126,102.152a120.615,120.615,0,0,1-40.037,34.43h0A1.664,1.664,0,0,1,5278.166,223.056Zm.444-.789.156.3-.156-.3a119.885,119.885,0,0,0,39.8-34.23c20.132-27,28.542-61.213,24.994-101.685a.974.974,0,0,0-.9-.891c-15.394-1.135-44.243-5.045-64.506-18.49a.977.977,0,0,0-1.193.086C5258.347,83.6,5233.173,91,5216.413,91h0a.989.989,0,0,0-.72.295.959.959,0,0,0-.278.7l.048,2.682c.353,20.065.752,42.806,8.893,65.092,9.1,24.927,26.533,45.355,53.279,62.453A.984.984,0,0,0,5278.61,222.266Z" transform="translate(-5207.193 -57.089)" fill="#fff" opacity="0.61"/>
        </g>
        <g id="Grupo_910291" data-name="Grupo 910291" transform="translate(39.872 36.689)" style="isolation: isolate">
          <path id="Trazado_634421" data-name="Trazado 634421" d="M5412.429,200.476h-3.17a2.85,2.85,0,0,1-2.85-2.85V186.79a7.023,7.023,0,0,0-7.023-7.023h-19.644a7.023,7.023,0,0,0-7.023,7.023v10.836a2.851,2.851,0,0,1-2.851,2.85h-3.17a2.85,2.85,0,0,1-2.85-2.85V186.79a15.894,15.894,0,0,1,15.894-15.894h19.644a15.894,15.894,0,0,1,15.894,15.894v10.836A2.85,2.85,0,0,1,5412.429,200.476Z" transform="translate(-5356.823 -170.896)" fill="#fecb2f" opacity="0.61"/>
          <path id="Trazado_634422" data-name="Trazado 634422" d="M5396.767,292.656h-53.59a5.946,5.946,0,0,0-5.946,5.946V339.73a5.946,5.946,0,0,0,5.946,5.946h53.59a5.946,5.946,0,0,0,5.946-5.946V298.6A5.946,5.946,0,0,0,5396.767,292.656Zm-19.127,39.751a2.2,2.2,0,0,1-2.143,2.718h-11.051a2.2,2.2,0,0,1-2.142-2.718l2.579-10.734a9.933,9.933,0,1,1,10.177,0Z" transform="translate(-5337.231 -260.519)" fill="#fecb2f" opacity="0.61"/>
        </g>
      </g>
    </g>
  </g>
</svg>
