<svg xmlns="http://www.w3.org/2000/svg" xmlns:xlink="http://www.w3.org/1999/xlink" width="385" height="396.579" viewBox="0 0 385 396.579">
  <defs>
    <clipPath id="clip-path">
      <rect id="Rectángulo_304176" data-name="Rectángulo 304176" width="385" height="297" transform="translate(0 -0.464)" fill="none"/>
    </clipPath>
  </defs>
  <g id="Grupo_911090" data-name="Grupo 911090" transform="translate(6614.891 15856.096)">
    <g id="Grupo_911053" data-name="Grupo 911053" transform="translate(-7636.549 -19681.516)">
      <g id="Grupo_897631" data-name="Grupo 897631" transform="translate(44.869 -3199.041)">
        <g id="Grupo_140420" data-name="Grupo 140420" transform="translate(1001 7025)">
          <g id="Rectángulo_293060" data-name="Rectángulo 293060" transform="translate(50.055 33.192)" fill="none" stroke="#ef3c79" stroke-width="5">
            <rect width="258.052" height="317.794" rx="30" stroke="none"/>
            <rect x="2.5" y="2.5" width="253.052" height="312.794" rx="27.5" fill="none"/>
          </g>
          <g id="Grupo_873686" data-name="Grupo 873686" transform="translate(0 0)">
            <path id="Trazado_1" data-name="Trazado 1" d="M56-75.2-45.679,26.481q.706,4.361,1.827,8.572L64.573-73.372Q60.365-74.491,56-75.2Z" transform="translate(46.837 76.357)" fill="none" stroke="#8f9294" stroke-miterlimit="10" stroke-width="1.078"/>
            <path id="Trazado_2" data-name="Trazado 2" d="M65.23-72.715-43.195,35.71q1.071,4.028,2.5,7.9L73.132-70.217Q69.264-71.647,65.23-72.715Z" transform="translate(46.18 75.7)" fill="none" stroke="#8f9294" stroke-miterlimit="10" stroke-width="1.078"/>
            <path id="Trazado_3" data-name="Trazado 3" d="M105.817-48.491-18.971,76.3c1.581,1.879,3.231,3.7,4.962,5.438L111.255-43.529C109.515-45.259,107.7-46.91,105.817-48.491Z" transform="translate(39.773 69.293)" fill="none" stroke="#8f9294" stroke-miterlimit="10" stroke-width="1.078"/>
            <path id="Trazado_4" data-name="Trazado 4" d="M98.317-54.647-25.128,68.8q2.147,3.03,4.529,5.871L104.189-50.119Q101.354-52.506,98.317-54.647Z" transform="translate(41.401 70.921)" fill="none" stroke="#8f9294" stroke-miterlimit="10" stroke-width="1.078"/>
            <path id="Trazado_5" data-name="Trazado 5" d="M82.452-65.12-35.6,52.932c1.105,2.321,2.32,4.579,3.616,6.784L89.235-61.5C87.031-62.8,84.773-64.015,82.452-65.12Z" transform="translate(44.171 73.691)" fill="none" stroke="#8f9294" stroke-miterlimit="10" stroke-width="1.078"/>
            <path id="Trazado_6" data-name="Trazado 6" d="M90.535-60.2-30.684,61.016q1.911,3.249,4.087,6.313L96.848-56.116Q93.784-58.289,90.535-60.2Z" transform="translate(42.871 72.391)" fill="none" stroke="#8f9294" stroke-miterlimit="10" stroke-width="1.078"/>
            <path id="Trazado_7" data-name="Trazado 7" d="M74.03-69.319-39.8,44.51q1.382,3.739,3.088,7.311L81.341-66.231Q77.77-67.931,74.03-69.319Z" transform="translate(45.282 74.802)" fill="none" stroke="#8f9294" stroke-miterlimit="10" stroke-width="1.078"/>
            <path id="Trazado_8" data-name="Trazado 8" d="M-38.97-18.277,11.242-68.489A88.825,88.825,0,0,0-38.97-18.277Z" transform="translate(45.062 74.582)" fill="none" stroke="#8f9294" stroke-miterlimit="10" stroke-width="1.078"/>
            <path id="Trazado_9" data-name="Trazado 9" d="M9.678-70.054-40.534-19.842a87.8,87.8,0,0,0-4.351,14.75L24.429-74.4A87.835,87.835,0,0,0,9.678-70.054Z" transform="translate(46.627 76.147)" fill="none" stroke="#8f9294" stroke-miterlimit="10" stroke-width="1.078"/>
            <path id="Trazado_10" data-name="Trazado 10" d="M46.253-76.583-47.064,16.734a88.805,88.805,0,0,0,1.019,9.382L55.635-75.565A88.827,88.827,0,0,0,46.253-76.583Z" transform="translate(47.203 76.723)" fill="none" stroke="#8f9294" stroke-miterlimit="10" stroke-width="1.078"/>
            <path id="Trazado_11" data-name="Trazado 11" d="M41.328-76.773c-1.875,0-3.731.078-5.578.193L-47.06,6.231c-.115,1.846-.193,3.7-.193,5.578,0,1.636.051,3.26.139,4.874L46.2-76.633C44.589-76.721,42.965-76.773,41.328-76.773Z" transform="translate(47.253 76.773)" fill="none" stroke="#8f9294" stroke-miterlimit="10" stroke-width="1.078"/>
            <path id="Trazado_12" data-name="Trazado 12" d="M23.872-74.962-45.442-5.648A88.618,88.618,0,0,0-46.991,6.3l82.81-82.811A88.738,88.738,0,0,0,23.872-74.962Z" transform="translate(47.184 76.704)" fill="none" stroke="#8f9294" stroke-miterlimit="10" stroke-width="1.078"/>
            <path id="Trazado_13" data-name="Trazado 13" d="M155.139,23.422l-102.2,102.2a88.661,88.661,0,0,0,9.321,1.078l93.955-93.954A88.617,88.617,0,0,0,155.139,23.422Z" transform="translate(20.754 50.274)" fill="none" stroke="#8f9294" stroke-miterlimit="10" stroke-width="1.078"/>
            <path id="Trazado_14" data-name="Trazado 14" d="M159.761,41.66c0-1.871-.078-3.723-.192-5.565L65.614,130.049c1.842.115,3.695.192,5.565.192,1.6,0,3.193-.048,4.774-.132l83.676-83.675C159.713,44.853,159.761,43.262,159.761,41.66Z" transform="translate(17.402 46.922)" fill="none" stroke="#8f9294" stroke-miterlimit="10" stroke-width="1.078"/>
            <path id="Trazado_15" data-name="Trazado 15" d="M163.347,50.152,79.671,133.827a88.625,88.625,0,0,0,11.848-1.448L161.9,62A88.757,88.757,0,0,0,163.347,50.152Z" transform="translate(13.685 43.204)" fill="none" stroke="#8f9294" stroke-miterlimit="10" stroke-width="1.078"/>
            <path id="Trazado_16" data-name="Trazado 16" d="M166.159,66.26l-70.38,70.379a87.869,87.869,0,0,0,14.429-4.029L162.13,80.689A88.032,88.032,0,0,0,166.159,66.26Z" transform="translate(9.424 38.944)" fill="none" stroke="#8f9294" stroke-miterlimit="10" stroke-width="1.078"/>
            <path id="Trazado_17" data-name="Trazado 17" d="M167.318,85.877,115.4,137.8A88.832,88.832,0,0,0,167.318,85.877Z" transform="translate(4.236 33.756)" fill="none" stroke="#8f9294" stroke-miterlimit="10" stroke-width="1.078"/>
            <path id="Trazado_18" data-name="Trazado 18" d="M150.2,11.837,41.357,120.677q4.183,1.143,8.52,1.879l102.2-102.2Q151.342,16.022,150.2,11.837Z" transform="translate(23.818 53.338)" fill="none" stroke="#8f9294" stroke-miterlimit="10" stroke-width="1.078"/>
            <path id="Trazado_19" data-name="Trazado 19" d="M126.636-26.455,3.065,97.116c2.032,1.458,4.12,2.839,6.275,4.124L130.76-20.18C129.475-22.335,128.094-24.423,126.636-26.455Z" transform="translate(33.945 63.465)" fill="none" stroke="#8f9294" stroke-miterlimit="10" stroke-width="1.078"/>
            <path id="Trazado_20" data-name="Trazado 20" d="M119.973-34.388-4.869,90.454q2.819,2.4,5.836,4.564L124.538-28.553Q122.374-31.567,119.973-34.388Z" transform="translate(36.043 65.563)" fill="none" stroke="#8f9294" stroke-miterlimit="10" stroke-width="1.078"/>
            <path id="Trazado_21" data-name="Trazado 21" d="M144.828,1.157,30.676,115.308q3.846,1.452,7.856,2.544L147.371,9.012Q146.277,5.006,144.828,1.157Z" transform="translate(26.643 56.162)" fill="none" stroke="#8f9294" stroke-miterlimit="10" stroke-width="1.078"/>
            <path id="Trazado_22" data-name="Trazado 22" d="M113.039-41.745-12.225,83.519c1.729,1.74,3.542,3.4,5.411,4.989L118.027-36.334C116.435-38.2,114.779-40.015,113.039-41.745Z" transform="translate(37.989 67.509)" fill="none" stroke="#8f9294" stroke-miterlimit="10" stroke-width="1.078"/>
            <path id="Trazado_23" data-name="Trazado 23" d="M139.093-8.746,20.773,109.573c2.369,1.147,4.8,2.179,7.284,3.116L142.209-1.462C141.272-3.944,140.24-6.378,139.093-8.746Z" transform="translate(29.262 58.781)" fill="none" stroke="#8f9294" stroke-miterlimit="10" stroke-width="1.078"/>
            <path id="Trazado_24" data-name="Trazado 24" d="M133.016-17.923,11.6,103.5c2.192,1.308,4.44,2.532,6.749,3.65L136.666-11.173C135.548-13.483,134.323-15.73,133.016-17.923Z" transform="translate(31.689 61.209)" fill="none" stroke="#8f9294" stroke-miterlimit="10" stroke-width="1.078"/>
          </g>
          <g id="Grupo_873687" data-name="Grupo 873687" transform="translate(171.527 209.944)">
            <g id="Grupo_68" data-name="Grupo 68" transform="translate(78.137 0)">
              <g id="Grupo_67" data-name="Grupo 67" transform="translate(0)">
                <rect id="Rectángulo_193" data-name="Rectángulo 193" width="3.125" height="3.125" transform="translate(95.203 97.412) rotate(-44.999)" fill="#8f9294"/>
                <rect id="Rectángulo_194" data-name="Rectángulo 194" width="2.965" height="2.965" transform="translate(86.548 88.645) rotate(-45)" fill="#8f9294"/>
                <rect id="Rectángulo_195" data-name="Rectángulo 195" width="2.806" height="2.806" transform="translate(77.893 79.878) rotate(-45)" fill="#8f9294"/>
                <rect id="Rectángulo_196" data-name="Rectángulo 196" width="2.647" height="2.647" transform="matrix(0.707, -0.707, 0.707, 0.707, 69.238, 71.11)" fill="#8f9294"/>
                <rect id="Rectángulo_197" data-name="Rectángulo 197" width="2.488" height="2.488" transform="translate(60.584 62.343) rotate(-45)" fill="#8f9294"/>
                <rect id="Rectángulo_198" data-name="Rectángulo 198" width="2.329" height="2.329" transform="matrix(0.707, -0.707, 0.707, 0.707, 51.929, 53.576)" fill="#8f9294"/>
                <rect id="Rectángulo_199" data-name="Rectángulo 199" width="2.17" height="2.17" transform="translate(43.274 44.808) rotate(-45)" fill="#8f9294"/>
                <rect id="Rectángulo_200" data-name="Rectángulo 200" width="2.011" height="2.011" transform="translate(34.619 36.041) rotate(-45.001)" fill="#8f9294"/>
                <rect id="Rectángulo_201" data-name="Rectángulo 201" width="1.852" height="1.852" transform="translate(25.964 27.274) rotate(-45)" fill="#8f9294"/>
                <rect id="Rectángulo_202" data-name="Rectángulo 202" width="1.693" height="1.693" transform="matrix(0.707, -0.707, 0.707, 0.707, 17.31, 18.507)" fill="#8f9294"/>
                <rect id="Rectángulo_203" data-name="Rectángulo 203" width="1.534" height="1.534" transform="translate(8.655 9.739) rotate(-45)" fill="#8f9294"/>
                <rect id="Rectángulo_204" data-name="Rectángulo 204" width="1.375" height="1.375" transform="matrix(0.707, -0.707, 0.707, 0.707, 0, 0.972)" fill="#8f9294"/>
              </g>
            </g>
            <g id="Grupo_70" data-name="Grupo 70" transform="translate(71.034 7.103)">
              <g id="Grupo_69" data-name="Grupo 69" transform="translate(0 0)">
                <rect id="Rectángulo_205" data-name="Rectángulo 205" width="3.125" height="3.125" transform="translate(95.203 97.412) rotate(-44.999)" fill="#8f9294"/>
                <rect id="Rectángulo_206" data-name="Rectángulo 206" width="2.965" height="2.965" transform="translate(86.548 88.645) rotate(-45)" fill="#8f9294"/>
                <rect id="Rectángulo_207" data-name="Rectángulo 207" width="2.806" height="2.806" transform="translate(77.893 79.878) rotate(-44.999)" fill="#8f9294"/>
                <rect id="Rectángulo_208" data-name="Rectángulo 208" width="2.647" height="2.647" transform="translate(69.238 71.11) rotate(-45)" fill="#8f9294"/>
                <rect id="Rectángulo_209" data-name="Rectángulo 209" width="2.488" height="2.488" transform="translate(60.584 62.343) rotate(-45)" fill="#8f9294"/>
                <rect id="Rectángulo_210" data-name="Rectángulo 210" width="2.329" height="2.329" transform="translate(51.929 53.576) rotate(-45)" fill="#8f9294"/>
                <rect id="Rectángulo_211" data-name="Rectángulo 211" width="2.17" height="2.17" transform="translate(43.274 44.808) rotate(-45)" fill="#8f9294"/>
                <rect id="Rectángulo_212" data-name="Rectángulo 212" width="2.011" height="2.011" transform="translate(34.619 36.041) rotate(-45)" fill="#8f9294"/>
                <rect id="Rectángulo_213" data-name="Rectángulo 213" width="1.852" height="1.852" transform="translate(25.964 27.274) rotate(-45)" fill="#8f9294"/>
                <rect id="Rectángulo_214" data-name="Rectángulo 214" width="1.693" height="1.693" transform="translate(17.31 18.507) rotate(-45)" fill="#8f9294"/>
                <rect id="Rectángulo_215" data-name="Rectángulo 215" width="1.534" height="1.534" transform="translate(8.655 9.739) rotate(-45)" fill="#8f9294"/>
                <rect id="Rectángulo_216" data-name="Rectángulo 216" width="1.375" height="1.375" transform="matrix(0.707, -0.707, 0.707, 0.707, 0, 0.972)" fill="#8f9294"/>
              </g>
            </g>
            <g id="Grupo_72" data-name="Grupo 72" transform="translate(63.93 14.207)">
              <g id="Grupo_71" data-name="Grupo 71" transform="translate(0 0)">
                <rect id="Rectángulo_217" data-name="Rectángulo 217" width="3.125" height="3.125" transform="translate(95.203 97.412) rotate(-44.999)" fill="#8f9294"/>
                <rect id="Rectángulo_218" data-name="Rectángulo 218" width="2.966" height="2.966" transform="translate(86.548 88.645) rotate(-44.999)" fill="#8f9294"/>
                <rect id="Rectángulo_219" data-name="Rectángulo 219" width="2.806" height="2.806" transform="translate(77.893 79.878) rotate(-44.999)" fill="#8f9294"/>
                <rect id="Rectángulo_220" data-name="Rectángulo 220" width="2.647" height="2.647" transform="matrix(0.707, -0.707, 0.707, 0.707, 69.238, 71.11)" fill="#8f9294"/>
                <rect id="Rectángulo_221" data-name="Rectángulo 221" width="2.488" height="2.488" transform="translate(60.584 62.343) rotate(-44.999)" fill="#8f9294"/>
                <rect id="Rectángulo_222" data-name="Rectángulo 222" width="2.329" height="2.329" transform="matrix(0.707, -0.707, 0.707, 0.707, 51.929, 53.576)" fill="#8f9294"/>
                <rect id="Rectángulo_223" data-name="Rectángulo 223" width="2.17" height="2.17" transform="matrix(0.707, -0.707, 0.707, 0.707, 43.274, 44.808)" fill="#8f9294"/>
                <rect id="Rectángulo_224" data-name="Rectángulo 224" width="2.011" height="2.011" transform="translate(34.619 36.041) rotate(-44.999)" fill="#8f9294"/>
                <rect id="Rectángulo_225" data-name="Rectángulo 225" width="1.852" height="1.852" transform="translate(25.964 27.274) rotate(-45)" fill="#8f9294"/>
                <rect id="Rectángulo_226" data-name="Rectángulo 226" width="1.693" height="1.693" transform="translate(17.31 18.507) rotate(-44.998)" fill="#8f9294"/>
                <rect id="Rectángulo_227" data-name="Rectángulo 227" width="1.534" height="1.534" transform="translate(8.655 9.739) rotate(-45)" fill="#8f9294"/>
                <rect id="Rectángulo_228" data-name="Rectángulo 228" width="1.375" height="1.375" transform="matrix(0.707, -0.707, 0.707, 0.707, 0, 0.972)" fill="#8f9294"/>
              </g>
            </g>
            <g id="Grupo_74" data-name="Grupo 74" transform="translate(56.827 21.31)">
              <g id="Grupo_73" data-name="Grupo 73" transform="translate(0 0)">
                <rect id="Rectángulo_229" data-name="Rectángulo 229" width="3.125" height="3.125" transform="translate(95.203 97.412) rotate(-45.001)" fill="#8f9294"/>
                <rect id="Rectángulo_230" data-name="Rectángulo 230" width="2.966" height="2.966" transform="translate(86.548 88.645) rotate(-45.001)" fill="#8f9294"/>
                <rect id="Rectángulo_231" data-name="Rectángulo 231" width="2.806" height="2.806" transform="translate(77.893 79.878) rotate(-45)" fill="#8f9294"/>
                <rect id="Rectángulo_232" data-name="Rectángulo 232" width="2.647" height="2.647" transform="matrix(0.707, -0.707, 0.707, 0.707, 69.238, 71.11)" fill="#8f9294"/>
                <rect id="Rectángulo_233" data-name="Rectángulo 233" width="2.488" height="2.488" transform="translate(60.584 62.343) rotate(-45)" fill="#8f9294"/>
                <rect id="Rectángulo_234" data-name="Rectángulo 234" width="2.329" height="2.329" transform="matrix(0.707, -0.707, 0.707, 0.707, 51.929, 53.576)" fill="#8f9294"/>
                <rect id="Rectángulo_235" data-name="Rectángulo 235" width="2.17" height="2.17" transform="translate(43.274 44.808) rotate(-45)" fill="#8f9294"/>
                <rect id="Rectángulo_236" data-name="Rectángulo 236" width="2.011" height="2.011" transform="translate(34.619 36.041) rotate(-45.001)" fill="#8f9294"/>
                <rect id="Rectángulo_237" data-name="Rectángulo 237" width="1.852" height="1.852" transform="translate(25.964 27.274) rotate(-45)" fill="#8f9294"/>
                <rect id="Rectángulo_238" data-name="Rectángulo 238" width="1.693" height="1.693" transform="translate(17.31 18.507) rotate(-45)" fill="#8f9294"/>
                <rect id="Rectángulo_239" data-name="Rectángulo 239" width="1.534" height="1.534" transform="translate(8.655 9.739) rotate(-45)" fill="#8f9294"/>
                <rect id="Rectángulo_240" data-name="Rectángulo 240" width="1.375" height="1.375" transform="translate(0 0.972) rotate(-44.998)" fill="#8f9294"/>
              </g>
            </g>
            <g id="Grupo_76" data-name="Grupo 76" transform="translate(49.724 28.414)">
              <g id="Grupo_75" data-name="Grupo 75" transform="translate(0 0)">
                <rect id="Rectángulo_241" data-name="Rectángulo 241" width="3.125" height="3.125" transform="translate(95.203 97.412) rotate(-45.001)" fill="#8f9294"/>
                <rect id="Rectángulo_242" data-name="Rectángulo 242" width="2.965" height="2.965" transform="translate(86.548 88.645) rotate(-45.001)" fill="#8f9294"/>
                <rect id="Rectángulo_243" data-name="Rectángulo 243" width="2.806" height="2.806" transform="translate(77.893 79.878) rotate(-45)" fill="#8f9294"/>
                <rect id="Rectángulo_244" data-name="Rectángulo 244" width="2.647" height="2.647" transform="matrix(0.707, -0.707, 0.707, 0.707, 69.238, 71.11)" fill="#8f9294"/>
                <rect id="Rectángulo_245" data-name="Rectángulo 245" width="2.488" height="2.488" transform="translate(60.584 62.343) rotate(-45)" fill="#8f9294"/>
                <rect id="Rectángulo_246" data-name="Rectángulo 246" width="2.329" height="2.329" transform="translate(51.929 53.576) rotate(-45.001)" fill="#8f9294"/>
                <rect id="Rectángulo_247" data-name="Rectángulo 247" width="2.17" height="2.17" transform="translate(43.274 44.808) rotate(-45)" fill="#8f9294"/>
                <rect id="Rectángulo_248" data-name="Rectángulo 248" width="2.011" height="2.011" transform="translate(34.619 36.041) rotate(-45.001)" fill="#8f9294"/>
                <rect id="Rectángulo_249" data-name="Rectángulo 249" width="1.852" height="1.852" transform="translate(25.964 27.274) rotate(-45)" fill="#8f9294"/>
                <rect id="Rectángulo_250" data-name="Rectángulo 250" width="1.693" height="1.693" transform="matrix(0.707, -0.707, 0.707, 0.707, 17.31, 18.507)" fill="#8f9294"/>
                <rect id="Rectángulo_251" data-name="Rectángulo 251" width="1.534" height="1.534" transform="translate(8.655 9.739) rotate(-45)" fill="#8f9294"/>
                <rect id="Rectángulo_252" data-name="Rectángulo 252" width="1.375" height="1.375" transform="matrix(0.707, -0.707, 0.707, 0.707, 0, 0.972)" fill="#8f9294"/>
              </g>
            </g>
            <g id="Grupo_78" data-name="Grupo 78" transform="translate(42.62 35.517)">
              <g id="Grupo_77" data-name="Grupo 77" transform="translate(0 0)">
                <rect id="Rectángulo_253" data-name="Rectángulo 253" width="3.125" height="3.125" transform="translate(95.203 97.412) rotate(-45)" fill="#8f9294"/>
                <rect id="Rectángulo_254" data-name="Rectángulo 254" width="2.965" height="2.965" transform="translate(86.548 88.645) rotate(-45)" fill="#8f9294"/>
                <rect id="Rectángulo_255" data-name="Rectángulo 255" width="2.806" height="2.806" transform="translate(77.893 79.878) rotate(-45.001)" fill="#8f9294"/>
                <rect id="Rectángulo_256" data-name="Rectángulo 256" width="2.647" height="2.647" transform="matrix(0.707, -0.707, 0.707, 0.707, 69.238, 71.11)" fill="#8f9294"/>
                <rect id="Rectángulo_257" data-name="Rectángulo 257" width="2.488" height="2.488" transform="matrix(0.707, -0.707, 0.707, 0.707, 60.584, 62.343)" fill="#8f9294"/>
                <rect id="Rectángulo_258" data-name="Rectángulo 258" width="2.329" height="2.329" transform="matrix(0.707, -0.707, 0.707, 0.707, 51.929, 53.576)" fill="#8f9294"/>
                <rect id="Rectángulo_259" data-name="Rectángulo 259" width="2.17" height="2.17" transform="translate(43.274 44.808) rotate(-45)" fill="#8f9294"/>
                <rect id="Rectángulo_260" data-name="Rectángulo 260" width="2.011" height="2.011" transform="translate(34.619 36.041) rotate(-45.001)" fill="#8f9294"/>
                <rect id="Rectángulo_261" data-name="Rectángulo 261" width="1.852" height="1.852" transform="translate(25.964 27.274) rotate(-45)" fill="#8f9294"/>
                <rect id="Rectángulo_262" data-name="Rectángulo 262" width="1.693" height="1.693" transform="matrix(0.707, -0.707, 0.707, 0.707, 17.31, 18.507)" fill="#8f9294"/>
                <rect id="Rectángulo_263" data-name="Rectángulo 263" width="1.534" height="1.534" transform="translate(8.655 9.739) rotate(-45)" fill="#8f9294"/>
                <rect id="Rectángulo_264" data-name="Rectángulo 264" width="1.375" height="1.375" transform="matrix(0.707, -0.707, 0.707, 0.707, 0, 0.972)" fill="#8f9294"/>
              </g>
            </g>
            <g id="Grupo_80" data-name="Grupo 80" transform="translate(35.517 42.62)">
              <g id="Grupo_79" data-name="Grupo 79" transform="translate(0 0)">
                <rect id="Rectángulo_265" data-name="Rectángulo 265" width="3.125" height="3.125" transform="translate(95.203 97.412) rotate(-44.999)" fill="#8f9294"/>
                <rect id="Rectángulo_266" data-name="Rectángulo 266" width="2.965" height="2.965" transform="translate(86.548 88.645) rotate(-45)" fill="#8f9294"/>
                <rect id="Rectángulo_267" data-name="Rectángulo 267" width="2.806" height="2.806" transform="translate(77.893 79.878) rotate(-44.999)" fill="#8f9294"/>
                <rect id="Rectángulo_268" data-name="Rectángulo 268" width="2.647" height="2.647" transform="translate(69.238 71.11) rotate(-45)" fill="#8f9294"/>
                <rect id="Rectángulo_269" data-name="Rectángulo 269" width="2.488" height="2.488" transform="translate(60.584 62.343) rotate(-44.999)" fill="#8f9294"/>
                <rect id="Rectángulo_270" data-name="Rectángulo 270" width="2.329" height="2.329" transform="matrix(0.707, -0.707, 0.707, 0.707, 51.929, 53.576)" fill="#8f9294"/>
                <rect id="Rectángulo_271" data-name="Rectángulo 271" width="2.17" height="2.17" transform="matrix(0.707, -0.707, 0.707, 0.707, 43.274, 44.808)" fill="#8f9294"/>
                <rect id="Rectángulo_272" data-name="Rectángulo 272" width="2.011" height="2.011" transform="translate(34.619 36.041) rotate(-45.001)" fill="#8f9294"/>
                <rect id="Rectángulo_273" data-name="Rectángulo 273" width="1.852" height="1.852" transform="translate(25.964 27.274) rotate(-45)" fill="#8f9294"/>
                <rect id="Rectángulo_274" data-name="Rectángulo 274" width="1.693" height="1.693" transform="translate(17.31 18.507) rotate(-45.002)" fill="#8f9294"/>
                <rect id="Rectángulo_275" data-name="Rectángulo 275" width="1.534" height="1.534" transform="translate(8.655 9.739) rotate(-45)" fill="#8f9294"/>
                <rect id="Rectángulo_276" data-name="Rectángulo 276" width="1.375" height="1.375" transform="matrix(0.707, -0.707, 0.707, 0.707, 0, 0.972)" fill="#8f9294"/>
              </g>
            </g>
            <g id="Grupo_82" data-name="Grupo 82" transform="translate(28.414 49.724)">
              <g id="Grupo_81" data-name="Grupo 81" transform="translate(0 0)">
                <rect id="Rectángulo_277" data-name="Rectángulo 277" width="3.125" height="3.125" transform="translate(95.203 97.412) rotate(-44.999)" fill="#8f9294"/>
                <rect id="Rectángulo_278" data-name="Rectángulo 278" width="2.965" height="2.965" transform="translate(86.548 88.645) rotate(-45)" fill="#8f9294"/>
                <rect id="Rectángulo_279" data-name="Rectángulo 279" width="2.806" height="2.806" transform="translate(77.893 79.878) rotate(-44.999)" fill="#8f9294"/>
                <rect id="Rectángulo_280" data-name="Rectángulo 280" width="2.647" height="2.647" transform="translate(69.238 71.11) rotate(-45)" fill="#8f9294"/>
                <rect id="Rectángulo_281" data-name="Rectángulo 281" width="2.488" height="2.488" transform="translate(60.584 62.343) rotate(-44.999)" fill="#8f9294"/>
                <rect id="Rectángulo_282" data-name="Rectángulo 282" width="2.329" height="2.329" transform="translate(51.929 53.576) rotate(-45)" fill="#8f9294"/>
                <rect id="Rectángulo_283" data-name="Rectángulo 283" width="2.17" height="2.17" transform="matrix(0.707, -0.707, 0.707, 0.707, 43.274, 44.808)" fill="#8f9294"/>
                <rect id="Rectángulo_284" data-name="Rectángulo 284" width="2.011" height="2.011" transform="translate(34.619 36.041) rotate(-45)" fill="#8f9294"/>
                <rect id="Rectángulo_285" data-name="Rectángulo 285" width="1.852" height="1.852" transform="translate(25.964 27.274) rotate(-45)" fill="#8f9294"/>
                <rect id="Rectángulo_286" data-name="Rectángulo 286" width="1.693" height="1.693" transform="translate(17.31 18.507) rotate(-45)" fill="#8f9294"/>
                <rect id="Rectángulo_287" data-name="Rectángulo 287" width="1.534" height="1.534" transform="translate(8.655 9.739) rotate(-45)" fill="#8f9294"/>
                <rect id="Rectángulo_288" data-name="Rectángulo 288" width="1.375" height="1.375" transform="matrix(0.707, -0.707, 0.707, 0.707, 0, 0.972)" fill="#8f9294"/>
              </g>
            </g>
            <g id="Grupo_84" data-name="Grupo 84" transform="translate(21.31 56.827)">
              <g id="Grupo_83" data-name="Grupo 83" transform="translate(0 0)">
                <rect id="Rectángulo_289" data-name="Rectángulo 289" width="3.125" height="3.125" transform="translate(95.203 97.412) rotate(-44.999)" fill="#8f9294"/>
                <rect id="Rectángulo_290" data-name="Rectángulo 290" width="2.966" height="2.966" transform="translate(86.548 88.645) rotate(-44.999)" fill="#8f9294"/>
                <rect id="Rectángulo_291" data-name="Rectángulo 291" width="2.806" height="2.806" transform="translate(77.893 79.878) rotate(-44.999)" fill="#8f9294"/>
                <rect id="Rectángulo_292" data-name="Rectángulo 292" width="2.647" height="2.647" transform="matrix(0.707, -0.707, 0.707, 0.707, 69.238, 71.11)" fill="#8f9294"/>
                <rect id="Rectángulo_293" data-name="Rectángulo 293" width="2.488" height="2.488" transform="translate(60.584 62.343) rotate(-44.999)" fill="#8f9294"/>
                <rect id="Rectángulo_294" data-name="Rectángulo 294" width="2.329" height="2.329" transform="matrix(0.707, -0.707, 0.707, 0.707, 51.929, 53.576)" fill="#8f9294"/>
                <rect id="Rectángulo_295" data-name="Rectángulo 295" width="2.17" height="2.17" transform="matrix(0.707, -0.707, 0.707, 0.707, 43.274, 44.808)" fill="#8f9294"/>
                <rect id="Rectángulo_296" data-name="Rectángulo 296" width="2.011" height="2.011" transform="translate(34.619 36.041) rotate(-44.999)" fill="#8f9294"/>
                <rect id="Rectángulo_297" data-name="Rectángulo 297" width="1.852" height="1.852" transform="matrix(0.707, -0.707, 0.707, 0.707, 25.964, 27.274)" fill="#8f9294"/>
                <rect id="Rectángulo_298" data-name="Rectángulo 298" width="1.693" height="1.693" transform="translate(17.31 18.506) rotate(-44.998)" fill="#8f9294"/>
                <rect id="Rectángulo_299" data-name="Rectángulo 299" width="1.534" height="1.534" transform="translate(8.655 9.739) rotate(-44.998)" fill="#8f9294"/>
                <rect id="Rectángulo_300" data-name="Rectángulo 300" width="1.375" height="1.375" transform="translate(0 0.972) rotate(-44.998)" fill="#8f9294"/>
              </g>
            </g>
            <g id="Grupo_86" data-name="Grupo 86" transform="translate(14.207 63.93)">
              <g id="Grupo_85" data-name="Grupo 85" transform="translate(0 0)">
                <rect id="Rectángulo_301" data-name="Rectángulo 301" width="3.125" height="3.125" transform="matrix(0.707, -0.707, 0.707, 0.707, 95.203, 97.412)" fill="#8f9294"/>
                <rect id="Rectángulo_302" data-name="Rectángulo 302" width="2.966" height="2.966" transform="translate(86.548 88.645) rotate(-45.001)" fill="#8f9294"/>
                <rect id="Rectángulo_303" data-name="Rectángulo 303" width="2.806" height="2.806" transform="translate(77.893 79.878) rotate(-45.001)" fill="#8f9294"/>
                <rect id="Rectángulo_304" data-name="Rectángulo 304" width="2.647" height="2.647" transform="matrix(0.707, -0.707, 0.707, 0.707, 69.238, 71.11)" fill="#8f9294"/>
                <rect id="Rectángulo_305" data-name="Rectángulo 305" width="2.488" height="2.488" transform="translate(60.584 62.343) rotate(-45)" fill="#8f9294"/>
                <rect id="Rectángulo_306" data-name="Rectángulo 306" width="2.329" height="2.329" transform="translate(51.929 53.576) rotate(-45.001)" fill="#8f9294"/>
                <rect id="Rectángulo_307" data-name="Rectángulo 307" width="2.17" height="2.17" transform="translate(43.274 44.808) rotate(-45)" fill="#8f9294"/>
                <rect id="Rectángulo_308" data-name="Rectángulo 308" width="2.011" height="2.011" transform="translate(34.619 36.041) rotate(-45.001)" fill="#8f9294"/>
                <rect id="Rectángulo_309" data-name="Rectángulo 309" width="1.852" height="1.852" transform="translate(25.964 27.274) rotate(-45)" fill="#8f9294"/>
                <rect id="Rectángulo_310" data-name="Rectángulo 310" width="1.693" height="1.693" transform="translate(17.31 18.507) rotate(-45)" fill="#8f9294"/>
                <rect id="Rectángulo_311" data-name="Rectángulo 311" width="1.534" height="1.534" transform="translate(8.655 9.739) rotate(-45)" fill="#8f9294"/>
                <rect id="Rectángulo_312" data-name="Rectángulo 312" width="1.375" height="1.375" transform="translate(0 0.972) rotate(-45)" fill="#8f9294"/>
              </g>
            </g>
            <g id="Grupo_88" data-name="Grupo 88" transform="translate(7.103 71.034)">
              <g id="Grupo_87" data-name="Grupo 87" transform="translate(0 0)">
                <rect id="Rectángulo_313" data-name="Rectángulo 313" width="3.125" height="3.125" transform="translate(95.203 97.412) rotate(-45)" fill="#8f9294"/>
                <rect id="Rectángulo_314" data-name="Rectángulo 314" width="2.965" height="2.965" transform="translate(86.548 88.645) rotate(-45)" fill="#8f9294"/>
                <rect id="Rectángulo_315" data-name="Rectángulo 315" width="2.806" height="2.806" transform="translate(77.893 79.878) rotate(-45)" fill="#8f9294"/>
                <rect id="Rectángulo_316" data-name="Rectángulo 316" width="2.647" height="2.647" transform="matrix(0.707, -0.707, 0.707, 0.707, 69.238, 71.11)" fill="#8f9294"/>
                <rect id="Rectángulo_317" data-name="Rectángulo 317" width="2.488" height="2.488" transform="translate(60.584 62.343) rotate(-45.001)" fill="#8f9294"/>
                <rect id="Rectángulo_318" data-name="Rectángulo 318" width="2.329" height="2.329" transform="matrix(0.707, -0.707, 0.707, 0.707, 51.929, 53.576)" fill="#8f9294"/>
                <rect id="Rectángulo_319" data-name="Rectángulo 319" width="2.17" height="2.17" transform="translate(43.274 44.808) rotate(-45)" fill="#8f9294"/>
                <rect id="Rectángulo_320" data-name="Rectángulo 320" width="2.011" height="2.011" transform="translate(34.619 36.041) rotate(-45.001)" fill="#8f9294"/>
                <rect id="Rectángulo_321" data-name="Rectángulo 321" width="1.852" height="1.852" transform="translate(25.964 27.274) rotate(-45)" fill="#8f9294"/>
                <rect id="Rectángulo_322" data-name="Rectángulo 322" width="1.693" height="1.693" transform="matrix(0.707, -0.707, 0.707, 0.707, 17.31, 18.507)" fill="#8f9294"/>
                <rect id="Rectángulo_323" data-name="Rectángulo 323" width="1.534" height="1.534" transform="translate(8.655 9.739) rotate(-45)" fill="#8f9294"/>
                <rect id="Rectángulo_324" data-name="Rectángulo 324" width="1.375" height="1.375" transform="matrix(0.707, -0.707, 0.707, 0.707, 0, 0.972)" fill="#8f9294"/>
              </g>
            </g>
            <g id="Grupo_90" data-name="Grupo 90" transform="translate(0 78.137)">
              <g id="Grupo_89" data-name="Grupo 89" transform="translate(0 0)">
                <rect id="Rectángulo_325" data-name="Rectángulo 325" width="3.125" height="3.125" transform="translate(95.203 97.412) rotate(-45)" fill="#8f9294"/>
                <rect id="Rectángulo_326" data-name="Rectángulo 326" width="2.965" height="2.965" transform="translate(86.548 88.645) rotate(-45)" fill="#8f9294"/>
                <rect id="Rectángulo_327" data-name="Rectángulo 327" width="2.806" height="2.806" transform="translate(77.893 79.878) rotate(-45)" fill="#8f9294"/>
                <rect id="Rectángulo_328" data-name="Rectángulo 328" width="2.647" height="2.647" transform="translate(69.238 71.11) rotate(-45)" fill="#8f9294"/>
                <rect id="Rectángulo_329" data-name="Rectángulo 329" width="2.488" height="2.488" transform="translate(60.584 62.343) rotate(-45)" fill="#8f9294"/>
                <rect id="Rectángulo_330" data-name="Rectángulo 330" width="2.329" height="2.329" transform="translate(51.929 53.576) rotate(-45)" fill="#8f9294"/>
                <rect id="Rectángulo_331" data-name="Rectángulo 331" width="2.17" height="2.17" transform="matrix(0.707, -0.707, 0.707, 0.707, 43.274, 44.808)" fill="#8f9294"/>
                <rect id="Rectángulo_332" data-name="Rectángulo 332" width="2.011" height="2.011" transform="translate(34.619 36.041) rotate(-45.001)" fill="#8f9294"/>
                <rect id="Rectángulo_333" data-name="Rectángulo 333" width="1.852" height="1.852" transform="translate(25.964 27.274) rotate(-45.002)" fill="#8f9294"/>
                <rect id="Rectángulo_334" data-name="Rectángulo 334" width="1.693" height="1.693" transform="translate(17.31 18.507) rotate(-45.002)" fill="#8f9294"/>
                <rect id="Rectángulo_335" data-name="Rectángulo 335" width="1.534" height="1.534" transform="matrix(0.707, -0.707, 0.707, 0.707, 8.655, 9.739)" fill="#8f9294"/>
                <rect id="Rectángulo_336" data-name="Rectángulo 336" width="1.375" height="1.375" transform="matrix(0.707, -0.707, 0.707, 0.707, 0, 0.972)" fill="#8f9294"/>
              </g>
            </g>
          </g>
          <ellipse id="Elipse_4760" data-name="Elipse 4760" cx="148.94" cy="148.94" rx="148.94" ry="148.94" transform="translate(3.589 56.425)" fill="#21cbae"/>
          <g id="Grupo_873688" data-name="Grupo 873688" transform="translate(72.556 58.522)">
            <path id="Trazado_34" data-name="Trazado 34" d="M694.6,390.082,687.318,402.7h14.568Z" transform="translate(-687.318 -284.055)" fill="#fdfdfd"/>
            <path id="Trazado_35" data-name="Trazado 35" d="M694.6,361.354l-7.284,12.616h14.568Z" transform="translate(-687.318 -276.458)" fill="#fdfdfd"/>
            <path id="Trazado_36" data-name="Trazado 36" d="M694.6,332.626l-7.284,12.616h14.568Z" transform="translate(-687.318 -268.86)" fill="#fdfdfd"/>
            <path id="Trazado_37" data-name="Trazado 37" d="M695.7,245.931l-4.226,7.319h8.451Z" transform="translate(-688.417 -245.931)" fill="#f13b76"/>
          </g>
        </g>
        <g id="Grupo_140419" data-name="Grupo 140419" transform="translate(1001 7312.924)">
          <g id="Grupo_4" data-name="Grupo 4" transform="translate(0)">
            <rect id="Rectángulo_4" data-name="Rectángulo 4" width="3.125" height="3.125" fill="none" stroke="#fecb27" stroke-miterlimit="10" stroke-width="1.078"/>
            <rect id="Rectángulo_5" data-name="Rectángulo 5" width="3.125" height="3.125" transform="translate(23.881)" fill="none" stroke="#fecb27" stroke-miterlimit="10" stroke-width="1.078"/>
            <rect id="Rectángulo_6" data-name="Rectángulo 6" width="3.125" height="3.125" transform="translate(47.762)" fill="none" stroke="#fecb27" stroke-miterlimit="10" stroke-width="1.078"/>
            <rect id="Rectángulo_7" data-name="Rectángulo 7" width="3.125" height="3.125" transform="translate(71.643)" fill="none" stroke="#fecb27" stroke-miterlimit="10" stroke-width="1.078"/>
            <rect id="Rectángulo_8" data-name="Rectángulo 8" width="3.125" height="3.125" transform="translate(95.524)" fill="none" stroke="#fecb27" stroke-miterlimit="10" stroke-width="1.078"/>
            <rect id="Rectángulo_9" data-name="Rectángulo 9" width="3.125" height="3.125" transform="translate(119.405)" fill="none" stroke="#fecb27" stroke-miterlimit="10" stroke-width="1.078"/>
          </g>
          <g id="Grupo_5" data-name="Grupo 5" transform="translate(0 17.409)">
            <rect id="Rectángulo_10" data-name="Rectángulo 10" width="3.125" height="3.125" fill="none" stroke="#fecb27" stroke-miterlimit="10" stroke-width="1.078"/>
            <rect id="Rectángulo_11" data-name="Rectángulo 11" width="3.125" height="3.125" transform="translate(23.881)" fill="none" stroke="#fecb27" stroke-miterlimit="10" stroke-width="1.078"/>
            <rect id="Rectángulo_12" data-name="Rectángulo 12" width="3.125" height="3.125" transform="translate(47.762)" fill="none" stroke="#fecb27" stroke-miterlimit="10" stroke-width="1.078"/>
            <rect id="Rectángulo_13" data-name="Rectángulo 13" width="3.125" height="3.125" transform="translate(71.643)" fill="none" stroke="#fecb27" stroke-miterlimit="10" stroke-width="1.078"/>
            <rect id="Rectángulo_14" data-name="Rectángulo 14" width="3.125" height="3.125" transform="translate(95.524)" fill="none" stroke="#fecb27" stroke-miterlimit="10" stroke-width="1.078"/>
            <rect id="Rectángulo_15" data-name="Rectángulo 15" width="3.125" height="3.125" transform="translate(119.405)" fill="none" stroke="#fecb27" stroke-miterlimit="10" stroke-width="1.078"/>
          </g>
          <g id="Grupo_6" data-name="Grupo 6" transform="translate(0 34.817)">
            <rect id="Rectángulo_16" data-name="Rectángulo 16" width="3.125" height="3.125" fill="none" stroke="#fecb27" stroke-miterlimit="10" stroke-width="1.078"/>
            <rect id="Rectángulo_17" data-name="Rectángulo 17" width="3.125" height="3.125" transform="translate(23.881)" fill="none" stroke="#fecb27" stroke-miterlimit="10" stroke-width="1.078"/>
            <rect id="Rectángulo_18" data-name="Rectángulo 18" width="3.125" height="3.125" transform="translate(47.762)" fill="none" stroke="#fecb27" stroke-miterlimit="10" stroke-width="1.078"/>
            <rect id="Rectángulo_19" data-name="Rectángulo 19" width="3.125" height="3.125" transform="translate(71.643)" fill="none" stroke="#fecb27" stroke-miterlimit="10" stroke-width="1.078"/>
            <rect id="Rectángulo_20" data-name="Rectángulo 20" width="3.125" height="3.125" transform="translate(95.524)" fill="none" stroke="#fecb27" stroke-miterlimit="10" stroke-width="1.078"/>
            <rect id="Rectángulo_21" data-name="Rectángulo 21" width="3.125" height="3.125" transform="translate(119.405)" fill="none" stroke="#fecb27" stroke-miterlimit="10" stroke-width="1.078"/>
          </g>
          <g id="Grupo_7" data-name="Grupo 7" transform="translate(0 52.226)">
            <rect id="Rectángulo_22" data-name="Rectángulo 22" width="3.125" height="3.125" fill="none" stroke="#fecb27" stroke-miterlimit="10" stroke-width="1.078"/>
            <rect id="Rectángulo_23" data-name="Rectángulo 23" width="3.125" height="3.125" transform="translate(23.881)" fill="none" stroke="#fecb27" stroke-miterlimit="10" stroke-width="1.078"/>
            <rect id="Rectángulo_24" data-name="Rectángulo 24" width="3.125" height="3.125" transform="translate(47.762)" fill="none" stroke="#fecb27" stroke-miterlimit="10" stroke-width="1.078"/>
            <rect id="Rectángulo_25" data-name="Rectángulo 25" width="3.125" height="3.125" transform="translate(71.643)" fill="none" stroke="#fecb27" stroke-miterlimit="10" stroke-width="1.078"/>
            <rect id="Rectángulo_26" data-name="Rectángulo 26" width="3.125" height="3.125" transform="translate(95.524)" fill="none" stroke="#fecb27" stroke-miterlimit="10" stroke-width="1.078"/>
            <rect id="Rectángulo_27" data-name="Rectángulo 27" width="3.125" height="3.125" transform="translate(119.405)" fill="none" stroke="#fecb27" stroke-miterlimit="10" stroke-width="1.078"/>
          </g>
          <g id="Grupo_8" data-name="Grupo 8" transform="translate(0 69.635)">
            <rect id="Rectángulo_28" data-name="Rectángulo 28" width="3.125" height="3.125" fill="none" stroke="#fecb27" stroke-miterlimit="10" stroke-width="1.078"/>
            <rect id="Rectángulo_29" data-name="Rectángulo 29" width="3.125" height="3.125" transform="translate(23.881)" fill="none" stroke="#fecb27" stroke-width="1"/>
            <rect id="Rectángulo_30" data-name="Rectángulo 30" width="3.125" height="3.125" transform="translate(47.762)" fill="none" stroke="#fecb27" stroke-width="1"/>
            <rect id="Rectángulo_31" data-name="Rectángulo 31" width="3.125" height="3.125" transform="translate(71.643)" fill="none" stroke="#fecb27" stroke-miterlimit="10" stroke-width="1.078"/>
            <rect id="Rectángulo_32" data-name="Rectángulo 32" width="3.125" height="3.125" transform="translate(95.524)" fill="none" stroke="#fecb27" stroke-miterlimit="10" stroke-width="1.078"/>
            <rect id="Rectángulo_33" data-name="Rectángulo 33" width="3.125" height="3.125" transform="translate(119.405)" fill="none" stroke="#fecb27" stroke-miterlimit="10" stroke-width="1.078"/>
          </g>
          <g id="Grupo_9" data-name="Grupo 9" transform="translate(0 87.043)">
            <rect id="Rectángulo_34" data-name="Rectángulo 34" width="3.125" height="3.125" fill="none" stroke="#fecb27" stroke-miterlimit="10" stroke-width="1.078"/>
            <rect id="Rectángulo_35" data-name="Rectángulo 35" width="3.125" height="3.125" transform="translate(23.881)" fill="none" stroke="#fecb27" stroke-miterlimit="10" stroke-width="1.078"/>
            <rect id="Rectángulo_36" data-name="Rectángulo 36" width="3.125" height="3.125" transform="translate(47.762)" fill="none" stroke="#fecb27" stroke-miterlimit="10" stroke-width="1.078"/>
            <rect id="Rectángulo_37" data-name="Rectángulo 37" width="3.125" height="3.125" transform="translate(71.643)" fill="none" stroke="#fecb27" stroke-width="1"/>
            <rect id="Rectángulo_38" data-name="Rectángulo 38" width="3.125" height="3.125" transform="translate(95.524)" fill="none" stroke="#fecb27" stroke-miterlimit="10" stroke-width="1.078"/>
            <rect id="Rectángulo_39" data-name="Rectángulo 39" width="3.125" height="3.125" transform="translate(119.405)" fill="none" stroke="#fecb27" stroke-miterlimit="10" stroke-width="1.078"/>
          </g>
          <g id="Grupo_10" data-name="Grupo 10" transform="translate(0 104.452)">
            <rect id="Rectángulo_40" data-name="Rectángulo 40" width="3.125" height="3.125" fill="none" stroke="#fecb27" stroke-miterlimit="10" stroke-width="1.078"/>
            <rect id="Rectángulo_41" data-name="Rectángulo 41" width="3.125" height="3.125" transform="translate(23.881)" fill="none" stroke="#fecb27" stroke-miterlimit="10" stroke-width="1.078"/>
            <rect id="Rectángulo_42" data-name="Rectángulo 42" width="3.125" height="3.125" transform="translate(47.762)" fill="none" stroke="#fecb27" stroke-miterlimit="10" stroke-width="1.078"/>
            <rect id="Rectángulo_43" data-name="Rectángulo 43" width="3.125" height="3.125" transform="translate(71.643)" fill="none" stroke="#fecb27" stroke-miterlimit="10" stroke-width="1.078"/>
            <rect id="Rectángulo_44" data-name="Rectángulo 44" width="3.125" height="3.125" transform="translate(95.524)" fill="none" stroke="#fecb27" stroke-width="1"/>
            <rect id="Rectángulo_45" data-name="Rectángulo 45" width="3.125" height="3.125" transform="translate(119.405)" fill="none" stroke="#fecb27" stroke-miterlimit="10" stroke-width="1.078"/>
          </g>
        </g>
      </g>
    </g>
    <g id="Grupo_911060" data-name="Grupo 911060" transform="translate(-6223.891 -15851.783)">
      <g id="Grupo_907915" data-name="Grupo 907915" transform="translate(-391 85)" clip-path="url(#clip-path)">
        <path id="Trazado_632666" data-name="Trazado 632666" d="M-365.324,300.446c12.951,38.886,52.283,67.569,94.266,63.374,56.567-2.691,110.992-54.735,167.786-29.181,41.868,22.639,87.919,12.822,94.535-39.216C.611,252.869-33.7,192.921-69.752,170.371c-41.514-24.875-91.6-34.543-139.732-35.054-87.3-3.826-185.839,72.476-155.84,165.128" transform="translate(382.789 -105.419)" fill="#dee4f0"/>
        <path id="Trazado_632667" data-name="Trazado 632667" d="M-195.548,468.7v27.149c0,3.885-23.327,7.031-52.1,7.031s-52.1-3.147-52.1-7.031V468.7c0,3.885,23.327,7.031,52.1,7.031s52.1-3.147,52.1-7.031" transform="translate(353.867 -241.139)" fill="#21cbae"/>
        <path id="Trazado_632668" data-name="Trazado 632668" d="M-195.548,463.877c0,3.885-23.327,7.031-52.1,7.031s-52.1-3.147-52.1-7.031,23.327-7.031,52.1-7.031,52.1,3.147,52.1,7.031" transform="translate(353.867 -236.315)" fill="#16a88f"/>
        <path id="Trazado_632669" data-name="Trazado 632669" d="M-198.724,443.5v13.072c0,1.871-18.8,3.386-41.979,3.386s-41.979-1.515-41.979-3.386V443.5c0-1.871,18.8-3.386,41.979-3.386s41.979,1.515,41.979,3.386" transform="translate(346.923 -229.507)" fill="#0b5999"/>
        <path id="Trazado_632670" data-name="Trazado 632670" d="M-195.548,405.363v27.149c0,3.885-23.327,7.031-52.1,7.031s-52.1-3.147-52.1-7.031V405.363c0,3.885,23.327,7.031,52.1,7.031s52.1-3.147,52.1-7.031" transform="translate(353.867 -215.365)" fill="#21cbae"/>
        <path id="Trazado_632671" data-name="Trazado 632671" d="M-195.548,400.538c0,3.885-23.327,7.031-52.1,7.031s-52.1-3.147-52.1-7.031,23.327-7.031,52.1-7.031,52.1,3.147,52.1,7.031" transform="translate(353.867 -210.54)" fill="#16a88f"/>
        <path id="Trazado_632672" data-name="Trazado 632672" d="M-198.724,380.163v13.072c0,1.871-18.8,3.386-41.979,3.386s-41.979-1.515-41.979-3.386V380.163c0-1.871,18.8-3.386,41.979-3.386s41.979,1.515,41.979,3.386" transform="translate(346.923 -203.733)" fill="#0b5999"/>
        <path id="Trazado_632673" data-name="Trazado 632673" d="M-195.548,334.174v27.149c0,3.885-23.327,7.031-52.1,7.031s-52.1-3.147-52.1-7.031V334.174c0,3.885,23.327,7.031,52.1,7.031s52.1-3.147,52.1-7.031" transform="translate(353.867 -186.396)" fill="#21cbae"/>
        <path id="Trazado_632674" data-name="Trazado 632674" d="M-195.548,329.349c0,3.885-23.327,7.031-52.1,7.031s-52.1-3.147-52.1-7.031,23.327-7.031,52.1-7.031,52.1,3.147,52.1,7.031" transform="translate(353.867 -181.572)" fill="#16a88f"/>
        <path id="Trazado_632675" data-name="Trazado 632675" d="M-286.953,364.243a6.681,6.681,0,0,1-6.674-6.673,6.682,6.682,0,0,1,6.674-6.674,6.682,6.682,0,0,1,6.673,6.674,6.681,6.681,0,0,1-6.673,6.673m0-12.754a6.088,6.088,0,0,0-6.081,6.081,6.088,6.088,0,0,0,6.081,6.08,6.087,6.087,0,0,0,6.08-6.08,6.088,6.088,0,0,0-6.08-6.081" transform="translate(351.376 -193.201)" fill="#25292b"/>
        <path id="Trazado_632676" data-name="Trazado 632676" d="M-280.682,429.8a6.377,6.377,0,0,1-6.377,6.377,6.377,6.377,0,0,1-6.377-6.377,6.377,6.377,0,0,1,6.377-6.377,6.377,6.377,0,0,1,6.377,6.377" transform="translate(351.298 -222.716)" fill="#2071a8"/>
        <path id="Trazado_632677" data-name="Trazado 632677" d="M-287.263,499.613a6.681,6.681,0,0,1-6.673-6.673,6.681,6.681,0,0,1,6.673-6.674,6.681,6.681,0,0,1,6.673,6.674,6.681,6.681,0,0,1-6.673,6.673m0-12.754a6.088,6.088,0,0,0-6.08,6.081,6.087,6.087,0,0,0,6.08,6.08,6.087,6.087,0,0,0,6.08-6.08,6.088,6.088,0,0,0-6.08-6.081" transform="translate(351.502 -248.287)" fill="#25292b"/>
        <path id="Trazado_632678" data-name="Trazado 632678" d="M-195.5,361.549h-56.152A1.054,1.054,0,0,1-252.7,360.5a1.054,1.054,0,0,1,1.051-1.051H-195.5a1.054,1.054,0,0,1,1.051,1.051,1.054,1.054,0,0,1-1.051,1.051" transform="translate(334.723 -196.68)" fill="#dddad4"/>
        <path id="Trazado_632679" data-name="Trazado 632679" d="M-195.5,371.459h-56.152a1.054,1.054,0,0,1-1.051-1.051,1.054,1.054,0,0,1,1.051-1.051H-195.5a1.054,1.054,0,0,1,1.051,1.051,1.054,1.054,0,0,1-1.051,1.051" transform="translate(334.723 -200.713)" fill="#dddad4"/>
        <path id="Trazado_632680" data-name="Trazado 632680" d="M-196.751,433.58H-252.9a1.054,1.054,0,0,1-1.051-1.051,1.054,1.054,0,0,1,1.051-1.051h56.152a1.054,1.054,0,0,1,1.051,1.051,1.054,1.054,0,0,1-1.051,1.051" transform="translate(335.232 -225.992)" fill="#dddad4"/>
        <path id="Trazado_632681" data-name="Trazado 632681" d="M-196.751,443.49H-252.9a1.054,1.054,0,0,1-1.051-1.051,1.054,1.054,0,0,1,1.051-1.051h56.152a1.054,1.054,0,0,1,1.051,1.051,1.054,1.054,0,0,1-1.051,1.051" transform="translate(335.232 -230.025)" fill="#dddad4"/>
        <path id="Trazado_632682" data-name="Trazado 632682" d="M-196.751,496.257H-252.9a1.054,1.054,0,0,1-1.051-1.051,1.054,1.054,0,0,1,1.051-1.051h56.152a1.054,1.054,0,0,1,1.051,1.051,1.054,1.054,0,0,1-1.051,1.051" transform="translate(335.232 -251.497)" fill="#dddad4"/>
        <path id="Trazado_632683" data-name="Trazado 632683" d="M-196.751,506.167H-252.9a1.054,1.054,0,0,1-1.051-1.051,1.054,1.054,0,0,1,1.051-1.051h56.152a1.054,1.054,0,0,1,1.051,1.051,1.054,1.054,0,0,1-1.051,1.051" transform="translate(335.232 -255.53)" fill="#dddad4"/>
        <path id="Trazado_632684" data-name="Trazado 632684" d="M145.807,487.426v18.71c0,2.677-16.075,4.846-35.9,4.846S74,508.813,74,506.136v-18.71c0,2.677,16.075,4.846,35.9,4.846s35.9-2.169,35.9-4.846" transform="translate(201.778 -248.759)" fill="#21cbae"/>
        <path id="Trazado_632685" data-name="Trazado 632685" d="M145.807,484.1c0,2.677-16.075,4.846-35.9,4.846S74,486.778,74,484.1s16.075-4.846,35.9-4.846,35.9,2.169,35.9,4.846" transform="translate(201.778 -245.434)" fill="#108f7a"/>
        <path id="Trazado_632686" data-name="Trazado 632686" d="M143.617,470.06v9.009c0,1.289-12.953,2.333-28.93,2.333s-28.929-1.044-28.929-2.333V470.06c0-1.288,12.953-2.333,28.929-2.333s28.93,1.044,28.93,2.333" transform="translate(196.993 -240.743)" fill="#0b5999"/>
        <path id="Trazado_632687" data-name="Trazado 632687" d="M145.807,443.777v18.71c0,2.677-16.075,4.846-35.9,4.846S74,465.164,74,462.487v-18.71c0,2.677,16.075,4.846,35.9,4.846s35.9-2.169,35.9-4.846" transform="translate(201.778 -230.997)" fill="#21cbae"/>
        <path id="Trazado_632688" data-name="Trazado 632688" d="M145.807,440.452c0,2.677-16.075,4.846-35.9,4.846S74,443.129,74,440.452s16.075-4.846,35.9-4.846,35.9,2.169,35.9,4.846" transform="translate(201.778 -227.672)" fill="#108f7a"/>
        <path id="Trazado_632689" data-name="Trazado 632689" d="M143.617,426.41v9.009c0,1.289-12.953,2.333-28.93,2.333s-28.929-1.044-28.929-2.333V426.41c0-1.289,12.953-2.333,28.929-2.333s28.93,1.044,28.93,2.333" transform="translate(196.993 -222.98)" fill="#0b5999"/>
        <path id="Trazado_632690" data-name="Trazado 632690" d="M145.807,394.718v18.71c0,2.677-16.075,4.846-35.9,4.846S74,416.1,74,413.428v-18.71c0,2.677,16.075,4.846,35.9,4.846s35.9-2.169,35.9-4.846" transform="translate(201.778 -211.033)" fill="#21cbae"/>
        <path id="Trazado_632691" data-name="Trazado 632691" d="M145.807,391.393c0,2.677-16.075,4.846-35.9,4.846S74,394.07,74,391.393s16.075-4.846,35.9-4.846,35.9,2.169,35.9,4.846" transform="translate(201.778 -207.708)" fill="#108f7a"/>
        <path id="Trazado_632692" data-name="Trazado 632692" d="M82.753,415.468a4.691,4.691,0,1,1,4.691-4.691,4.7,4.7,0,0,1-4.691,4.691m0-8.789a4.1,4.1,0,1,0,4.1,4.1,4.1,4.1,0,0,0-4.1-4.1" transform="translate(200.125 -215.659)" fill="#25292b"/>
        <path id="Trazado_632693" data-name="Trazado 632693" d="M87.137,460.62a4.395,4.395,0,1,1-4.395-4.394,4.395,4.395,0,0,1,4.395,4.394" transform="translate(200.009 -236.063)" fill="#2071a8"/>
        <path id="Trazado_632694" data-name="Trazado 632694" d="M82.54,508.757a4.691,4.691,0,1,1,4.691-4.691,4.7,4.7,0,0,1-4.691,4.691m0-8.789a4.1,4.1,0,1,0,4.1,4.1,4.1,4.1,0,0,0-4.1-4.1" transform="translate(200.212 -253.621)" fill="#25292b"/>
        <path id="Trazado_632695" data-name="Trazado 632695" d="M-107.877,184.643h0a.276.276,0,0,1-.239-.139l-4.234-7.329a.277.277,0,0,1,0-.276l4.234-7.329a.276.276,0,0,1,.239-.139.276.276,0,0,1,.24.138l4.243,7.329a.276.276,0,0,1,0,.278l-4.243,7.329a.276.276,0,0,1-.24.138m-3.914-7.606,3.915,6.776,3.923-6.776-3.923-6.776Z" transform="translate(277.624 -119.358)" fill="#dddad4"/>
        <path id="Trazado_632696" data-name="Trazado 632696" d="M-122.6,175.605a2.388,2.388,0,0,1-2.385-2.385,2.388,2.388,0,0,1,2.385-2.385,2.388,2.388,0,0,1,2.385,2.385,2.388,2.388,0,0,1-2.385,2.385m0-4.216a1.833,1.833,0,0,0-1.831,1.831,1.833,1.833,0,0,0,1.831,1.831,1.833,1.833,0,0,0,1.831-1.831,1.833,1.833,0,0,0-1.831-1.831" transform="translate(282.75 -119.929)" fill="#dddad4"/>
        <path id="Trazado_632697" data-name="Trazado 632697" d="M-109.664,160.192a2.063,2.063,0,0,1-2.061-2.061,2.064,2.064,0,0,1,2.061-2.062,2.064,2.064,0,0,1,2.061,2.062,2.063,2.063,0,0,1-2.061,2.061m0-3.569a1.51,1.51,0,0,0-1.508,1.508,1.51,1.51,0,0,0,1.508,1.508,1.51,1.51,0,0,0,1.508-1.508,1.51,1.51,0,0,0-1.508-1.508" transform="translate(277.355 -113.92)" fill="#dddad4"/>
        <path id="Trazado_632698" data-name="Trazado 632698" d="M-125.533,162.722a1.482,1.482,0,0,1-1.481-1.481,1.482,1.482,0,0,1,1.481-1.481,1.482,1.482,0,0,1,1.481,1.481,1.482,1.482,0,0,1-1.481,1.481m0-2.409a.93.93,0,0,0-.928.928.93.93,0,0,0,.928.928.93.93,0,0,0,.928-.928.93.93,0,0,0-.928-.928" transform="translate(283.576 -115.422)" fill="#dddad4"/>
        <path id="Trazado_632699" data-name="Trazado 632699" d="M15.286,209.241h0a.278.278,0,0,1-.24-.138l-3.24-5.608a.277.277,0,0,1,0-.276l3.24-5.608a.276.276,0,0,1,.479,0l3.246,5.607a.276.276,0,0,1,0,.278L15.525,209.1a.276.276,0,0,1-.239.138m-2.92-5.884,2.92,5.055,2.927-5.055L15.286,198.3Z" transform="translate(227.101 -130.768)" fill="#dddad4"/>
        <path id="Trazado_632700" data-name="Trazado 632700" d="M3.139,199.849a2.385,2.385,0,1,1,2.385-2.385,2.388,2.388,0,0,1-2.385,2.385m0-4.216a1.831,1.831,0,1,0,1.831,1.831,1.833,1.833,0,0,0-1.831-1.831" transform="translate(231.584 -129.795)" fill="#dddad4"/>
        <path id="Trazado_632701" data-name="Trazado 632701" d="M16.075,189.63a2.061,2.061,0,1,1,2.061-2.06,2.063,2.063,0,0,1-2.061,2.06m0-3.569a1.508,1.508,0,1,0,1.508,1.509,1.51,1.51,0,0,0-1.508-1.509" transform="translate(226.188 -125.9)" fill="#dddad4"/>
        <path id="Trazado_632702" data-name="Trazado 632702" d="M3.759,186.438a1.481,1.481,0,1,1,1.481-1.481,1.482,1.482,0,0,1-1.481,1.481m0-2.409a.928.928,0,1,0,.928.928.929.929,0,0,0-.928-.928" transform="translate(230.964 -125.073)" fill="#dddad4"/>
        <path id="Trazado_632703" data-name="Trazado 632703" d="M14.179,300.116h0a.276.276,0,0,1-.24-.139l-4.234-7.329a.277.277,0,0,1,0-.276l4.234-7.329a.276.276,0,0,1,.479,0l4.243,7.329a.276.276,0,0,1,0,.278l-4.243,7.329a.276.276,0,0,1-.239.138m-3.914-7.606,3.914,6.776,3.924-6.776-3.924-6.776Z" transform="translate(227.956 -166.347)" fill="#dddad4"/>
        <path id="Trazado_632704" data-name="Trazado 632704" d="M13.326,277.062A2.061,2.061,0,1,1,15.387,275a2.063,2.063,0,0,1-2.061,2.061m0-3.569A1.508,1.508,0,1,0,14.834,275a1.51,1.51,0,0,0-1.508-1.508" transform="translate(227.307 -161.478)" fill="#dddad4"/>
        <path id="Trazado_632705" data-name="Trazado 632705" d="M30.2,292.055a1.481,1.481,0,1,1,1.481-1.481,1.482,1.482,0,0,1-1.481,1.481m0-2.409a.928.928,0,1,0,.928.928.929.929,0,0,0-.928-.928" transform="translate(220.204 -168.051)" fill="#dddad4"/>
        <path id="Trazado_632706" data-name="Trazado 632706" d="M30.1,274.471h0a.275.275,0,0,1-.24-.138l-2.659-4.6a.277.277,0,0,1,0-.276l2.659-4.6a.276.276,0,0,1,.479,0l2.665,4.6a.279.279,0,0,1,0,.278l-2.665,4.6a.276.276,0,0,1-.239.138m-2.34-4.879,2.34,4.051,2.346-4.051L30.1,265.542Z" transform="translate(220.837 -158.13)" fill="#dddad4"/>
        <path id="Trazado_632707" data-name="Trazado 632707" d="M2.443,287.867a1.481,1.481,0,1,1,1.481-1.481,1.483,1.483,0,0,1-1.481,1.481m0-2.409a.928.928,0,1,0,.928.928.929.929,0,0,0-.928-.928" transform="translate(231.499 -166.347)" fill="#dddad4"/>
        <path id="Trazado_632708" data-name="Trazado 632708" d="M-299.374,262.909h0a.278.278,0,0,1-.24-.138l-3.24-5.608a.277.277,0,0,1,0-.276l3.24-5.608a.278.278,0,0,1,.24-.138.276.276,0,0,1,.239.138l3.246,5.607a.276.276,0,0,1,0,.278l-3.246,5.608a.276.276,0,0,1-.239.138m-2.92-5.884,2.92,5.055,2.927-5.055-2.927-5.055Z" transform="translate(355.146 -152.607)" fill="#dddad4"/>
        <path id="Trazado_632709" data-name="Trazado 632709" d="M-311.52,253.517a2.388,2.388,0,0,1-2.385-2.385,2.388,2.388,0,0,1,2.385-2.385,2.388,2.388,0,0,1,2.385,2.385,2.388,2.388,0,0,1-2.385,2.385m0-4.216a1.833,1.833,0,0,0-1.831,1.831,1.833,1.833,0,0,0,1.831,1.831,1.833,1.833,0,0,0,1.831-1.831,1.833,1.833,0,0,0-1.831-1.831" transform="translate(359.628 -151.634)" fill="#dddad4"/>
        <path id="Trazado_632710" data-name="Trazado 632710" d="M-298.585,243.3a2.064,2.064,0,0,1-2.062-2.061,2.064,2.064,0,0,1,2.062-2.062,2.064,2.064,0,0,1,2.061,2.062,2.063,2.063,0,0,1-2.061,2.061m0-3.569a1.51,1.51,0,0,0-1.508,1.508,1.51,1.51,0,0,0,1.508,1.508,1.51,1.51,0,0,0,1.508-1.508,1.51,1.51,0,0,0-1.508-1.508" transform="translate(354.233 -147.739)" fill="#dddad4"/>
        <path id="Trazado_632711" data-name="Trazado 632711" d="M-310.9,240.106a1.482,1.482,0,0,1-1.481-1.481,1.483,1.483,0,0,1,1.481-1.481,1.483,1.483,0,0,1,1.481,1.481,1.482,1.482,0,0,1-1.481,1.481m0-2.409a.929.929,0,0,0-.928.928.929.929,0,0,0,.928.928.929.929,0,0,0,.928-.928.929.929,0,0,0-.928-.928" transform="translate(359.008 -146.912)" fill="#dddad4"/>
        <path id="Trazado_632712" data-name="Trazado 632712" d="M167.076,347.649h-3.558a.3.3,0,1,1,0-.593h3.558a.3.3,0,1,1,0,.593m-7.117,0H156.4a.3.3,0,1,1,0-.593h3.558a.3.3,0,1,1,0,.593m-7.114-.058-.037,0a7.92,7.92,0,0,1-3.43-1.28.3.3,0,1,1,.33-.492A7.334,7.334,0,0,0,152.881,347a.3.3,0,0,1-.036.591m17.784-.033a.3.3,0,0,1-.048-.589,6.278,6.278,0,0,0,3.041-1.419.3.3,0,1,1,.384.451,6.87,6.87,0,0,1-3.328,1.554.282.282,0,0,1-.049,0M132.6,346.82a.3.3,0,0,1-.3-.3v-3.558a.3.3,0,1,1,.593,0v3.558a.3.3,0,0,1-.3.3m14.547-3.048a.3.3,0,0,1-.259-.151,7.933,7.933,0,0,1-1.011-3.521.3.3,0,0,1,.283-.309.281.281,0,0,1,.309.282,7.234,7.234,0,0,0,.936,3.256.3.3,0,0,1-.259.442m28.637-.61a.3.3,0,0,1-.281-.391,6.263,6.263,0,0,0,.328-2.011v-1.414a.3.3,0,1,1,.593,0v1.414a6.891,6.891,0,0,1-.359,2.2.3.3,0,0,1-.281.2M132.608,339.7h-.014a.3.3,0,0,1-.282-.31,7.067,7.067,0,0,1,1.119-3.5.3.3,0,0,1,.5.321,6.49,6.49,0,0,0-1.025,3.2.3.3,0,0,1-.3.282m12.819-2.76a.3.3,0,0,1-.265-.161,6.518,6.518,0,0,0-2.254-2.5.3.3,0,1,1,.323-.5,7.11,7.11,0,0,1,2.459,2.725.3.3,0,0,1-.129.4.287.287,0,0,1-.135.033m30.7-.86a.3.3,0,0,1-.3-.3v-3.558a.3.3,0,0,1,.593,0v3.558a.3.3,0,0,1-.3.3m-39.843-2.091a.3.3,0,0,1-.136-.56,7.029,7.029,0,0,1,3.589-.771.3.3,0,0,1,.281.311.276.276,0,0,1-.311.281,6.461,6.461,0,0,0-3.288.706.292.292,0,0,1-.135.033m39.843-5.026a.3.3,0,0,1-.3-.3v-3.558a.3.3,0,1,1,.593,0v3.558a.3.3,0,0,1-.3.3m0-7.117a.3.3,0,0,1-.3-.3v-3.558a.3.3,0,0,1,.593,0v3.558a.3.3,0,0,1-.3.3m0-7.117a.3.3,0,0,1-.3-.3v-3.558a.3.3,0,0,1,.593,0v3.558a.3.3,0,0,1-.3.3m0-7.117a.3.3,0,0,1-.3-.3V303.76a.3.3,0,0,1,.593,0v3.558a.3.3,0,0,1-.3.3m-.1-7.11a.3.3,0,0,1-.292-.249,7.28,7.28,0,0,0-1.32-3.118.3.3,0,1,1,.477-.352,7.859,7.859,0,0,1,1.428,3.373.3.3,0,0,1-.244.341.276.276,0,0,1-.049,0m-4.068-5.52a.3.3,0,0,1-.133-.031,7.193,7.193,0,0,0-3.265-.773.311.311,0,0,1-.313-.3.283.283,0,0,1,.281-.3,7.826,7.826,0,0,1,3.564.836.3.3,0,0,1-.133.562" transform="translate(178.052 -169.881)" fill="#25292b"/>
        <path id="Trazado_632713" data-name="Trazado 632713" d="M-344.879,374.906h0c-.25,0-.5-.012-.741-.036a.3.3,0,0,1-.267-.324.3.3,0,0,1,.324-.267q.338.033.684.033h0a6.954,6.954,0,0,0,2.655-.522.294.294,0,0,1,.387.161.3.3,0,0,1-.161.387,7.542,7.542,0,0,1-2.881.568m-4.036-1.214a.3.3,0,0,1-.164-.05,7.656,7.656,0,0,1-2.476-2.7.3.3,0,0,1,.118-.4.3.3,0,0,1,.4.119,7.062,7.062,0,0,0,2.284,2.493.3.3,0,0,1,.082.41.3.3,0,0,1-.247.133m9.642-1.418a.3.3,0,0,1-.19-.069.3.3,0,0,1-.038-.418,7,7,0,0,0,1.47-3.042.293.293,0,0,1,.351-.23.3.3,0,0,1,.23.351,7.588,7.588,0,0,1-1.595,3.3.3.3,0,0,1-.228.107m-12.906-4.589a.3.3,0,0,1-.3-.293V363.83a.3.3,0,0,1,.3-.3.3.3,0,0,1,.3.3v3.555a.3.3,0,0,1-.293.3Zm14.591-2.13a.3.3,0,0,1-.3-.3V361.7a.3.3,0,0,1,.3-.3.3.3,0,0,1,.3.3v3.558a.3.3,0,0,1-.3.3m-14.591-4.987a.3.3,0,0,1-.3-.3v-3.558a.3.3,0,0,1,.3-.3.3.3,0,0,1,.3.3v3.558a.3.3,0,0,1-.3.3m14.591-2.13a.3.3,0,0,1-.3-.3v-3.558a.3.3,0,0,1,.3-.3.3.3,0,0,1,.3.3v3.558a.3.3,0,0,1-.3.3m-14.591-4.987a.3.3,0,0,1-.3-.3V349.6a.3.3,0,0,1,.3-.3.3.3,0,0,1,.3.3v3.558a.3.3,0,0,1-.3.3m14.591-2.13a.3.3,0,0,1-.3-.3v-3.558a.3.3,0,0,1,.3-.3.3.3,0,0,1,.3.3v3.558a.3.3,0,0,1-.3.3m-14.591-4.987a.3.3,0,0,1-.3-.3V342.48a.3.3,0,0,1,.3-.3.3.3,0,0,1,.3.3v3.558a.3.3,0,0,1-.3.3m14.591-2.13a.3.3,0,0,1-.3-.3v-3.558a.3.3,0,0,1,.3-.3.3.3,0,0,1,.3.3v3.558a.3.3,0,0,1-.3.3m-14.591-4.987a.3.3,0,0,1-.3-.3v-3.558a.3.3,0,0,1,.3-.3.3.3,0,0,1,.3.3v3.558a.3.3,0,0,1-.3.3m14.591-2.13a.3.3,0,0,1-.3-.3v-3.558a.3.3,0,0,1,.3-.3.3.3,0,0,1,.3.3v3.558a.3.3,0,0,1-.3.3m-14.591-4.987a.3.3,0,0,1-.3-.3v-3.558a.3.3,0,0,1,.3-.3.3.3,0,0,1,.3.3V331.8a.3.3,0,0,1-.3.3m14.591-2.13a.3.3,0,0,1-.3-.3v-3.558a.3.3,0,0,1,.3-.3.3.3,0,0,1,.3.3v3.558a.3.3,0,0,1-.3.3m-14.591-4.987a.3.3,0,0,1-.3-.3v-3.558a.3.3,0,0,1,.3-.3.3.3,0,0,1,.3.3v3.558a.3.3,0,0,1-.3.3m14.591-2.13a.3.3,0,0,1-.3-.3V319a.3.3,0,0,1,.3-.3.3.3,0,0,1,.3.3v3.558a.3.3,0,0,1-.3.3m-14.591-4.987a.3.3,0,0,1-.3-.3v-3.558a.3.3,0,0,1,.3-.3.3.3,0,0,1,.3.3v3.558a.3.3,0,0,1-.3.3m14.591-2.13a.3.3,0,0,1-.3-.3v-3.558a.3.3,0,0,1,.3-.3.3.3,0,0,1,.3.3v3.558a.3.3,0,0,1-.3.3m-14.591-4.987a.3.3,0,0,1-.3-.3v-.508a6.94,6.94,0,0,0-.6-2.841.3.3,0,0,1,.151-.391.3.3,0,0,1,.391.151,7.531,7.531,0,0,1,.652,3.082v.508a.3.3,0,0,1-.3.3m14.727-2.121a.31.31,0,0,1-.057-.005.3.3,0,0,1-.234-.348,7.59,7.59,0,0,1,1.553-3.321.3.3,0,0,1,.417-.044.3.3,0,0,1,.043.418,7,7,0,0,0-1.431,3.06.3.3,0,0,1-.291.24m-17.519-4.127a.3.3,0,0,1-.183-.063,7,7,0,0,0-3.083-1.383.3.3,0,0,1-.24-.344.294.294,0,0,1,.344-.24,7.591,7.591,0,0,1,3.344,1.5.3.3,0,0,1,.05.416.3.3,0,0,1-.234.113m21.823-1.185a.3.3,0,0,1-.273-.181.3.3,0,0,1,.157-.388,7.534,7.534,0,0,1,2.973-.6q.3,0,.6-.024a.294.294,0,0,1,.32.272.3.3,0,0,1-.272.319q-.319.026-.645.026a6.942,6.942,0,0,0-2.741.557.3.3,0,0,1-.116.024m-28.587-.37h-3.558a.3.3,0,0,1-.3-.3.3.3,0,0,1,.3-.3h3.558a.3.3,0,0,1,.3.3.3.3,0,0,1-.3.3m35.42-1.319a.3.3,0,0,1-.254-.143.3.3,0,0,1,.1-.407,7.443,7.443,0,0,0,2.42-2.375.3.3,0,0,1,.409-.092.3.3,0,0,1,.092.409,8.061,8.061,0,0,1-2.614,2.566.3.3,0,0,1-.154.043m3.664-5.8h-.029a.3.3,0,0,1-.266-.324q.036-.364.036-.737v-2.79a.3.3,0,0,1,.3-.3.3.3,0,0,1,.3.3v2.79q0,.4-.039.8a.3.3,0,0,1-.3.267m.037-7.115a.3.3,0,0,1-.3-.3v-3.153q0-.212.011-.421a.3.3,0,0,1,.311-.281.3.3,0,0,1,.281.311q-.01.194-.011.39v3.153a.3.3,0,0,1-.3.3m1-6.942a.3.3,0,0,1-.146-.039.3.3,0,0,1-.112-.4,8.054,8.054,0,0,1,2.49-2.685.3.3,0,0,1,.412.08.3.3,0,0,1-.081.412,7.46,7.46,0,0,0-2.305,2.486.3.3,0,0,1-.258.15m5.7-3.827a.3.3,0,0,1-.294-.259.3.3,0,0,1,.257-.332,8.118,8.118,0,0,1,1.02-.065h2.573a.3.3,0,0,1,.3.3.3.3,0,0,1-.3.3h-2.573a7.484,7.484,0,0,0-.945.06l-.038,0" transform="translate(380.66 -163.246)" fill="#25292b"/>
        <rect id="Rectángulo_304136" data-name="Rectángulo 304136" width="52.676" height="22.999" transform="translate(184.293 229.236)" fill="#25292b"/>
        <path id="Trazado_632714" data-name="Trazado 632714" d="M-115.851,307.833l-23.7,3.018a21.519,21.519,0,0,0-18.2,16.29l-3.495,28.779h24.566l-3.6,38.03,22.285,12.53h52.868l-6.045-42.206,3.407-13.409h19.675L-53.095,328.1A21.518,21.518,0,0,0-69.9,311.62l-18.956-3.787Z" transform="translate(297.506 -175.677)" fill="#0b5999"/>
        <path id="Trazado_632715" data-name="Trazado 632715" d="M-108.432,408.7V425.4h-45.874a8.3,8.3,0,0,1-8.279-8.849l1.833-27.643h24.838l-1.755,14.068Z" transform="translate(298.059 -208.671)" fill="#f3d7d5"/>
        <path id="Trazado_632716" data-name="Trazado 632716" d="M-120.2,379.181h-14.262v-.593H-120.7l2.594-14.319.584.106Z" transform="translate(286.608 -198.643)" fill="#25292b"/>
        <rect id="Rectángulo_304137" data-name="Rectángulo 304137" width="24.593" height="0.593" transform="translate(226.057 188.529) rotate(-76.478)" fill="#25292b"/>
        <path id="Trazado_632717" data-name="Trazado 632717" d="M84.785,318.6h0a3.4,3.4,0,0,1-2.3-4.213l5.792-19.67a3.393,3.393,0,0,1,6.51,1.917L89,316.3a3.4,3.4,0,0,1-4.213,2.3" transform="translate(198.38 -169.348)" fill="#f3d7d5"/>
        <path id="Trazado_632718" data-name="Trazado 632718" d="M91.334,330.974h0a3.4,3.4,0,0,1-1.968-4.376l3.524-9.286a3.393,3.393,0,1,1,6.344,2.408l-3.523,9.286a3.4,3.4,0,0,1-4.376,1.968" transform="translate(195.615 -178.644)" fill="#f3d7d5"/>
        <path id="Trazado_632719" data-name="Trazado 632719" d="M98.706,337.1h0a3.4,3.4,0,0,1-1.968-4.376l3.621-9.541a3.393,3.393,0,0,1,6.345,2.408l-3.621,9.541a3.4,3.4,0,0,1-4.376,1.968" transform="translate(192.615 -181.032)" fill="#f3d7d5"/>
        <path id="Trazado_632720" data-name="Trazado 632720" d="M106.659,339.548h0a3.4,3.4,0,0,1-.6-4.761l3.733-4.812a3.393,3.393,0,0,1,5.362,4.16l-3.733,4.812a3.4,3.4,0,0,1-4.761.6" transform="translate(189.021 -184.155)" fill="#f3d7d5"/>
        <path id="Trazado_632721" data-name="Trazado 632721" d="M93.555,328.047h0a3.4,3.4,0,0,1-4.026,2.61l-9.98-2.131a3.393,3.393,0,1,1,1.417-6.636l9.98,2.131a3.4,3.4,0,0,1,2.61,4.026" transform="translate(200.613 -181.367)" fill="#f3d7d5"/>
        <path id="Trazado_632722" data-name="Trazado 632722" d="M62.094,337.4c-1.554,7.7-10.515,12.283-10.515,12.283L25.122,379.521a20.082,20.082,0,0,1-15.965,7.888L-8.2,387.136l-2.473-16.98L-6.851,358.3H10.087l.664,2.188,26.759-19.963,3.808-14.186Z" transform="translate(236.233 -183.208)" fill="#f3d7d5"/>
        <path id="Trazado_632723" data-name="Trazado 632723" d="M97.632,340.9h-.011a.3.3,0,0,1-.285-.308,3.664,3.664,0,0,1,.236-1.162l.785-2.387a.3.3,0,0,1,.563.186l-.788,2.4a3.1,3.1,0,0,0-.2.986.3.3,0,0,1-.3.285" transform="translate(192.282 -187.482)" fill="#25292b"/>
        <path id="Trazado_632724" data-name="Trazado 632724" d="M100.006,347.449a3.649,3.649,0,0,1-1.292-.235,3.691,3.691,0,0,1-1.878-1.6.3.3,0,0,1,.514-.3,3.09,3.09,0,0,0,1.575,1.341,3.124,3.124,0,0,0,3.555-1.01.3.3,0,1,1,.47.361,3.724,3.724,0,0,1-2.944,1.439" transform="translate(192.502 -190.871)" fill="#25292b"/>
        <path id="Trazado_632725" data-name="Trazado 632725" d="M109.1,347.405a3.654,3.654,0,0,1-2.25-.771,3.707,3.707,0,0,1-.5-.474.3.3,0,1,1,.445-.393,3.128,3.128,0,0,0,.423.4,3.107,3.107,0,0,0,4.345-.549.3.3,0,0,1,.469.364,3.665,3.665,0,0,1-2.454,1.394,3.742,3.742,0,0,1-.473.03" transform="translate(188.645 -191.006)" fill="#25292b"/>
        <path id="Trazado_632726" data-name="Trazado 632726" d="M97.169,347.155h-.008a.3.3,0,0,1-.289-.3A8.531,8.531,0,0,0,96.8,345.5a.3.3,0,0,1,.254-.333.293.293,0,0,1,.333.254,9.085,9.085,0,0,1,.077,1.442.3.3,0,0,1-.3.289" transform="translate(192.501 -190.869)" fill="#25292b"/>
        <path id="Trazado_632727" data-name="Trazado 632727" d="M91.593,336.107a.3.3,0,0,1-.293-.257,9.219,9.219,0,0,0-4.46-6.418.3.3,0,0,1,.212-.55l5.161,1.336a3.1,3.1,0,0,0,1.28-6.059l-9.98-2.131a.3.3,0,1,1,.124-.58l9.98,2.131a3.69,3.69,0,1,1-1.541,7.216l-3.567-.924a9.3,9.3,0,0,1,3.378,5.9.3.3,0,0,1-.254.333.223.223,0,0,1-.04,0" transform="translate(198.002 -181.215)" fill="#25292b"/>
        <path id="Trazado_632728" data-name="Trazado 632728" d="M95.78,320.984a.278.278,0,0,1-.084-.012.3.3,0,0,1-.2-.368l1.569-5.328a.3.3,0,0,1,.569.167l-1.569,5.328a.3.3,0,0,1-.284.213" transform="translate(193.036 -178.619)" fill="#25292b"/>
        <path id="Trazado_632729" data-name="Trazado 632729" d="M103.976,325.071a.292.292,0,0,1-.1-.019.3.3,0,0,1-.173-.382l1.379-3.676a.3.3,0,1,1,.555.209l-1.379,3.676a.3.3,0,0,1-.278.192" transform="translate(189.7 -180.955)" fill="#25292b"/>
        <path id="Trazado_632730" data-name="Trazado 632730" d="M106.572,340.105a.289.289,0,0,1-.109-.021.3.3,0,0,1-.167-.384l3.6-9.137a.3.3,0,1,1,.551.217l-3.6,9.137a.3.3,0,0,1-.276.188" transform="translate(188.644 -184.85)" fill="#25292b"/>
        <path id="Trazado_632731" data-name="Trazado 632731" d="M-46.388,224.355c-2.5,4.931-7.972,7.588-13.364,7.4a15.407,15.407,0,0,1-1.3,3.6,15.662,15.662,0,0,1-8.538,7.539c-3.377,1.219-7.451,1.258-10.213-1.109a16.4,16.4,0,0,1-8.148-.664A15.638,15.638,0,0,1-98.29,226.534a13.638,13.638,0,0,1,3.041-9.064,8.654,8.654,0,0,1,7.265-3.025,8.279,8.279,0,0,1-.077-1.916,8.094,8.094,0,0,1,6.693-7.028,9.217,9.217,0,0,1,8.236,2.783,10.81,10.81,0,0,1,.95-1.7A9.879,9.879,0,0,1-61.3,202.925a9.948,9.948,0,0,1,6.8,7.955,8.179,8.179,0,0,1,3.794.4c5.249,1.806,6.627,8.532,4.316,13.078" transform="translate(271.888 -132.817)" fill="#25292b"/>
        <path id="Trazado_632732" data-name="Trazado 632732" d="M-95.444,259.89c1.611,4.073,4.577,6.363,8.414,5.339l-2.41,15.014,18.522,18.52,8.607-15.936-.345-6.781,2.889-2.665a21.64,21.64,0,0,0,6.913-17.408l-1-14.28a.616.616,0,0,1-.1.033,21.087,21.087,0,0,1-7.735.448,26.186,26.186,0,0,1-8.691-2.14,3.623,3.623,0,0,1-.972,2.262,6.179,6.179,0,0,1-4.045,1.636,11.737,11.737,0,0,1-6.068-1.18q-1.4,3.961-3.061,7.829l0,.065-.021-.018a8.148,8.148,0,0,0-5.093-1.99,7.3,7.3,0,0,0-2.842.514c-4.035,1.6-4.7,6.373-2.97,10.739" transform="translate(271.094 -148.088)" fill="#f3d7d5"/>
        <path id="Trazado_632733" data-name="Trazado 632733" d="M-33.888,261.109a2.258,2.258,0,0,0,2.3,2.209,2.259,2.259,0,0,0,1.967-2.506,2.258,2.258,0,0,0-2.3-2.209,2.258,2.258,0,0,0-1.967,2.506" transform="translate(245.684 -155.642)" fill="#25292b"/>
        <path id="Trazado_632734" data-name="Trazado 632734" d="M-55.729,262.632a2.258,2.258,0,0,0,2.3,2.209,2.259,2.259,0,0,0,1.967-2.506,2.258,2.258,0,0,0-2.3-2.209,2.258,2.258,0,0,0-1.967,2.506" transform="translate(254.571 -156.262)" fill="#25292b"/>
        <path id="Trazado_632735" data-name="Trazado 632735" d="M-34.146,253.246a5.064,5.064,0,0,1,4.82.544.668.668,0,0,1,.208.9.665.665,0,0,1-.9.208,4.229,4.229,0,0,0-.426-.275c-.072-.04-.146-.078-.22-.114l-.026-.011c-.039-.017-.078-.033-.117-.049a4.272,4.272,0,0,0-.482-.158c-.082-.022-.164-.04-.247-.058l-.04-.008-.137-.02a4.52,4.52,0,0,0-.506-.034c-.084,0-.169,0-.254,0l-.126.008h0l-.012,0a4.749,4.749,0,0,0-.5.09c-.082.02-.164.042-.244.067l-.12.039-.021.007-.023.009a.673.673,0,0,1-.889-.265.663.663,0,0,1,.265-.888" transform="translate(245.922 -153.313)" fill="#25292b"/>
        <path id="Trazado_632736" data-name="Trazado 632736" d="M-52.815,255.35a.673.673,0,0,1-.843.385l-.024-.006-.021,0-.125-.022c-.083-.014-.167-.024-.251-.033a4.812,4.812,0,0,0-.506-.02H-54.6l-.126.01c-.084.008-.168.018-.252.031a4.448,4.448,0,0,0-.5.1c-.044.012-.089.025-.133.039l-.039.013c-.079.03-.158.059-.237.092a4.371,4.371,0,0,0-.455.224l-.109.064-.024.014c-.068.047-.136.094-.2.144a4.343,4.343,0,0,0-.384.332.664.664,0,0,1-.923-.081.668.668,0,0,1,.081-.923,5.064,5.064,0,0,1,4.7-1.208.663.663,0,0,1,.385.843" transform="translate(255.546 -153.917)" fill="#25292b"/>
        <path id="Trazado_632737" data-name="Trazado 632737" d="M-36.382,271.366l-7.051-.417.035-.592,6.195.366-3.107-9.959.566-.177Z" transform="translate(249.565 -156.452)" fill="#25292b"/>
        <path id="Trazado_632738" data-name="Trazado 632738" d="M-87.242,270.7a4.3,4.3,0,0,1-3.711-2.184,4.287,4.287,0,0,1,.3-4.533A3.071,3.071,0,0,1-88.7,262.7a2.2,2.2,0,0,1,1.557.331A7.413,7.413,0,0,0-87.574,261a3.725,3.725,0,0,0-1.747-2.063,1.761,1.761,0,0,0-1.414-.135,2.792,2.792,0,0,0-1.228,1.524l-.535-.257a3.292,3.292,0,0,1,1.54-1.817,2.347,2.347,0,0,1,1.9.152,4.315,4.315,0,0,1,2.04,2.384,9.291,9.291,0,0,1,.511,3.031l.044,1.275-.6-1.125a1.5,1.5,0,0,0-1.545-.68,2.521,2.521,0,0,0-1.568,1.049,3.736,3.736,0,0,0-.255,3.9A3.731,3.731,0,0,0-87,270.1l.042.592c-.093.007-.186.009-.279.009" transform="translate(269.531 -155.444)" fill="#25292b"/>
        <path id="Trazado_632739" data-name="Trazado 632739" d="M-52.374,301.784a8.046,8.046,0,0,1-3.527-.909,20.86,20.86,0,0,1-3.727-2.593l.374-.46a20.439,20.439,0,0,0,3.618,2.522,6.9,6.9,0,0,0,4.153.771,9.14,9.14,0,0,0,3.85-1.96l.356.475a9.9,9.9,0,0,1-4.105,2.069,5.8,5.8,0,0,1-.992.084" transform="translate(256.155 -171.604)" fill="#25292b"/>
        <path id="Trazado_632740" data-name="Trazado 632740" d="M-47.944,283.44a7.67,7.67,0,0,1-6-4.953l.56-.2a7.063,7.063,0,0,0,5.527,4.562Z" transform="translate(253.843 -163.656)" fill="#25292b"/>
        <rect id="Rectángulo_304138" data-name="Rectángulo 304138" width="56.166" height="5.386" transform="translate(166.212 221.13)" fill="#c59b19"/>
        <path id="Trazado_632741" data-name="Trazado 632741" d="M-10.111,433.905H-90.4l11.861-48.142H1.751Z" transform="translate(268.675 -207.389)" fill="#fecb2f"/>
        <rect id="Rectángulo_304139" data-name="Rectángulo 304139" width="93.514" height="0.593" transform="translate(166.213 220.834)" fill="#fecb2f"/>
        <path id="Trazado_632742" data-name="Trazado 632742" d="M42.293,518.013a15.092,15.092,0,0,1-11.186,6.5,15.279,15.279,0,0,1-1.914.034l-42.471-1.856-5.163-4.406,2.908-15.419,5.881-.488L26.436,494.5a15.081,15.081,0,0,1,14.676,4.925l.2.226a15.09,15.09,0,0,1,.986,18.359" transform="translate(239.395 -251.497)" fill="#0b5999"/>
        <path id="Trazado_632743" data-name="Trazado 632743" d="M64.677,524.592l-.4-.435a20.017,20.017,0,0,0,5.861-9.646,16.391,16.391,0,0,0-1.079-11.121,13.85,13.85,0,0,0-8.419-7.147l.161-.571a14.457,14.457,0,0,1,8.79,7.454,17,17,0,0,1,1.123,11.529,20.618,20.618,0,0,1-6.034,9.938" transform="translate(207.216 -252.114)" fill="#dddad4"/>
        <path id="Trazado_632744" data-name="Trazado 632744" d="M-6.054,526.6l-.593-.017A126.341,126.341,0,0,1-5.38,512.151l.587.085A125.587,125.587,0,0,0-6.054,526.6" transform="translate(234.596 -258.82)" fill="#25292b"/>
        <path id="Trazado_632745" data-name="Trazado 632745" d="M13.082,525.713a27.309,27.309,0,0,1,.136-13.757l.572.155a26.711,26.711,0,0,0-.133,13.459Z" transform="translate(226.898 -258.741)" fill="#dddad4"/>
        <path id="Trazado_632746" data-name="Trazado 632746" d="M19.866,525.62a23.12,23.12,0,0,1,.47-13.1l.562.19a22.523,22.523,0,0,0-.458,12.765Z" transform="translate(224.103 -258.968)" fill="#dddad4"/>
        <path id="Trazado_632747" data-name="Trazado 632747" d="M25.965,525.4a21.543,21.543,0,0,1,1.311-12.817l.544.235a20.941,20.941,0,0,0-1.275,12.462Z" transform="translate(221.503 -258.995)" fill="#dddad4"/>
        <path id="Trazado_632748" data-name="Trazado 632748" d="M49.885,524.925a17.775,17.775,0,0,1,.257-21.993l.462.372a17.183,17.183,0,0,0-.248,21.26Z" transform="translate(213.09 -255.069)" fill="#25292b"/>
        <path id="Trazado_632749" data-name="Trazado 632749" d="M-95.267,473.592l-8.921,28.815-78.924-20.661a20.978,20.978,0,0,1-15.6-18.568,20.833,20.833,0,0,1,1.136-8.712,20.967,20.967,0,0,1,27.948-12.329Z" transform="translate(312.78 -229.651)" fill="#25292b"/>
        <path id="Trazado_632750" data-name="Trazado 632750" d="M-80.256,482.663l8.546,24.1,93.064-37.327a20.978,20.978,0,0,0,12.326-20.884,20.828,20.828,0,0,0-2.556-8.406,20.968,20.968,0,0,0-29.6-7.557Z" transform="translate(264.549 -225.11)" fill="#25292b"/>
        <rect id="Rectángulo_304140" data-name="Rectángulo 304140" width="63.514" height="0.593" transform="translate(185.998 257.169) rotate(-31.799)" fill="#dddad4"/>
        <rect id="Rectángulo_304141" data-name="Rectángulo 304141" width="0.593" height="32.962" transform="translate(181.587 229.066) rotate(-66.725)" fill="#dddad4"/>
        <path id="Trazado_632751" data-name="Trazado 632751" d="M-167.372,545.089a15.092,15.092,0,0,0,12.1,4.572,15.163,15.163,0,0,0,1.894-.282l41.585-8.827,4.366-5.2-5.409-14.73-5.881.488-36.892-1.825a15.082,15.082,0,0,0-13.664,7.275l-.155.255a15.09,15.09,0,0,0,2.051,18.27" transform="translate(301.718 -261.717)" fill="#0b5999"/>
        <path id="Trazado_632752" data-name="Trazado 632752" d="M-152.734,549.988a20.612,20.612,0,0,1-7.588-8.807,17,17,0,0,1-.792-11.557,14.456,14.456,0,0,1,7.442-8.8l.253.536a13.851,13.851,0,0,0-7.128,8.436,16.391,16.391,0,0,0,.768,11.147,20.007,20.007,0,0,0,7.37,8.549Z" transform="translate(297.723 -262.349)" fill="#dddad4"/>
        <path id="Trazado_632753" data-name="Trazado 632753" d="M-78.213,540.443a125.557,125.557,0,0,0-3.61-13.961l.565-.182a126.264,126.264,0,0,1,3.627,14.029Z" transform="translate(265.187 -264.578)" fill="#25292b"/>
        <path id="Trazado_632754" data-name="Trazado 632754" d="M-85.329,539.941a3.713,3.713,0,0,1-2.231-.855c-1.461-1.172-2.36-3.082-2.751-5.838-.088-.623-.151-1.251-.215-1.879a18.877,18.877,0,0,0-.785-4.359l.151-.053c0-.02-.007-.04-.01-.06l-.219-.176.159-.2c-.682-4.219-1.329-8.568-.738-12.9.145-1.062.475-2.549,1.661-3.211a2.877,2.877,0,0,1,3.172.439,4.938,4.938,0,0,1,1.532,2.791,11.4,11.4,0,0,1-1.127,7.336,30.989,30.989,0,0,1-3.873,5.71c.009.061.02.121.029.182a13.179,13.179,0,0,1,7.445,8.994c.172.8.428,2.764-.915,3.69a2.235,2.235,0,0,1-1.287.386m-5.194-12.392a23.192,23.192,0,0,1,.588,3.761c.062.62.125,1.241.212,1.855.368,2.6,1.2,4.385,2.535,5.459a2.489,2.489,0,0,0,2.809.442c1.047-.721.818-2.391.671-3.075a12.559,12.559,0,0,0-6.816-8.442m1.416-16.843a1.858,1.858,0,0,0-.91.225c-.955.533-1.235,1.838-1.362,2.773a41.72,41.72,0,0,0,.65,12.2,28.561,28.561,0,0,0,3.467-5.179,10.822,10.822,0,0,0,1.082-6.947,4.369,4.369,0,0,0-1.335-2.467,2.513,2.513,0,0,0-1.592-.6" transform="translate(269.409 -257.992)" fill="#dddad4"/>
        <path id="Trazado_632755" data-name="Trazado 632755" d="M-97,542.684l-.591-.047a26.705,26.705,0,0,0-2.349-13.252l.54-.248A27.313,27.313,0,0,1-97,542.684" transform="translate(272.56 -265.732)" fill="#dddad4"/>
        <path id="Trazado_632756" data-name="Trazado 632756" d="M-103.865,543.738l-.591-.053a22.516,22.516,0,0,0-2.554-12.514l.522-.281a23.116,23.116,0,0,1,2.623,12.848" transform="translate(275.436 -266.446)" fill="#dddad4"/>
        <path id="Trazado_632757" data-name="Trazado 632757" d="M-110.272,544.586l-.592-.023a20.943,20.943,0,0,0-3.311-12.081l.5-.322a21.536,21.536,0,0,1,3.4,12.426" transform="translate(278.352 -266.962)" fill="#dddad4"/>
        <path id="Trazado_632758" data-name="Trazado 632758" d="M-135.354,548.307l-.524-.279a17.255,17.255,0,0,0,1.752-11.114,17.257,17.257,0,0,0-5.5-9.815l.394-.444a17.857,17.857,0,0,1,5.689,10.154,17.856,17.856,0,0,1-1.812,11.5" transform="translate(288.708 -264.723)" fill="#25292b"/>
        <path id="Trazado_632759" data-name="Trazado 632759" d="M136.011,295.6H62.122V206.166h73.889ZM62.715,295h72.7V206.759h-72.7Z" transform="translate(206.611 -134.306)" fill="#25292b"/>
        <rect id="Rectángulo_304142" data-name="Rectángulo 304142" width="69.245" height="9.645" transform="translate(271.055 73.97)" fill="#0b5999"/>
        <path id="Trazado_632760" data-name="Trazado 632760" d="M158.744,218.883a.413.413,0,0,1-.259-.091l-3.6-2.879a.415.415,0,0,1,0-.648l3.558-2.843a.415.415,0,0,1,.518.649l-3.152,2.518,3.2,2.555a.415.415,0,0,1-.259.739" transform="translate(168.929 -136.815)" fill="#dddad4"/>
        <path id="Trazado_632761" data-name="Trazado 632761" d="M170.525,218.883a.415.415,0,0,1-.259-.739l3.2-2.555-3.152-2.518a.415.415,0,0,1,.518-.649l3.558,2.843a.415.415,0,0,1,0,.648l-3.6,2.879a.413.413,0,0,1-.259.091" transform="translate(162.668 -136.815)" fill="#dddad4"/>
        <path id="Trazado_632762" data-name="Trazado 632762" d="M164.468,219.12a.415.415,0,0,1-.453-.533l2.231-7.251a.415.415,0,0,1,.794.244l-2.231,7.251a.416.416,0,0,1-.341.289" transform="translate(165.156 -136.29)" fill="#dddad4"/>
        <rect id="Rectángulo_304143" data-name="Rectángulo 304143" width="37.225" height="3.05" transform="translate(271.056 90.292)" fill="#21cbae"/>
        <rect id="Rectángulo_304144" data-name="Rectángulo 304144" width="18.118" height="3.05" transform="translate(309.97 90.292)" fill="#0b5999"/>
        <rect id="Rectángulo_304145" data-name="Rectángulo 304145" width="10.351" height="3.05" transform="translate(329.949 90.292)" fill="#25292b"/>
        <path id="Trazado_632763" data-name="Trazado 632763" d="M165.55,251.971H140.187v-3.05H165.55" transform="translate(174.845 -151.704)" fill="#21cbae"/>
        <rect id="Rectángulo_304146" data-name="Rectángulo 304146" width="18.118" height="3.05" transform="translate(295.224 97.217)" fill="#0b5999"/>
        <path id="Trazado_632764" data-name="Trazado 632764" d="M66.2,248.921H88.409v3.05H66.2" transform="translate(204.954 -151.704)" fill="#25292b"/>
        <rect id="Rectángulo_304147" data-name="Rectángulo 304147" width="13.502" height="3.05" transform="translate(271.15 104.718)" fill="#0b5999"/>
        <rect id="Rectángulo_304148" data-name="Rectángulo 304148" width="37.689" height="3.05" transform="translate(286.342 104.718)" fill="#21cbae"/>
        <rect id="Rectángulo_304149" data-name="Rectángulo 304149" width="14.503" height="3.05" transform="translate(325.892 104.718)" fill="#25292b"/>
        <path id="Trazado_632765" data-name="Trazado 632765" d="M175.475,276.3h-11.13v-3.05h11.13" transform="translate(165.014 -161.602)" fill="#21cbae"/>
        <rect id="Rectángulo_304150" data-name="Rectángulo 304150" width="32.351" height="3.05" transform="translate(295.317 111.643)" fill="#0b5999"/>
        <path id="Trazado_632766" data-name="Trazado 632766" d="M66.354,273.245H88.567v3.05H66.354" transform="translate(204.889 -161.603)" fill="#25292b"/>
        <rect id="Rectángulo_304151" data-name="Rectángulo 304151" width="37.225" height="3.05" transform="translate(271.244 123.243)" fill="#21cbae"/>
        <rect id="Rectángulo_304152" data-name="Rectángulo 304152" width="18.118" height="3.05" transform="translate(310.158 123.243)" fill="#0b5999"/>
        <rect id="Rectángulo_304153" data-name="Rectángulo 304153" width="10.351" height="3.05" transform="translate(330.137 123.243)" fill="#25292b"/>
        <path id="Trazado_632767" data-name="Trazado 632767" d="M165.867,307.531H140.5v-3.05h25.363" transform="translate(174.716 -174.313)" fill="#21cbae"/>
        <rect id="Rectángulo_304154" data-name="Rectángulo 304154" width="18.118" height="3.05" transform="translate(295.412 130.168)" fill="#0b5999"/>
        <path id="Trazado_632768" data-name="Trazado 632768" d="M66.513,304.481H88.726v3.05H66.513" transform="translate(204.825 -174.313)" fill="#25292b"/>
        <rect id="Rectángulo_304155" data-name="Rectángulo 304155" width="13.502" height="3.05" transform="translate(271.338 137.668)" fill="#0b5999"/>
        <rect id="Rectángulo_304156" data-name="Rectángulo 304156" width="37.689" height="3.05" transform="translate(286.53 137.668)" fill="#21cbae"/>
        <rect id="Rectángulo_304157" data-name="Rectángulo 304157" width="14.503" height="3.05" transform="translate(326.079 137.668)" fill="#25292b"/>
        <path id="Trazado_632769" data-name="Trazado 632769" d="M175.791,331.855h-11.13V328.8h11.13" transform="translate(164.885 -184.211)" fill="#21cbae"/>
        <rect id="Rectángulo_304158" data-name="Rectángulo 304158" width="32.351" height="3.05" transform="translate(295.505 144.594)" fill="#0b5999"/>
        <path id="Trazado_632770" data-name="Trazado 632770" d="M66.671,328.8H88.884v3.05H66.671" transform="translate(204.76 -184.211)" fill="#25292b"/>
        <path id="Trazado_632771" data-name="Trazado 632771" d="M-197.951,251.11H-271.84V161.679h73.889Zm-73.3-.593h72.7V162.272h-72.7Z" transform="translate(342.51 -116.203)" fill="#25292b"/>
        <rect id="Rectángulo_304159" data-name="Rectángulo 304159" width="69.245" height="9.645" transform="translate(72.992 47.586)" fill="#0b5999"/>
        <path id="Trazado_632772" data-name="Trazado 632772" d="M-175.219,174.4a.413.413,0,0,1-.259-.091l-3.6-2.879a.415.415,0,0,1-.156-.324.416.416,0,0,1,.156-.324l3.558-2.843a.415.415,0,0,1,.583.065.415.415,0,0,1-.065.584l-3.152,2.518,3.2,2.555a.415.415,0,0,1,.065.583.414.414,0,0,1-.324.156" transform="translate(304.828 -118.712)" fill="#dddad4"/>
        <path id="Trazado_632773" data-name="Trazado 632773" d="M-163.438,174.4a.414.414,0,0,1-.324-.156.415.415,0,0,1,.065-.583l3.2-2.555-3.152-2.518a.415.415,0,0,1-.065-.584.415.415,0,0,1,.583-.065l3.558,2.843a.416.416,0,0,1,.156.324.415.415,0,0,1-.156.324l-3.6,2.879a.413.413,0,0,1-.259.091" transform="translate(298.567 -118.712)" fill="#dddad4"/>
        <path id="Trazado_632774" data-name="Trazado 632774" d="M-169.5,174.633a.416.416,0,0,1-.178-.015.415.415,0,0,1-.275-.518l2.231-7.251a.415.415,0,0,1,.519-.275.415.415,0,0,1,.275.518l-2.231,7.251a.416.416,0,0,1-.341.289" transform="translate(301.055 -118.187)" fill="#dddad4"/>
        <rect id="Rectángulo_304160" data-name="Rectángulo 304160" width="37.225" height="3.05" transform="translate(72.992 63.908)" fill="#21cbae"/>
        <rect id="Rectángulo_304161" data-name="Rectángulo 304161" width="18.118" height="3.05" transform="translate(111.907 63.908)" fill="#0b5999"/>
        <rect id="Rectángulo_304162" data-name="Rectángulo 304162" width="10.351" height="3.05" transform="translate(131.885 63.908)" fill="#dddad4"/>
        <path id="Trazado_632775" data-name="Trazado 632775" d="M-168.413,207.484h-25.363v-3.05h25.363" transform="translate(310.744 -133.601)" fill="#21cbae"/>
        <rect id="Rectángulo_304163" data-name="Rectángulo 304163" width="18.118" height="3.05" transform="translate(97.16 70.833)" fill="#0b5999"/>
        <path id="Trazado_632776" data-name="Trazado 632776" d="M-267.767,204.434h22.213v3.05h-22.213" transform="translate(340.853 -133.601)" fill="#dddad4"/>
        <rect id="Rectángulo_304164" data-name="Rectángulo 304164" width="13.502" height="3.05" transform="translate(73.086 78.334)" fill="#0b5999"/>
        <rect id="Rectángulo_304165" data-name="Rectángulo 304165" width="37.689" height="3.05" transform="translate(88.278 78.334)" fill="#21cbae"/>
        <rect id="Rectángulo_304166" data-name="Rectángulo 304166" width="14.503" height="3.05" transform="translate(127.828 78.334)" fill="#dddad4"/>
        <path id="Trazado_632777" data-name="Trazado 632777" d="M-158.488,231.808h-11.13v-3.05h11.13" transform="translate(300.913 -143.499)" fill="#21cbae"/>
        <rect id="Rectángulo_304167" data-name="Rectángulo 304167" width="32.351" height="3.05" transform="translate(97.254 85.259)" fill="#0b5999"/>
        <path id="Trazado_632778" data-name="Trazado 632778" d="M-267.608,228.758H-245.4v3.05h-22.213" transform="translate(340.788 -143.499)" fill="#dddad4"/>
        <rect id="Rectángulo_304168" data-name="Rectángulo 304168" width="37.225" height="3.05" transform="translate(73.18 96.859)" fill="#21cbae"/>
        <rect id="Rectángulo_304169" data-name="Rectángulo 304169" width="18.118" height="3.05" transform="translate(112.095 96.859)" fill="#0b5999"/>
        <rect id="Rectángulo_304170" data-name="Rectángulo 304170" width="10.351" height="3.05" transform="translate(132.073 96.859)" fill="#dddad4"/>
        <path id="Trazado_632779" data-name="Trazado 632779" d="M-168.1,263.044h-25.363v-3.05H-168.1" transform="translate(310.615 -156.21)" fill="#21cbae"/>
        <rect id="Rectángulo_304171" data-name="Rectángulo 304171" width="18.118" height="3.05" transform="translate(97.348 103.784)" fill="#0b5999"/>
        <path id="Trazado_632780" data-name="Trazado 632780" d="M-267.45,259.994h22.213v3.05H-267.45" transform="translate(340.724 -156.21)" fill="#dddad4"/>
        <rect id="Rectángulo_304172" data-name="Rectángulo 304172" width="13.502" height="3.05" transform="translate(73.274 111.284)" fill="#0b5999"/>
        <rect id="Rectángulo_304173" data-name="Rectángulo 304173" width="37.689" height="3.05" transform="translate(88.466 111.284)" fill="#21cbae"/>
        <rect id="Rectángulo_304174" data-name="Rectángulo 304174" width="14.503" height="3.05" transform="translate(128.016 111.284)" fill="#dddad4"/>
        <path id="Trazado_632781" data-name="Trazado 632781" d="M-158.171,287.368H-169.3v-3.05h11.13" transform="translate(300.784 -166.108)" fill="#21cbae"/>
        <rect id="Rectángulo_304175" data-name="Rectángulo 304175" width="32.351" height="3.05" transform="translate(97.442 118.21)" fill="#0b5999"/>
        <path id="Trazado_632782" data-name="Trazado 632782" d="M-267.292,284.318h22.213v3.05h-22.213" transform="translate(340.659 -166.108)" fill="#dddad4"/>
        <path id="Trazado_632783" data-name="Trazado 632783" d="M134.959,147.341v13.469a7.138,7.138,0,0,1-7.117,7.117H114.985l-10.574,9.945,1.522-9.945H69.6a7.138,7.138,0,0,1-7.117-7.117V147.341a7.138,7.138,0,0,1,7.117-7.117h58.24a7.138,7.138,0,0,1,7.117,7.117" transform="translate(206.463 -107.472)" fill="#fecb2f"/>
        <path id="Trazado_632784" data-name="Trazado 632784" d="M97.3,157.907a5.322,5.322,0,0,1-.851,2.979,5.577,5.577,0,0,1-2.455,2.024,9.094,9.094,0,0,1-3.763.722,15.239,15.239,0,0,1-3.023-.253,11.26,11.26,0,0,1-2.541-.882v-4.342a14.485,14.485,0,0,0,2.9,1.116,10.771,10.771,0,0,0,2.763.4,2.685,2.685,0,0,0,1.592-.377,1.158,1.158,0,0,0,.506-.969,1.069,1.069,0,0,0-.2-.648,2.386,2.386,0,0,0-.654-.562q-.451-.284-2.4-1.159a11.5,11.5,0,0,1-2.646-1.554,4.766,4.766,0,0,1-1.308-1.728,5.725,5.725,0,0,1-.426-2.306,4.623,4.623,0,0,1,1.814-3.886,8,8,0,0,1,4.984-1.394,13.989,13.989,0,0,1,5.712,1.3L95.8,150.146a10.823,10.823,0,0,0-4.367-1.159,2.278,2.278,0,0,0-1.382.333,1.008,1.008,0,0,0-.432.827,1.194,1.194,0,0,0,.549.95,20.971,20.971,0,0,0,2.98,1.53,8.248,8.248,0,0,1,3.239,2.252,4.892,4.892,0,0,1,.907,3.029" transform="translate(197.438 -109.452)" fill="#dddad4"/>
        <path id="Trazado_632785" data-name="Trazado 632785" d="M127.088,154.323q0,6.132-3.9,8.266l4.4,5.071h-6.07l-3.183-4.01-.012-.012v-.012l-.012-.012a8.557,8.557,0,0,1-6.508-2.381q-2.264-2.381-2.264-6.934,0-4.5,2.252-6.878t6.545-2.375q4.306,0,6.527,2.356t2.22,6.921m-12.411,0q0,5.231,3.64,5.231a3.129,3.129,0,0,0,2.745-1.271,9.226,9.226,0,0,0-.012-7.951,3.092,3.092,0,0,0-2.708-1.289q-3.664,0-3.664,5.28" transform="translate(187.314 -109.434)" fill="#dddad4"/>
        <path id="Trazado_632786" data-name="Trazado 632786" d="M144.617,163.562V145.525h4.873v14.1h6.946v3.936Z" transform="translate(173.042 -109.629)" fill="#dddad4"/>
      </g>
    </g>
  </g>
</svg>
