<svg xmlns="http://www.w3.org/2000/svg" width="295.539" height="224.035" viewBox="0 0 295.539 224.035">
  <g id="Grupo_911032" data-name="Grupo 911032" transform="translate(-6429.57 19127.709)">
    <g id="Grupo_911023" data-name="Grupo 911023" transform="translate(6430.109 -19127.17)">
      <g id="Grupo_140420" data-name="Grupo 140420" transform="translate(0 0)">
        <g id="Rectángulo_293060" data-name="Rectángulo 293060" transform="translate(72.067 1.777)" fill="none" stroke="#fecb2f" stroke-width="5">
          <rect width="160.244" height="206.971" rx="30" stroke="none"/>
          <rect x="2.5" y="2.5" width="155.244" height="201.971" rx="27.5" fill="none"/>
        </g>
        <g id="Grupo_873686" data-name="Grupo 873686" transform="translate(0 0)">
          <path id="Trazado_1" data-name="Trazado 1" d="M11.4-75.2-45.679-18.122q.4,2.448,1.026,4.812L16.21-74.173Q13.848-74.8,11.4-75.2Z" transform="translate(46.329 75.849)" fill="none" stroke="#21cbae" stroke-miterlimit="10" stroke-width="1.078"/>
          <path id="Trazado_2" data-name="Trazado 2" d="M17.668-72.715-43.195-11.852q.6,2.261,1.4,4.436l63.9-63.9Q19.933-72.115,17.668-72.715Z" transform="translate(44.87 74.39)" fill="none" stroke="#21cbae" stroke-miterlimit="10" stroke-width="1.078"/>
          <path id="Trazado_3" data-name="Trazado 3" d="M51.078-48.491-18.971,21.558c.888,1.054,1.814,2.076,2.785,3.052L54.13-45.706C53.153-46.677,52.132-47.6,51.078-48.491Z" transform="translate(30.648 60.168)" fill="none" stroke="#21cbae" stroke-miterlimit="10" stroke-width="1.078"/>
          <path id="Trazado_4" data-name="Trazado 4" d="M44.167-54.647-25.128,14.648q1.205,1.7,2.542,3.3L47.463-52.105Q45.872-53.445,44.167-54.647Z" transform="translate(34.263 63.782)" fill="none" stroke="#21cbae" stroke-miterlimit="10" stroke-width="1.078"/>
          <path id="Trazado_5" data-name="Trazado 5" d="M30.667-65.12-35.6,1.147c.621,1.3,1.3,2.571,2.03,3.808L34.475-63.09C33.238-63.818,31.97-64.5,30.667-65.12Z" transform="translate(40.411 69.931)" fill="none" stroke="#21cbae" stroke-miterlimit="10" stroke-width="1.078"/>
          <path id="Trazado_6" data-name="Trazado 6" d="M37.361-60.2-30.684,7.842q1.073,1.824,2.294,3.544L40.9-57.909Q39.185-59.128,37.361-60.2Z" transform="translate(37.525 67.044)" fill="none" stroke="#21cbae" stroke-miterlimit="10" stroke-width="1.078"/>
          <path id="Trazado_7" data-name="Trazado 7" d="M24.1-69.319l-63.9,63.9q.776,2.1,1.734,4.1L28.2-67.585Q26.2-68.54,24.1-69.319Z" transform="translate(42.877 72.397)" fill="none" stroke="#21cbae" stroke-miterlimit="10" stroke-width="1.078"/>
          <path id="Trazado_8" data-name="Trazado 8" d="M-38.97-40.3l28.186-28.186A49.861,49.861,0,0,0-38.97-40.3Z" transform="translate(42.39 71.909)" fill="none" stroke="#21cbae" stroke-miterlimit="10" stroke-width="1.078"/>
          <path id="Trazado_9" data-name="Trazado 9" d="M-14.257-71.962-42.443-43.776a49.288,49.288,0,0,0-2.442,8.28L-5.977-74.4A49.306,49.306,0,0,0-14.257-71.962Z" transform="translate(45.863 75.383)" fill="none" stroke="#21cbae" stroke-miterlimit="10" stroke-width="1.078"/>
          <path id="Trazado_10" data-name="Trazado 10" d="M5.319-76.583-47.064-24.2a49.849,49.849,0,0,0,.572,5.266L10.585-76.012A49.863,49.863,0,0,0,5.319-76.583Z" transform="translate(47.142 76.661)" fill="none" stroke="#21cbae" stroke-miterlimit="10" stroke-width="1.078"/>
          <path id="Trazado_11" data-name="Trazado 11" d="M2.471-76.773c-1.052,0-2.095.044-3.131.108L-47.145-30.18c-.064,1.036-.108,2.078-.108,3.131,0,.918.029,1.83.078,2.736L5.208-76.695C4.3-76.744,3.39-76.773,2.471-76.773Z" transform="translate(47.253 76.773)" fill="none" stroke="#21cbae" stroke-miterlimit="10" stroke-width="1.078"/>
          <path id="Trazado_12" data-name="Trazado 12" d="M-7.213-75.641-46.121-36.733a49.745,49.745,0,0,0-.87,6.707L-.506-76.511A49.815,49.815,0,0,0-7.213-75.641Z" transform="translate(47.099 76.619)" fill="none" stroke="#21cbae" stroke-miterlimit="10" stroke-width="1.078"/>
          <path id="Trazado_13" data-name="Trazado 13" d="M110.309,23.422,52.941,80.79a49.764,49.764,0,0,0,5.232.605l52.741-52.74A49.741,49.741,0,0,0,110.309,23.422Z" transform="translate(-11.573 17.946)" fill="none" stroke="#21cbae" stroke-miterlimit="10" stroke-width="1.078"/>
          <path id="Trazado_14" data-name="Trazado 14" d="M118.463,39.219c0-1.05-.044-2.09-.108-3.124L65.614,88.835c1.034.064,2.074.108,3.124.108.9,0,1.792-.027,2.68-.074L118.389,41.9C118.436,41.011,118.463,40.118,118.463,39.219Z" transform="translate(-19.014 10.506)" fill="none" stroke="#21cbae" stroke-miterlimit="10" stroke-width="1.078"/>
          <path id="Trazado_15" data-name="Trazado 15" d="M126.642,50.152,79.671,97.122a49.751,49.751,0,0,0,6.651-.813L125.829,56.8A49.826,49.826,0,0,0,126.642,50.152Z" transform="translate(-27.267 2.253)" fill="none" stroke="#21cbae" stroke-miterlimit="10" stroke-width="1.078"/>
          <path id="Trazado_16" data-name="Trazado 16" d="M135.286,66.26,95.779,105.767a49.324,49.324,0,0,0,8.1-2.262l29.146-29.146A49.417,49.417,0,0,0,135.286,66.26Z" transform="translate(-36.724 -7.205)" fill="none" stroke="#21cbae" stroke-miterlimit="10" stroke-width="1.078"/>
          <path id="Trazado_17" data-name="Trazado 17" d="M144.542,85.877,115.4,115.023A49.865,49.865,0,0,0,144.542,85.877Z" transform="translate(-48.242 -18.722)" fill="none" stroke="#21cbae" stroke-miterlimit="10" stroke-width="1.078"/>
          <path id="Trazado_18" data-name="Trazado 18" d="M102.453,11.837l-61.1,61.1q2.348.642,4.783,1.055L103.508,16.62Q103.1,14.186,102.453,11.837Z" transform="translate(-4.772 24.748)" fill="none" stroke="#21cbae" stroke-miterlimit="10" stroke-width="1.078"/>
          <path id="Trazado_19" data-name="Trazado 19" d="M72.43-26.455,3.065,42.91c1.14.818,2.313,1.594,3.523,2.315L74.745-22.932C74.024-24.142,73.249-25.315,72.43-26.455Z" transform="translate(17.71 47.23)" fill="none" stroke="#21cbae" stroke-miterlimit="10" stroke-width="1.078"/>
          <path id="Trazado_20" data-name="Trazado 20" d="M65.21-34.388-4.869,35.691q1.582,1.348,3.276,2.562L67.772-31.113Q66.558-32.8,65.21-34.388Z" transform="translate(22.368 51.888)" fill="none" stroke="#21cbae" stroke-miterlimit="10" stroke-width="1.078"/>
          <path id="Trazado_21" data-name="Trazado 21" d="M94.754,1.157,30.676,65.235q2.159.815,4.41,1.428l61.1-61.1Q95.567,3.318,94.754,1.157Z" transform="translate(1.499 31.019)" fill="none" stroke="#21cbae" stroke-miterlimit="10" stroke-width="1.078"/>
          <path id="Trazado_22" data-name="Trazado 22" d="M58.091-41.745-12.225,28.571c.971.977,1.988,1.907,3.037,2.8L60.891-38.707C60-39.757,59.068-40.774,58.091-41.745Z" transform="translate(26.687 56.207)" fill="none" stroke="#21cbae" stroke-miterlimit="10" stroke-width="1.078"/>
          <path id="Trazado_23" data-name="Trazado 23" d="M87.191-8.746,20.773,57.671c1.33.644,2.7,1.223,4.089,1.749L88.94-4.657C88.414-6.05,87.834-7.417,87.191-8.746Z" transform="translate(7.313 36.833)" fill="none" stroke="#21cbae" stroke-miterlimit="10" stroke-width="1.078"/>
          <path id="Trazado_24" data-name="Trazado 24" d="M79.755-17.923,11.6,50.235c1.23.734,2.492,1.421,3.789,2.049L81.8-14.134C81.176-15.431,80.488-16.692,79.755-17.923Z" transform="translate(12.701 42.221)" fill="none" stroke="#21cbae" stroke-miterlimit="10" stroke-width="1.078"/>
        </g>
        <g id="Grupo_873687" data-name="Grupo 873687" transform="translate(195.217 123.713)">
          <g id="Grupo_68" data-name="Grupo 68" transform="translate(43.862 0)">
            <g id="Grupo_67" data-name="Grupo 67" transform="translate(0)">
              <rect id="Rectángulo_193" data-name="Rectángulo 193" width="1.754" height="1.754" transform="translate(53.441 54.681) rotate(-44.999)" fill="#ef3c79"/>
              <rect id="Rectángulo_194" data-name="Rectángulo 194" width="1.665" height="1.665" transform="translate(48.583 49.76) rotate(-45)" fill="#ef3c79"/>
              <rect id="Rectángulo_195" data-name="Rectángulo 195" width="1.575" height="1.575" transform="translate(43.725 44.839) rotate(-45)" fill="#ef3c79"/>
              <rect id="Rectángulo_196" data-name="Rectángulo 196" width="1.486" height="1.486" transform="matrix(0.707, -0.707, 0.707, 0.707, 38.866, 39.917)" fill="#ef3c79"/>
              <rect id="Rectángulo_197" data-name="Rectángulo 197" width="1.397" height="1.397" transform="translate(34.008 34.996) rotate(-45)" fill="#ef3c79"/>
              <rect id="Rectángulo_198" data-name="Rectángulo 198" width="1.307" height="1.307" transform="matrix(0.707, -0.707, 0.707, 0.707, 29.15, 30.074)" fill="#ef3c79"/>
              <rect id="Rectángulo_199" data-name="Rectángulo 199" width="1.218" height="1.218" transform="translate(24.291 25.153) rotate(-45)" fill="#ef3c79"/>
              <rect id="Rectángulo_200" data-name="Rectángulo 200" width="1.129" height="1.129" transform="translate(19.433 20.231) rotate(-45.001)" fill="#ef3c79"/>
              <rect id="Rectángulo_201" data-name="Rectángulo 201" width="1.04" height="1.04" transform="translate(14.575 15.31) rotate(-45)" fill="#ef3c79"/>
              <rect id="Rectángulo_202" data-name="Rectángulo 202" width="0.95" height="0.95" transform="matrix(0.707, -0.707, 0.707, 0.707, 9.717, 10.388)" fill="#ef3c79"/>
              <rect id="Rectángulo_203" data-name="Rectángulo 203" width="0.861" height="0.861" transform="translate(4.858 5.467) rotate(-45)" fill="#ef3c79"/>
              <rect id="Rectángulo_204" data-name="Rectángulo 204" width="0.772" height="0.772" transform="matrix(0.707, -0.707, 0.707, 0.707, 0, 0.546)" fill="#ef3c79"/>
            </g>
          </g>
          <g id="Grupo_70" data-name="Grupo 70" transform="translate(39.874 3.987)">
            <g id="Grupo_69" data-name="Grupo 69" transform="translate(0 0)">
              <rect id="Rectángulo_205" data-name="Rectángulo 205" width="1.754" height="1.754" transform="translate(53.441 54.681) rotate(-44.999)" fill="#ef3c79"/>
              <rect id="Rectángulo_206" data-name="Rectángulo 206" width="1.665" height="1.665" transform="translate(48.583 49.76) rotate(-45)" fill="#ef3c79"/>
              <rect id="Rectángulo_207" data-name="Rectángulo 207" width="1.575" height="1.575" transform="translate(43.725 44.839) rotate(-44.999)" fill="#ef3c79"/>
              <rect id="Rectángulo_208" data-name="Rectángulo 208" width="1.486" height="1.486" transform="translate(38.866 39.917) rotate(-45)" fill="#ef3c79"/>
              <rect id="Rectángulo_209" data-name="Rectángulo 209" width="1.397" height="1.397" transform="translate(34.008 34.996) rotate(-45)" fill="#ef3c79"/>
              <rect id="Rectángulo_210" data-name="Rectángulo 210" width="1.307" height="1.307" transform="translate(29.15 30.074) rotate(-45)" fill="#ef3c79"/>
              <rect id="Rectángulo_211" data-name="Rectángulo 211" width="1.218" height="1.218" transform="translate(24.291 25.153) rotate(-45)" fill="#ef3c79"/>
              <rect id="Rectángulo_212" data-name="Rectángulo 212" width="1.129" height="1.129" transform="translate(19.433 20.231) rotate(-45)" fill="#ef3c79"/>
              <rect id="Rectángulo_213" data-name="Rectángulo 213" width="1.04" height="1.04" transform="translate(14.575 15.31) rotate(-45)" fill="#ef3c79"/>
              <rect id="Rectángulo_214" data-name="Rectángulo 214" width="0.95" height="0.95" transform="translate(9.717 10.388) rotate(-45)" fill="#ef3c79"/>
              <rect id="Rectángulo_215" data-name="Rectángulo 215" width="0.861" height="0.861" transform="translate(4.858 5.467) rotate(-45)" fill="#ef3c79"/>
              <rect id="Rectángulo_216" data-name="Rectángulo 216" width="0.772" height="0.772" transform="matrix(0.707, -0.707, 0.707, 0.707, 0, 0.546)" fill="#ef3c79"/>
            </g>
          </g>
          <g id="Grupo_72" data-name="Grupo 72" transform="translate(35.887 7.975)">
            <g id="Grupo_71" data-name="Grupo 71" transform="translate(0 0)">
              <rect id="Rectángulo_217" data-name="Rectángulo 217" width="1.754" height="1.754" transform="translate(53.441 54.681) rotate(-44.999)" fill="#ef3c79"/>
              <rect id="Rectángulo_218" data-name="Rectángulo 218" width="1.665" height="1.665" transform="translate(48.583 49.76) rotate(-44.999)" fill="#ef3c79"/>
              <rect id="Rectángulo_219" data-name="Rectángulo 219" width="1.575" height="1.575" transform="translate(43.725 44.839) rotate(-44.999)" fill="#ef3c79"/>
              <rect id="Rectángulo_220" data-name="Rectángulo 220" width="1.486" height="1.486" transform="matrix(0.707, -0.707, 0.707, 0.707, 38.866, 39.917)" fill="#ef3c79"/>
              <rect id="Rectángulo_221" data-name="Rectángulo 221" width="1.397" height="1.397" transform="translate(34.008 34.996) rotate(-44.999)" fill="#ef3c79"/>
              <rect id="Rectángulo_222" data-name="Rectángulo 222" width="1.307" height="1.307" transform="matrix(0.707, -0.707, 0.707, 0.707, 29.15, 30.074)" fill="#ef3c79"/>
              <rect id="Rectángulo_223" data-name="Rectángulo 223" width="1.218" height="1.218" transform="matrix(0.707, -0.707, 0.707, 0.707, 24.291, 25.153)" fill="#ef3c79"/>
              <rect id="Rectángulo_224" data-name="Rectángulo 224" width="1.129" height="1.129" transform="translate(19.433 20.231) rotate(-44.999)" fill="#ef3c79"/>
              <rect id="Rectángulo_225" data-name="Rectángulo 225" width="1.04" height="1.04" transform="translate(14.575 15.31) rotate(-45)" fill="#ef3c79"/>
              <rect id="Rectángulo_226" data-name="Rectángulo 226" width="0.95" height="0.95" transform="translate(9.717 10.388) rotate(-44.998)" fill="#ef3c79"/>
              <rect id="Rectángulo_227" data-name="Rectángulo 227" width="0.861" height="0.861" transform="translate(4.858 5.467) rotate(-45)" fill="#ef3c79"/>
              <rect id="Rectángulo_228" data-name="Rectángulo 228" width="0.772" height="0.772" transform="matrix(0.707, -0.707, 0.707, 0.707, 0, 0.546)" fill="#ef3c79"/>
            </g>
          </g>
          <g id="Grupo_74" data-name="Grupo 74" transform="translate(31.899 11.962)">
            <g id="Grupo_73" data-name="Grupo 73" transform="translate(0 0)">
              <rect id="Rectángulo_229" data-name="Rectángulo 229" width="1.754" height="1.754" transform="translate(53.441 54.681) rotate(-45.001)" fill="#ef3c79"/>
              <rect id="Rectángulo_230" data-name="Rectángulo 230" width="1.665" height="1.665" transform="translate(48.583 49.76) rotate(-45.001)" fill="#ef3c79"/>
              <rect id="Rectángulo_231" data-name="Rectángulo 231" width="1.575" height="1.575" transform="translate(43.725 44.839) rotate(-45)" fill="#ef3c79"/>
              <rect id="Rectángulo_232" data-name="Rectángulo 232" width="1.486" height="1.486" transform="matrix(0.707, -0.707, 0.707, 0.707, 38.866, 39.917)" fill="#ef3c79"/>
              <rect id="Rectángulo_233" data-name="Rectángulo 233" width="1.397" height="1.397" transform="translate(34.008 34.996) rotate(-45)" fill="#ef3c79"/>
              <rect id="Rectángulo_234" data-name="Rectángulo 234" width="1.307" height="1.307" transform="matrix(0.707, -0.707, 0.707, 0.707, 29.15, 30.074)" fill="#ef3c79"/>
              <rect id="Rectángulo_235" data-name="Rectángulo 235" width="1.218" height="1.218" transform="translate(24.291 25.153) rotate(-45)" fill="#ef3c79"/>
              <rect id="Rectángulo_236" data-name="Rectángulo 236" width="1.129" height="1.129" transform="translate(19.433 20.231) rotate(-45.001)" fill="#ef3c79"/>
              <rect id="Rectángulo_237" data-name="Rectángulo 237" width="1.04" height="1.04" transform="translate(14.575 15.31) rotate(-45)" fill="#ef3c79"/>
              <rect id="Rectángulo_238" data-name="Rectángulo 238" width="0.95" height="0.95" transform="translate(9.717 10.388) rotate(-45)" fill="#ef3c79"/>
              <rect id="Rectángulo_239" data-name="Rectángulo 239" width="0.861" height="0.861" transform="translate(4.858 5.467) rotate(-45)" fill="#ef3c79"/>
              <rect id="Rectángulo_240" data-name="Rectángulo 240" width="0.772" height="0.772" transform="translate(0 0.546) rotate(-44.998)" fill="#ef3c79"/>
            </g>
          </g>
          <g id="Grupo_76" data-name="Grupo 76" transform="translate(27.912 15.95)">
            <g id="Grupo_75" data-name="Grupo 75" transform="translate(0 0)">
              <rect id="Rectángulo_241" data-name="Rectángulo 241" width="1.754" height="1.754" transform="translate(53.441 54.681) rotate(-45.001)" fill="#ef3c79"/>
              <rect id="Rectángulo_242" data-name="Rectángulo 242" width="1.665" height="1.665" transform="translate(48.583 49.76) rotate(-45.001)" fill="#ef3c79"/>
              <rect id="Rectángulo_243" data-name="Rectángulo 243" width="1.575" height="1.575" transform="translate(43.725 44.839) rotate(-45)" fill="#ef3c79"/>
              <rect id="Rectángulo_244" data-name="Rectángulo 244" width="1.486" height="1.486" transform="matrix(0.707, -0.707, 0.707, 0.707, 38.866, 39.917)" fill="#ef3c79"/>
              <rect id="Rectángulo_245" data-name="Rectángulo 245" width="1.397" height="1.397" transform="translate(34.008 34.996) rotate(-45)" fill="#ef3c79"/>
              <rect id="Rectángulo_246" data-name="Rectángulo 246" width="1.307" height="1.307" transform="translate(29.15 30.074) rotate(-45.001)" fill="#ef3c79"/>
              <rect id="Rectángulo_247" data-name="Rectángulo 247" width="1.218" height="1.218" transform="translate(24.291 25.153) rotate(-45)" fill="#ef3c79"/>
              <rect id="Rectángulo_248" data-name="Rectángulo 248" width="1.129" height="1.129" transform="translate(19.433 20.231) rotate(-45.001)" fill="#ef3c79"/>
              <rect id="Rectángulo_249" data-name="Rectángulo 249" width="1.04" height="1.04" transform="translate(14.575 15.31) rotate(-45)" fill="#ef3c79"/>
              <rect id="Rectángulo_250" data-name="Rectángulo 250" width="0.95" height="0.95" transform="matrix(0.707, -0.707, 0.707, 0.707, 9.717, 10.388)" fill="#ef3c79"/>
              <rect id="Rectángulo_251" data-name="Rectángulo 251" width="0.861" height="0.861" transform="translate(4.858 5.467) rotate(-45)" fill="#ef3c79"/>
              <rect id="Rectángulo_252" data-name="Rectángulo 252" width="0.772" height="0.772" transform="matrix(0.707, -0.707, 0.707, 0.707, 0, 0.546)" fill="#ef3c79"/>
            </g>
          </g>
          <g id="Grupo_78" data-name="Grupo 78" transform="translate(23.924 19.937)">
            <g id="Grupo_77" data-name="Grupo 77" transform="translate(0 0)">
              <rect id="Rectángulo_253" data-name="Rectángulo 253" width="1.754" height="1.754" transform="translate(53.441 54.681) rotate(-45)" fill="#ef3c79"/>
              <rect id="Rectángulo_254" data-name="Rectángulo 254" width="1.665" height="1.665" transform="translate(48.583 49.76) rotate(-45)" fill="#ef3c79"/>
              <rect id="Rectángulo_255" data-name="Rectángulo 255" width="1.575" height="1.575" transform="translate(43.725 44.839) rotate(-45.001)" fill="#ef3c79"/>
              <rect id="Rectángulo_256" data-name="Rectángulo 256" width="1.486" height="1.486" transform="matrix(0.707, -0.707, 0.707, 0.707, 38.866, 39.917)" fill="#ef3c79"/>
              <rect id="Rectángulo_257" data-name="Rectángulo 257" width="1.397" height="1.397" transform="matrix(0.707, -0.707, 0.707, 0.707, 34.008, 34.996)" fill="#ef3c79"/>
              <rect id="Rectángulo_258" data-name="Rectángulo 258" width="1.307" height="1.307" transform="matrix(0.707, -0.707, 0.707, 0.707, 29.15, 30.074)" fill="#ef3c79"/>
              <rect id="Rectángulo_259" data-name="Rectángulo 259" width="1.218" height="1.218" transform="translate(24.291 25.153) rotate(-45)" fill="#ef3c79"/>
              <rect id="Rectángulo_260" data-name="Rectángulo 260" width="1.129" height="1.129" transform="translate(19.433 20.231) rotate(-45.001)" fill="#ef3c79"/>
              <rect id="Rectángulo_261" data-name="Rectángulo 261" width="1.04" height="1.04" transform="translate(14.575 15.31) rotate(-45)" fill="#ef3c79"/>
              <rect id="Rectángulo_262" data-name="Rectángulo 262" width="0.95" height="0.95" transform="matrix(0.707, -0.707, 0.707, 0.707, 9.717, 10.388)" fill="#ef3c79"/>
              <rect id="Rectángulo_263" data-name="Rectángulo 263" width="0.861" height="0.861" transform="translate(4.858 5.467) rotate(-45)" fill="#ef3c79"/>
              <rect id="Rectángulo_264" data-name="Rectángulo 264" width="0.772" height="0.772" transform="matrix(0.707, -0.707, 0.707, 0.707, 0, 0.546)" fill="#ef3c79"/>
            </g>
          </g>
          <g id="Grupo_80" data-name="Grupo 80" transform="translate(19.937 23.925)">
            <g id="Grupo_79" data-name="Grupo 79" transform="translate(0 0)">
              <rect id="Rectángulo_265" data-name="Rectángulo 265" width="1.754" height="1.754" transform="translate(53.441 54.681) rotate(-44.999)" fill="#ef3c79"/>
              <rect id="Rectángulo_266" data-name="Rectángulo 266" width="1.665" height="1.665" transform="translate(48.583 49.76) rotate(-45)" fill="#ef3c79"/>
              <rect id="Rectángulo_267" data-name="Rectángulo 267" width="1.575" height="1.575" transform="translate(43.725 44.839) rotate(-44.999)" fill="#ef3c79"/>
              <rect id="Rectángulo_268" data-name="Rectángulo 268" width="1.486" height="1.486" transform="translate(38.866 39.917) rotate(-45)" fill="#ef3c79"/>
              <rect id="Rectángulo_269" data-name="Rectángulo 269" width="1.397" height="1.397" transform="translate(34.008 34.996) rotate(-44.999)" fill="#ef3c79"/>
              <rect id="Rectángulo_270" data-name="Rectángulo 270" width="1.307" height="1.307" transform="matrix(0.707, -0.707, 0.707, 0.707, 29.15, 30.074)" fill="#ef3c79"/>
              <rect id="Rectángulo_271" data-name="Rectángulo 271" width="1.218" height="1.218" transform="matrix(0.707, -0.707, 0.707, 0.707, 24.291, 25.153)" fill="#ef3c79"/>
              <rect id="Rectángulo_272" data-name="Rectángulo 272" width="1.129" height="1.129" transform="translate(19.433 20.231) rotate(-45.001)" fill="#ef3c79"/>
              <rect id="Rectángulo_273" data-name="Rectángulo 273" width="1.04" height="1.04" transform="translate(14.575 15.31) rotate(-45)" fill="#ef3c79"/>
              <rect id="Rectángulo_274" data-name="Rectángulo 274" width="0.95" height="0.95" transform="translate(9.717 10.388) rotate(-45.002)" fill="#ef3c79"/>
              <rect id="Rectángulo_275" data-name="Rectángulo 275" width="0.861" height="0.861" transform="translate(4.858 5.467) rotate(-45)" fill="#ef3c79"/>
              <rect id="Rectángulo_276" data-name="Rectángulo 276" width="0.772" height="0.772" transform="matrix(0.707, -0.707, 0.707, 0.707, 0, 0.546)" fill="#ef3c79"/>
            </g>
          </g>
          <g id="Grupo_82" data-name="Grupo 82" transform="translate(15.95 27.912)">
            <g id="Grupo_81" data-name="Grupo 81" transform="translate(0 0)">
              <rect id="Rectángulo_277" data-name="Rectángulo 277" width="1.754" height="1.754" transform="translate(53.441 54.681) rotate(-44.999)" fill="#ef3c79"/>
              <rect id="Rectángulo_278" data-name="Rectángulo 278" width="1.665" height="1.665" transform="translate(48.583 49.76) rotate(-45)" fill="#ef3c79"/>
              <rect id="Rectángulo_279" data-name="Rectángulo 279" width="1.575" height="1.575" transform="translate(43.725 44.839) rotate(-44.999)" fill="#ef3c79"/>
              <rect id="Rectángulo_280" data-name="Rectángulo 280" width="1.486" height="1.486" transform="translate(38.866 39.917) rotate(-45)" fill="#ef3c79"/>
              <rect id="Rectángulo_281" data-name="Rectángulo 281" width="1.397" height="1.397" transform="translate(34.008 34.996) rotate(-44.999)" fill="#ef3c79"/>
              <rect id="Rectángulo_282" data-name="Rectángulo 282" width="1.307" height="1.307" transform="translate(29.15 30.074) rotate(-45)" fill="#ef3c79"/>
              <rect id="Rectángulo_283" data-name="Rectángulo 283" width="1.218" height="1.218" transform="matrix(0.707, -0.707, 0.707, 0.707, 24.291, 25.153)" fill="#ef3c79"/>
              <rect id="Rectángulo_284" data-name="Rectángulo 284" width="1.129" height="1.129" transform="translate(19.433 20.231) rotate(-45)" fill="#ef3c79"/>
              <rect id="Rectángulo_285" data-name="Rectángulo 285" width="1.04" height="1.04" transform="translate(14.575 15.31) rotate(-45)" fill="#ef3c79"/>
              <rect id="Rectángulo_286" data-name="Rectángulo 286" width="0.95" height="0.95" transform="translate(9.717 10.388) rotate(-45)" fill="#ef3c79"/>
              <rect id="Rectángulo_287" data-name="Rectángulo 287" width="0.861" height="0.861" transform="translate(4.858 5.467) rotate(-45)" fill="#ef3c79"/>
              <rect id="Rectángulo_288" data-name="Rectángulo 288" width="0.772" height="0.772" transform="matrix(0.707, -0.707, 0.707, 0.707, 0, 0.546)" fill="#ef3c79"/>
            </g>
          </g>
          <g id="Grupo_84" data-name="Grupo 84" transform="translate(11.962 31.899)">
            <g id="Grupo_83" data-name="Grupo 83" transform="translate(0 0)">
              <rect id="Rectángulo_289" data-name="Rectángulo 289" width="1.754" height="1.754" transform="translate(53.441 54.681) rotate(-44.999)" fill="#ef3c79"/>
              <rect id="Rectángulo_290" data-name="Rectángulo 290" width="1.665" height="1.665" transform="translate(48.583 49.76) rotate(-44.999)" fill="#ef3c79"/>
              <rect id="Rectángulo_291" data-name="Rectángulo 291" width="1.575" height="1.575" transform="translate(43.725 44.839) rotate(-44.999)" fill="#ef3c79"/>
              <rect id="Rectángulo_292" data-name="Rectángulo 292" width="1.486" height="1.486" transform="matrix(0.707, -0.707, 0.707, 0.707, 38.866, 39.917)" fill="#ef3c79"/>
              <rect id="Rectángulo_293" data-name="Rectángulo 293" width="1.397" height="1.397" transform="translate(34.008 34.996) rotate(-44.999)" fill="#ef3c79"/>
              <rect id="Rectángulo_294" data-name="Rectángulo 294" width="1.307" height="1.307" transform="matrix(0.707, -0.707, 0.707, 0.707, 29.15, 30.074)" fill="#ef3c79"/>
              <rect id="Rectángulo_295" data-name="Rectángulo 295" width="1.218" height="1.218" transform="matrix(0.707, -0.707, 0.707, 0.707, 24.291, 25.153)" fill="#ef3c79"/>
              <rect id="Rectángulo_296" data-name="Rectángulo 296" width="1.129" height="1.129" transform="translate(19.433 20.231) rotate(-44.999)" fill="#ef3c79"/>
              <rect id="Rectángulo_297" data-name="Rectángulo 297" width="1.04" height="1.04" transform="matrix(0.707, -0.707, 0.707, 0.707, 14.575, 15.31)" fill="#ef3c79"/>
              <rect id="Rectángulo_298" data-name="Rectángulo 298" width="0.95" height="0.95" transform="translate(9.717 10.388) rotate(-44.998)" fill="#ef3c79"/>
              <rect id="Rectángulo_299" data-name="Rectángulo 299" width="0.861" height="0.861" transform="translate(4.858 5.467) rotate(-44.998)" fill="#ef3c79"/>
              <rect id="Rectángulo_300" data-name="Rectángulo 300" width="0.772" height="0.772" transform="translate(0 0.546) rotate(-44.998)" fill="#ef3c79"/>
            </g>
          </g>
          <g id="Grupo_86" data-name="Grupo 86" transform="translate(7.975 35.887)">
            <g id="Grupo_85" data-name="Grupo 85" transform="translate(0 0)">
              <rect id="Rectángulo_301" data-name="Rectángulo 301" width="1.754" height="1.754" transform="matrix(0.707, -0.707, 0.707, 0.707, 53.441, 54.681)" fill="#ef3c79"/>
              <rect id="Rectángulo_302" data-name="Rectángulo 302" width="1.665" height="1.665" transform="translate(48.583 49.76) rotate(-45.001)" fill="#ef3c79"/>
              <rect id="Rectángulo_303" data-name="Rectángulo 303" width="1.575" height="1.575" transform="translate(43.725 44.839) rotate(-45.001)" fill="#ef3c79"/>
              <rect id="Rectángulo_304" data-name="Rectángulo 304" width="1.486" height="1.486" transform="matrix(0.707, -0.707, 0.707, 0.707, 38.866, 39.917)" fill="#ef3c79"/>
              <rect id="Rectángulo_305" data-name="Rectángulo 305" width="1.397" height="1.397" transform="translate(34.008 34.996) rotate(-45)" fill="#ef3c79"/>
              <rect id="Rectángulo_306" data-name="Rectángulo 306" width="1.307" height="1.307" transform="translate(29.15 30.074) rotate(-45.001)" fill="#ef3c79"/>
              <rect id="Rectángulo_307" data-name="Rectángulo 307" width="1.218" height="1.218" transform="translate(24.291 25.153) rotate(-45)" fill="#ef3c79"/>
              <rect id="Rectángulo_308" data-name="Rectángulo 308" width="1.129" height="1.129" transform="translate(19.433 20.231) rotate(-45.001)" fill="#ef3c79"/>
              <rect id="Rectángulo_309" data-name="Rectángulo 309" width="1.04" height="1.04" transform="translate(14.575 15.31) rotate(-45)" fill="#ef3c79"/>
              <rect id="Rectángulo_310" data-name="Rectángulo 310" width="0.95" height="0.95" transform="translate(9.717 10.388) rotate(-45)" fill="#ef3c79"/>
              <rect id="Rectángulo_311" data-name="Rectángulo 311" width="0.861" height="0.861" transform="translate(4.858 5.467) rotate(-45)" fill="#ef3c79"/>
              <rect id="Rectángulo_312" data-name="Rectángulo 312" width="0.772" height="0.772" transform="translate(0 0.546) rotate(-45)" fill="#ef3c79"/>
            </g>
          </g>
          <g id="Grupo_88" data-name="Grupo 88" transform="translate(3.987 39.874)">
            <g id="Grupo_87" data-name="Grupo 87" transform="translate(0 0)">
              <rect id="Rectángulo_313" data-name="Rectángulo 313" width="1.754" height="1.754" transform="translate(53.441 54.681) rotate(-45)" fill="#ef3c79"/>
              <rect id="Rectángulo_314" data-name="Rectángulo 314" width="1.665" height="1.665" transform="translate(48.583 49.76) rotate(-45)" fill="#ef3c79"/>
              <rect id="Rectángulo_315" data-name="Rectángulo 315" width="1.575" height="1.575" transform="translate(43.725 44.839) rotate(-45)" fill="#ef3c79"/>
              <rect id="Rectángulo_316" data-name="Rectángulo 316" width="1.486" height="1.486" transform="matrix(0.707, -0.707, 0.707, 0.707, 38.866, 39.917)" fill="#ef3c79"/>
              <rect id="Rectángulo_317" data-name="Rectángulo 317" width="1.397" height="1.397" transform="translate(34.008 34.996) rotate(-45.001)" fill="#ef3c79"/>
              <rect id="Rectángulo_318" data-name="Rectángulo 318" width="1.307" height="1.307" transform="matrix(0.707, -0.707, 0.707, 0.707, 29.15, 30.074)" fill="#ef3c79"/>
              <rect id="Rectángulo_319" data-name="Rectángulo 319" width="1.218" height="1.218" transform="translate(24.291 25.153) rotate(-45)" fill="#ef3c79"/>
              <rect id="Rectángulo_320" data-name="Rectángulo 320" width="1.129" height="1.129" transform="translate(19.433 20.231) rotate(-45.001)" fill="#ef3c79"/>
              <rect id="Rectángulo_321" data-name="Rectángulo 321" width="1.04" height="1.04" transform="translate(14.575 15.31) rotate(-45)" fill="#ef3c79"/>
              <rect id="Rectángulo_322" data-name="Rectángulo 322" width="0.95" height="0.95" transform="matrix(0.707, -0.707, 0.707, 0.707, 9.717, 10.388)" fill="#ef3c79"/>
              <rect id="Rectángulo_323" data-name="Rectángulo 323" width="0.861" height="0.861" transform="translate(4.858 5.467) rotate(-45)" fill="#ef3c79"/>
              <rect id="Rectángulo_324" data-name="Rectángulo 324" width="0.772" height="0.772" transform="matrix(0.707, -0.707, 0.707, 0.707, 0, 0.546)" fill="#ef3c79"/>
            </g>
          </g>
          <g id="Grupo_90" data-name="Grupo 90" transform="translate(0 43.862)">
            <g id="Grupo_89" data-name="Grupo 89" transform="translate(0 0)">
              <rect id="Rectángulo_325" data-name="Rectángulo 325" width="1.754" height="1.754" transform="translate(53.441 54.681) rotate(-45)" fill="#ef3c79"/>
              <rect id="Rectángulo_326" data-name="Rectángulo 326" width="1.665" height="1.665" transform="translate(48.583 49.76) rotate(-45)" fill="#ef3c79"/>
              <rect id="Rectángulo_327" data-name="Rectángulo 327" width="1.575" height="1.575" transform="translate(43.725 44.839) rotate(-45)" fill="#ef3c79"/>
              <rect id="Rectángulo_328" data-name="Rectángulo 328" width="1.486" height="1.486" transform="translate(38.866 39.917) rotate(-45)" fill="#ef3c79"/>
              <rect id="Rectángulo_329" data-name="Rectángulo 329" width="1.397" height="1.397" transform="translate(34.008 34.996) rotate(-45)" fill="#ef3c79"/>
              <rect id="Rectángulo_330" data-name="Rectángulo 330" width="1.307" height="1.307" transform="translate(29.15 30.074) rotate(-45)" fill="#ef3c79"/>
              <rect id="Rectángulo_331" data-name="Rectángulo 331" width="1.218" height="1.218" transform="matrix(0.707, -0.707, 0.707, 0.707, 24.291, 25.153)" fill="#ef3c79"/>
              <rect id="Rectángulo_332" data-name="Rectángulo 332" width="1.129" height="1.129" transform="translate(19.433 20.231) rotate(-45.001)" fill="#ef3c79"/>
              <rect id="Rectángulo_333" data-name="Rectángulo 333" width="1.04" height="1.04" transform="translate(14.575 15.31) rotate(-45.002)" fill="#ef3c79"/>
              <rect id="Rectángulo_334" data-name="Rectángulo 334" width="0.95" height="0.95" transform="translate(9.717 10.388) rotate(-45.002)" fill="#ef3c79"/>
              <rect id="Rectángulo_335" data-name="Rectángulo 335" width="0.861" height="0.861" transform="matrix(0.707, -0.707, 0.707, 0.707, 4.858, 5.467)" fill="#ef3c79"/>
              <rect id="Rectángulo_336" data-name="Rectángulo 336" width="0.772" height="0.772" transform="matrix(0.707, -0.707, 0.707, 0.707, 0, 0.546)" fill="#ef3c79"/>
            </g>
          </g>
        </g>
        <ellipse id="Elipse_4760" data-name="Elipse 4760" cx="100.095" cy="100.095" rx="100.095" ry="100.095" transform="translate(25.116 18.855)" fill="#e8e8e8"/>
        <g id="Grupo_873688" data-name="Grupo 873688" transform="translate(60.515 32.851)">
          <path id="Trazado_34" data-name="Trazado 34" d="M691.406,390.082l-4.089,7.082H695.5Z" transform="translate(-687.318 -330.565)" fill="#fdfdfd"/>
          <path id="Trazado_35" data-name="Trazado 35" d="M691.406,361.354l-4.089,7.082H695.5Z" transform="translate(-687.318 -313.698)" fill="#fdfdfd"/>
          <path id="Trazado_36" data-name="Trazado 36" d="M691.406,332.626l-4.089,7.082H695.5Z" transform="translate(-687.318 -296.832)" fill="#fdfdfd"/>
          <path id="Trazado_37" data-name="Trazado 37" d="M693.847,245.931l-2.372,4.108h4.744Z" transform="translate(-689.759 -245.931)" fill="#f13b76"/>
        </g>
      </g>
      <g id="Grupo_140419" data-name="Grupo 140419" transform="translate(9.121 160.89)">
        <g id="Grupo_4" data-name="Grupo 4" transform="translate(0)">
          <rect id="Rectángulo_4" data-name="Rectángulo 4" width="1.754" height="1.754" fill="none" stroke="#0b5999" stroke-miterlimit="10" stroke-width="1.078"/>
          <rect id="Rectángulo_5" data-name="Rectángulo 5" width="1.754" height="1.754" transform="translate(13.405)" fill="none" stroke="#0b5999" stroke-miterlimit="10" stroke-width="1.078"/>
          <rect id="Rectángulo_6" data-name="Rectángulo 6" width="1.754" height="1.754" transform="translate(26.811)" fill="none" stroke="#0b5999" stroke-miterlimit="10" stroke-width="1.078"/>
          <rect id="Rectángulo_7" data-name="Rectángulo 7" width="1.754" height="1.754" transform="translate(40.216)" fill="none" stroke="#0b5999" stroke-miterlimit="10" stroke-width="1.078"/>
          <rect id="Rectángulo_8" data-name="Rectángulo 8" width="1.754" height="1.754" transform="translate(53.622)" fill="none" stroke="#0b5999" stroke-miterlimit="10" stroke-width="1.078"/>
          <rect id="Rectángulo_9" data-name="Rectángulo 9" width="1.754" height="1.754" transform="translate(67.027)" fill="none" stroke="#0b5999" stroke-miterlimit="10" stroke-width="1.078"/>
        </g>
        <g id="Grupo_5" data-name="Grupo 5" transform="translate(0 9.772)">
          <rect id="Rectángulo_10" data-name="Rectángulo 10" width="1.754" height="1.754" fill="none" stroke="#0b5999" stroke-miterlimit="10" stroke-width="1.078"/>
          <rect id="Rectángulo_11" data-name="Rectángulo 11" width="1.754" height="1.754" transform="translate(13.405)" fill="none" stroke="#0b5999" stroke-miterlimit="10" stroke-width="1.078"/>
          <rect id="Rectángulo_12" data-name="Rectángulo 12" width="1.754" height="1.754" transform="translate(26.811)" fill="none" stroke="#0b5999" stroke-miterlimit="10" stroke-width="1.078"/>
          <rect id="Rectángulo_13" data-name="Rectángulo 13" width="1.754" height="1.754" transform="translate(40.216)" fill="none" stroke="#0b5999" stroke-miterlimit="10" stroke-width="1.078"/>
          <rect id="Rectángulo_14" data-name="Rectángulo 14" width="1.754" height="1.754" transform="translate(53.622)" fill="none" stroke="#0b5999" stroke-miterlimit="10" stroke-width="1.078"/>
          <rect id="Rectángulo_15" data-name="Rectángulo 15" width="1.754" height="1.754" transform="translate(67.027)" fill="none" stroke="#0b5999" stroke-miterlimit="10" stroke-width="1.078"/>
        </g>
        <g id="Grupo_6" data-name="Grupo 6" transform="translate(0 19.544)">
          <rect id="Rectángulo_16" data-name="Rectángulo 16" width="1.754" height="1.754" fill="none" stroke="#0b5999" stroke-miterlimit="10" stroke-width="1.078"/>
          <rect id="Rectángulo_17" data-name="Rectángulo 17" width="1.754" height="1.754" transform="translate(13.405)" fill="none" stroke="#0b5999" stroke-miterlimit="10" stroke-width="1.078"/>
          <rect id="Rectángulo_18" data-name="Rectángulo 18" width="1.754" height="1.754" transform="translate(26.811)" fill="none" stroke="#0b5999" stroke-miterlimit="10" stroke-width="1.078"/>
          <rect id="Rectángulo_19" data-name="Rectángulo 19" width="1.754" height="1.754" transform="translate(40.216)" fill="none" stroke="#0b5999" stroke-miterlimit="10" stroke-width="1.078"/>
          <rect id="Rectángulo_20" data-name="Rectángulo 20" width="1.754" height="1.754" transform="translate(53.622)" fill="none" stroke="#0b5999" stroke-miterlimit="10" stroke-width="1.078"/>
          <rect id="Rectángulo_21" data-name="Rectángulo 21" width="1.754" height="1.754" transform="translate(67.027)" fill="none" stroke="#0b5999" stroke-miterlimit="10" stroke-width="1.078"/>
        </g>
        <g id="Grupo_7" data-name="Grupo 7" transform="translate(0 29.317)">
          <rect id="Rectángulo_22" data-name="Rectángulo 22" width="1.754" height="1.754" fill="none" stroke="#0b5999" stroke-miterlimit="10" stroke-width="1.078"/>
          <rect id="Rectángulo_23" data-name="Rectángulo 23" width="1.754" height="1.754" transform="translate(13.405)" fill="none" stroke="#0b5999" stroke-miterlimit="10" stroke-width="1.078"/>
          <rect id="Rectángulo_24" data-name="Rectángulo 24" width="1.754" height="1.754" transform="translate(26.811)" fill="none" stroke="#0b5999" stroke-miterlimit="10" stroke-width="1.078"/>
          <rect id="Rectángulo_25" data-name="Rectángulo 25" width="1.754" height="1.754" transform="translate(40.216)" fill="none" stroke="#0b5999" stroke-miterlimit="10" stroke-width="1.078"/>
          <rect id="Rectángulo_26" data-name="Rectángulo 26" width="1.754" height="1.754" transform="translate(53.622)" fill="none" stroke="#0b5999" stroke-miterlimit="10" stroke-width="1.078"/>
          <rect id="Rectángulo_27" data-name="Rectángulo 27" width="1.754" height="1.754" transform="translate(67.027)" fill="none" stroke="#0b5999" stroke-miterlimit="10" stroke-width="1.078"/>
        </g>
        <g id="Grupo_8" data-name="Grupo 8" transform="translate(0 39.089)">
          <rect id="Rectángulo_28" data-name="Rectángulo 28" width="1.754" height="1.754" fill="none" stroke="#0b5999" stroke-miterlimit="10" stroke-width="1.078"/>
          <rect id="Rectángulo_29" data-name="Rectángulo 29" width="1.754" height="1.754" transform="translate(13.405)" fill="none" stroke="#0b5999" stroke-width="1"/>
          <rect id="Rectángulo_30" data-name="Rectángulo 30" width="1.754" height="1.754" transform="translate(26.811)" fill="none" stroke="#0b5999" stroke-width="1"/>
          <rect id="Rectángulo_31" data-name="Rectángulo 31" width="1.754" height="1.754" transform="translate(40.216)" fill="none" stroke="#0b5999" stroke-miterlimit="10" stroke-width="1.078"/>
          <rect id="Rectángulo_32" data-name="Rectángulo 32" width="1.754" height="1.754" transform="translate(53.622)" fill="none" stroke="#0b5999" stroke-miterlimit="10" stroke-width="1.078"/>
          <rect id="Rectángulo_33" data-name="Rectángulo 33" width="1.754" height="1.754" transform="translate(67.027)" fill="none" stroke="#0b5999" stroke-miterlimit="10" stroke-width="1.078"/>
        </g>
        <g id="Grupo_9" data-name="Grupo 9" transform="translate(0 48.861)">
          <rect id="Rectángulo_34" data-name="Rectángulo 34" width="1.754" height="1.754" fill="none" stroke="#0b5999" stroke-miterlimit="10" stroke-width="1.078"/>
          <rect id="Rectángulo_35" data-name="Rectángulo 35" width="1.754" height="1.754" transform="translate(13.405)" fill="none" stroke="#0b5999" stroke-miterlimit="10" stroke-width="1.078"/>
          <rect id="Rectángulo_36" data-name="Rectángulo 36" width="1.754" height="1.754" transform="translate(26.811)" fill="none" stroke="#0b5999" stroke-miterlimit="10" stroke-width="1.078"/>
          <rect id="Rectángulo_37" data-name="Rectángulo 37" width="1.754" height="1.754" transform="translate(40.216)" fill="none" stroke="#0b5999" stroke-width="1"/>
          <rect id="Rectángulo_38" data-name="Rectángulo 38" width="1.754" height="1.754" transform="translate(53.622)" fill="none" stroke="#0b5999" stroke-miterlimit="10" stroke-width="1.078"/>
          <rect id="Rectángulo_39" data-name="Rectángulo 39" width="1.754" height="1.754" transform="translate(67.027)" fill="none" stroke="#0b5999" stroke-miterlimit="10" stroke-width="1.078"/>
        </g>
        <g id="Grupo_10" data-name="Grupo 10" transform="translate(0 58.633)">
          <rect id="Rectángulo_40" data-name="Rectángulo 40" width="1.754" height="1.754" fill="none" stroke="#0b5999" stroke-miterlimit="10" stroke-width="1.078"/>
          <rect id="Rectángulo_41" data-name="Rectángulo 41" width="1.754" height="1.754" transform="translate(13.405)" fill="none" stroke="#0b5999" stroke-miterlimit="10" stroke-width="1.078"/>
          <rect id="Rectángulo_42" data-name="Rectángulo 42" width="1.754" height="1.754" transform="translate(26.811)" fill="none" stroke="#0b5999" stroke-miterlimit="10" stroke-width="1.078"/>
          <rect id="Rectángulo_43" data-name="Rectángulo 43" width="1.754" height="1.754" transform="translate(40.216)" fill="none" stroke="#0b5999" stroke-miterlimit="10" stroke-width="1.078"/>
          <rect id="Rectángulo_44" data-name="Rectángulo 44" width="1.754" height="1.754" transform="translate(53.622)" fill="none" stroke="#0b5999" stroke-width="1"/>
          <rect id="Rectángulo_45" data-name="Rectángulo 45" width="1.754" height="1.754" transform="translate(67.027)" fill="none" stroke="#0b5999" stroke-miterlimit="10" stroke-width="1.078"/>
        </g>
      </g>
    </g>
    <g id="Grupo_911024" data-name="Grupo 911024" transform="translate(6357.543 -19616.158)">
      <g id="Grupo_911007" data-name="Grupo 911007" transform="translate(87.566 555.098)">
        <g id="Grupo_911004" data-name="Grupo 911004" transform="translate(57.271)">
          <path id="Trazado_636447" data-name="Trazado 636447" d="M273.858,617.266c0,.408,0,.8-.023,1.2a61.726,61.726,0,0,1-13.465,37.455c-1.015,1.295-2.1,2.543-3.232,3.757a62.452,62.452,0,0,1-22.3,15.3,59.649,59.649,0,0,1-6.534,2.193A60.905,60.905,0,0,1,216.93,679.2c-1.541.128-3.1.209-4.679.209-.187.012-.374.012-.56.012a62.042,62.042,0,0,1-12.834-1.33,59.851,59.851,0,0,1-6.779-1.832,62.02,62.02,0,0,1-23.278-14c-1.2-1.155-2.369-2.369-3.489-3.617a61.882,61.882,0,0,1-15.775-41.374c0-1,.023-1.995.069-2.987.07-1.365.176-2.719.327-4.048a61.891,61.891,0,0,1,13.908-32.648c.992-1.2,2.042-2.369,3.127-3.489a62.126,62.126,0,0,1,24.549-15.647,64.093,64.093,0,0,1,7.456-2.053,61.653,61.653,0,0,1,8.867-1.167c1.272-.093,2.556-.129,3.85-.129.281,0,.549,0,.829.012a61.677,61.677,0,0,1,15.845,2.252,59.588,59.588,0,0,1,6.885,2.357,62.036,62.036,0,0,1,18.4,11.668c1.143,1.05,2.24,2.135,3.313,3.267a61.877,61.877,0,0,1,16.79,39.111Q273.859,615.5,273.858,617.266Z" transform="translate(-148.626 -555.098)" fill="#0b5999"/>
          <ellipse id="Elipse_7217" data-name="Elipse 7217" cx="43.305" cy="37.606" rx="43.305" ry="37.606" transform="translate(15.864 7.738)" fill="#6da6cc"/>
          <ellipse id="Elipse_7218" data-name="Elipse 7218" cx="21.805" cy="17.654" rx="21.805" ry="17.654" transform="translate(25.041 17.3)" fill="#deeef4"/>
          <path id="Trazado_636448" data-name="Trazado 636448" d="M273.694,613.765c-8.2.992-16.475,1.517-24.736,1.867,0-.408,0-.817-.012-1.225-.058-2.3-.175-4.6-.338-6.885v-.011a132.52,132.52,0,0,0-3.7-23.266c-.129-.49-.269-.969-.408-1.459,1.167-.548,2.311-1.131,3.431-1.762.852-.478,1.7-.979,2.532-1.516a54.461,54.461,0,0,0,6.441-4.854c-1.073-1.132-2.171-2.218-3.313-3.267-.735.641-1.506,1.26-2.287,1.855a46.436,46.436,0,0,1-5.625,3.663c-.828.467-1.668.9-2.52,1.319-.875-2.719-1.844-5.391-2.929-8.039v-.012a95.663,95.663,0,0,0-5.04-10.454,59.586,59.586,0,0,0-6.885-2.357q2.1,3.238,3.886,6.639v.011a95.979,95.979,0,0,1,6.651,16.1,66.646,66.646,0,0,1-24.888,3.979q-.631-13.214-1.354-26.417c-.047-.852-.093-1.715-.14-2.567-.28-.012-.548-.012-.829-.012-1.295,0-2.578.036-3.85.129.047.735.082,1.47.129,2.205q.752,13.214,1.376,26.451a105.7,105.7,0,0,1-12.963-1.692c-3.349-.654-6.674-1.435-9.976-2.3.443-1.33.9-2.661,1.4-3.979a64.442,64.442,0,0,1,9.288-17.315c.6-.759,1.225-1.505,1.879-2.205a64.094,64.094,0,0,0-7.456,2.053c-.536.747-1.038,1.517-1.516,2.3a65.638,65.638,0,0,0-4.306,8.1c-1.435,3.208-2.7,6.5-3.827,9.836-.817-.233-1.634-.454-2.45-.688-2.848-.828-5.683-1.692-8.506-2.567a.111.111,0,0,0-.059-.011c-1.155-.374-2.391-.666-3.488-1.143-.082-.036-.234-.094-.4-.176-1.085,1.12-2.135,2.287-3.127,3.489a16.02,16.02,0,0,0,4.469,1.995c1.283.4,2.59.724,3.746,1.085,2.8.852,5.589,1.68,8.4,2.474a123.927,123.927,0,0,0-4.445,23.756q-.421,4.621-.455,9.265c-1.26-.069-2.52-.151-3.792-.256-6.943-.584-13.85-1.984-19.684-5.565a2.048,2.048,0,0,0-2.147-.105,2.4,2.4,0,0,0-.327,4.048c.047.024.082.058.129.082,7.642,4.7,16.989,5.928,25.868,6.406a114.516,114.516,0,0,0,6.149,33.71,69.933,69.933,0,0,0-16.44,4.165c1.12,1.249,2.287,2.463,3.489,3.617A68.8,68.8,0,0,1,183.3,658.8a107.855,107.855,0,0,0,8.716,17.456,59.847,59.847,0,0,0,6.779,1.832,104.805,104.805,0,0,1-10.746-19.847c5.227-.49,10.465-.688,15.518-.922q4.112-.175,8.238-.256.227,11.166.385,22.344c1.575,0,3.139-.082,4.679-.209q-.141-11.1-.4-22.193,10.728-.089,21.434.525a139.631,139.631,0,0,1-6.348,13.535c-1.084,2.042-2.182,4.073-3.313,6.1a59.649,59.649,0,0,0,6.534-2.193,150.3,150.3,0,0,0,8.051-17.117q3.378.245,6.756.56a40,40,0,0,1,7.491,1.261c1.131-1.214,2.217-2.463,3.232-3.757a29.753,29.753,0,0,0-6.044-1.587c-3.232-.526-6.522-.876-9.813-1.121.607-1.89,1.179-3.8,1.657-5.752A116.4,116.4,0,0,0,249,620.381c7.444-.338,14.866-.84,22.252-1.634l2.52-.28c.023-.4.023-.793.023-1.2Q273.8,615.5,273.694,613.765ZM221.28,588.6a68.526,68.526,0,0,0,18.867-3.967,127.446,127.446,0,0,1,4,26.556c.058,1.33.117,2.672.14,4.014v.012c.012.2.023.385.023.583-.163,0-.3.011-.467.011h-.011q-14.229.49-28.517.653-.368-10.344-.806-20.7c-.105-2.322-.233-4.656-.338-6.977C216.544,588.819,218.913,588.773,221.28,588.6Zm-36.334-4.235c1.213.314,2.415.618,3.64.91a125.206,125.206,0,0,0,20.909,3.338q.648,13.931,1.156,27.875-13.617.106-27.222-.105c-1.073-.023-2.158-.035-3.255-.069A117.611,117.611,0,0,1,184.947,584.362Zm1.435,69.53c-.5-1.411-.98-2.823-1.423-4.247a107.7,107.7,0,0,1-4.585-25.459c-.07-1.074-.116-2.159-.152-3.232,9.72.339,19.475.234,29.194.176.455,0,.922-.012,1.389-.012.129,3.8.268,7.607.385,11.412.036,1,.058,2.018.094,3.022q.245,8.384.431,16.766C203.23,652.445,194.76,652.935,186.381,653.892Zm56.007-11.248a78.436,78.436,0,0,1-2.789,10.267c-2.707-.14-5.413-.233-8.109-.338q-7.526-.3-15.11-.292-.245-10.151-.56-20.291-.158-5.461-.338-10.9c7.958-.058,15.915-.14,23.884-.373h.011c1.668-.036,3.314-.094,4.983-.152A117.329,117.329,0,0,1,242.389,642.644Z" transform="translate(-148.567 -555.098)" fill="#fff"/>
        </g>
        <g id="Grupo_911005" data-name="Grupo 911005" transform="translate(140.361 21.851)">
          <path id="Trazado_636449" data-name="Trazado 636449" d="M299.959,646.65s33.788,34.329,41.326,41.437c8.013,7.555,16.145,8.255,20.115,5.387,2.262-1.634,2.609-2.283,3.814-7.267,1.492-6.169-62.941-43.023-62.941-43.023Z" transform="translate(-240.913 -582.334)" fill="#12263f"/>
          <path id="Trazado_636450" data-name="Trazado 636450" d="M259.375,597.271a24.532,24.532,0,0,0-9.516,13c-1.271,3.915-5.7,17.642,3.765,29.546,8.407,10.573,21.036,13.126,28.334,12.268,12.857-1.512,21.868-13.41,21.868-13.41Z" transform="translate(-237.719 -579.527)" fill="#12263f"/>
          <ellipse id="Elipse_7219" data-name="Elipse 7219" cx="27.807" cy="30.564" rx="27.807" ry="30.564" transform="translate(0 41.805) rotate(-48.738)" fill="#12263f"/>
          <path id="Trazado_636451" data-name="Trazado 636451" d="M298.335,637.076c-8.3,9.46-23.464,9.733-33.865.61s-12.1-24.192-3.8-33.651,23.464-9.733,33.865-.61a26.389,26.389,0,0,1,8.733,15.436l0,.007A21.873,21.873,0,0,1,298.335,637.076Z" transform="translate(-238.189 -579.496)" fill="#d5ecf3"/>
          <path id="Trazado_636452" data-name="Trazado 636452" d="M307.025,635.1s54.091,33.341,57.934,45.088c3.474,10.617-7.536,10.078-18.406,4.169-7-3.806-45.616-42-45.616-42Z" transform="translate(-240.973 -581.84)" fill="#12263f"/>
          <path id="Trazado_636453" data-name="Trazado 636453" d="M298.335,637.55c-8.3,9.46-23.464,9.733-33.865.61s-12.1-24.191-3.8-33.651c0,0-9.25,18.926,11.515,29.7,16.6,8.609,30.861-5.937,31.081-14.862A21.873,21.873,0,0,1,298.335,637.55Z" transform="translate(-238.189 -579.97)" fill="#c3e3ed"/>
          <path id="Trazado_636454" data-name="Trazado 636454" d="M294.1,608.539c-.857,1.733-5.132,1.369-9.546-.815s-7.3-5.358-6.443-7.091,5.132-1.368,9.546.815S294.958,606.806,294.1,608.539Z" transform="translate(-239.568 -579.666)" fill="#f0f8fc"/>
        </g>
        <g id="Grupo_911006" data-name="Grupo 911006" transform="translate(0 64.634)">
          <path id="Trazado_636455" data-name="Trazado 636455" d="M244.819,684.452c0,4.693-.765,8.391-2.826,11.428-3.683,5.435-11.546,8.718-26.64,11.746-29.164,5.865-92.822,6.2-115.2-1.952-14.657-5.339-16.5-27.071-5.609-35.16l.008-.008a20.235,20.235,0,0,1,17.39-3.642s-7.955-28.2,16.961-39.3c13.261-5.913,27.414-3.626,33.67,0,9.04,5.236,12.706,17.8,12.706,17.8s10.907-9.77,26.691-1.578c10.89,5.65,12.715,23.166,12.715,23.166C225.082,662.96,244.819,668.259,244.819,684.452Z" transform="translate(-87.566 -623.942)" fill="#d5ecf3"/>
          <path id="Trazado_636456" data-name="Trazado 636456" d="M241.993,698.913c-3.683,5.435-11.546,8.718-26.64,11.746-29.164,5.865-92.822,6.2-115.2-1.952-14.657-5.339-16.5-27.071-5.609-35.16-.3.295-9.879,9.411,1.043,20.3,9.87,9.838,21.95,2.547,21.95,2.547s1.639,10.642,15.616,13.993c13.922,3.338,37.4,5.46,54.68,1.666a65.106,65.106,0,0,0,21.187-9.066,18.844,18.844,0,0,0,13.618,4.7c8.952-.489,15.52-5.212,19.337-8.758Z" transform="translate(-87.566 -626.975)" fill="#c3e3ed"/>
          <path id="Trazado_636457" data-name="Trazado 636457" d="M132.772,626.895c-15,4.151-16.279,27.047,1.557,28.606,9.834.859,26.114-3.207,29.831-8.594C173.951,632.719,155.859,620.508,132.772,626.895Z" transform="translate(-89.625 -624.016)" fill="#e3f2f6"/>
          <path id="Trazado_636458" data-name="Trazado 636458" d="M181.523,695.219c31.608-6.1,8.83-25.576-9.54-25.435C154.909,669.916,146.384,702,181.523,695.219Z" transform="translate(-91.822 -626.745)" fill="#e3f2f6"/>
          <path id="Trazado_636459" data-name="Trazado 636459" d="M98.37,674.5c-5.97,3.312-.947,11.136,6.335,8.277C111.474,680.117,109.755,668.184,98.37,674.5Z" transform="translate(-88.065 -626.922)" fill="#e3f2f6"/>
          <path id="Trazado_636460" data-name="Trazado 636460" d="M183.936,643.914c8.538-4.471,17.678-2.931,22.76,2.3s-1.988,10.679-11.38,8.375S175.539,648.311,183.936,643.914Z" transform="translate(-93.269 -625.002)" fill="#e3f2f6"/>
        </g>
      </g>
      <g id="Grupo_911009" data-name="Grupo 911009" transform="translate(88.29 594.166)">
        <rect id="Rectángulo_307064" data-name="Rectángulo 307064" width="5.497" height="32.82" transform="translate(16.098 44.599)" fill="#12263f"/>
        <g id="Grupo_911008" data-name="Grupo 911008" transform="translate(0)">
          <path id="Trazado_636461" data-name="Trazado 636461" d="M88.65,610.07c0,2.758,8.792,4.994,19.639,4.994s19.639-2.235,19.639-4.994-8.792-4.994-19.639-4.994S88.65,607.311,88.65,610.07Z" transform="translate(-88.356 -597.222)" fill="#4f6168"/>
          <path id="Trazado_636462" data-name="Trazado 636462" d="M90.64,602.214v53.808c3.609,9.42,30.395,9.42,35.354,0V602.214C125.994,595.3,90.64,594.463,90.64,602.214Z" transform="translate(-88.478 -596.711)" fill="#3689c1"/>
          <path id="Trazado_636463" data-name="Trazado 636463" d="M90.64,651.9v4.483c3.609,9.419,30.395,9.419,35.354,0V602.573c0,1.726-2.528,3.076-5.508,3.613,0,0,.4,34.188-.5,42.246S100.667,664.444,90.64,651.9Z" transform="translate(-88.478 -597.069)" fill="#0b5999"/>
          <path id="Trazado_636464" data-name="Trazado 636464" d="M113.256,607.695s-.376,32.53-.676,37.117-9.619,7.05-11.523-.119c-1.981-7.459-.943-37-.943-37A55.763,55.763,0,0,0,113.256,607.695Z" transform="translate(-89.041 -597.382)" fill="#d5ecf3"/>
          <path id="Trazado_636465" data-name="Trazado 636465" d="M88.435,621.769c.5,1.881,4.821,3.123,10.449,3.74a90.754,90.754,0,0,0,13.8.349,51.513,51.513,0,0,0,11.738-1.676c2.065-.641,3.426-1.442,3.694-2.414l-.194-11.388-.006-.274a1.024,1.024,0,0,1-.069.309c-.309.835-1.613,1.527-3.564,2.076-9.728,2.745-35.65,1.973-35.65-2.385Z" transform="translate(-88.343 -597.53)" fill="#12263f"/>
          <path id="Trazado_636466" data-name="Trazado 636466" d="M88.337,639.242c.5,1.9,4.891,3.146,10.587,3.758a90.726,90.726,0,0,0,13.355.348,51.8,51.8,0,0,0,12.1-1.715c2.031-.629,3.363-1.43,3.632-2.391l-.2-11.657c-.069.932-1.332,1.7-3.374,2.3a53.7,53.7,0,0,1-11.766,1.579,101.224,101.224,0,0,1-13.847-.314c-5.874-.584-10.29-1.774-10.29-3.57Z" transform="translate(-88.337 -598.599)" fill="#12263f"/>
          <path id="Trazado_636467" data-name="Trazado 636467" d="M125.774,625.5a1.8,1.8,0,0,1-.676,1.74c-.8.568-2.42,1.184-5.9,1.784-7.665,1.322-18.9.661-24.987-.553a7.642,7.642,0,0,1-3.269-1.363,1.97,1.97,0,0,1-.527-1.523s-1.847.8-1.866,1.87,2.766,4.118,20.089,3.984,18.876-3.108,19.189-3.984S125.774,625.5,125.774,625.5Z" transform="translate(-88.35 -598.471)" fill="#4f6168"/>
          <path id="Trazado_636468" data-name="Trazado 636468" d="M88.453,657.683c.463,1.762,4.273,2.963,9.369,3.615.154.012.309.035.475.057.875.1,1.789.194,2.722.269.069,0,.132.006.2.011,11.25.864,25.973-.5,26.916-3.953l-.2-11.657c-.074.973-1.47,1.773-3.689,2.4a58.606,58.606,0,0,1-12.532,1.527,100.681,100.681,0,0,1-12.349-.314c-6.08-.567-10.708-1.768-10.708-3.61Z" transform="translate(-88.344 -599.726)" fill="#12263f"/>
          <path id="Trazado_636469" data-name="Trazado 636469" d="M125.889,643.942a1.8,1.8,0,0,1-.676,1.74c-.8.569-2.42,1.185-5.9,1.785-7.665,1.322-18.9.661-24.987-.553a7.642,7.642,0,0,1-3.269-1.363,1.97,1.97,0,0,1-.527-1.523s-1.847.8-1.865,1.87,2.766,4.118,20.089,3.984,18.877-3.108,19.189-3.984S125.889,643.942,125.889,643.942Z" transform="translate(-88.357 -599.599)" fill="#4f6168"/>
          <path id="Trazado_636470" data-name="Trazado 636470" d="M100.071,649.871c1.452,7.029,8.259,8.367,11.171,4.324a10.656,10.656,0,0,0,1.178-4.009A100.668,100.668,0,0,1,100.071,649.871Z" transform="translate(-89.054 -599.961)" fill="#435f69"/>
          <path id="Trazado_636471" data-name="Trazado 636471" d="M113.366,626.093c-.023-6.561-.181-11.847-.181-11.847a107.678,107.678,0,0,1-13.358-.315s-.159,5.51-.262,11.814A90.73,90.73,0,0,0,113.366,626.093Z" transform="translate(-89.024 -597.764)" fill="#435f69"/>
          <path id="Trazado_636472" data-name="Trazado 636472" d="M99.607,643.233a90.71,90.71,0,0,0,13.355.348c.252-3.632.361-7.841.394-11.879a101.224,101.224,0,0,1-13.847-.315C99.475,635.551,99.486,639.824,99.607,643.233Z" transform="translate(-89.019 -598.831)" fill="#435f69"/>
          <path id="Trazado_636473" data-name="Trazado 636473" d="M126.787,629.89c.017,3.941,0,8.071-.057,11.743,2.031-.629,3.363-1.43,3.632-2.391l-.2-11.657C130.093,628.517,128.829,629.284,126.787,629.89Z" transform="translate(-90.684 -598.599)" fill="#112b47"/>
          <path id="Trazado_636474" data-name="Trazado 636474" d="M130.448,621.787l-.194-11.388-.006-.006-.069.04-3.564,2.076-.074.04c.057.172.161,5.216.212,11.651C128.818,623.559,130.179,622.759,130.448,621.787Z" transform="translate(-90.673 -597.547)" fill="#112b47"/>
          <path id="Trazado_636475" data-name="Trazado 636475" d="M102.045,661.635c11.25.864,25.973-.5,26.916-3.953l-.2-11.657c-.074.973-1.47,1.773-3.689,2.4a33.722,33.722,0,0,1-.481,5.536C123.58,657.455,112.929,662.179,102.045,661.635Z" transform="translate(-89.175 -599.726)" fill="#112b47"/>
          <path id="Trazado_636476" data-name="Trazado 636476" d="M125.874,608.027a1.8,1.8,0,0,1-.676,1.74c-.8.568-2.42,1.185-5.9,1.785-7.665,1.322-18.9.661-24.987-.553a7.639,7.639,0,0,1-3.269-1.364,1.969,1.969,0,0,1-.527-1.523s-1.847.8-1.865,1.87,2.766,4.119,20.089,3.985,18.876-3.108,19.189-3.985S125.874,608.027,125.874,608.027Z" transform="translate(-88.356 -597.403)" fill="#4f6168"/>
          <path id="Trazado_636477" data-name="Trazado 636477" d="M93.666,616.23a1.027,1.027,0,1,0,1.027-1.027A1.027,1.027,0,0,0,93.666,616.23Z" transform="translate(-88.663 -597.841)" fill="#fecb2f"/>
          <path id="Trazado_636478" data-name="Trazado 636478" d="M93.132,633.26a1.027,1.027,0,1,0,1.027-1.027A1.027,1.027,0,0,0,93.132,633.26Z" transform="translate(-88.63 -598.883)" fill="#fecb2f"/>
          <circle id="Elipse_7220" data-name="Elipse 7220" cx="1.027" cy="1.027" r="1.027" transform="translate(4.502 50.794)" fill="#fecb2f"/>
          <path id="Trazado_636479" data-name="Trazado 636479" d="M98.122,617.12a1.027,1.027,0,1,0,1.027-1.027A1.027,1.027,0,0,0,98.122,617.12Z" transform="translate(-88.935 -597.896)" fill="#3689c1"/>
          <path id="Trazado_636480" data-name="Trazado 636480" d="M97.588,634.149a1.027,1.027,0,1,0,1.027-1.027A1.027,1.027,0,0,0,97.588,634.149Z" transform="translate(-88.903 -598.937)" fill="#3689c1"/>
          <path id="Trazado_636481" data-name="Trazado 636481" d="M97.588,652.729a1.027,1.027,0,1,0,1.027-1.027A1.027,1.027,0,0,0,97.588,652.729Z" transform="translate(-88.903 -600.073)" fill="#3689c1"/>
        </g>
        <path id="Trazado_636482" data-name="Trazado 636482" d="M121.52,682.254H93.013c-2.534,0-2.34-4.805,0-4.805H121.52C123.58,677.449,123.71,682.254,121.52,682.254Z" transform="translate(-88.511 -601.647)" fill="#12263f"/>
      </g>
    </g>
  </g>
</svg>
